<svg xmlns="http://www.w3.org/2000/svg" xmlns:xlink="http://www.w3.org/1999/xlink" width="1366" zoomAndPan="magnify" viewBox="0 0 1024.5 576" height="768" preserveAspectRatio="xMidYMid meet" version="1.0"><defs><g/></defs><g fill="#ffffff" fill-opacity="1"><g transform="translate(267.744065, 275.712018)"><g><path d="M 111.125 -100.5625 L 111.125 -87.484375 L 62.1875 -87.484375 L 62.1875 0 L 48.4375 0 L 48.4375 -87.484375 L -0.5 -87.484375 L -0.5 -100.5625 Z M 111.125 -100.5625 "/></g></g></g><g fill="#ffffff" fill-opacity="1"><g transform="translate(378.181935, 275.712018)"><g><path d="M 20.78125 0 L 20.78125 -100.5625 L 34.53125 -100.5625 L 34.53125 0 Z M 20.78125 0 "/></g></g></g><g fill="#ffffff" fill-opacity="1"><g transform="translate(433.484668, 275.712018)"><g><path d="M 168.453125 -100.5625 L 168.453125 0 L 154.703125 0 L 154.703125 -83.46875 L 102.40625 -0.328125 L 102.578125 0 L 86.15625 0 L 86.3125 -0.328125 L 34.53125 -83.296875 L 34.53125 0 L 20.78125 0 L 20.78125 -100.5625 L 39.890625 -100.5625 L 94.359375 -13.078125 L 149.34375 -100.5625 Z M 168.453125 -100.5625 "/></g></g></g><g fill="#ffffff" fill-opacity="1"><g transform="translate(622.687027, 275.712018)"><g><path d="M 123.359375 -88.328125 L 34.53125 -88.328125 L 34.53125 -55.140625 L 114.640625 -55.140625 L 114.640625 -42.90625 L 34.53125 -42.90625 L 34.53125 -12.234375 L 123.359375 -12.234375 L 123.359375 0 L 20.78125 0 L 20.78125 -100.5625 L 123.359375 -100.5625 Z M 123.359375 -88.328125 "/></g></g></g><g fill="#ffffff" fill-opacity="1"><g transform="translate(58.752014, 441.600058)"><g><path d="M 132.75 -71.0625 C 132.75 -64.25 131.40625 -58.941406 128.71875 -55.140625 C 126.039062 -51.335938 122.242188 -48.65625 117.328125 -47.09375 C 122.242188 -44.75 125.847656 -41.566406 128.140625 -37.546875 C 130.429688 -33.523438 131.578125 -28.890625 131.578125 -23.640625 L 131.578125 -10.0625 C 131.578125 -8.269531 131.660156 -6.535156 131.828125 -4.859375 C 131.992188 -3.179688 132.1875 -1.5625 132.40625 0 L 116.828125 0 C 116.597656 -1.5625 116.425781 -3.148438 116.3125 -4.765625 C 116.207031 -6.390625 116.15625 -7.929688 116.15625 -9.390625 L 116.15625 -22.796875 C 116.15625 -26.035156 115.648438 -28.992188 114.640625 -31.671875 C 113.640625 -34.359375 111.65625 -36.507812 108.6875 -38.125 C 105.726562 -39.75 101.234375 -40.5625 95.203125 -40.5625 L 35.359375 -40.5625 L 35.359375 0 L 20.78125 0 L 20.78125 -100.5625 L 99.390625 -100.5625 C 110.566406 -100.5625 118.921875 -98.269531 124.453125 -93.6875 C 129.984375 -89.113281 132.75 -82.46875 132.75 -73.75 Z M 118.671875 -71.0625 L 118.671875 -73.75 C 118.671875 -77.65625 117.328125 -80.863281 114.640625 -83.375 C 111.960938 -85.894531 106.878906 -87.15625 99.390625 -87.15625 L 35.359375 -87.15625 L 35.359375 -54.8125 L 99.390625 -54.8125 C 106.316406 -54.8125 111.257812 -56.234375 114.21875 -59.078125 C 117.1875 -61.929688 118.671875 -65.925781 118.671875 -71.0625 Z M 118.671875 -71.0625 "/></g></g></g><g fill="#ffffff" fill-opacity="1"><g transform="translate(205.388049, 441.600058)"><g><path d="M 123.359375 -88.328125 L 34.53125 -88.328125 L 34.53125 -55.140625 L 114.640625 -55.140625 L 114.640625 -42.90625 L 34.53125 -42.90625 L 34.53125 -12.234375 L 123.359375 -12.234375 L 123.359375 0 L 20.78125 0 L 20.78125 -100.5625 L 123.359375 -100.5625 Z M 123.359375 -88.328125 "/></g></g></g><g fill="#ffffff" fill-opacity="1"><g transform="translate(338.952518, 441.600058)"><g><path d="M 123.359375 -88.328125 L 34.53125 -88.328125 L 34.53125 -54.640625 L 111.796875 -54.640625 L 111.796875 -42.40625 L 34.53125 -42.40625 L 34.53125 0 L 20.78125 0 L 20.78125 -100.5625 L 123.359375 -100.5625 Z M 123.359375 -88.328125 "/></g></g></g><g fill="#ffffff" fill-opacity="1"><g transform="translate(465.310862, 441.600058)"><g><path d="M 20.78125 0 L 20.78125 -100.5625 L 34.53125 -100.5625 L 34.53125 0 Z M 20.78125 0 "/></g></g></g><g fill="#ffffff" fill-opacity="1"><g transform="translate(520.613595, 441.600058)"><g><path d="M 118.671875 -100.5625 L 132.40625 -100.5625 L 132.40625 0 L 113.96875 0 L 34.53125 -85.8125 L 34.53125 0 L 20.78125 0 L 20.78125 -100.5625 L 39.046875 -100.5625 L 118.671875 -14.75 Z M 118.671875 -100.5625 "/></g></g></g><g fill="#ffffff" fill-opacity="1"><g transform="translate(673.785414, 441.600058)"><g><path d="M 123.359375 -88.328125 L 34.53125 -88.328125 L 34.53125 -55.140625 L 114.640625 -55.140625 L 114.640625 -42.90625 L 34.53125 -42.90625 L 34.53125 -12.234375 L 123.359375 -12.234375 L 123.359375 0 L 20.78125 0 L 20.78125 -100.5625 L 123.359375 -100.5625 Z M 123.359375 -88.328125 "/></g></g></g><g fill="#ffffff" fill-opacity="1"><g transform="translate(807.349883, 441.600058)"><g><path d="M 78.109375 -100.5625 C 92.179688 -100.5625 103.578125 -99.332031 112.296875 -96.875 C 121.015625 -94.414062 127.71875 -91.007812 132.40625 -86.65625 C 137.101562 -82.300781 140.289062 -77.242188 141.96875 -71.484375 C 143.644531 -65.734375 144.484375 -59.5625 144.484375 -52.96875 L 144.484375 -45.59375 C 144.484375 -39.113281 143.644531 -33.109375 141.96875 -27.578125 C 140.289062 -22.046875 137.101562 -17.210938 132.40625 -13.078125 C 127.71875 -8.941406 121.015625 -5.726562 112.296875 -3.4375 C 103.578125 -1.144531 92.179688 0 78.109375 0 L 20.78125 0 L 20.78125 -100.5625 Z M 130.40625 -45.59375 L 130.40625 -52.96875 C 130.40625 -58.21875 129.734375 -62.9375 128.390625 -67.125 C 127.046875 -71.3125 124.53125 -74.914062 120.84375 -77.9375 C 117.15625 -80.957031 111.875 -83.25 105 -84.8125 C 98.132812 -86.375 89.171875 -87.15625 78.109375 -87.15625 L 34.53125 -87.15625 L 34.53125 -13.40625 L 78.109375 -13.40625 C 89.503906 -13.40625 98.664062 -14.128906 105.59375 -15.578125 C 112.519531 -17.035156 117.769531 -19.160156 121.34375 -21.953125 C 124.925781 -24.742188 127.332031 -28.125 128.5625 -32.09375 C 129.789062 -36.0625 130.40625 -40.5625 130.40625 -45.59375 Z M 130.40625 -45.59375 "/></g></g></g></svg>