<?xml version="1.0" encoding="UTF-8"?>
<svg id="Layer_1" xmlns="http://www.w3.org/2000/svg" xmlns:xlink="http://www.w3.org/1999/xlink" version="1.1" viewBox="0 0 1920 1080">
  <!-- Generator: Adobe Illustrator 29.3.1, SVG Export Plug-In . SVG Version: 2.1.0 Build 151)  -->
  <defs>
    <style>
      .st0 {
        fill: none;
      }

      .st1 {
        fill: url(#linear-gradient);
      }

      .st2 {
        fill: #550047;
      }
    </style>
    <linearGradient id="linear-gradient" x1="212.4" y1="551.1" x2="654.9" y2="551.1" gradientTransform="translate(0 1082) scale(1 -1)" gradientUnits="userSpaceOnUse">
      <stop offset="0" stop-color="#fff"/>
      <stop offset="0" stop-color="#000"/>
    </linearGradient>
  </defs>
  <path class="st2" d="M667.1,528.2h2.8c.6,1.5,1.5,2.3,2.8,2.6h4.6l68.8-7.3c1.8,0,3.4-.6,4.6-.9,1.2-.6,1.8-1.5,1.8-3.2h2.8l2.8,23.8h-2.8c-.6-1.5-1.2-2.6-2.1-3.2-.9-.3-2.8-.6-5.2,0l-24.2,2.6,8.9,77.2c0,1.7.6,2.9,1.5,3.5.9.6,2.1.9,4,.9v2.6c.3,0-28.8,2.9-28.8,2.9v-2.6c1.2-.3,2.1-1.2,2.8-1.7.3-.9.6-2,.3-3.5l-8.9-77.2-24.5,2.6c-2.1,0-3.7.6-4.6,1.2s-1.5,1.7-1.8,4.1h-2.8l-2.8-23.8v-.6h0Z"/>
  <path class="st2" d="M807.2,535.1v2.6c-2.8,0-4,2-3.7,5.2l6.1,69.6c0,3.2,1.8,4.6,4.6,4.4v2.6l-26.3,2v-2.6c2.4,0,4-2,3.7-5.2l-6.1-69.3c-.3-3.2-1.8-4.9-4.9-4.6v-2.6l26.3-2s.3,0,.3,0Z"/>
  <path class="st2" d="M866.5,531.1v2.6c-1.5.6-2.4,1.5-2.4,2.6s.3,2.3.9,3.8,1.2,2.9,2.1,4.1l21.1,41.5h.3l16.2-41.8c1.2-2.9,2.1-4.9,2.4-6.4s.6-2.6.6-3.5-1.2-2-3.1-2.3v-2.6l30.9-1.7v2.6c-2.4,0-3.7,1.7-3.7,5.2l4,69.6c0,3.2,1.8,4.9,4.3,4.6v2.6l-23.9,1.2v-2.6c2.4,0,4-2,3.7-5.2l-3.4-60.3h-.3c-1.2,3.2-2.1,6.7-3.7,10.2-1.2,3.5-2.4,7.3-4,10.7-1.2,3.5-2.8,7.3-4,10.7-1.5,3.5-2.8,6.7-3.7,9.3-.6,1.5-1.5,3.5-2.4,6.4s-2.1,5.5-3.4,8.7c-1.2,2.9-2.4,5.8-3.4,8.4-.9,2.6-1.5,4.4-1.8,5.5h-2.8c-.6-.9-1.5-2.6-2.4-4.9-1.2-2.3-2.4-4.6-3.7-7.3s-2.8-5.5-4.3-8.7c-1.5-2.9-3.1-6.1-4.6-9-3.7-7.3-7-13.9-9.5-19.4-2.4-5.5-4.9-11-7-16.5h-.3l3.4,59.5c0,1.5.6,2.6,1.2,3.5.6.9,1.5,1.5,2.8,1.2v2.6l-21.4,1.2v-2.6c.6,0,1.5-.3,2.1-1.2s.9-2,.6-3.8l-4-69.6c0-3.2-1.5-4.9-4.3-4.6v-2.6l31.2-1.7h-.6v.3Z"/>
  <path class="st2" d="M1029.6,544.1h-2.8c0-1.7-.9-3.2-1.8-3.8-.9-.6-2.1-1.2-3.7-.9l-37.9.9v20.9c.3,0,23.2-.6,23.2-.6,1.5,0,2.8-.3,3.7-.9.9-.6,1.2-1.7,1.5-3.5h2.8v22c.3,0-2.4,0-2.4,0-.3-1.7-.9-2.9-1.8-3.5-.9-.6-2.1-.6-3.7-.6l-22.9.6.6,23.5,38.2-.9c1.2,0,2.1-.3,3.1-.9.9-.6,1.5-2,1.8-4.1h2.8l.6,21.8h-2.8c-.3-1.5-1.2-2.3-2.1-2.9-.9-.3-2.1-.6-3.7-.6l-59,1.2v-2.6c2.4,0,3.7-1.7,3.4-5.2l-1.5-69.6c0-3.2-1.2-4.9-3.7-4.6v-2.6l59.3-1.2c1.5,0,2.8,0,3.7-.6.9-.6,1.5-1.5,1.8-2.9h2.8v22c.3,0,.6-.6.6-.6h0Z"/>
  <path class="st2" d="M1153.1,553.7c11.9.3,17.7-4.1,18-13.1,0-4.4-1.2-7.8-4-10.2-2.8-2.3-7.3-3.8-13.5-3.8l-23.6-.6-.9,27,23.6.6h.3ZM1157.1,510.5c5.2,0,9.8.9,14.4,2.3,4.3,1.5,8,3.2,11,5.8,3.1,2.3,5.5,5.5,7,9,1.5,3.5,2.4,7.5,2.1,12.2,0,7.3-2.4,13.6-6.1,18.6-4,4.9-9.8,8.1-17.7,9.9l14.4,28.1c.9,2.3,1.8,4.1,2.8,5.8s1.2,2.6,1.8,3.5c.9,1.7,1.8,3.2,2.4,3.8.9.6,1.8,1.2,3.1,1.5v2.6l-30.3-.9v-2.6c1.2,0,2.1-.3,2.8-.6.9,0,1.2-.9,1.2-1.7s0-1.5-.6-2c-.3-.9-.6-1.7-1.2-2.9-.9-1.7-6.4-12.5-16.5-32.5l-18.7-.6-.9,34.5c0,1.7,0,2.9.9,3.5.6.6,1.8,1.2,3.7,1.5v2.6l-29.7-.9v-2.6c1.8,0,3.1-.6,3.7-1.2.6-.6.9-2,.9-3.5l2.4-86.1c0-1.7,0-2.9-.9-3.5-.6-.9-1.8-1.2-3.7-1.5v-2.6l51.4,1.5v-.9h.3Z"/>
  <path class="st2" d="M1286.8,551.7h-2.8c0-2-.6-3.5-1.5-4.4s-1.8-1.2-3.4-1.2l-37.9-2-1.2,20.9,22.9,1.2c1.5,0,2.8,0,3.7-.6.9-.6,1.5-1.7,1.8-3.5h2.8l-1.5,22.3h-2.8c0-2-.6-3.2-1.5-3.8s-1.8-.9-3.4-.9l-22.9-1.2-1.5,23.5,38.2,2c1.2,0,2.1,0,3.4-.6.9-.6,1.8-1.7,2.1-3.8h2.8l-1.5,22h-2.8c-.3-1.7-.9-2.9-1.8-3.2-.9-.6-2.1-.6-3.7-.9l-59-3.5v-2.6c2.8,0,4-1.5,4.3-4.9l4.6-69.6c0-3.2-.9-4.9-3.4-4.9v-2.6l59.3,3.5c1.5,0,2.8,0,3.7-.3.9-.3,1.5-1.5,2.1-2.6h2.8l-1.5,22.3v-.9h-.3Z"/>
  <path class="st2" d="M1370.3,556.9h-2.8c-.6-2.6-2.1-4.1-5.2-4.1l-34.3-2.9-1.8,20.9,20.8,1.7c1.5,0,2.8,0,3.7-.6.9-.6,1.5-1.5,1.8-2.6h2.8l-1.8,20.6h-2.8c-.3-1.7-.9-2.9-1.8-3.2-.9-.3-2.1-.6-3.7-.9l-20.2-1.7-2.8,29.3c-.3,3.5.6,5.2,3.1,5.2v2.6l-24.2-2v-2.6c.9,0,1.5-.3,2.1-1.2s.9-2,1.2-3.8l6.4-69.6c0-1.5,0-2.6-.6-3.5s-1.2-1.5-1.8-1.5v-2.6l55.4,4.6c1.5,0,2.8,0,3.7-.3s1.8-1.2,2.1-2.6h2.8l-1.8,20.6h-.3Z"/>
  <path class="st2" d="M1421.1,545v2.6c-3.1,0-4.9,1.2-5.2,4.6l-8,69.3c-.3,3.2.9,4.9,3.7,5.2v2.6c-.3,0-26.6-2.6-26.6-2.6v-2.6c3.1,0,4.9-1.2,5.2-4.6l8-69c.3-3.2-.9-5.2-3.7-5.5v-2.6c.3,0,26.6,2.6,26.6,2.6Z"/>
  <path class="st2" d="M1477,551.7v2.6c-1.2,0-2.1.3-2.8.6-.6.3-.9.9-.9,1.7s0,2,1.2,4.1c.9,1.7,1.8,3.8,2.4,5.5l22.3,46.7h.3l7-49.9c.6-3.2-.6-5.2-3.4-5.5v-2.6c.3,0,24.2,2.9,24.2,2.9v2.6c-3.1-.3-4.6,1.2-5.2,4.4l-9.8,69.3c-.3,3.2.6,4.9,3.4,5.2v2.6c-.3,0-25.7-3.2-25.7-3.2v-2.6c.9,0,1.5-.3,2.1-.6.3-.3.6-.9.6-1.2v-1.7c0-.9-.9-2-1.8-3.5l-26.6-53.4h-.3l-7.3,51.1c-.6,3.5.6,5.2,3.7,5.8v2.6c-.3,0-25.1-3.2-25.1-3.2v-2.6c3.4.3,5.2-1.2,5.5-4.4l9.8-69c.6-3.2-.9-5.2-3.7-5.5v-2.6c.3,0,30,3.8,30,3.8h0Z"/>
  <path class="st2" d="M1615.3,590.5h-2.8c0-2.3-.3-3.8-1.2-4.6-.6-.9-1.8-1.5-3.4-1.7l-37.3-5.8-3.7,20.6,22.6,3.5h3.7c.9-.3,1.5-1.5,2.4-3.2h2.8c0,.3-4,22-4,22h-2.8c0-2.3-.3-3.5-1.2-4.1-.9-.6-1.8-1.2-3.4-1.2l-22.6-3.5-4,23.2,37.6,6.1c1.2,0,2.1,0,3.4-.6,1.2-.6,1.8-1.7,2.4-3.5h2.8c0,.3-3.7,22-3.7,22h-2.8c0-2-.6-3.2-1.5-3.8-.9-.6-2.1-.9-3.4-1.2l-58.4-9.3v-2.6c2.8.3,4.3-.9,4.9-4.4l12.2-68.7c.6-3.2-.3-4.9-2.8-5.5l.6-2.6,58.4,9.3h3.7c.9-.3,1.8-1.2,2.4-2.6h2.8c0,.3-4,22-4,22h0Z"/>
  <path class="st2" d="M1663.9,653.5c8.9,1.7,15.9.9,21.1-2.9s8.9-10.4,11-20.6c2.1-10.2,1.5-18-1.8-23.2s-9.5-8.7-18.4-10.2l-15.9-2.9-11.9,56.9,15.9,2.9ZM1680.7,583.6c12.8,2.3,22,7.8,27.8,16,5.8,8.1,7,19.4,4.3,33.4-2.8,13.9-8.6,23.8-17.1,29.3s-19.6,7.3-32.7,4.6l-38.5-7.3.6-2.6c2.4.6,4-.9,4.6-4.4l14.4-68.5c.6-3.2,0-4.9-2.8-5.5l.6-2.6,39.1,7.5h-.3,0Z"/>
  <g>
    <rect class="st0" x="212.7" y="241.5" width="443.5" height="580.1"/>
    <path class="st1" d="M483.6,818.7h-6.4c-1.8,0-4,0-5.8.6,0,0-.9.3-1.5,0-4,0-7.6,1.2-11.6,1.5-3.4,0-6.7.6-9.8.6h-30.3c-3.4,0-6.7-.3-9.8-.6-5.2-.6-10.1-1.2-15.3-1.7-3.7-.3-7-1.5-10.4-1.2h-1.2c-2.1-1.2-4.6-1.2-7-.6-2.8.6-5.2.3-7.6,0-2.8-.6-5.5-1.5-7.6-3.5-.9-.9-1.8-1.7-2.1-3.2,0-1.2-.9-2-2.4-2.3-4.6-1.5-8.9-3.2-13.2-4.9-3.1-1.2-5.8-1.7-9.2-1.2-1.5,0-3.4,0-4.9-.9-3.1-1.7-5.8-3.5-8.9-5.5s-5.8-4.4-8.6-7c-2.4-2.3-5.2-4.1-7.6-6.4-1.2-1.2-2.4-2.3-4-3.8s-3.4-2.6-4.9-4.1c-2.1-1.7-4-3.5-6.1-5.5-.9-.6-1.5-1.5-2.4-2-1.5-1.2-3.1-2.3-4.3-3.8-4.3-3.8-8.6-7.8-12.5-11.6h-.3c-1.8-2.3-3.4-4.4-5.2-6.4-.6-.6-.9-1.2-1.5-1.7-2.1-2.3-4.6-4.9-6.7-7.3-1.5-1.7-3.1-3.5-4.9-5.2,0,0-.6-.3-.9-.6-.9-.9-2.1-1.5-3.1-2.6-1.8-2-3.4-4.1-5.5-6.1-2.4-2.3-4-5.2-5.8-8.1,0-.6-.3-.9-.9-1.5-1.2-1.7-1.8-3.5-2.4-5.5v-2.9c0-.9.6-1.5.9-2.3.6-1.5,0-2.9-.6-4.4-.6-1.5-1.2-2.9-1.8-4.4,0-.3,0-.6-.3-.9-1.8-2.6-2.4-5.5-3.7-8.4,0-.6-.3-1.2-.6-1.5-1.8-2.6-2.4-5.5-3.7-8.1-.6-1.5-1.2-3.2-1.8-4.6v-1.2c0-1.7-.9-3.8-1.2-5.5-.9-5.5-1.5-11.3-2.4-16.8,0-2.3-.6-4.6-.9-6.7-.6-4.6-1.2-9-1.5-13.3,0-5.2-.6-10.7-.6-16v-17.1c0-1.7,0-3.5.6-5.2,0-1.5.6-2.9.9-4.4,0-2.3.6-4.9,1.2-7.3.9-4.1,1.5-7.8,2.8-11.9.9-3.2,1.8-6.7,2.4-9.9.3-1.2.9-2.3,1.2-3.5.6-2,1.2-3.8,1.8-5.8,1.2-3.2,2.4-6.4,4-9.6.6-.9.9-2,1.2-2.9,1.5-3.5,3.4-6.7,4.9-10.2,1.5-3.8,4-7,5.5-10.7.6-1.5,1.8-2.9,2.8-4.1.6-1.2,1.5-2,2.1-3.2.6-1.2.6-1.5-.6-2.3-.6-.3-1.2-.9-1.8-1.2-1.2-.9-1.5-2.3-.9-3.5.9-1.7,1.8-3.5,3.1-5.2,1.2-1.7,2.1-2,4-.9,1.8,1.2,1.5.9,2.1,1.5,1.2.6,1.8.6,2.4-.6,1.5-2,2.8-4.1,4.3-6.4,0-.3.6-.9.9-1.2,2.4-2.6,4.6-5.2,7-7.8,3.7-3.8,7.3-7.5,11-11,1.2-1.2,2.4-2,3.7-2.9.9-.9,2.1-1.7,2.8-2.9.9-1.5,1.8-2.6,3.4-2.9.6,0,1.2-.9,1.5-1.5,1.5-2,3.4-3.5,5.5-4.9,3.4-2.3,6.7-4.4,9.5-7,0-.3.9-.6,1.5-1.2.9-.6,1.8-1.5,2.8-2,.6-.6,1.2-1.2,1.8-1.5,2.8-.9,4.3-2.9,6.4-4.4,1.2-.9,2.4-1.5,4-2.3,1.8-.9,3.7-1.7,5.2-2.6,2.4-1.2,5.2-2.6,7.6-3.8,2.1-1.2,4-2,6.1-3.2,3.7-1.7,7-3.2,10.7-4.9.9-.6,2.1-.9,3.1-1.2s.6,0,1.2-.3c2.8-1.2,5.5-2.3,8.3-3.5,3.4-1.2,6.7-2.3,10.1-3.5,1.5-.6,3.4-.9,4.9-1.2,1.8,0,3.4-.9,5.2-1.5.6,0,1.2-.3,1.5-.3,2.4,0,4.9-.6,7.3-1.2,1.5-.3,2.8-.9,4.3-1.2,1.2,0,2.1-.6,3.4-.6,2.8,0,5.5-.6,8.3-.6,4,0,8-.3,11.9-.6,1.5,0,2.8,0,3.7-1.2,0,0,0-.3.6-.6,2.1-1.2,2.4-3.2,2.8-5.2,0-.9,0-1.5-1.2-1.7-1.2-.3-2.4-.6-4-.6h-3.7c-1.5,0-2.4-.9-2.4-2.3v-3.8c0-2.3,0-2.6-2.4-3.2s-2.4-.9-3.4-1.5c-1.8-.9-4-1.7-5.8-2.9s-3.7-2.3-5.5-3.8c-.9-.6-1.8-1.5-3.1-2-1.8-.9-3.4-2-4.6-3.5-.9-1.2-1.8-2.3-3.1-3.2-2.1-1.7-3.7-3.8-5.5-5.8-1.8-2.3-3.7-4.4-5.5-6.7s-1.8-2.6-2.8-4.1c0-.6-.6-.9-.9-1.5-1.8-2-2.4-4.6-3.4-7-1.2-2.9-2.1-5.8-3.1-9-.6-1.5-.9-2.9-1.2-4.4-.6-1.7-.9-3.5-1.5-5.2,0-.6,0-1.2-.6-1.5,0-3.2,0-6.4.6-9.6.6-2,.9-4.4,1.2-6.7,0-2.9.6-5.8,1.2-8.7.6-3.2,2.1-5.8,2.8-9,0-.6.6-1.5.9-2,1.5-2.6,3.4-4.9,4.6-7.5,1.8-3.2,4.3-5.5,5.8-8.7.6-1.2,1.8-2.3,2.8-3.2,2.1-1.7,4.3-3.2,6.1-5.2.9-1.2,2.8-1.7,4-2.9,2.4-2.3,5.8-3.8,8.6-5.5,1.2-.9,2.4-2,4-2.9,3.4-2.3,7.3-3.8,11.3-5.2,1.5-.6,3.4-1.2,4.9-1.7,3.4-.6,6.4-1.2,9.8-1.7,1.8,0,3.7-.3,5.5-.9,1.8-.3,3.7,0,5.5,0s3.7.3,5.5.3,4.3.6,6.7.9c.9,0,1.5.6,2.1.6,4,0,7.3,1.2,10.7,2.6.6,0,1.2.3,1.8.6.6,0,1.2,0,1.5.6,1.5.6,3.1,1.5,4.3,2,3.4,1.7,6.4,3.5,9.5,5.5.6,0,.9.6,1.5.9,1.8.6,2.8,1.7,3.4,3.8,0,.6.9,1.2,1.5,1.7.9.9,1.8,1.5,3.1,2,2.8,1.7,4.9,3.8,6.4,6.4,0,.3.6.9.9,1.2,3.1,2.3,4.3,5.5,6.4,8.4,1.5,2,2.8,4.4,3.7,6.7s1.8,4.6,2.8,7c.9,2.9,2.1,6.1,2.8,9,0,1.5,0,2.9.6,4.4v2.6c.9,3.2.9,6.1.9,9.3v8.7c0,2-.9,4.1-1.5,6.1v.9c0,2.3-.9,4.4-1.8,6.7-.9,2.6-2.4,4.9-3.4,7.5s-.6,2-1.2,2.9c-.6,1.2-1.5,2.6-2.4,3.8-1.2,1.7-2.4,3.2-3.7,4.6h0c-1.5,3.5-4.3,5.5-6.7,7.8-1.8,1.7-3.4,3.5-5.2,4.9-2.1,1.7-4.6,3.2-6.7,4.6-2.8,1.7-5.5,3.5-8.3,4.9-2.4,1.5-5.2,2.3-8,3.8-1.2.6-2.1.9-3.4,1.2-1.2.6-1.5,1.7-1.5,2.9v2.6c0,1.7-.9,2.3-2.8,2.3h-3.4c-.9,0-2.1.6-3.1,1.5-1.2.9-2.1,1.5-.9,3.8,1.5,3.2,1.2,3.2,4.9,3.5,2.1,0,4.3.6,6.4.9,2.8.3,5.8.6,8.6,1.2,1.2,0,2.4.6,3.7.9h2.4c1.5,0,3.1,0,4.6.9h.9c2.8,0,5.2,1.5,8,2,4,.9,7.6,2.3,11.3,3.5,3.7,1.2,4,.9,5.8,1.5.6,0,1.2,0,1.8.3,1.5,0,3.1,0,4.3.9h0c2.8,0,5.2.9,8,1.2.6,0,1.2,0,2.1.3.6,0,1.2.3,1.8.6,1.8.3,3.7.6,5.2,1.2,3.4,1.2,6.7,2.6,10.1,3.8,1.5.6,2.8,1.5,4,2.3,4,2.3,8,4.6,11.9,7.3,1.8,1.2,3.4,2.3,4.6,3.8,2.1,1.7,4,3.5,5.8,5.5l2.1,2c2.4,1.7,4.3,4.1,5.8,6.7,1.2,2,2.4,3.8,3.7,5.8.9,1.2,2.1,2,3.1,3.2,1.8,1.7,3.4,3.8,5.5,5.2.9.6,1.8,1.7,2.4,2.3,1.5,1.5,3.1,2.9,4.6,4.1,2.1,2,4.6,3.8,6.7,5.8s2.4,3.5,4,5.2c2.1,2.6,4,5.2,5.8,8.1,1.2,2,3.1,3.5,4.3,5.2,2.4,4.1,5.8,7.8,8.6,11.6.6.9,1.2,2,1.8,3.2.9,1.7,1.5,3.8,3.4,5.2.6.6.9,1.7,1.2,2.3.9,1.7,1.5,3.5,2.4,5.2.9,2,2.1,4.4,3.1,6.4,1.2,2.6,2.8,5.2,4,8.1,0,0,.3.6.3.9.6,3.5,1.8,6.7,3.1,10.2,1.2,3.2,2.4,6.7,3.4,9.9.6,2.3.9,4.6,1.5,7,.6,2.3.9,4.9,1.5,7.3.6,3.2,1.5,6.7,1.8,9.9,0,3.5.9,6.7,1.5,10.2,0,2.3.3,4.4.6,6.7v18.9c0,1.5,0,2.6-.9,3.8-.3.6,0,1.5,0,2.3v4.9c0,1.5,0,.3,0,.6,0,4.1-.9,7.8-1.2,11.9,0,2.9-.9,5.8-1.5,8.7,0,1.5,0,3.2-.6,4.6-.3,1.7-.9,3.5-1.5,5.5-.6,2-1.2,3.8-1.8,5.8-1.2,6.1-3.4,12.2-6.1,18v.6c-.3,3.8-2.4,7-4,10.2-1.5,3.5-3.4,7.3-4.9,10.7-1.8,4.4-4.6,8.7-7.3,12.8-2.8,4.4-5.8,8.4-8.6,12.5-1.5,2.3-3.1,4.6-4.9,7-.3.6-.6.9-.9,1.2-.9,1.2-2.1,2.6-3.1,3.8-1.2,1.5-2.4,3.2-4,4.6-1.5,1.7-2.8,3.2-4.3,4.9-1.8,2-3.7,3.8-5.5,5.5-2.1,1.7-4.3,3.5-6.1,5.2-3.7,2.9-7,6.1-10.7,9-1.2,1.2-2.8,2.3-4,3.2-2.8,2-5.8,4.1-8.6,6.1-4.3,2.9-8.6,6.1-13.2,8.4-1.8.9-3.7,2-5.2,3.2-2.8,2-5.5,3.5-8.6,4.6,0,0-.6,0-.9.6-2.4,2-5.5,2.9-8.6,4.1-2.4,1.2-5.2,2-7.6,3.5-2.8,1.5-5.8,2.6-8.9,3.5-3.1.9-2.1.9-3.1,1.2-3.1.9-5.8,2.6-8.3,4.9-2.4,2.3-5.8,3.2-9.2,3.2h-8l.6,2.3h0ZM325.5,795.5c.6.6.9,1.2,1.5,1.7s1.2.6,2.1,0c-.9-1.5-2.4-1.2-3.7-1.5-1.5-2.3-3.7-3.8-5.5-3.2.9,1.5,2.8,2.6,5.5,3.2h0v-.3ZM536.6,789.1c-.9,0-1.8.6-3.1.6-1.8.3-3.1,1.2-4,2.6-.9,1.2-1.5,1.5-3.1,1.5s-1.8,0-2.1,1.2-.9.9-1.8.9h-1.8c-.9,0-1.8,0-2.4.9,0,.3-.9.6-1.5.9-2.4.3-3.4,2-4.9,3.5,1.2.9,2.1.6,3.1,0,2.1-.9,4.3-.9,6.1-2.3h.6c.9-.6,2.1-.9,3.1-1.7s2.1-1.2,3.4-.9c1.2.3,1.5,0,2.4-.9,1.2-1.2,2.4-2.3,3.7-3.2.9-.9,2.1-1.5,2.4-2.6.6,0,1.5.3,2.1.6.9,0,1.5.3,2.1,0v-1.7c1.5-.6,2.1-1.7,3.4-2.9h.9c.9,0,1.8-.6,2.8-1.2s.9-.6,1.5-.9,1.2-.6,1.8-1.2c1.2-.9,2.8-1.7,4-2.3,0,0,.6-.6.9-.9-.6-.3-1.2-.6-1.8-.3-1.5.6-3.1,1.2-4.3,2-2.1,1.2-3.7,3.2-6.1,3.8,0,0-.6.3-.9.6-1.5,1.7-3.4,3.5-6.1,3.8,0,0-.6.3-.9.6h.6v-.3ZM427.7,354.3c1-.4,1.4-1,1.2-1.7-.9-3.8-1.2-7.8-.9-11.6,0-2.6.6-5.2,1.2-7.8,1.2-3.8,2.1-7.3,4.6-10.7,0-.6,0-1.2.6-1.7h0s-.9,0-1.2.3c-.6.9-1.2,1.5-1.8,2.3-1.2,2-2.4,4.1-4,6.1-.9,1.5-1.5,2.9-1.8,4.6,0,1.5,0,2.9-.6,4.4,0,.9,0,1.7.6,2.6.9.9.9,2.3,1.2,3.5v4.6c0,1.7.6,3.5.9,5.2h-2.8c-1.5,0-1.8-.3-1.8-1.7v-13.3c0-2.3,0-4.6,1.8-6.7,1.2-1.5,1.2-3.2,2.1-4.9v-1.2c-.9.9-1.2,1.7-1.8,2.3-.6.9-.9,1.7-1.2,2.6-2.1,3.8-3.1,7.8-3.1,12.2s0,1.7.9,2.6c0,.6.6,1.5.6,2v4.4c0,1.5,1.2,2,2.4,2.6,1.8.9,2.1.9,3.1-1.2h-.6l.3.3ZM545.4,444.5c0,.9,0,1.5.6,2,.6,1.7,0,2.3-1.5,2.6-.6,0-1.5.3-2.1.6v.9c0,3.5,0,4.6-3.7,5.8h-1.8c-1.2-.6-2.1-1.2-3.4-1.5-1.5-.6-2.4-2.9-1.8-4.4.6-1.5,1.5-2,3.1-2h.9c.9,0,1.2-.6,1.2-1.5v-1.5c0-.9,0-1.5,1.2-1.5s.9,0,1.5.3c.6,0,1.2.6,1.8.6s.9,0,1.2-.6c.6-1.5,0-3.5-1.5-4.1-2.1-.9-4.3-2-6.1-2.9-3.1-1.5-6.1-3.2-9.2-4.9-3.1-1.5-6.1-2.9-9.2-4.1-.9-.6-2.1-.9-3.4-1.2-1.2-.6-2.8-.9-4.3-1.2-2.4-.9-5.2-1.7-7.6-2.6-2.8-.9-5.8-1.7-8.6-2.6-1.8-.6-3.7-1.2-5.5-1.5-2.4-.6-4.9-1.2-7.6-1.7h-1.5c-3.1-.6-6.1-.9-8.9-1.5h-.6c-1.2,0-2.4-.6-4-.6s-3.4,0-4.9-.9h-1.2c-3.1,0-6.1-.3-9.2-.9-3.4-.6-7.3,0-10.7,0s-1.5.3-1.5,1.5-.6,2.3-1.8,2.6c0,0,0,.3-.9.9,1.2.9,2.8,1.2,3.4,2.3,0,1.2.9,2.3.9,3.5s-.9,2.3-1.8,3.5c0,0,.9.3,1.2.3,3.4.3,6.7.9,10.1.9s8.3,0,12.2.9c2.8.6,5.5,0,8.3,1.2h4c4.6,1.2,9.5,2.6,14.1,3.8,1.2.3,2.1.9,3.4.9,3.1.3,5.5,1.5,8.3,2.6,0,0,.9.3,1.2.6,1.8.6,4,1.2,5.8,2,1.8.6,3.7,1.5,5.5,2.3,1.5.6,3.1,1.2,4.6,2,3.4,1.7,6.7,3.2,10.4,4.6,1.8.6,3.7,1.7,5.5,2.6.9.6,1.2,1.2.6,2-.6.9-1.2.6-2.1.3-1.2-.3-2.4-.9-3.4-1.2h0c-.6,1.2-1.2,1.7-2.1,1.2s-.6-1.2,0-1.7c0-.9,0-1.5-.9-1.7-.6,0-1.5-.3-2.1-.6-.9-.3-1.5,0-2.1.6,0,.9,0,1.5.6,2,0,0,.9,0,.9.6s.6.9.6,1.5-.9.6-1.2.9h-1.5c-4.6-1.7-8.9-3.8-13.5-5.5-1.2-.6-2.4-.9-3.7-1.2s-2.8-.6-4.3-1.2c-1.8-.9-4-1.7-6.1-2.3s-4-1.2-6.1-1.7-4.3-1.2-6.4-1.7-4.3-1.5-6.7-1.7c-1.2,0-2.4-.6-3.7-.9-1.2-.3-2.4-.6-4-.9h-3.1c-3.7-.6-7.3-2-11.3-2s-1.2-.3-1.5-1.2c0-.9-.6-2-.9-2.9,0-.3-.6-.9-.9-.9-1.2-.6-2.8-.3-4,0,0,0-.9.9-.9,1.5s.6.9,1.2.9h.6s.9.6.9.9,0,.9-.6,1.2c-1.2.6-2.4.6-3.4.3h-1.8c-2.8,0-5.2,0-8,.3h-1.2s-.9-.3-.9-.6v-1.2c.6-.3,1.5-.6,2.4-.9h4.6c.6,0,1.2,0,1.2-.9,0-1.5-.9-2.9-2.4-2.9h-3.7c-3.1,0-6.1.3-9.2.6-1.2,0-1.5.6-1.5,1.7s0,1.5,1.5,1.7h2.4s.6.6.9.9c0,0,0,.6-.6.9-1.5.3-3.1.9-4.9,1.2s-4,.9-5.8,1.2c-1.2,0-2.4.3-3.7.6-2.8,0-5.8.3-8.6,1.2-2.1.6-4.6,1.2-7,0h0c-.9.9-.6,2,0,3.2.6,1.7,1.2,3.2,1.5,4.9,0,1.5.9,2.6,1.2,4.1,0,1.5.6,2.6,1.2,3.8s.6,1.5.6,2c0,2,1.2,3.8,1.8,5.8,0,.9.6,1.5.9,2.3l2.4,8.7c0,.6.6,1.5.6,2,.6,2.9,1.2,5.5,2.4,8.4.6,1.7.9,3.8,1.2,5.8,1.2,4.4,2.8,9,3.7,13.3.9,4.4,1.2,6.1,1.8,9v1.5c1.2,4.1,2.8,8.4,4,12.5,0,1.2.6,2,.9,3.2.9,2.6,2.1,5.2,3.1,7.8.9,2.9,1.5,5.8,2.4,8.7.9,3.8,2.1,7.8,3.1,11.6,0,.9.6,1.7.9,2.6.6,2.9,1.5,6.1,2.1,9,.6,2.3.9,4.6,1.5,7,0,2,.6,3.8,1.2,5.8.9,2.9,1.8,5.8,2.1,9,0,1.5,0,2.6.6,4.1,0,1.7,1.2,2.6,3.1,2.9.6,0,1.2,0,1.8.3,1.8.6,3.4,1.5,5.2,2.3.9.6,1.8.6,3.1,0s2.4-1.2,3.7-2c2.1-1.7,4.6-3.2,7.3-4.4,1.2-.6,2.1-1.2,3.1-1.7,1.2-.9,2.4-2,4-2.9,2.4-1.5,4.6-2.9,7-4.4l.6-.3,8.3-3.8s.6,0,.9-.3c2.8-1.2,5.5-2.3,8.3-3.8,1.5-.9,3.4-1.7,4.9-2.6,0,0,.9-.3,1.2-.6,4-2,7.6-3.8,11.6-5.8,1.8-.9,2.1-1.2,1.5-3.2s0-4.1,1.2-5.5,2.8-2.6,4.3-4.1c2.4-2.3,5.8-3.8,9.5-3.5,2.4,0,4.6-.6,6.7-1.5,2.4-.9,4.9-2,7.3-2.6,4.3-1.2,7.6-4.1,11.6-5.8h0c1.2-.9,2.4-1.5,3.7-2.3,1.5-.9,3.1-1.7,4.6-2.6.6-.3,1.2-.9,1.8-1.2,1.8-.9,3.4-.3,4.3,1.5,0,.3,0,.6.6,1.2,1.5-.6,2.8-1.2,4.3-1.7,2.8-1.5,5.2-3.2,8-4.6,3.7-2,7-3.8,10.7-5.8,1.8-.9,2.1-1.7,1.2-3.8,0-.6-.3-1.2-.3-1.7,0-1.2,1.2-1.7,2.4-.9.6.3.9.9,1.5,1.2,1.2.9,1.8,2,2.1,3.5,0,.9.3,1.5.6,2.3.6,1.7,1.5,3.2,2.4,4.9.6,1.7,0,2.9-1.5,3.2-1.8,0-3.4,1.2-4.9,2-7,3.8-13.8,7.8-20.8,11.6-.9.6-1.2.9-.9,2,0,.6.6,1.5.9,2,.6,1.2,0,2.3-.6,2.9-.9.6-2.1,0-3.1-.9v-.6c-1.5-1.7-2.4-3.5-3.4-5.2s-2.1-3.5-3.1-5.2c-.9-1.5-1.8-1.5-3.1-.6-.6.3-.9.9-1.5,1.2-2.1.6-3.4,2-5.2,3.5-.6.3-.9.9-1.5,1.2-2.1,1.2-3.7,2.6-5.2,4.1-.6.6-1.5,1.2-2.1,1.7-.6.3-.9.6-1.5,1.2-1.5,1.5-2.8,2.6-4.3,4.1-3.1,3.2-6.4,6.7-9.5,9.9s-7.3,4.4-11.6,2.6c-.6-.3-1.2-.6-2.1-.9-1.2-.6-2.4-.6-3.7,0-1.5.9-2.8,1.7-4.3,2.6-1.5,1.2-3.1,2.3-4.9,3.2-3.7,2.3-7.3,4.4-11,6.4-2.4,1.5-4.6,3.2-7,4.4-2.4,1.5-5.2,2.6-7.3,4.4-2.4,2-5.5,3.5-8.3,4.9-3.4,1.7-6.7,3.2-10.1,4.9-3.4,1.7-4.6,2.3-6.7,3.5-.6.3-1.5.9-.9,1.7.6,1.5,0,2.9,0,4.4s.6,2.6,1.8,3.2c2.8.9,5.5,1.7,8,2.6,1.2.3,2.4.6,3.7,1.2,4,1.2,8,2.6,11.9,3.8,1.8.6,3.7.6,5.2,1.5,2.1.9,4.3,1.5,6.4,2.3,2.8.9,5.2,1.5,8,2.3.9.3,2.1.6,3.1.9,2.1.6,4,1.2,6.1,1.7,2.4.9,5.2,1.7,7.6,2.6,3.1.9,5.8,1.7,8.9,2.9,2.1.9,4.6,1.5,6.7,2,1.2.3,2.8.9,4,.9,2.1,0,4,.9,5.5,1.5,3.7,1.5,7.3,2.6,11.6,2.6h2.1c4.9,1.2,9.2,3.2,13.2,5.8,1.5,1.2,3.4,2,5.2,2.6,2.1.6,4.3,1.2,6.4,2,.9.3,2.1.9,3.1,1.5.6.3.9,1.2.6,2,0,.9-.9,1.2-1.8,1.2h-1.8c-2.1-.6-4.3-1.2-6.4-1.7-1.2-.3-2.1-.9-3.4-.9-5.5-.6-11.3-1.5-16.5-3.2-2.1-.6-4-1.5-5.2-3.2-1.2-1.7-3.1-2.3-4.9-2.9-3.7-.9-7.6-1.7-11-3.2-.9-.3-1.8-.9-2.8-1.2-2.4-.9-4.9-1.2-7.3-2.6,0,0-.6,0-.9-.3-2.8-.9-5.8-1.7-8.6-2.6-2.1-.9-4.6-1.7-6.7-2.3-3.1-1.2-6.1-2-9.5-2.9-1.5-.6-2.8-.9-4.3-1.5-2.4-.9-5.2-1.5-7.6-2.3-3.7-1.2-7.3-2.6-11-3.8-3.7-1.2-7.6-2.6-11.3-3.8-2.4-.6-4.6-1.2-7-1.7-.9,0-1.5,0-1.2,1.2,0,.6,0,1.5.6,2,.6.6.9.9,1.5,1.5,3.1,2.3,6.4,4.6,9.5,7,4,2.9,7.3,6.4,11.6,9,0,0,.6.6.9.9,3.7,3.2,7.3,6.1,11,9.3,1.5,1.2,3.4,2.3,4.9,4.1.6.9,1.5,1.5,2.4,2.3,2.1,1.7,4.3,3.5,6.4,5.5,3.1,2.6,5.8,5.2,8.6,7.8,0,0,.6.3.9.6,1.5,1.2,3.1,2.3,4.6,3.5,2.4,2,5.2,4.1,7.6,6.4,3.4,2.9,6.4,5.8,9.8,8.7,4,3.2,7.6,6.4,11.6,9.6.6.3.9.9,1.5,1.2,2.1,1.7,4,3.8,6.1,5.5,4,3.2,7.6,6.4,11.6,9.6,1.5,1.2,3.1,2.6,4.6,3.8,3.7,3.5,7,7,11,10.2,1.2.9,1.5,2.6.9,4.1,0,.3,0,.6-.6.9,0,.9,0,1.5.9,1.2,0,0,.9,0,1.2-.3,1.2-1.2,1.8-2.6,2.8-3.8-.4,0-.7,0-.9-.3-1.8-.6-2.1-1.2-1.5-2.9,0-1.2.9-2,1.5-2.9,1.2-1.7,2.8-3.5,4-5.2,1.2-1.5.9-1.7-.9-2.6-1.5-.6-2.1-2-.9-3.5,0-.3.6-.6.9-.9.9-.9.9-2,0-2.6-.6-.3-1.2-.6-1.8-.9-.9-.3-2.1-.6-3.1-1.2-1.8-.9-3.4-2-5.2-3.2-2.8-1.7-5.8-3.8-8.6-5.8-.6-.3-1.2-.9-1.8-1.2-.9-.6-1.8-.9-2.4-1.5-1.8-1.2-2.8-1.2-4,.6-.6.9-1.5,1.2-2.4.9-1.2-.6-1.5-2-.6-2.9,1.2-1.7,2.4-3.5,3.7-5.2,2.1-3.2,4.3-6.7,5.8-10.2.9-2,2.1-4.4,3.4-6.4.6-1.2,1.5-1.5,2.4-1.2s1.2,1.5.9,2.6c0,.6-.6.9-.6,1.5v1.5c1.5.9,2.8,2,4.6,2.6,4.6,2,8.9,4.6,12.8,7.3,2.1,1.5,4,2.6,6.1,4.1,2.1,1.5.9.6,1.5.9,1.2.3,2.1,0,2.8-.9,0,0,0-.6.3-.9.6-.3.9-.9,1.5-.9.9,0,1.2.6,1.2,1.5v1.2c-.6,1.5-1.2,2.9-1.8,4.1-.3.9-.9,1.5-1.5,2-2.1,3.8-4.3,7.5-7,11-.6.9-1.2,1.7-.6,3.2.6-.6.9-.9,1.2-1.5.6-.9,1.2-1.7,1.5-2.6,1.8-2.6,3.4-5.2,5.2-7.8.3-.6.9-1.2,2.1-1.2v2.6c0,.6.3,1.2.9,1.5s1.5,0,2.1-.3c0-.3.6-.6.9-1.2,1.2-3.5,3.7-6.4,5.2-9.6,0-.6.3-1.2.6-1.5v-.9c-.9-.9-3.1-.9-3.7.6-.6,1.2-.9,2-1.5,3.2-.9,1.7-1.8,3.2-4,4.4-.9-1.2-.6-2,0-2.9.9-2,2.1-3.8,3.1-5.8.9-2.3,2.1-4.6,3.1-6.7.9-2.6,1.8-5.2,2.8-7.5,1.2-2.9,2.1-5.8,3.4-8.7.9-2.6,1.8-5.5,2.8-8.1,0-.6.6-1.2.6-2,.9-3.5,1.8-7.3,2.8-10.7,1.2-4.6,2.4-9,3.1-13.9v-3.2c0-2.6.6-5.2.6-7.8,0-6.4,0-13.1-.6-19.4h0c0-2.3-.6-4.6-.9-6.7-.6-3.8-1.2-7.3-1.8-10.7-.3-2.3-.6-4.9-1.2-7.3-.6-3.2-1.8-6.4-2.8-9.6-1.2-3.8-2.4-7.8-3.7-11.6-.9-2.3-1.5-4.4-2.4-6.7-1.5-3.5-3.1-7-4.6-10.4-.9-2-1.5-4.1-3.1-6.1-.6-.9-.9-1.7-.9-2.9s.6-2.6,1.5-3.8c1.2-1.5,1.2-2.9,0-4.4-1.2-2-2.4-4.1-3.7-5.8-.9-1.5-2.1-2.9-3.1-4.4,0-.3-.6-.6-.9-.9-2.1,2.3-2.4,3.5-.6,5.2,2.4,2.6,3.4,6.1,5.5,8.7.9.9.6,2,0,2.3-.6,0-1.5,0-2.1-1.2s-1.2-2-1.8-3.2c-.9-1.2-1.8-2-2.8-2.9-2.8-3.8-5.5-7.5-8.6-11-2.1-2.6-4.6-5.5-7.3-7.5-2.8-2-.9-.9-1.2-1.2-2.4-3.2-4.9-6.1-8-9-3.1-2.9-5.8-6.1-9.2-8.7-4.9-3.8-9.2-8.4-15-11.6,0,0-.9-.6-1.2-.9-.6-.3-1.2-.9-1.8-1.2-.6-.6-1.5-.9-1.8-1.5-.6-.9,0-2,1.2-2h2.1c.6-.6,1.2-1.2,1.8-2-.6-.3-1.2-.6-1.8-.9s-1.5-.9-2.1-1.2v-1.2c0-.3.6-.6,1.2-.6h.9c1.8,0,2.8,1.5,4.3,2.3,1.5,1.2,3.4,2.3,5.2,2.9,1.8.6,2.8,1.5,3.7,2.6,1.5,2,3.1,4.1,5.8,4.6.6,0,.9.6,1.2.9,1.5,1.2,1.5,2,0,3.2-.9.9-1.8,1.5-2.8,2.3,0,.3.6.9.9.9.9.9,1.8,1.5,2.8,2,0,.3.9.6,1.2.9,1.5.6,2.1,0,2.1-1.5v-.9c0-1.2,0-1.7,1.2-2,1.2,0,2.1,0,2.4,1.2.6,1.7,2.1,3.2,3.7,4.1,2.4,1.5,4.3,3.2,6.1,5.2,3.1,3.2,6.1,6.7,9.2,10.2.3.3.6.9,1.2,1.2,3.1,3.5,6.4,7,9.2,10.4,2.1,2.9,4,5.8,5.8,9,0,0,0,.6.3.9.6-.3.9-.3,1.2-.6,2.4-2,5.5-2.9,8.3-4.1h1.2c.9,0,1.5.3,1.8,1.2s0,1.5-.9,1.7c-.6.6-1.5.9-2.1,1.5-2.1,1.2-4.3,2-6.4,3.2-.3,0-.9.6-.9.9,0,1.2.3,2.6,1.5,3.8,0-.6.6-.9.6-1.2.3-1.5,1.2-2.3,2.8-2.9s2.8-1.5,4.3-2c2.4-1.2,6.1,0,7,2.6.6,1.2.6,2.6,0,3.8-2.1,2.9-5.5,5.2-10.1,4.1h-1.5c0,.9.3,1.5.6,1.7.9,1.7,2.1,3.2,2.8,4.6,1.5,3.5,3.7,7,4.9,10.7.9,2.9,2.1,5.5,3.1,8.1.9,2.9,1.8,5.8,2.8,8.7,1.5,4.6,2.4,9.3,3.4,14.2.6,2.6.6,5.2,1.2,7.8.6,2.3.6,4.6.6,7s.3,3.2.6,4.9v1.5c-.6,2.9,0,5.8,0,8.7s.6,1.5,1.5,1.5h1.5c3.4,0,6.7,0,10.1,1.2.9,0,1.5.6,1.5,1.5,0,1.5-.9,2-2.4,1.7-1.8,0-3.7,0-5.2-.3-1.5,0-3.1,0-4.6-.3-.6,0-.9-.6-1.5-.9,0,0-.6-.3-.9-.6-.6,1.7-.6,3.5,0,4.6.3-.3.6-.9.9-1.2.9-.9,2.1-.9,3.4,0,.9.6.9,1.2,0,2.3l-.9,1.7c1,0,1.6-.3,1.8-.9.3-1.5,1.2-1.7,2.8-1.7s3.1,0,4.6-.3c1.5,0,2.1.3,1.5,1.7,0,.9-.3,1.7-.6,2.9v1.5c0,.6-.3,1.2-1.2,1.5s-1.2,0-1.8-.9c0-.3-.3-.9-.6-1.2,0-.3-.3-.6-.9-1.2-.3.6-.6.9-.9,1.5-.6,1.2-1.8,1.7-3.1,1.7s-2.8,0-4-.9c-.3,0-.9-.3-1.5-.9v5.2c-.6,5.5-1.5,11-2.4,16.5,0,1.7-.6,3.8-1.2,5.5-.9,3.5-1.8,7-3.1,10.2-.9,3.2-1.8,6.1-3.1,9.3-1.2,3.5-2.8,6.7-4,10.2-.6,1.5-1.2,3.2-1.8,4.6-1.5,2.9-3.1,5.8-4.6,9-1.2,2.9-2.8,5.8-4.3,8.4v.6h.3c2.4.6,3.1,2,2.8,4.1,0,.6,0,.9.3,1.7.3-.6.6-.9.6-.9.9-1.2,1.8-1.5,3.1-.9,1.8.9,2.8,3.2,1.8,4.6-1.2,2-3.4,2.9-5.5,1.7-.9-.6-2.1-1.2-3.1-2-.6-.6-1.2-.6-1.8-.6s-1.2,0-1.8-.6c-1.2-.6-1.5-.6-2.1.9h.9c2.8.6,5.2,1.7,7.3,3.8.9.9,1.5,2,1.2,3.2-.6,2.3-2.8,3.8-5.2,3.5-.6,0-1.2,0-2.1-.6-2.1-.6-4-1.7-4.9-3.8,0-.6-.6-.9-.9-1.5-1.2.6-1.5,1.5-1.8,2-1.2,1.5-2.1,2.9-3.4,4.4-3.4,3.5-5.8,7.3-9.5,10.2h0c-2.1,2.6-4.3,4.9-6.7,7-.6.6-1.2,1.2-2.1,2-1.8,1.7-3.7,3.5-5.5,5.2-2.4,2-4.9,3.8-7,5.5,0,.3-.9.6-1.2.9-1.5,1.2-2.8,2.6-4.3,3.8-3.4,2.3-6.1,5.2-9.8,7.3-2.1,1.2-4.3,2.6-6.4,3.8-.9.6-1.8,1.2-2.8,1.7-.9.6-1.2,1.2-.6,2,.9,1.7.6,3.8.6,5.5v1.7c2.8,0,3.4.3,4,2.6v1.7c2.4-1.2,4.3-1.7,5.8-3.2,2.4-2.3,5.5-3.5,8.3-5.5,2.4-1.7,4.9-3.2,7-5.2.6-.3.9-.9,1.5-1.2,1.5-1.2,3.1-2,4.6-3.2,2.1-1.7,4.6-3.5,6.7-5.2,1.8-1.5,3.7-2.9,5.2-4.6,1.2-1.5,2.8-2.6,4.3-4.1,1.8-1.5,3.7-2.9,5.2-4.4.6-.6,1.5-1.5,2.1-2,2.8-3.2,5.2-6.4,8.3-9,0,0,.6-.6.6-.9.6-1.2,1.2-2,2.1-3.2s1.8-2.3,2.4-3.5c1.5-2.9,3.7-4.9,5.5-7.5.6-.9,1.2-2,2.1-2.6,1.5-1.5,3.1-2.9,3.7-4.9,0-.6.6-1.2.9-2,1.2-2,2.4-3.8,3.4-5.8,2.4-4.4,4.6-8.7,7-13.1.3-.6.9-1.5,1.2-2,1.2-2.9,2.4-5.5,3.4-8.4,1.5-4.1,3.7-8.1,4.3-12.5v-.6c.9-3.2,2.1-6.7,2.8-9.9.6-2.9,1.2-5.8,1.8-8.4.6-2.6.9-4.9,1.5-7.5.3-2,.9-4.1,1.2-6.1,0-1.2.6-2.3.6-3.5,0-2.3.6-4.6.6-7s.6-6.4.6-9.9v-10.2c0-2-.6-4.4-.9-6.4-.3-3.8-.6-7.5-.9-11.3v-.9c-.6-2.3-.9-4.6-.9-7v-1.7c-.6-2.6-1.2-5.2-1.8-7.5-.6-2.3-.9-4.9-1.5-7.3-.9-2.9-1.8-5.8-2.8-8.7-1.2-3.5-2.1-6.7-3.4-10.2-.9-2.3-1.8-4.9-3.1-7.3-1.2-2.9-2.1-5.8-3.4-8.7-.6-1.5-1.2-2.6-2.1-3.8-1.2-2.3-2.4-4.9-3.7-7-1.5-2.3-3.1-4.6-4.6-7-3.4-5.2-7-10.4-10.7-15.4-2.1-2.9-4.6-5.8-7-8.7-.6-.9-.9-1.7-1.5-2.3-3.1-3.2-6.4-6.4-9.5-9.6-3.7-3.5-7.3-7-11-10.4-1.2-1.2-2.8-2.3-4-3.2-.9-.9-2.1-1.5-3.1-2.3-2.1-1.7-4.3-3.8-6.7-5.2-4.3-2.6-8.3-5.5-12.2-8.4-1.5-1.2-2.8-1.7-4.6-2.3l-1.2-.6h-.3ZM365,734h.6c0-.6,0-1.2-.6-1.7-.6-1.2-1.2-2.6-1.5-3.8-.6-2-1.2-4.1-1.8-6.4-.6-2-.9-4.4-1.5-6.4,0-1.7,0-3.5-.6-4.9,0-2.3-.9-4.9,0-7.3.6-2.9,1.2-5.8,1.2-8.7s0-2.6.9-3.8c1.5-3.8,2.8-7.8,4.9-11.3,1.8-2.9,3.1-6.1,4.6-9,1.8-3.2,4-6.1,7-8.7,2.8-2.6,5.5-4.9,8.6-7.5,3.4-3.2,7.6-5.2,11.6-7.3,2.8-1.5,5.5-2.3,8.3-3.2,2.4-.9,4.9-1.5,7.6-2.3,3.4-.9,6.7-1.7,10.1-1.7h14.7c.9,0,1.5,0,2.1.3,3.7.9,7,1.7,10.7,2.6,1.8.6,4,1.2,5.8,1.7,2.4,1.2,5.2,2.3,7.6,3.5,4,2,8,4.1,11.6,7,3.1,2.3,6.1,4.9,8.9,7.8,3.4,3.5,6.4,7.3,8.6,11.6.6,1.5,1.5,2.6,2.1,4.1,1.2,2.9,2.4,6.1,3.4,9l1.8,7c.9,4.1,2.1,8.4,1.8,12.8v4.1c0,3.5-.6,6.7-1.2,10.2-.6,3.2-1.5,6.1-2.4,9-.6,2.3-1.5,4.6-2.4,7-1.8,4.6-4.9,8.4-7.6,12.5-.6.9-1.5,1.7-2.4,2.6-.6.6-1.2.9-1.5,1.5-3.1,3.8-7,6.4-10.4,9.6,0,.3-.6.6-1.2.9-3.1,1.7-6.1,3.8-9.5,5.5-3.4,1.7-6.4,4.1-10.4,4.6h-.6c-3.1,1.2-6.4,1.5-9.8,1.2-1.5,0-2.1,0-1.8,1.7,0,1.5.6,2.6.9,4.1s.6,3.5,3.4,3.5.9.6.9,1.2,0,1.2-.9,1.2h-3.1c-.9,0-1.8,0-2.4.3-.9.6-1.8.6-2.8.3-1.8,0-4,0-5.8-.3h-3.7c-1.8,0-3.7-.3-5.5-.3h-2.8c-.6,0-1.2-.3-1.8-.9,0-.3-.6-1.2-.6-1.5s.9-.6,1.5-.9h1.2c1.5,0,1.8,0,2.1-1.5,0-2.3,0-4.4.6-6.7h0c0-.3-.6-.3-.9-.3-1.5.3-2.8.3-4.3-.3h-1.2c-5.8-.6-11-3.5-16.2-5.5-1.5-1.5-3.4-2.9-5.8-2.9-2.4-1.5-4.9-2.9-7-4.6-3.1-2.6-6.1-5.5-9.2-8.1-3.1-3.2-5.5-6.7-7.6-10.4-.6-1.2-.9-2.3-1.2-3.5,0-1.2-1.5-2.3-2.4-3.2-.9,2-1.5,4.1-2.4,6.1-.6,1.5-.9,3.2-1.8,4.9-.9,2.6-2.1,5.2-3.1,7.8,0,.6,0,1.5-.6,2-1.2,2.6-1.8,5.2-2.1,7.8,0,1.2,0,2,.9,2.6,0,.3.9,1.2.9,1.5,0,.6-.9.9-1.5,1.2h-1.5s-.6,0-1.2.6c.6.3,1.2.6,1.5.6,1.2.6,2.4.9,3.7,1.5,3.1,1.2,5.8,2.3,8.9,3.5,2.4,1.2,5.2,2,7.6,2.9,1.2.6,1.5,1.2.9,2.3s-.9,2.6-.6,4.1c0,.9,0,1.5-1.2,1.5s-2.4,0-3.1-1.2c-.6-.9,0-1.7,0-2.6.9-1.7.6-2.6-1.2-3.2-1.2-.6-2.4-1.2-4-1.5-1.5-.6-2.1-.3-2.4,1.2v1.2s.9,0,1.2.3c1.2.6,2.4.9,3.4,1.5,0,0,.6.9.6,1.5,0,0-.6.6-1.2.6s-1.2,0-2.1-.3c-1.8-.6-3.4-1.2-5.2-1.7-1.2-.3-2.4-.6-3.7-1.2-2.4-.9-5.2-2-7.6-3.2-2.1-.9-4.3-1.7-5.8-3.5,0-.3-.9-.6-1.5-.9h0c0,.9,0,1.5.6,2,.6,1.7,0,3.2-1.5,4.1-1.5.9-2.4.6-2.8-1.2v-1.2c0-.3-.6-.9-.9-.9s-.9.3-.9.9v2c0,1.2,0,2,.9,2.9.9.6.6,1.7,0,2.3-.6.3-1.5.9-2.1.6-3.4,0-4.9-2.9-3.4-5.8,0-.3,0-.6.6-.9v-3.5c-.9-.9-1.8-1.7-2.8-2.3,0,0-.9-.3-1.2-.6h-.9v.9c0,.3.9.9,1.2,1.2,1.5,1.2,1.5,2.6,0,3.5-.9.6-2.1,1.2-3.4,1.7,0,0-.9.3-1.5.6.6,1.2,1.5,1.5,2.4,1.7,1.5.9,3.1,1.7,4.6,2.6.6.3,1.2.9,1.8,1.2,3.7,1.7,7.6,3.5,11.3,4.9,4.9,2,10.1,4.1,15,6.1,1.8.9,3.4,1.7,5.2,2,3.1.9,6.1,1.5,9.2,2.3,2.8.9,5.5,1.5,8,2.6,2.8,1.2,5.8,1.7,8.9,2,1.8,0,3.7.6,5.5.9,2.8.6,5.2,1.2,8,1.7,3.4.6,6.7.9,10.1,1.5,2.4.6,4.9.6,7.3.6h3.7c1.2,0,2.1,0,3.1.9.6.6.6,1.2,0,1.5h-5.2c-1.8,0-3.4.3-4.9,2h2.1c1.8,0,4,0,5.8.6,1.5.3,3.4.6,5.2,0h1.2c2.1.6,4.3,0,6.4,0,5.8-.3,11.6,0,17.4-.9,5.2-.9,10.4-.6,15.3-2.3h2.8c1.8-1.2,4-.9,6.1-.9s1.8,0,2.8-.6c1.2-.9,2.8-1.5,4.6-1.5,3.1,0,6.1-.6,8.9-1.7h.9c.9,0,1.2.6.9,1.5,0,.3,0,.9-.6,1.5,2.1.9,3.4-.6,4.9-1.5-2.1,0-3.1-1.2-3.7-2.9v-.6c0-.3-.9-.9-1.5-.6-2.1.6-4.6.9-6.4,2-1.5.9-2.8,1.2-4.3,1.2s-2.4,0-3.4.6c-1.5.9-2.8,1.5-4.6,1.2h-.9c-1.8.3-4,.9-5.8,1.2-.9,0-1.5.3-2.4.9s-1.8.9-3.1.9-2.4,0-3.7.3c-1.2,0-2.4.6-3.4.6h-5.2c-1.5,0-2.8,0-4,.6-1.5.6-3.4.6-4.9,0-1.8-.6-3.4-.9-5.2-.6-2.4.3-4.6-.6-7-.3h0c0-.3.6-.6.9-.6.6,0,1.2,0,1.2-.9s-.6-1.2-1.2-1.2c-1.5-.3-1.8-1.5-2.1-2.6,0-.6,0-1.5-.9-1.7,0,.3,0,.9-.6,1.2-.6,1.7-1.8,2.3-3.4,3.2-1.2.6-1.8-.3-2.8-.6-2.1-.6-2.8-2-3.1-4.1v-4.1c0-1.7.9-3.2,2.4-4.1.6-.3.9-.6,1.5-1.2-2.4,0-4.9-.6-7-.9-2.8,0-5.8-.3-8.6-.6-2.1,0-4.6-.9-6.7-.9s-4-.6-5.8-1.2c-.9-.3-1.2-.9-.6-1.5,0-.6.9-.9,1.5-1.2.9-.6,1.8-.9,2.1-2-1.2-.6-2.1-.9-3.1-1.2-1.5-.6-2.1,0-2.4,1.2v1.5c.6,2,0,2.6-2.1,2.3h-1.2c-1.2,0-2.8-.6-4-.9-2.4-.6-4.6-1.2-6.7-2.3-1.2-.9-1.5-2-.9-3.2.6-.6.9-.6,1.8,0,.6.6,1.2,1.2,2.1,1.5,1.2.6,2.8.9,4,1.2h2.1c.6,0,.9-.9,1.2-1.2,0-.6,0-.9-.9-1.2-.6,0-1.5-.6-2.1-.9-1.5-.6-3.1-.9-4.6-1.5-.6,0-1.2-.6-1.2-1.2,0-.9.9-.9,1.5-.9h1.2c.9,0,2.1.6,3.1.6,2.4.6,4.9.6,7.3,1.5,3.7,1.5,7.6,1.7,11.6,2.3,3.7.9,7.6.9,11.3,2h6.1s.9,0,1.2.3c0,0,.6.9.6,1.2s-.6.9-.9.9h-1.2c-1.5,0-3.1,0-4.6-.6-1.5-.3-2.4,0-3.4,1.5,1.2.9,2.4,1.5,4.3,1.5h4.3c2.4,0,3.4.3,3.7-2.3,0-1.5,1.2-1.7,2.8-1.5,1.5,0,2.1,1.2,2.4,2.3,0,1.2.9,1.7,1.8,2,0,0,.9.3,1.2.3,3.4,0,6.4,0,9.8-.6,1.2-.3,1.5-1.2.9-2,0-.3-.9-.9-1.5-.9h-3.7c-.9,0-1.8,0-2.4-.6s-.9-.9-.9-1.2.6-.6,1.2-.9h.9c4,0,8,0,11.9-.9,1.8-.3,3.7,0,5.2-.3,3.7-.6,7-1.2,10.7-1.7,1.5,0,3.1-.9,4.3-.9,4.3-.6,8.3-1.7,12.5-2.9,3.4-.9,6.7-2,10.1-2.9.6,0,1.5-.6,2.1-.9,1.8-.6,3.7-1.5,5.8-2,1.2-.6,2.8-.9,4-1.5,2.4-1.2,4.9-1.7,7.3-3.2,1.8-1.2,4-1.5,5.8-2.3,3.7-1.7,8-2.9,11-5.5l.6-.3c2.4-1.7,5.2-3.5,7.6-5.2,2.1-1.5,4.3-3.2,6.4-4.9,3.4-2.6,7-5.2,10.4-8.1,2.4-2,4.9-4.6,7.3-6.7,1.8-1.5,3.7-2.9,5.2-4.4,2.1-1.7,3.1-3.8,0-5.8,0,0-.9-.6-1.2-.6-1.2-.9-2.1-1.7-3.4-2.6-2.1-2-4-4.1-6.4-6.1-4-3.5-8.6-6.7-12.5-10.2-2.1-1.7-4-3.5-6.1-5.2-4-3.5-8-7-11.9-10.2-3.4-2.9-6.7-5.5-10.1-8.4-2.4-2.3-4.6-4.6-7.3-6.7-2.4-2-4.9-3.8-7-6.1-3.1-3.2-6.4-5.8-9.5-8.7-4-3.8-8.3-6.7-12.2-10.2-.9-.9-1.8-1.7-2.8-2.6-5.2-4.4-9.8-9-15.3-13.1-2.4-1.7-4.9-4.1-7.3-6.1-2.8-2.3-5.5-4.6-8.3-7-2.1-2-3.1-2-5.8-.9,0,0-.6.3-.9.6-1.5.9-3.4,1.7-5.5,1.5-4,0-7.6-1.2-10.4-4.1-2.8-2.9-4.6-5.8-4-9.9v-1.2c0-.6-.6-1.2-.9-1.5-1.5-.6-2.8-.9-4.3-1.2-2.1-.6-4.3-.9-6.4-1.5-1.8-.6-3.7-1.2-5.5-1.7-1.5-.6-3.1-.9-4.6-1.5-3.1-1.2-6.1-2-9.2-2.6-.9,0-1.8-.6-2.8-.9-1.2-.3-2.1-.9-3.1-1.2-1.8-.6-3.7-.9-5.5-1.5-1.8-.6-3.7-1.2-5.5-1.7-2.1-.6-4-1.2-6.1-1.7-2.1-.9-4.3-1.5-6.4-2.3-2.8-.9-5.2-1.7-8-2.3-6.4-1.7-12.5-4.1-19-6.1-4.9-1.5-9.5-3.5-14.4-5.5-2.4-.9-4.6-1.7-7-2.6-2.4-.9-4.9-1.7-7.6-2.6-1.2-.6-2.8-1.2-4-1.5-2.4-.9-4.6-1.2-7-2-1.2-.3-2.4-.9-3.7-1.2-3.7-.9-7-2-10.4-3.2-2.4-.9-4.9-1.7-7.6-2.6-3.7-1.2-7.3-2.6-10.7-3.8-2.1-.9-3.1,0-4,1.7-.3.9-.9,2-1.2,2.9,0,.6-.3,1.2-.3,1.5,0,2.9-.6,6.1-1.2,9-1.2,6.1-2.4,11.9-3.7,18v1.7c-.6,3.2-.6,6.4,0,9.6v1.2c-.3,3.2-.6,6.4-.6,9.9s.3,5.5.6,8.4c0,2.3,0,4.9,1.2,7.3v.9c0,1.7.3,3.5.6,5.2,0,1.5,0,2.9.6,4.6.3,2.6.9,5.2,1.5,7.8h0c0,.3.6,2.6.6,2.6.9,2.9.9,6.1,2.1,9,1.2,2.6,2.1,5.8,3.1,8.4.9,2.3,1.5,4.9,2.1,7.3.3,1.7.6,3.5,1.5,4.9,1.2,1.7,0,3.8-1.8,4.4-.6,0-1.2.6-2.1.9.9,1.5,1.2,3.2,2.4,4.1.9.6,1.5,1.2,1.2,2.3s0,.9,0,1.2c.3,1.2.9,2.3,1.2,3.5.6,1.7,1.5,1.7,2.8.3.6-.9.6-1.2,0-2.3-.9-1.2-1.5-2.3-2.1-3.5-.6-1.5-.6-2.9,0-4.4.6.3,1.2.6,1.2.9,1.2,1.7,2.1,3.8,3.1,5.5.9,1.7,1.2,3.8,2.8,5.2.9,1.2.3,2-1.2,2.3h-.9c-1.2,0-1.5.6-1.5,1.7s0,1.7.6,2.3c2.1,3.2,4.6,6.1,7,9.3.3.6.9.9,1.5,1.2.9-1.5.6-2.6,0-3.8-.9-2-1.8-3.8-2.8-5.8-.3-.6-.3-1.5,0-2,1.2-1.7,1.2-2.3,0-3.8-1.5-1.5-2.4-2.9-2.8-4.9,0-.9-.6-2-1.2-2.9-.9-1.2-1.5-2-1.2-3.5,0-.3,0-.9-.3-1.2-.9-1.7-2.1-3.5-3.1-5.2-.6-1.2-1.2-2.3-1.5-3.2-.3-1.2,0-2,.9-2.3s1.8,0,2.1,1.2c.3.9.6,2,.9,2.9.3,1.7.9,2,2.8,1.5,0,0,.6,0,.9-.6,2.1-1.2,4.3-2.6,6.4-3.8,3.4-1.7,6.7-3.8,10.1-5.5,1.8-.9,4-1.7,5.8-2.9,1.8-.9,2.4-2,1.8-3.8h0c0-1.5.6-2.6,1.2-2.9s1.8,0,2.4.9c0,.3.6.6.9,1.2.9,2,1.5,3.8,2.4,5.8,1.5,3.8,3.4,7.3,5.8,10.4.9,1.2,1.8,2.9,2.8,4.1.9,1.2.9,2.3,0,3.2-.6.6-1.2.9-1.8,1.2-1.5.9-3.1,1.7-4.6,2.9-.9.6-2.1,1.5-3.1,2-.6.6-1.2.9-2.1,1.5-2.4,1.7-4.6,3.5-7,5.2-.6.6-1.5.9-2.1,1.5-2.1,1.5-3.7,3.5-5.8,4.9-.9.6-.9,1.5,0,2.3.3.3.9.6,1.2.9,1.8,1.5,2.1,2.6,0,4.1-.8.8-.8,1.5,0,2.3,2.4,2.6,5.2,5.2,7.6,8.1l.9.9c3.1,3.2,5.8,6.4,8.9,9.3,4.6,4.6,10.1,9,15.3,12.8.6.3.9.9,1.5,1.5,1.5,1.5,2.8,2.9,4.3,4.4,0,.3.6.6.9.9,0,.6.9,1.5,0,2-.6.3-1.2.6-2.1.6h-1.8s-.9.3-1.2.6c0,.3.6.9.9,1.2,3.1,1.7,5.8,3.8,8.6,6.1,0,0,.6.3.9.3.9,0,1.5.6,2.4.6h2.4c2.8-.9,3.1-.9,3.1,2h0c0,1.5,0,2,1.5,2.6,1.5.9,2.8,1.7,4.3,2.3,1.5.9,2.8,1.5,4.3,2.3.9.6,2.1.9,3.4,1.2.9,0,1.5,0,1.5-.9s0-2-1.2-2.9c-.9-.6-1.5-.9-2.4-1.5-.6-.3-1.2-.3-1.8.3,0,0,0,.6-.6.6h-1.2v-2c.6-.6,1.2-1.2.6-1.7,0-.9-1.2-.9-2.1-.9s-1.2-.3-1.8-.9c-.6-.3-.9-.9-1.2-1.5-.9-1.2-.9-2.9,0-3.8,1.5-1.7,3.1-3.2,4.6-4.6,0-.3.9-.6,1.5-.9v2.6s0,.6-.6.6c-1.5,1.7-1.5,2.6.9,4.1,0,0,.9.6,1.2.9.9.6,1.5.3,1.8-.6.6-1.5,1.2-3.2,2.1-4.6,1.2-3.2,2.8-6.1,4-9.3,0-.9.6-1.7.9-2.6h-.9c-1.2.9-2.4,1.7-3.4,2.9-.6,1.2-1.5,2.3-2.4,3.5-.6.6-.9,1.5-2.4,1.2v-1.5c.9-1.5,2.1-2.9,3.4-4.1.9-.9,1.8-1.7,2.4-2.6s1.5-2,2.1-2.9c1.8-2.3,3.4-4.4,5.2-6.7v-1.7c-1.8-1.7-4-1.5-5.2.6-.9,1.5-1.8,3.2-3.1,4.6-.9,1.5-2.1,2.9-3.1,4.4-2.1,3.2-4.3,6.7-6.4,9.9-.6.9-.9,1.5-1.2,2-.9,1.5-1.8,3.2-2.8,4.6-1.2,1.7-2.1,2-4,.9-.6-.3-1.5-.6-2.1-.9-2.1-.3-4.3-.9-5.2-3.2,0-.6-.6-.9-.9-1.2-.9-1.2-.6-2.6,0-4.1,0-.3.9-.9,1.2-.9s1.2.3,1.5.9c0,0,0,.9.6,1.2,0,.3,0,.6.6,1.2,0,0,.6-.3.9-.6,1.5-2.6,3.1-5.2,4.6-7.8.9-1.5,1.5-3.2,2.8-4.4.6-.3.9-.9,1.5-1.5,2.1-2.9,4.3-6.1,6.1-9.3,0-.6.6-1.5,0-1.7-1.2-.9-1.5-2-1.5-3.2v-3.8c0-1.5,2.1-1.7,3.4-.9,1.5,1.2,3.1,2.3,4.3,3.8,1.2,1.2,2.4,2.3,4,3.2.9.6,1.8.9,2.8,1.5,1.5.9,3.1,1.7,3.7,3.5,0,0,.6,0,.9.3h-3.4ZM404.7,508.9v-1.5c-.9-3.2-1.8-6.1-2.4-9.3-1.5-4.9-3.4-9.9-4.3-15.1v-.9c-.6-1.7-1.2-3.5-1.8-5.2-.6-2.3-1.2-4.9-1.8-7.3-1.2-4.6-2.4-9.3-3.7-13.9-.6-1.7-.9-3.5-1.5-5.5-.6-1.7-1.2-3.5-1.5-5.2,0-1.5-.9-2-2.4-1.7-1.5,0-2.8.6-4.3,1.2-3.7,1.5-7.3,2.9-11,4.4-.9.3-1.8.6-2.8.9-2.1.9-4,1.7-6.1,2.6-.6,0-1.5.6-2.1.6-.9,0-1.5-.6-1.2-1.5v-1.5c0-1.2-.9-2.3-1.8-2-2.8.9-5.5,2.3-8,4.4-1.5,1.2-1.2,2,.6,2.9,1.5.6,1.5,1.7,0,2.6-.6.3-1.2.9-2.1.9s-2.4.9-3.4,1.5c-.6.3-1.2.6-1.8.9,0,0-1.2-.3-1.2-.6v-1.5c0-.3,1.2-.6,1.8-.6,1.2-.3,1.5-.9,1.2-1.7,0-.9-.9-1.2-1.8-.9h-.9c-.6,0-1.2,0-1.5-.9v-1.7c.6-.6,1.2-.9,2.1-1.2,0,0,.6-.6.9-.9-.9-.3-1.5-.6-2.1-.9s-1.2-.9-1.2-1.7.6-1.5,1.5-1.7.6,0,.9,0c1.2,0,1.8-.6,1.8-1.2,0-1.2-.9-.9-1.8-.9s-2.4,0-3.1-1.2-1.2-2.6-1.5-4.1c0-2.3,0-2.9,2.8-3.8h0v-.6c0-1.2,0-2,1.2-2.6,1.8-.9,3.7-2,5.5-2.9,2.1-.9,4.6-1.7,6.7-2.6,3.4-1.2,6.7-2.6,10.1-4.1,2.8-.9,5.8-2,8.6-2.9,3.1-.9,6.1-1.5,8.9-2.6,3.1-1.5,6.7-1.5,9.8-2.6,2.8-.9,5.5-1.5,8.3-2,.6,0,1.5,0,2.1-.3.6,0,1.2,0,1.8-.3,1.5,0,3.1-.6,4.6-.9,2.1,0,4,0,5.8-.9,1.8-.9,1.2,0,1.8,0,1.5,0,3.1-.3,4.6-.6,1.2,0,2.1-.3,3.4-.6h29.7c1.2,0,2.1,0,3.4.3,1.2,0,2.8.3,4,.6.9,0,2.1,0,3.1.6.9,0,1.5.3,2.4.6.9,0,1.8,0,2.8.3,1.5,0,2.8.6,4.3.9,2.4.6,4.9,1.2,7.3,1.5.6,0,1.2.3,1.5-.3,0,0-.6-.6-.9-.9-2.1-.6-4.3-2-6.7-1.5h-.9c-2.1-.6-4.3-.6-6.4-1.2-1.2-.3-2.1-.6-2.1-2-2.4-.6-4.6-.9-6.7-1.2-3.1-.3-6.1-.9-9.2-.9h-22.6c-1.5.6-3.4.6-5.2.6h-6.7c-.6,0-1.2,0-2.1.3-1.2,0-2.4.6-3.4.6h-4.3c-1.8.6-3.7.6-5.5.6s-3.1,0-4.6.9-4,1.5-6.1,1.5-2.1.3-3.4.9c-1.8.6-4,1.5-5.8,2-3.1.9-6.7,1.2-9.5,2.9h-.6c-3.4,1.2-7,2.3-10.4,3.5-2.4.9-4.6,1.7-7,2.6-3.7,1.5-7,3.2-10.7,4.6-3.7,1.5-6.7,3.8-10.7,4.9,0,0-.6.3-.9.6-3.1,2.9-7.3,4.4-11.3,6.4-1.8,1.2-3.7,1.7-5.2,3.2-2.4,2-5.2,3.8-8.3,5.2-1.8.9-3.4,2-4.9,3.8-.6.6-1.2,1.2-1.8,1.5-.9.6-1.5,1.2-2.1,1.7,0,.3-.9.6-1.2,1.2-.6.6-1.5,1.2-2.1,1.7-.6.3-.9.9-1.2,1.2-1.5,1.2-2.8,2.3-4.3,3.5-2.1,2-4,4.1-6.1,6.1-3.1,2.9-6.1,6.1-9.5,9,0,0-.3.3-.6.6-1.2,1.2-2.1,2.6-3.4,3.8-2.1,2.3-4,4.4-6.1,6.7-.6.6-.9,1.2-1.5,1.7-.9,1.5-1.8,3.2-3.4,4.1-.3,0-.6.6-.6.9-.9,1.2-1.8,2.6-2.8,3.8-.6.9-1.5,2-2.1,2.9-.9,1.5-1.8,2.9-2.8,4.1-.6.9-1.2,1.7-1.5,2.9,0,.6-.6,1.2-.9,1.7-1.5,2.6-3.4,5.5-4.6,8.4-1.8,4.6-4,9-6.1,13.3-1.5,3.2-2.8,6.4-4.6,9,0,.3-.3.9-.6,1.5-.6,3.8-1.8,7.5-3.1,11-.9,2.3-1.8,4.9-2.4,7.3-.9,3.8-1.8,7.8-2.8,11.6-1.2,4.9-2.4,9.6-2.4,14.5v1.7c0,2.6-.9,4.9-1.2,7.5v21.5c1.8,0,2.1.3,2.4,2v.9c.3,2.6.9,5.2,1.2,8.1,0,.3,0,.6.3.9.3-2.6.9-5.2,0-7.8,0-.6-.3-1.5-.3-2,0-4.9-.9-9.9,0-14.8h0c-.3-2,0-3.8,0-5.2.9-5.2,1.5-10.7,2.1-16v-.9c.6-2.9,1.5-5.5,1.8-8.4,0-2.6,1.2-5.2,1.8-7.8.3-2,.9-4.1,1.5-5.8.9-3.2,1.8-6.4,3.1-9.6.9-2.6,1.8-5.2,2.8-7.8.3-1.2.6-2.3,1.2-3.8,1.2-3.2,2.8-6.1,4-9.3,1.5-3.2,2.8-6.1,4.3-9,1.8-3.8,4.3-7.5,6.1-11.3.3-.6.6-1.5,1.2-2,1.2-1.7,2.4-3.5,3.7-5.2,2.4-3.8,5.2-7.5,8-11,2.1-2.9,4.9-5.5,7.3-8.1,1.5-1.7,2.8-3.8,4.6-5.2,4.3-3.8,8-8.1,12.2-11.9,3.1-2.6,6.1-5.2,9.2-7.8s6.1-5.2,9.5-7.3c.9-.6,1.5-1.2,2.4-1.7,4.6-2.9,8.9-5.8,13.5-8.4,2.1-1.2,4-2.3,6.1-3.5,1.5-.9,3.1-1.5,4.6-2,0,0,.6-.3.9-.3s.9,0,1.2.6v1.2s-.6.3-.9.3c-1.5,0-2.4.9-3.7,1.7,0,0-.6.3-.9.6-1.5.9-2.8,1.7-4.3,2.6-1.8,1.2-3.4,2.6-5.2,3.8-1.5,1.2-3.1,2-4.9,2.9-2.1,1.5-4.6,2.9-6.7,4.4-4.9,3.2-9.5,6.1-13.5,10.2,0,0-.6.3-.9.6-2.1,2-4.6,3.8-6.4,5.8-3.4,3.5-6.4,7-9.2,10.4-2.8,3.2-6.4,5.8-8.9,9.6-1.8,2.6-4.3,4.9-6.4,7.3,0,.3-.6.6-.9,1.2s-.9,1.5-1.5,2c-.9.9-2.1,3.2-2.4,4.1h.6c2.1-.6,3.7,0,5.5,1.2,1.5.9,3.1,2,4,3.8.6,1.5.3,2.9-.9,3.8-.6.6-.9.9-1.5,1.5-1.2,1.5-2.4,1.5-4,0-.6-.6-1.2-1.2-2.1-1.5-1.8-1.2-2.8-2.6-2.8-4.6s0-1.5-.6-1.7c-.9.6-1.5,1.5-1.8,2.6,0,.6,0,1.5.3,1.7,1.5.9,1.8,2,1.8,3.5s.6,1.2,1.2.9c1.2-.9,2.4,0,3.4.3,1.8.9,3.4,2,3.4,4.4s0,1.5.3,2c.9,2,.3,3.8-.6,5.5-.9,1.7-1.8,3.2-2.4,4.9-.6,1.2,0,1.7,1.2,2.3.9.3,1.2,0,2.1-1.2,1.5-2.6,3.1-4.9,4.6-7.5.3-.9.6-1.7.9-2.6,0-1.5,0-1.7-1.5-2.3-1.8-.6-2.4-1.7-1.2-3.2,2.4-4.4,4.9-8.7,8-12.5,3.7-4.4,7-8.7,11-12.8,1.5-1.7,3.4-3.5,4.9-5.2,1.5-2.3,3.7-4.1,5.8-5.8s4.6-3.8,6.7-5.5c1.2-1.2,2.4-2,4-3.2,1.2-.9,2.4-1.7,3.4-2.9,3.1-2.3,6.1-4.9,9.2-7.3,2.1-1.5,4.6-2.9,7-4.1,1.5-.9,3.1-1.5,4.9-2h2.1s.6.3.6.6,0,.6-.6.9h-.6c-2.1.6-3.7,1.7-5.5,2.9,0,0,0,.6-.6.9,1.2.9,2.1.6,3.4,0,.9-.3,1.8-.9,2.8-1.5,1.2-.3,2.4,0,2.4.6,0,1.2-.6,1.5-1.2,2-.6.3-1.2.6-1.2,1.5,1.2,0,2.1-.6,3.1-1.2,2.8-1.7,5.5-3.2,8-4.6,1.2-.9,3.1-1.2,4.3-2,2.4-2,5.5-2.3,8.3-3.2,1.2-.3,2.1,0,2.4.9,0,.9,0,1.5-1.2,2-2.1,1.5-2.1,2.3-.6,4.4,0,.3,0,.9.6,1.2,1.8,1.7,2.8,3.8,3.7,5.8,0,.9.6,2,1.2,2.9,1.8,3.5,3.4,7,5.2,10.4.8,1.7,2.2,2.3,4.3,1.7h0c1.5-.3,2.4,0,2.8.6,0,.9,0,1.2-1.5,2-3.1,1.5-6.7,2.3-9.5,4.6,0,0-.9.3-1.2.6-.9.6-1.8,1.2-2.4,1.5-2.1,1.2-4,2.3-6.1,3.5-1.5.6-2.1.3-3.1-.6-.9-1.2-.9-2.6,0-3.5.6-.6.6-1.2,0-2v-2.3c0-.9,0-1.7-.6-2.6,0-.6,0-1.2-.6-1.7,0-2-.9-3.8-2.4-5.2-2.8-2.9-5.8-5.5-8.9-8.1-.9-.9-2.1-.9-3.4-.3-1.5.9-1.8.6-2.8-.6,0-.6-.9-1.5-1.2-2-1.8,0-3.1,1.2-4.3,2s-2.4,1.7-4,2c-1.8.3-3.4,1.2-4.6,2.3-2.1,2.3-4.9,4.4-7.3,6.4-1.2.9-2.4.9-3.4-.3v-.6c-.9-.6-1.5-.6-2.1,0s-1.5.9-1.5,1.7,1.2.6,1.8.6h0c.9,0,1.2.6.9,1.2,0,.9-.9,1.5-1.5,2-2.1,2.3-4.3,4.6-6.4,7-1.8,2.3-3.7,4.6-6.1,6.4-.9.6-1.8,1.2-2.4,2-3.1,3.2-5.8,6.7-8.9,9.9-.9,1.2-2.1,2-3.1,3.2-.3.6-.9.9-1.2,1.5-2.4,4.6-4.9,9-7.3,13.6-.9,2-2.1,3.8-3.1,5.8-1.8,4.1-3.7,7.8-5.8,11.9-.6,1.5-1.5,3.2-2.1,4.6s0,2.6,1.2,3.2,2.4.9,3.7,1.2c1.8.6,3.7,1.2,5.5,1.7,2.8.9,5.2,1.5,8,2.3,1.8.6,3.7.9,5.2,1.5,2.1.9,4,1.7,6.1,2.6,3.4,1.2,7,2.3,10.7,3.5,4.3,1.2,8.3,3.2,12.8,4.1,4.6,1.2,8.9,2.6,13.2,4.1,1.2.3,2.1.9,3.4,1.2,3.4,1.2,6.7,2.3,10.1,3.5,3.7,1.2,7.3,2.3,11,3.5,4.6,1.5,9.5,3.2,14.1,4.6,3.7,1.2,7.6,2.3,11.3,3.5,4,1.2,8,2.6,11.9,4.1,1.2.6,2.8.9,4,1.2,1.8.6,3.4,1.2,5.2,1.7,1.5.6,3.4.9,4.9,1.5,1.8.6,3.7,1.7,5.8,1.7s.9,0,1.2.3c3.1,1.2,6.1,2.3,8.9,3.2h2.1c.9,0,1.2-.9.6-1.5-1.2-1.2-2.1-2.3-3.7-3.2s-2.8-2-4.3-3.2c-.9-.9-1.5-1.5-2.4-2.3-3.4-2.6-6.7-5.2-10.1-8.1-3.7-3.2-7.3-6.7-11-9.9,0,0-.6-.6-.9-.6-.9-.6-1.8-1.2-2.4-2-2.4-2.3-4.9-4.6-7.3-6.7-4.3-3.8-8.9-7.5-13.5-11.3-3.1-2.6-5.8-5.2-8.6-7.8-2.1-2-4.6-3.5-7.6-4.4-.9,0-1.8-.9-2.8-1.5-1.5-1.2-2.8-2.6-4-3.8-3.1-2.9-5.8-5.8-8.6-8.7-2.8-2.6-5.5-5.2-8.3-7.8-.9-.9-1.8-2.3-2.1-3.5v-1.5c.6,0,1.2,0,1.5.3,1.2.9,2.4,2,4,3.2,3.4,2.3,7,4.6,10.4,7,1.2.9,2.8,1.7,4.3,2.6,1.8,1.2,3.7,2.6,5.5,3.8,3.1,1.7,4.9,4.1,5.5,7,0,1.2.9,2.3,1.8,3.2,2.1,2,4.6,4.1,6.7,5.8.9.9,2.1,2,3.1,2.9,4.3,3.5,8.6,7.3,12.5,10.7,2.4,2.3,5.2,4.4,7.6,6.4,3.1,2.6,6.4,4.9,9.5,7.5s6.1,5.5,9.5,7.5c2.4,1.5,4.3,3.8,6.1,5.5,3.4,2.9,7,5.5,9.8,9,.6.9,1.2,1.5,1.5,2.3,0,.3.6.9.9.9s.9-.3,1.2-.9c.6-.6.9-1.5,1.2-2.3v-1.5c0-1.2,0-2.6-.9-3.8,0-1.5-.9-2.6-1.5-4.1s-.9-2.9-1.5-4.4c-.9-3.2-1.8-6.4-3.1-9.6,0-1.5-.9-2.9-1.2-4.4-1.5-4.1-3.1-8.4-4.3-12.5-1.2-3.8-1.8-7.8-2.8-11.9,0-2-.9-3.8-1.2-5.8-.6-3.8-1.2-7.3-2.1-10.7-.6-2.3-1.2-4.6-1.2-7.3s0-1.2,0-1.5c0-1.2-.6-2-.6-3.2,0-1.7-.9-3.5-1.2-5.2,0-.3,0-.6-.6-.9,0,0-.6-.3-.9-.3s-.6.3-.6.6v1.7c0,.9-1.2,1.2-1.5.6-.9-.9-1.8-1.7-1.5-2.9v-2.6c-.9-1.5,0-2.3,1.8-2.3h2.1l2.1,2h1.2ZM435.3,757.2c0,1.7.9,3.2,1.8,4.6.6,1.2,1.5,1.7,3.1,1.5,2.8-.6,5.8-.9,8.6-1.7,3.1-.9,5.8-2,8.9-3.5,1.2-.6,1.5-1.2.9-2.3,0-.6-.9-1.5-1.2-2v-1.5h1.5c.6.6,1.2,1.5,1.8,2.3,0,.6.6,1.2.9,1.5.6.6,1.2.6,1.5,0,0-1.2,1.5-1.7,2.4-2.3,1.2-.9,2.1-1.7,3.1-2.3.9-.9,1.8-1.7,2.8-2.3.9-.6,1.5-1.5,2.1-2.3.9-.9,1.5-1.7,2.4-2.6,1.8-1.7,3.4-3.5,4.6-5.5,0-.9,1.2-1.7,1.8-2.6,1.2-1.5,2.1-3.2,2.8-5.2.9-3.2,1.8-6.1,2.8-9.3,1.2-3.5,1.2-7,1.8-10.4,0-1.2,0-1.5-1.5-1.7h-6.7c-.9,0-1.5-.6-1.5-1.5s0-1.5,1.2-1.7c1.2-.3,1.8-.6,3.1-.6h5.2c1.8,0,2.4-.3,2.4-2.3s-.6-3.8-.6-5.5c0-3.5-.9-7-2.4-10.2-.6-1.5-1.2-2.9-1.8-4.4,0-.3-.6-.6-.9-1.2,0,.9,0,1.2-.6,1.5,0,.9-.6,1.7-1.2,2.3-1.5.9-3.1,1.7-4.6,2.3s-3.1-.6-3.1-2.3.6-1.5,1.5-1.5h1.8c2.4,0,3.4-.9,3.4-3.2v-1.5c1.2-1.2.6-2.6,0-3.8-.9-1.7-2.4-3.2-3.4-4.9-2.4-3.8-6.1-6.4-9.5-9.6-.6-.6-1.2-.9-1.8-1.2-1.5-.9-2.8-.6-4,.9-.6.9-1.5,1.7-2.1,2.9-.6.9-1.5,2-2.1,2.9,0,.6-1.2.9-1.8.6-.9,0-.9-.9-.9-1.7s0-1.2.9-1.7c.9-1.5,2.1-2.9,3.4-4.4,1.5-2.3,1.2-3.8-1.8-4.6-.9,0-1.8-.6-2.8-.9-2.8-1.2-5.5-2-8.6-2.6-1.8-.3-3.7-.9-5.2-2-.6-.3-1.5-.6-2.1-.6h-5.2c-.9,0-1.8,0-2.8.6-1.2.6-2.1.3-2.8-.3-.9-1.2-2.4-1.2-3.7-.9s-2.8.3-4,.9c-3.4.9-7,.6-10.1,2.9,0,0-.6,0-.9.3-1.2.3-2.8.9-4,1.2-.6,0-1.2.6-1.8.9-.9.9-.9,1.5,0,2.3.6,1.2,1.5,2,1.8,3.2,0,.6.6,1.5.6,2.3s0,1.5-.6,1.5-1.2,0-1.8-.3-.9-1.2-1.2-1.5c-1.2-1.7-2.1-3.8-3.7-5.2,0,0,0-.6-.6-.9,0-1.2-.9-2-.9-3.2s0-1.2,0-1.2h1.5s.6.3.9.6c.6.6,1.2.6,2.1.6,1.5-.3,2.1-1.2,1.8-2.6,0-1.2,0-1.7,1.2-2.3,2.1-.9,4-2.3,6.4-2.6,3.1-.6,5.8-1.2,8.6-1.7h1.5c1.5,0,2.1.3,2.4,1.7,0,.3.6,1.2.9,1.2,1.2,0,2.4-.3,3.4-.6.9,0,.9-.9,1.2-1.5,0-1.2.9-1.5,1.8-.9,0,.3.6.9.9,1.2.4,1.2,1.1,1.7,2.1,1.7h2.1c.6,0,.6-1.2.9-1.7h0c.6,0,.9-.6,1.5-.6s.9.6.9,1.2v1.2c0,.9,0,1.5,1.2,1.7.6,0,1.2,0,1.8.3,1.5,0,2.1-.9,1.5-2.3v-.9c1.5,0,2.8,0,4,1.2,0,.6,0,1.2-.6,1.7,0,1.2,0,1.5.9,2,2.1.9,2.4.6,4-.9h.6v2c0,.9,1.2,1.5,2.8,1.5s1.2,0,1.5-1.5c0-1.5.6-1.5,2.1-1.2,2.8.9,4.9,2.9,7.3,4.4,0,0,.6.9,1.2,1.2-.6,0-.9,0-1.2.3l-.9.6c0,.3,0,.9.6,1.2.9.9,1.8.9,2.8,0,.6-.6,1.2-.6,1.8-.3,1.8.6,3.1,1.7,4,2.9.6.6.9,1.5,1.2,2.3,0,.6-.6,1.2-1.2,1.5-.6.9-.6,1.7.6,2h2.1c1.8-.3,3.1.3,4,1.7,0,.6.6,1.2.9,1.7,0,.9.9,1.7,1.5,2,0,0,.6.9,1.2,1.2-.9.6-1.5,0-1.8,0-.6-.3-1.2-.6-1.8,0s0,1.2,0,1.7c.9,1.2,1.8,1.5,3.1,1.2.9,0,1.8,0,2.1.9s.9,1.5,0,2.3-.9,1.7,0,2.6c.6.9,1.2,1.2,2.4,1.5,1.2,0,2.4.6,2.4,2.3s0,.6.6.9c1.2,1.5,1.5,3.2,1.8,4.6,0,1.7.6,3.2.9,4.9,0,2,.9,3.8,1.2,5.5,0,1.7,0,2-2.1,2s-.6,0-.6,0c0,0-.9.6-.9.9s0,.9.6,1.2.9.3,1.5.6c1.2.3,1.5.9,1.5,2v6.7c0,1.5,0,.6,0,1.2,1.2-.9,1.2-1.7,1.2-2.9v-15.1c-.9-4.4-1.8-8.7-3.1-13.1-1.2-4.1-3.7-7.5-5.5-11.3,0-.3-.6-.6-.9-.9-.6-.9-1.2-1.7-1.8-2.6-1.8-2.6-3.4-4.9-5.2-7.5,0-.3-.6-.6-.9-.9-2.4-2.3-4.6-4.9-8-6.4,0,0,0-.3-.6-.3-3.1-2-6.1-4.4-9.2-6.4-.6-.3-1.2-.6-1.8-.9-3.1-1.2-5.8-2-8.9-3.2-3.7-1.5-7.3-2.3-11.3-2.9-.6,0-1.2,0-1.8-.3-5.8-.9-11.6-1.2-17.4,0-.9,0-1.5.3-2.4,0-2.8-.3-5.5.9-8,1.5-2.8.6-5.2,1.7-7.6,2.6-3.7,1.5-7,3.8-10.7,5.5-2.1,1.2-4.3,2.9-6.4,4.4-.9.6-1.5,1.7-2.4,2.6-.6.9-1.2,1.7-2.1,2.3-1.8,1.2-3.1,2.9-4.3,4.6-1.2,1.7-2.4,3.5-3.7,5.2-.9,1.2-1.8,2.3-2.4,3.5-.6,1.2-1.2,2.3-1.8,3.2-.9,1.5-1.5,3.2-2.4,4.6,0,.9-.6,2-.9,2.9-.9,2.3-1.5,4.4-2.1,6.7,0,.9-.6,2,.6,2.6,0,0,0-.3.6-.6,0-1.5.9-2.6,1.2-4.1.6-3.8,2.4-7,3.7-10.2,0-1.2,1.5-2.3,1.8-3.5.6-2,2.4-3.5,3.7-5.2v3.2c0,.3,0,.9.6.9s.9,0,.9-.3c.6-.9,1.2-1.7,1.5-2.6s0-1.5-.9-2c0,0-.9-.3-1.2-.6.6-2.6,1.8-3.5,3.7-3.5v1.5c0,.3.6.9.9.9,1.2,0,1.8-.9,2.4-1.7s0-1.2-.6-1.7c-1.2-.9-1.2-1.5-.6-2.6,0-.6.6-.9.9-1.5.6-.3,1.2-.9,1.8-.9.9,0,.6,1.2.6,1.7s0,1.2.6,1.5,1.2,0,1.8-.6.6-.6.6-.9c0-1.5,1.2-2,2.8-2.3.9,0,1.5-.9,1.8-1.5,0-.9,0-1.2-.9-1.7-1.2-.9-1.2-1.7,0-2.6.6-.3,1.2-.6,2.1-.9v1.7c0,.6,0,1.2.9,1.5,1.2,1.5,1.5,1.7,0,3.2,0,.3-.6.6-.9.9-5.2,3.8-9.5,8.4-13.8,13.1,0,0,0,.6-.6,1.2.9,0,1.8,0,2.4-.3,2.4-.9,4.3,0,6.1,1.2,0,.3.6.6,1.2.9,2.8,1.5,1.8,4.9-.9,5.5,0,0-.6,0-.9.3-1.5.6-2.1,1.7-1.5,3.5,0,1.2,0,2.3-1.2,2.9-.9.3-1.8,0-2.1-.9v-1.2c0-1.5-.6-1.5-1.8-1.2h-2.8c-.6-.3-1.5-.9-2.1-.9h-1.2v1.2c0,.9.9,1.5,1.8,2,2.1.9,4.6,1.5,6.7,2.6h0c3.1.3,6.1,2.3,9.5,2.3s1.2.6,1.8.6c.9.3,2.1.9,3.1,1.2,1.8.6,4,.6,5.8,1.5,3.1,1.5,6.4,1.7,9.5,2.9,2.1.9,4.3,1.2,6.1,2,2.4,1.2,4.9,1.2,7.6,0,3.4-1.2,6.7-.3,8,2.9.9,2.3,2.4,3.2,4.9,3.5,1.8.3,3.7.9,5.2,1.5,1.2.3,2.1.9,3.4,1.2s2.1.6,3.4,1.2c2.1.9,4.3,1.5,6.7,1.7,3.1,0,4.6,2,4.3,4.9,0,1.7-1.8,2.6-3.7,2.3s-3.7-1.2-5.2-2.3c-.9-.6-2.1-1.2-3.4-1.5-4.3-1.2-8.6-2.6-12.8-4.4-.9-.3-2.1-.3-3.1,0-.6.3-1.5.9-2.1,1.5-2.1,1.5-4,1.5-6.1,0-1.5-.9-2.4-2.3-2.8-4.1,0-2.3-1.8-3.2-4-3.8-2.4-.6-4.9-1.5-7.3-2.3-.9-.3-1.8-.6-2.8-.9-2.8-.9-5.5-1.7-8.3-2.6-2.1-.9-4.3-1.5-6.1-2.3-2.4-.9-4.6-1.5-7-2.3-.9,0-1.5-.6-2.1-.9-2.8-.9-5.5-1.7-8-2.6-1.5-.6-2.8-.6-4-.3-.6,0-1.2.6-1.5,1.2,0,.6-.6,1.2-.6,2,0,2.6-.6,4.9-.9,7.5h0c0,1.5,0,2,1.8,2s3.1,0,4.6-.6c1.2,0,2.4-.3,3.7,0,1.8.6,1.8,1.5.6,2.9,0,0,0,.6-.6.9-.6,1.2-1.8,1.2-3.1.9-1.5,0-3.4-.3-4.9-.3s-2.8,1.2-2.1,3.2c.9,3.5,1.5,7,2.4,10.4,0,1.5.9,2.9,1.2,4.4,0,1.2.9,1.2,2.1.6.6-.3,1.2-.9,1.8-1.5,2.1-1.7,4.3-2,6.7-1.2,1.2.3,1.8,1.2,2.1,2.3,0,1.2,0,1.7-1.2,2.3,0,0-.6.3-.9.6-.6.6-.6,1.2,0,2,.6.6,1.2.6,1.8,0,.6-.3.9-.9,1.5-.9h1.8c0,.3.6,1.2,0,1.7,0,.6-.6,1.2-.9,1.5s-.9.6-1.8.9c0,.9.6,1.5.6,2s.6,1.2,0,1.7-1.5.9-2.4.6c-.9,0-2.1-.6-3.1-.6s-2.4-.3-2.8-1.5c0-1.2,0-2,1.2-2.6.6-.6.6-1.2.6-2s-.9-.9-1.5-.9h-3.1c0,.6,0,1.2.9,1.7,1.2,1.2.9,2.6-.6,3.5,0,0-.9,0-1.2.3-1.5.3-1.5.9-.9,2,.9,1.5,1.8,3.2,2.8,4.6,0,.3.9.9,1.2.9s.9-.6,1.2-1.2c0-.6,0-1.2-.9-1.5h-.9c-.9-.3-1.2-.9-.9-1.7s.9-1.2,1.5-.9c.6,0,1.2.6,1.8.9,1.2,1.2,2.4,2.3,3.7,3.5,3.1,2.9,6.4,5.8,9.5,8.4,1.5,1.5,2.1,1.5,3.7,0,1.2-1.2,1.8-2.3,2.8-3.5,0-.3.6-.9.9-1.5.9-.9,1.8-.6,2.1.6v2c-.9,1.5-1.8,2.9-2.8,4.4-.8,1.4-.5,2.3.9,2.9,1.5.9,3.1,1.5,4.6,2,.6,0,1.5,0,2.1.6,2.8,1.2,5.2,2,8.3,2h.9c1.5.6,3.1,1.2,4.3,1.7.9,0,1.8.3,2.4.6,0,0,.9-.3.9-.6s0-.9-.6-.9c0-.3-.9-.3-1.2-.9-2.1-2.3-1.2-7.3,1.5-8.4,1.2-.6,2.8-.3,3.1.9.6,1.2,1.2,2.3,1.2,3.8s0,3.8-.6,5.8c-.6,1.2,0,2,1.2,2s1.8-.9,1.8-1.7v-2c-1.2-2-.6-4.4-.6-6.4s.9-2,1.8-2.6,1.8-.6,2.8,0,1.2,1.5,1.2,2.6-.9,1.7-2.1,2c0,0-.6,0-1.2.3l-2.1,1.5h.6ZM415.1,364.1v-2.3c0-1.7,0-2-1.8-2.6-.9-.3-1.8-.9-2.1-1.7-.6-1.5-1.5-2.9-1.5-4.6s0-.9,0-1.2c0-1.2-.6-2.3-.6-3.5v-5.2c0-2.6.6-5.5,1.2-8.1,1.2-4.6,4.3-8.4,7.3-12.2,1.2-1.7,3.1-2.9,4.9-4.1,1.8-1.2,4-2,6.1-2.9,3.1-1.2,5.8-2.9,9.2-2.9h.6c4.3,0,8.3-.3,12.2,1.2,4.3,1.5,7.6,4.1,11.3,6.1,3.7,2,.6.6.9.9,2.4,2.6,4.9,5.2,7,8.4,2.1,2.9,3.4,6.1,3.7,9.6.6,6.1,0,12.2-3.7,17.4-.9,1.2-1.8,2.6-3.4,3.2-.9,0-1.2.9-1.2,2v2.6c0,.9,0,1.2,1.2,1.2s1.5-.6,2.1-.9c1.2-.6,2.1-.9,3.4-1.5.6-.3,1.2-.6,1.8-1.2.9-.9,1.5-1.7,2.8-2.3s.9-.9,1.5-1.5.9-1.2,1.5-1.5c3.7-2.6,5.5-6.7,8.3-9.9v-.6c1.5-3.2,3.4-6.4,4.9-9.6,1.5-3.5,2.8-7.3,3.1-11,0-4.6,0-9.3.6-13.6h0c0-3.2,0-6.1-1.2-9-.6-1.5-.9-3.2-1.5-4.4-1.5-2.9-3.4-5.8-4.9-8.7-.6-.9-1.2-2-1.8-2.9-1.2-2.6-2.8-4.9-4.9-6.7-.9-.6-1.5-1.5-2.1-2.3-1.2-1.5-2.4-2.9-4.3-3.8-1.5-.6-2.8-1.5-4-2.9-.6-.6-1.5-1.2-2.4-1.5,0,0-.9,0-1.2-.6-3.4-2.3-7.6-2.6-11.3-4.1-2.1-.6-4.3-.9-6.4-1.5-4.3-.9-8.6-.9-12.8,0-2.1.3-4.3.9-6.7.9h-1.2c-1.8.6-3.7,1.2-5.5,1.7-3.4,1.2-6.4,2.6-9.8,4.1-.9.3-1.8,1.2-2.8,1.7-4.9,3.5-9.5,7-12.8,11.9,0,.6-.9.9-1.2,1.5-1.8,2-3.4,4.1-4,6.4v.9c-1.2,2.6-2.1,4.9-3.4,7.5-1.8,4.4-3.1,8.4-3.1,13.1v8.7c0,4.1,1.5,7.8,2.8,11.6.9,2.9,2.4,5.5,3.4,8.1.9,2.3,2.1,4.4,3.7,6.1,2.4,2.9,4.9,5.5,7.3,8.1.6.6,1.2,1.2,1.8,1.7,1.8,1.5,3.7,2.9,5.5,4.4.9.9,2.1,1.5,3.7,2.6v-.6ZM253.3,514.1c-1.2,0-1.8.6-2.1,1.2-.9,1.7-2.1,3.2-3.1,4.9-1.8,3.8-3.7,7.8-5.5,11.6-1.2,2.3-2.1,4.9-3.4,7.3-.3.9-.6,1.5-.9,2.3-1.2,4.1-2.4,8.1-3.7,12.2s-2.8,8.1-3.7,12.2c-.6,2.3-.9,4.4-1.5,6.7-.6,2.6-1.2,5.2-1.5,7.8-.6,3.5-.9,7.3-1.5,10.7h0c-.6,2.3-.6,4.6-.6,6.7v2.9c0,1.7-.6,3.8-.9,5.5-.6,7.5.9,14.8,1.2,22.3.9,2.9.9,5.8,1.2,8.4.3,3.2,1.2,6.1,1.8,9.3.6,2.6.9,5.2,1.2,7.5v1.2c.9,3.8,2.1,7.5,3.1,11.3.6,2.9,1.5,5.8,2.8,8.4,1.2,2.6,2.1,5.2,3.1,7.5.6,1.5,1.2,2.9,1.5,4.4,1.2,3.5,3.4,6.7,4,10.2,0,.6.6,1.2,1.2,1.7.6.9,1.2,1.7,1.5,2.9.3.9.9,1.5,1.2,2.3.6,1.5,1.5,2.6,2.1,4.1.9,1.7.9,3.8,2.8,5.2v.6c.6.9.9,1.7,1.5,2.3,1.5,1.7,2.8,3.2,3.4,5.2,0,.9.9,1.7,1.5,2.3,3.4,2.6,5.5,6.1,8,9,3.1,3.5,5.8,7,8.9,10.4,3.1,3.2,5.8,6.7,9.5,9.9,2.4,2,4.9,4.4,7.3,6.7.6.6,1.2.9,1.8,1.5,2.8,2,5.8,4.4,8.9,6.4,3.7,2.6,7.3,4.9,10.7,7.8.6.6,1.5.9,2.4,1.5.6.3,1.2.3,1.8,0,.6-.9,1.5-.9,2.8-.6h1.8v-.6l-.6-1.2c-1.5-2.3-.9-4.4,1.5-5.5.9-.3,1.5-.6,2.4-.9.9-.3,1.8,0,2.8,0,0,0,.6,0,.6-.6v-.9c-.6,0-1.2-.3-1.8-.6-2.1,0-4.3-.3-6.1-1.5-1.2-.9-2.8-1.7-4-2.6-5.8-3.8-11.3-7.8-15.9-13.1-2.8-2.9-5.8-5.5-8.6-8.4-1.5-1.5-3.1-2.6-4.3-4.4-.9-1.5-2.4-2.6-3.7-4.1-.3-.3-.9-.9-1.2-1.2-1.8-2.3-4-4.6-5.8-7-.9-1.2-1.8-2.6-3.1-4.1-1.2-1.5-2.4-3.2-3.7-4.6-3.4-4.9-6.1-10.2-8.3-15.7-.6-1.2-1.2-2-1.8-2.9-.6-1.2-1.5-2-1.8-3.2-.6-1.2-1.2-2.6-1.8-3.8-1.5-3.5-3.4-7-4.9-10.7-.9-2.3-1.5-4.4-2.4-6.7-1.2-4.1-2.8-8.1-3.7-12.2-1.2-3.8-2.1-7.3-3.1-11-.6-2.3-1.2-4.4-1.5-6.7-.6-3.2-.6-6.1-.9-9.3-.6-4.1-.9-7.8-.9-11.9v-16c0-4.4-.3-8.7.9-13.1.6-2.6.9-5.5.9-8.1,0-5.2,2.1-10.2,3.1-15.4,1.2-5.8,3.4-11.3,5.5-16.8.3-1.2.9-2.3,1.2-3.5,1.2-3.2,2.4-6.1,3.7-9.3,1.5-3.5,3.4-7,5.2-10.4,1.2-2,.9-2.9-1.5-3.2-1.2,0-2.8-.6-3.1-1.7-.3-1.5-1.2-2-2.8-2.6-2.4-1.2-3.7-2.6-1.8-5.8,0-.3.3-.9.6-1.5v.6h0ZM417.9,251c-.9.9-1.5,1.7-2.4,2-.9.6-2.1.9-3.4,1.2-.6.3-1.5.9-2.1,1.2-1.8,1.2-4,2.6-5.8,3.8h-.9c-.9,0-1.5.6-2.4,1.5-.9,1.2-1.8,2-3.1,2.6-1.8.6-3.1,2-4.3,3.5-.9,1.2-2.1,2-3.4,2.9,0,0-.9.6-1.2.9-.6.9-1.2,2-2.1,2.9-2.8,2.9-4.3,6.4-6.1,9.6-.6.9-.9,2-1.8,2.9-1.5,2-2.1,3.8-2.1,6.4v2.6c-.6,1.7-1.5,3.8-2.1,5.5,0,1.2-.6,2-.6,3.2,0,2.3-.6,4.9-.6,7.3s0,2.9-.6,4.4v9c0,1.2,0,2.6.6,3.8.6,3.2,1.8,6.1,1.8,9.3s0,1.2.6,1.7c1.5,1.5,2.1,3.5,3.1,5.5.6,1.2,0,1.5-.9,2.3,0,0,0,.3-.6.6h.9c1.6,0,2.7.7,3.1,2,0,.6,0,1.2.6,1.7,1.2,1.5,2.1,2.9,3.4,4.4.6.9,1.5,1.7,3.1,1.5,0-1.5.6-2.9.6-4.4s-.6-2.9-1.2-4.4-.6-.9-.9-.6c-1.5,0-2.1-.9-2.8-1.7-1.2-1.7-2.1-3.8-2.4-6.1v-1.2c-1.8-2.9-2.8-6.1-3.4-9.3,0-2-1.2-4.1-1.5-6.1,0-3.5,0-7.3-.6-10.7v-1.7c.9-5.2,1.8-10.4,3.4-15.7.9-2.9,2.1-5.5,4.3-7.5,0-.6.9-1.2.9-1.7,0-2.6.9-3.2,3.7-3.8,1.5-.3,1.8-.6,1.2-2v-3.2c1.2-1.2,2.1-2.3,3.7-3.5,1.2-1.2,2.8-1.7,3.4-3.5,0,0,0-.6.6-.6,3.4-2.6,6.4-5.5,10.1-7.3,2.8-1.5,5.5-3.2,8.3-4.6.9-.3,1.5-.9,2.4-1.2,1.8-.6,4-.6,5.8-1.2,2.4-.6,4.9-1.2,7.3-.9h0c1.5,0,3.4-.6,4.9-.9h6.1c1.2,0,1.8.6,2.4,1.7.9,1.5,2.4,1.7,3.7.6.9-.9,2.1-.9,3.4-.6,1.5.6,2.8,1.2,4.3.9.9,0,1.5.3,1.8,1.2,0,.9.9,1.2,1.8,1.2s1.8,0,2.8.6c.6.3,1.2.6,1.8.9,3.7,1.5,7.3,2.9,9.5,6.4,0,.6.9.9,1.2,1.2.9.6,2.1,1.2,2.8,1.7,2.4,2.3,5.5,4.1,7,7.3,0,0,0,.3.6.6,1.8,2.3,4,4.4,5.5,7,1.2,1.7,2.1,3.8,3.1,5.5,1.2,2.6,2.8,5.5,2.4,8.7v1.2c.6,2.9,1.2,5.5,2.1,8.4.9,3.2.9,6.7.9,10.2s-.9,4.6-.9,6.7c0,3.5-.9,7-2.4,10.2,0,.9-.9,1.7-1.2,2.3-1.2,2.9-2.1,5.8-3.7,8.7s-4.6,6.1-7.3,8.7-5.5,5.5-8.6,7.8c-1.8,1.5-3.7,2.3-5.5,3.8-.9.6-1.2,1.2-1.5,2v2c0,.9,0,1.7.6,2.6h.6v-1.5h1.5c1.5,0,3.1-.6,3.7-2s.9-1.2,2.1-1.5c.6,0,1.2-.6,1.2-1.2,0-1.7,1.2-2.6,2.4-3.5.6-.3,1.2-.6,1.5-1.2,1.2-2.3,4-3.5,5.8-5.5.6-.9,1.5-1.5,1.8-2.3,1.2-2,2.1-4.1,4-5.5,0,0,.6-.9.6-1.2.6-1.2,1.2-2.6,1.5-3.8.9-1.7,1.8-3.8,2.4-5.5.9-2.6,1.8-5.5,2.4-8.4.6-2.9,1.2-4.1,1.5-6.4,0-2.6,0-5.5.9-8.4,0-2.6,0-4.9-.6-7.5,0-1.7-.9-3.5-.9-5.2v-4.1c.6-1.5.6-2.9,0-4.4,0-.9-.6-1.7-.6-2.9s0-1.2-.9-1.7-1.2-1.2-1.5-1.7c-.9-1.7-1.5-3.8-3.1-5.2s-1.2-1.5-1.5-2.3c-.6-1.2-.9-2.3-1.5-3.5-1.5-2.6-3.7-4.9-6.4-6.4-1.2-.6-1.8-1.7-1.5-3.2v-2.3c0-.9-.6-1.2-1.2-1.2s-1.2,0-1.2.9v.9c-.9,0-1.5-.3-1.5-1.2,0-1.5-1.2-2.3-2.4-2.9s-.9-.3-1.2-.6c-.6-.9-1.5-1.5-2.8-1.7-.6,0-.9-.3-1.2-.9-1.2-1.2-2.1-2-3.4-3.2-.6-.6-1.2-.9-1.8-.6-.9.6-2.1.3-3.1,0-1.2-.6-2.4-1.2-3.7-1.7-2.1-.9-4-1.5-6.1-2h0c-1.8,0-3.7-.6-5.5-.9-2.8-.3-5.8-.6-8.6-.3-1.5,0-2.8.3-4.3,0-1.8-.6-3.7-.3-5.5,0-1.2,0-2.4.3-3.7.6h-1.5c-3.1.9-5.8,2-8.6,1.2h.9v.3ZM527.4,785.9c-.6-.9-1.2-.9-2.1-.9-1.8.6-3.1,0-4-1.5-.6-.6-.9-1.5-.9-2.3v-2.9c0-.9-.6-1.5-1.5-.9,0,0-.6.6-.9.9-1.2,1.2-2.4,2-4.3,2.3-2.1.6-4.6,1.2-6.7,2.3-2.4,1.2-4.9,2-7.3,2.9-3.4,1.2-7,1.7-10.1,3.5h-.9c-2.1.3-4,.9-6.1,1.2-1.8.3-3.7.9-5.2,1.5-3.7,1.5-7.3,2-11,2.6-5.5.9-11,1.5-16.2,2.3-.6,0-1.2,0-1.5.3-2.8.6-5.8.9-8.6-.3-.6,0-.9-.6-1.5,0,0,.3.6.9.9,1.2.6.9.9,1.7.6,2.6,0,.9-.6,1.5-1.2,1.5-.9,0-1.5,0-2.1-.9,0-.6-.9-.9-1.2-1.5h-.9s-.6.9,0,1.2c0,.6.6,1.2.9,1.7.9,1.2,1.5,2.3.9,3.8v1.5c.6-.9.9-1.7,1.5-2,0-.3,1.2-.6,1.5-.6.6,0,1.2.6,1.2,1.2,0,1.2,0,2-.9,2.9,0,0-.6.6-.9,1.2.9,0,1.5.3,2.4.3,2.4,0,5.2,0,7.6-.3,4.3-.6,8.3-1.2,12.5-1.5h1.2c1.5,0,3.4-.3,4.9-.6,3.4-.6,6.7-1.5,10.1-2,2.8-.6,5.2-.9,8-1.5.6,0,.9,0,1.5-.3,1.8-.6,3.4-1.2,4.9-1.7,1.8-.6,3.7-.9,5.5-1.2,1.8,0,2.4,0,3.1,1.7s3.1,2.6,4.9,1.7c1.2-.6,2.4-.9,4-.9s1.8-.3,2.4-1.2c.9-.9,0-2.3-.9-2.6h-1.2c-1.2.6-2.8.6-3.7,1.7,0,.3-.9.3-1.5.6h-1.8c-.6,0-1.5-.3-1.5-1.2s0-1.2,1.2-1.5,1.8-.6,2.8-.9c3.1-.9,6.4-2,9.5-2.9.9,0,1.5-.9,2.4-1.2,2.8-.6,5.2-2.6,7.6-3.5.9-.3,1.8-.9,2.8-1.2,0-.9-.6-1.7-.6-2.6s1.2-1.5,1.8-2.3h-1.2,0ZM433.5,412.9c-.6,0-.9-.3-1.2-.3h-8.3c-1.5.9-3.1.9-4.6.9s-2.8,0-4,.3c-1.5.6-3.1.6-4.9.6h-4.3c-.9,0-1.8.3-2.8.6-1.5.6-3.1,1.2-4.6,1.5-2.1.6-4.6.9-6.7,1.5-1.5,0-3.1.3-4.3.9-2.1.9-4.9.9-7,1.7-1.5.6-3.4.9-4.9,1.5s-3.1,1.2-4.9,1.5c-3.1.6-5.8,2-8.6,2.9-2.4.9-4.9,1.5-7.3,2.3-.9,0-1.5.6-2.4.9-2.4.9-4.6,2-6.7,2.9-1.2.6-1.5.6-1.2,1.7,0,1.2,0,2-.6,2.6,0,.3-.6.6-.9.9-.6.9,0,1.7.6,2,0,0,.9,0,1.2.6,2.8,1.2,4,4.4,2.4,7,0,.3,0,.9-.6,1.5,1.2.3,1.8-.3,2.4-.9,2.1-1.7,4.6-2.9,7.3-4.1,4.9-1.7,9.5-3.8,14.4-5.5,4-1.5,8-2.6,11.9-4.1,2.1-.6,4.3-1.2,6.4-1.7.9-.3,2.1-.9,3.1-.9,2.4-.6,4.9-.9,7.3-1.2,2.4-.6,4.9-1.2,7-1.7,3.1-.6,5.8-.9,8.9-1.2,4.3-.6,8.6-1.2,12.5-.9h0c-.6-.9-1.2-1.5-1.8-2.3-1.8-2.6-1.2-6.7,1.2-8.7.9-.9,2.4-1.7,3.7-2.3.6,0,.9-.6,1.5-.9v.6h.6ZM415.4,814.3c-.9-1.2-1.8-1.7-3.1-1.7-1.8,0-3.4-.6-5.2-.9h-2.4c-1.5,0-3.1,0-4.3-.9-1.2-.6-2.4-.9-3.7-1.2-2.1-.3-4,0-6.1-.6-2.4-.3-4.9-.3-6.7-2.3,0-.3-.9-.6-1.5-.6-3.1,0-5.8-1.2-8.6-1.7-2.8-.6-5.2-1.7-8-2-.6,0-1.2-.3-1.5-.6-3.1-1.5-6.4-2.3-9.8-2-1.2,0-2.4-.3-3.1-1.5-.6-.9-1.2-1.5-2.1-1.7-4-1.7-8-3.8-11.6-5.5-.9-.3-1.8-.9-2.4-.9-1.8,0-3.1-1.2-4-2.3-1.2-1.5-2.8-2.3-4.3-2.9-.9-.3-1.8-.9-2.8-1.5-.6-.3-.9-.9-1.5-1.2-2.4-.6-4-2-5.8-3.2-2.8-2-5.5-4.4-8.9-5.8,0,0-.6-.6-.9-.9-1.5-1.5-3.4-2.6-5.2-4.1v.9c.6,1.7,1.5,2.9,3.4,3.8,1.2.6,2.1.9,2.8,2,0,.3.6.6.9.9,1.5.9,2.8,1.7,3.4,3.2,0,.6.9,1.2,1.5,1.2,1.5,0,2.8.9,4,1.7.6.6,1.2,1.2,1.8,1.5,1.5.6,3.1,1.5,4.3,2.6,0,.3.9.6,1.5.9,2.1.9,4,1.7,5.8,2.9,3.4,2,6.7,4.4,10.7,5.5,0,0,.6,0,.9.3,1.8,1.5,4.3,2.3,6.4,3.5.6.3,1.2.6,2.1.9,2.8.9,5.5,1.7,7.6,3.5,0,.3,1.2.3,1.8.6,1.2,0,2.4,0,3.4.6,2.8,1.2,5.5,2.3,8.6,3.5.9.3,1.8.6,2.8,0,.6,0,1.2-.3,1.8,0,1.8.6,3.7,1.2,5.5,1.7s2.1.6,3.1.9c2.1.3,4.3,1.2,5.5,2.9.9,1.2,1.2,1.2,2.8.6,1.2-.9,2.8-.9,4.3-.9,3.1,0,5.8.3,8.9.6.9,0,1.5,0,2.1.6,1.2.3,4,.3,6.1,0h0l-.3-.3ZM477.8,752.3c-.6.9-.9,1.7-1.5,2.6-.9,1.2-2.1,1.2-2.8,0v-.9c-.6-.9-.9-1.2-2.1-.6-1.8.6-2.4,2-1.2,3.5.6.9.9,1.7,0,2.6,0,.6-.9.9-1.5.9s-.9-.6-1.2-.9c0-.3,0-.9-.6-1.2-.6-.6-1.5-.6-2.1,0s-.6,1.2,0,2c0,0,.6.3.6.6.9.9.9,1.5,0,2.3-.9.6-1.5.9-2.4,1.2-2.1.9-4.6,1.2-6.1,2.9-.9.9-2.1,0-2.1-1.2v-1.2c0-.6-.9-.9-1.2-1.2,0,0-.9.3-1.2.9v1.5s.6.3.6.6c.9.9.6,1.5-.6,1.7-.6,0-.9,0-1.5.6v1.2c0,.6.6.6.9.3,1.5-.3,3.1-.6,4.6-1.2.9,0,1.5-.9,2.4-1.2,3.4-.9,6.1-2.6,8.6-4.6,2.8-2,5.8-3.5,8.3-5.8,1.8-2,3.7-3.5,5.5-5.5,1.2-1.5,2.4-2.9,3.7-4.4,2.4-2.3,4.3-5.2,6.1-8.1.6-.9.9-1.7.9-2.6s0-1.7,1.2-2.3c.6-.6,1.2-1.2,1.5-2,1.5-4.1,2.8-8.1,4-12.2v-1.5c-1.5.6-1.8,1.5-1.8,2.3,0,2-.6,3.8-1.5,5.5,0,.9-.6,1.7-.9,2.6-.6,1.2-1.2,2-1.8,2.9,0,.6-1.2.9-1.8.3,0,0-.9-.9-.9-1.2,0-.6,0-.9.9-1.2.9-.6,1.5-1.2,1.2-2.3,0-.3-.6-.9-.9-.9s-.9,0-1.2.6c-.6,1.2-1.2,2.6-1.8,3.8-.9,1.7-1.2,3.8,0,5.5v1.7c0,.9-1.2.6-1.8.6-1.8,0-2.8,0-3.7,1.7-.6.9-1.5,1.7-2.4,2.6,0,.3-.6.6-.9.9-.6.9,0,1.5.6,2,.6.3,1.2,0,1.8-.9v-.6c.6-1.7,1.2-2,3.4-1.2,0,1.2-.6,2-1.5,2.9-.6.6-1.2,1.2-1.5,2-.6.9-.9,1.7-1.2,2.3-.6.9-1.5.9-2.1,0v-.6c-.6-.9-1.2-1.5-2.1-1.2-.6,0-1.2.3-1.2,1.2s0,1.2.6,1.2c.9.6,1.5.9,2.8,1.2v-.9h-.3ZM383.9,749.6c.6-.3.9-.6,1.2-.9.6-.6.9-1.5.6-2.3,0-.6-1.2-1.2-1.8-1.2-.9,0-.9.6-.9,1.2v.9c0,.9-.9,1.2-1.8.9-.6,0-.9-.6-1.5-.9-1.2-1.2-2.1-2.6-3.1-3.8-3.1-4.6-6.1-9.3-7.3-14.5,0-1.2-.9-2.3-1.2-3.5-.6-2.3-.9-4.4-1.5-6.7v-7c0-1.5,0-1.7,1.8-1.5,1.8.3,1.8,0,2.8-1.2-.6-1.2-1.5-1.5-3.1-1.5s-1.5-.3-1.5-1.5v-4.6c0-1.2,0-2.3-.6-3.5-.9.9-1.2,1.7-.9,2.6v10.7c0,3.2,0,6.4.9,9.6.9,2.9,1.5,6.1,2.4,9,.9,2,1.5,4.1,2.8,6.1,1.5,2.6,3.1,4.9,4.9,7.3,0,.6.6.9,1.2,1.2,1.8,1.2,2.8,2.9,4,4.6.6.9,1.2,1.5,2.1,2,.9.9,1.8,1.5,2.8,2.3.9.9,1.8,2,3.1,2.6,1.8,1.2,3.7,2.3,5.5,3.5,2.4,1.7,5.2,3.2,8,4.6,2.1,1.2,4.6,2,7,2.9h1.2c-.9-1.2-1.5-1.5-3.1-1.7-.9,0-1.5-.3-2.4-.6-2.8-1.7-5.8-3.2-8.3-5.5-1.2-.9-1.2-1.2-.6-2.6,0-.9.6-1.7,0-2.3-.9-.6-1.5-1.5-2.8-.9-1.5.6-2.1,0-1.8-1.5v-.6c0-1.2,0-1.7-1.2-2.3-.9-.6-1.5,0-2.1.3,0,0,0,.3-.6.6,0,.3-.9.3-1.2,0,0,0-.6-.6-1.2-1.5l-1.2.9h-.3ZM430.4,367.3h0v-.9c0-1.7,0-2-2.1-2.3-.6,0-.9,0-1.5-.6-1.5-.6-3.1-1.5-4.6-2h-.6c-1.2,0-1.5.3-1.2,1.5v1.5c0,1.7.6,3.5,0,4.9v1.2c.6,1.7,0,3.2,0,4.9v5.2c-.6.9-.6,1.5,0,2.3v4.6c0,1.5,0,2,1.8,1.7h2.4c1.5.6,2.4,0,2.4-1.5v-8.4c.9-2.9.6-5.8,0-8.7v-4.1c0-1,.4-1.5,1.2-1.7,0,.6.9,1.2,1.2,2h.6l.3.3ZM278.1,696.6v.6c.3,0,.9.3,1.2,0,1.2-.3,2.8-.9,4-1.5,2.4-.9,4.6-1.7,7-2.6.6,0,.9-.3,1.5-.3s.9,0,.9.3v.9c-.3.3-.9.6-1.2.9-1.5.9-3.4,1.5-4.9,2.3-1.5.6-2.8,1.7-4.3,2,0,0-.6.3-.6.6-.6,1.5,0,2.6,1.8,2.6s1.5,0,2.4-.6c3.7-2,6.7-5.2,10.1-7.5.9-.6.9-1.2,0-2-.6-1.2-.6-1.5.6-2,1.8-.9,3.7-1.5,5.5-2.3s3.4-1.7,4.9-2.6c.6-.3,1.2-.9,1.2-1.5,0-1.5-1.5-2.3-3.1-2,0,0-.9,0-1.2.6-2.4,1.2-5.2,2.6-7.6,4.1-1.8,1.2-3.7,2.3-5.5,3.2-1.2.6-2.4,1.2-3.4,1.7-2.1,1.7-4,2.9-6.7,3.8-.9,0-1.8.9-2.8,1.2h0v.3ZM348.8,464.5v2c0,1.7.9,3.8,1.2,5.5,0,1.7,1.2,3.2,2.8,4.4.6.3,1.2.9,1.5,1.5,2.4,2.9,4.9,5.5,7,8.4.6.9,1.5,1.5,2.4,2h1.2v-1.2c0-.9-.6-2-1.2-2.9-2.8-4.6-5.5-9.3-8.3-13.9-1.5-2.3-2.8-4.6-4.3-7-.6-1.2-1.2-1.5-2.4-1.2-.9.3-1.5,1.2-1.5,2.6h1.2l.3-.3ZM437.2,354.6h1.8c2.1,0,4.3,0,6.1.9h1.2c.9-.9,1.2-3.2,0-4.4-.9,1.2,0,2.9-1.5,3.8-1.2-.6-1.8-1.7-1.8-2.9v-4.4c.9-4.4.6-8.7.6-13.1s0-2.6-.6-4.1c0-.3,0-.6-.6-1.2v7.3c0,2.3-.6,4.6-.9,7v4.6c0,.6,0,1.2-.6,1.2-.6.3-1.2-.3-1.5-.9,0-.9-.6-1.7-.6-2.6v-10.2c0-2,.6-4.1.6-6.1v-5.5c0-1.7,0-.6,0-.9h0v1.7c0,2.6,0,5.5-1.2,8.1-.6,1.5-.9,3.5-.6,4.9,0,2.3.6,4.6.6,7.3s0,3.2.6,4.6c0,1.7.6,3.5-1.2,4.9h0l-.3-.3ZM570.5,455.2h0v-.9c.9-1.2.6-2-.9-2.6h-1.5c-.9,0-1.5,0-1.8-.9-.6-1.2-1.8-1.7-2.8-2.6-1.8-1.2-4-2.3-5.8-3.8-1.5-1.2-2.4-2.6-3.7-3.8s-1.5-1.5-2.4-1.7c-1.2-.3-2.1-.9-3.1-1.5s-1.8-1.2-2.8-.6c-1.2.6-2.1.6-3.1,0h-.9v.9c0,.3.6.6,1.2.9.6.3,1.5.6,2.1.9,3.4,2.6,7.3,4.1,11,6.7,3.7,2.6,7.6,4.6,11,7.3,1.2.9,2.4,2,3.7,2.9,1.5,1.5,3.4,1.5,5.5.6,0-1.2-1.2-2-2.4-2.3-.9-.3-2.1,0-3.1,0l-.6.6h.3ZM246.3,637.7c-.6,2.6,0,4.9.9,7,0,.6.6.9,1.2.9.9,0,1.2-.6,1.2-1.5v-2.3c-.6-1.7-.6-3.5-.6-5.2s-.3-3.2-.6-4.6c0-1.2-.6-2-.6-3.2v-14.5c0-4.9,0-.9,0-1.5s-.3-.9-.6-.9c-1.2-.6-2.8,0-3.1,1.5v7.3c0,.6.9.9,1.5,1.2-1,.8-1.5,1.7-1.5,2.9v1.2c.9,1.7.9,3.5.9,5.2v3.5c0,1.2,0,2.6,1.2,3.5h0v-.3ZM249.4,568.6c0,1.5.3,2,1.2,2.3.9,0,1.5,0,1.8-1.5.3-.9.6-1.7.9-2.6.3-1.5.9-2.9,1.2-4.4.9-2.3,1.2-4.6,0-7s-.3-1.7.9-2,1.8-1.2,2.4-2.3c.3-.9.6-1.7,1.2-2.6,1.2-2.6,2.4-5.5,3.7-8.4h0c0-.9,0-1.5-.6-1.7-1.2-.9-2.4-.6-2.8.9-.9,2.3-1.5,4.6-2.8,7-1.5,2.6-2.4,5.8-3.4,8.7-1.5,4.1-3.1,7.8-3.4,12.2,0,.6,0,1.2-.3,1.5h-.3ZM422.5,769.7v-.6c.9-2.6,0-3.2-2.4-2.9h-.6v2.3c-1.8.3-2.1,0-2.4-1.7,0-1.7-1.5-2.9-3.4-2.6-.9,0-1.2.9-.6,1.5,0,.3.9.6,1.2.9v.9l-.6.6c-.6,0-1.2,0-2.1.3,0,.6,0,.9.6.9,1.2.3,2.4.9,3.7,1.2,2.1.3,4,.6,6.1,1.2,0,0,.9.3,1.2.6.6.6,1.5.9,2.1.6,1.2-.3,2.8,0,4,.3h1.8c.9,0,1.5,0,2.4-.3,0,0,.9,0,1.2-.3h0v-.9c-.6-1.2-.4-2.1.6-2.9,0-.3,1.2-.6.9-1.5-.9-.6-2.1,0-3.1,0s-1.2.6-1.5,1.5v2.3c0,.9-.6,1.5-1.5,1.5s-1.5-.6-1.5-1.5v-2c0-1.5,0-1.7-1.8-1.7s-1.5.6-1.8,1.5c-.6,1.5-1.5,1.7-3.7,1.2h1.2ZM302.9,676.8c-.6,0-1.2,0-1.5.3-1.2.6-2.4,1.2-3.7,1.7-2.1,1.2-4.6,2.3-6.7,3.8-1.5.9-3.1,1.7-4.6,2.6-1.8.9-3.4,2.6-5.5,2.9-.3,0-.6.3-.9.6-.9,1.5-2.8,2-4.3,2.3-.3,0-.9.6-1.2.9.3.3.6.9.9,1.2s.9,0,1.5,0,.9-.3,1.5-.3c1.5,0,2.4-.9,3.7-1.7,1.5-1.2,3.4-2.3,5.2-3.5,3.4-2,7.3-3.2,10.7-5.5,1.5-1.2,3.4-2,4.9-2.9.6-.3.9-.9.6-1.5,0-.3-.9-.6-1.2-.9h.6ZM336.5,760.4c0-.6.6-.9.9-1.2.9-1.5,1.8-2.9,2.8-4.4,2.8-3.8,5.2-7.5,7.6-11.6.9-1.7,2.4-3.5,3.4-5.2,1.2-1.7,2.1-3.8,3.4-5.5v-1.7c-.6-.3-1.2,0-1.5.9-.6,1.2-1.5,2-2.1,3.2-2.4,3.5-4.9,6.7-6.7,10.4-.9,2-2.4,3.8-4,5.5-.9,1.2-1.5,2.6-2.4,3.8s-.9,1.5-1.5,2c-1.2,1.5-.6,2.6.6,4.1h0l-.3-.3ZM437.5,321.8h-.6c-.9,1.2-1.8,2.3-2.4,3.8-1.2,2.6-2.4,5.5-3.1,8.1-.6,2.9-1.2,5.8,0,9,0,.6.6,1.5.6,2.3v7.5c0,.6,0,1.5,1.2,1.7v-9c-.6-6.4,1.2-12.5,2.8-18.6,0-1.5.6-2.9,1.2-4.4v-.6h.3ZM375.4,440.4c-1.5.6-3.4.9-5.2,1.7-.6,0-1.2.6-1.8.9-.9.3-1.5.6-2.4.9-1.8.6-3.7,1.2-5.2,2-.9.3-1.2,1.5-.9,2.3,0,.9,1.2.9,2.1.9h.6c2.4-.9,4.6-1.5,7-2.3,1.5-.6,3.4-1.2,4.9-1.7.6,0,1.5-.6,2.1-.9.9-.3,1.2-1.5.9-2.6,0-.9-1.2-.9-2.1-.9h0v-.3ZM274.8,685.5c.6.9,1.2.9,1.8.6,2.1-.9,4.3-1.5,6.4-2.6,1.5-.6,2.8-1.7,4.3-2.6,2.1-1.2,4.3-2,6.4-3.2.9-.6,2.1-.9,3.1-1.2,1.5-.9,2.8-1.5,4.3-2.3,0,0,.6-.9,0-1.2,0-.3-.9-.6-1.2-.6-.6,0-1.5,0-2.1.3-2.8,1.5-5.5,2.9-8.3,4.4-2.8,1.5-5.2,3.2-7.6,4.6-2.1,1.2-4,2.9-6.7,3.5h0c0,.3-.6,0-.6,0l.3.3ZM593.8,531.5v-.6c-.3,0-.6-.6-1.2-.6s-.9,0-1.5.3c-2.8,1.2-5.2,2.6-8,4.1-5.2,2.9-10.4,5.8-15.9,9,0,0-.9.3-1.2.6,0,.3,0,.9-.6,1.2,0,0,.9.3,1.2,0,1.2-.6,2.4-1.2,3.7-1.7.9-.3,1.5-.9,2.4-1.5,2.1-1.5,4.9-2,6.7-4.1,0,0,.6,0,.9-.3,4.6-1.5,8.3-4.4,12.5-6.4.3,0,.6-.3.9-.6v.6h0ZM560.7,684.7c0,.9,0,1.2.6,1.5,2.1,1.2,4.3,2.3,6.1,4.1h0c1.8,1.2,3.7,2,5.5,3.2,4.3,2.6,8.6,4.6,12.5,7.5,0,0,.6.3.9.3h1.5c0-.3,0-.9-.3-1.2,0-.3-.6-.6-.9-.9-4.9-2.9-9.8-6.1-14.4-9-2.8-1.7-5.8-3.5-8.9-5.2-.6-.6-1.5-.9-2.4-.6h-.6l.3.3ZM624,638.6h0v-1.7c0-.3,0-.9-.6-.9-1.2-.9-3.1,0-3.1,1.5,0,2.9-.9,5.5-1.5,8.4,0,1.2-.3,2.3-.3,3.5s.3,1.2.9,1.7c1.2,1.2,2.1.9,2.4-.9,0-1.2.6-2,.6-3.2.6-2.9,1.2-5.8,1.8-8.7h-.3v.3ZM497.1,783.6c.9,0,6.1-1.5,6.7-1.7.6-.6.9-1.2,0-2-.6-1.2-1.8-1.5-3.1-.9-1.5.6-2.8,1.5-4.3,2-2.1.9-4.6,1.2-7,2-.6,0-1.2.3-1.8.6s-.9,1.2-.9,1.7.9,1.2,1.5,1.2c2.4,0,4.9-.3,6.7-2,0,0,.9-.3,1.5-.6h.3l.3-.3ZM557.1,689.6c0,.3.6.6.9.9,4.9,2.9,9.8,6.1,15,9,3.4,2,7,4.1,10.7,6.1.6,0,1.2.6,1.5,0v-1.5s-.6-.3-.9-.6c-2.8-1.5-5.5-2.9-8-4.4-2.4-1.5-4.9-2.9-7.3-4.4-1.2-.9-2.8-1.5-4-2.3-1.5-.9-3.1-2-4.6-2.6-.9-.6-1.8-.9-2.8,0h0l-.6-.3ZM431.7,386.2c-.9-.6-.9-1.5-.6-2.3.9-3.8,0-7.8.6-11.6,0-.6,0-1.2-.9-1.5-.9.9-.9,1.7-.9,2.6v15.4c0,1.5,1.2,1.7,2.8,1.5.6,0,1-.6,1.2-1.7,0-1.7,0-3.8,2.1-4.6.9-.6.9-1.2,0-1.7s-.9-.9-1.5-1.2c-.9.9-.6,2-.9,2.9s0,2-1.2,2.3h-.6ZM590.7,696.3s-.6-.6-1.2-.9c-.9-.6-1.8-.9-2.4-1.2-1.8-1.5-3.7-2.6-5.5-3.5,0,0-.6-.3-.9-.6-4.6-2.9-9.5-5.8-14.1-8.7-.9-.6-1.8-.9-2.4-1.2h-.9v.9c0,.3.9.9,1.2,1.2,2.8,1.7,5.8,3.5,8.6,5.2,2.1,1.2,3.7,3.2,6.4,3.5l.6.3c2.8,1.7,5.5,3.8,8.3,5.5.3,0,.6.6,1.2.6s1.2,0,1.2-1.2h0ZM391.3,439.3c1.5,0,3.1-.6,4.6-.9.9,0,1.2-.9.9-2,0-.9-.6-1.2-1.5-1.2s-1.8,0-2.8.3c-2.4.6-5.2,1.2-7.6,1.7-1.2.3-2.8.9-4,1.2-.9.3-1.2,1.2-.9,2,0,.9.9,1.5,2.1,1.5s3.1,0,4.3-1.2,2.8-2,4.9-1.5h0ZM593.8,746.7c-1.8,0-1.8.3-3.1,1.7-1.8,1.7-3.4,3.8-5.2,5.5-2.1,1.7-4,3.5-5.2,5.8,0,.6-.9.9-1.2,1.2-.6,0-1.2.3-1.5.6-1.5.6-2.1,2.3-1.5,3.5,1.2-.3,2.4-.9,3.4-1.2.6,0,1.2-.9,1.5-1.2.6-.9,1.2-1.7,1.8-2.6,0-.6.9-.9,1.2-1.2,1.2-.6,1.8-1.5,2.1-2.6,0-.9.6-1.2,1.5-1.5.6,0,.9-.6,1.2-.9.9-1.2,1.8-2.3,3.1-3.2.9-.9,1.5-1.7,1.5-3.2v-.9h.3ZM508.4,779.5h.9c2.4-.9,4.9-1.7,7.3-2.9,1.5-.6,2.8-1.7,4.3-2.6.6-.6.9-1.2.6-2,0-.9-1.2-.9-1.8-.9s-.9.3-1.5.6-1.2.9-1.8,1.2c-1.8.9-4,1.5-5.8,2.3q-1.8.9-2.8,1.5c-.9.3-.9,1.2-.6,2,0,.6.9,1.2,1.8,1.2h-.6v-.3ZM590.4,507.4c0-.6,0-.9-.6-1.2-1.5-1.7-2.4-3.5-4-5.2-.9-1.5-2.1-2.6-3.7-3.8,0-.3-.9-.6-1.5-.9-.9-.3-1.8,0-2.4.9s0,1.2.6,1.7c1.5,1.7,3.1,3.5,4.6,5.2.9,1.2,1.8,2.3,3.1,3.5.6.9,1.2,1.2,2.4.6.3,0,.9-.3,1.5-.6h0v-.3ZM527.7,774.3c-1.8.6-3.4.9-4.9,1.5,0,0,0,.6-.9.9h1.2c.6,0,.9-.6,1.5-.6,1.2,0,2.4,0,2.4.9s0,1.5-1.8,1.7h-.6s-.6.3-.6.6c0,.9,0,1.7.9,2,.9.3,1.2,0,1.8-.6s0,0,0,0c1.2-.9,2.1-.9,2.8.6.6,1.7.6,3.2.9,4.9v2c1.2-.9,2.4-1.5,3.4-2,.9-.9,2.4,0,3.4-1.5-.9-.3-1.8-.3-3.1,0s-1.8,0-2.4-1.2v-2.6c0-2,0-4.1-2.4-4.9,0,0-.6-.6-.9-.9,0-.3-.6-.9-.6-1.2h0v.3ZM251.2,576.8h0v-1.7c0-.6,0-1.2-.9-1.2s-1.2,0-1.5.9-.9,2-.9,2.9c-.6,3.8-1.2,7.8-1.8,11.6h0c0,.9,0,1.2.9,1.5,1.5,0,2.4-.9,2.4-2s0-2.6.6-4.1c.6-2.6,1.2-4.9,1.8-7.5h-.6v-.3ZM606.3,683.8c0,1.2.6,2.3,1.5,2.6,1.2.3,1.2-.6,1.5-1.2,1.5-3.8,3.4-7.5,4.9-11v-.9c0-.6,0-1.2-.9-1.5-1.2-.6-2.1,0-2.8,1.5-.9,2.6-2.1,4.9-3.1,7.5-.3,1.2-.9,2.3-1.2,3.2h0v-.3ZM428.3,402.4h9.2c.6,0,1.5,0,1.5-.9s0-1.2-.6-1.7c-.6-.9-1.2-1.5-2.1-2.3,0-.3-.9-.6-1.5-.9-.9,0-1.5-.6-2.4-.9s-1.5-.3-2.4-.3-1.2.3-1.2,1.2v2.6c0,.9,0,1.5-.9,2.6,0,0,.6.6.6.6ZM411.2,432h-3.1c-2.8.6-5.2,1.2-8,2-.9,0-1.2.9-.6,1.7,0,.6.9.9,1.8.9h3.7c2.8-.3,5.2-.9,8-1.2.6,0,1.2-.3,1.8-.6.9-.3.9-1.2.9-1.7,0-.9-.9-.9-1.5-.9h-3.1v-.3ZM617.3,557.3c-.3-1.2-.9-2-1.2-2.9-.6-1.7-1.2-3.2-1.8-4.9-.6-1.5-.9-2.9-1.2-4.1s-.9-1.7-1.5-2.6-2.1-.9-2.4.3v2.3c.9,2.6,1.8,5.2,3.1,8.1.3.9.6,1.7.9,2.6.9,1.7,1.5,2,4,1.2h.3ZM621.9,574.7c0-1.2-.6-2.6-.9-3.8-.6-2.3-1.2-4.4-1.8-6.7,0-.6-.3-1.5-.9-2-.3-.9-1.2-.6-2.1-.6s-.9.9-.9,1.5c0,1.2,0,2.3.6,3.2.9,2.9,1.8,5.5,2.1,8.7,0,1.2.6,1.5,1.8,1.5s1.5-.6,1.8-1.7h.3ZM453.4,793.2h2.8c2.1,0,4.3-.6,6.4-.9.9,0,1.5-.3,2.4-.6.9,0,1.2-.9,1.2-1.7s-.9-1.2-1.5-1.2h-3.1c-2.4,0-4.6.6-7,.9-1.2,0-2.1.3-3.4.9-.9,0-.9.9-.9,1.7s.6.9,1.2.9h1.8,0ZM558.9,745.6c0,.3,0,.6.6.9,1.2,1.7,1.5,1.7,3.1,0,1.5-1.5,3.1-3.2,4.9-4.6,1.2-.9,2.1-2,3.4-2.9.6-.6.9-1.2,1.2-1.7,0-.9,0-1.5-.9-1.7-.6-.3-1.2,0-1.5.3-1.2,1.2-2.8,2.3-4,3.8-1.8,1.7-3.4,3.8-5.8,5.2,0,0-.6.6-.9.9h0ZM625.3,598.5c-2.1,0-2.4.3-2.4,2s0,3.5.3,5.5v6.1c0,.6,0,.9.3,1.5.6.9,1.5.9,2.1,0,.3-.9.9-2,.9-2.9v-9.3c0-.9-.6-1.7-.9-2.9h-.3ZM568.1,483.1c-1.2,0-1.8.6-1.8,1.7s.6,1.7,1.5,2.3c1.2.9,2.1,1.7,3.4,2.6,1.5,1.5,2.8,2.6,4.3,4.1.9.9,1.5,1.2,2.4,0,.9-.9.9-1.2,0-2.3-.9-1.2-1.8-2-3.1-2.9-1.5-1.5-2.8-2.6-4.3-4.1,0-.3-.9-.9-1.2-1.2s-.6-.3-.9-.6h0l-.3.3ZM620.1,656s0-.9-.6-1.2c-.6,0-1.5-.3-1.8,0-.6.3-.9,1.2-1.2,1.7-.9,3.2-1.8,6.4-2.8,9.3v1.2c0,.9.9,1.5,1.8,1.7.9,0,1.2-.3,1.5-.9,1.2-3.8,2.1-7.5,3.4-11.3v-.6h-.3,0ZM557.4,750.2c0-.3-.6-.9-.9-1.2s-.9,0-1.2.3c-1.5,1.2-3.1,2.6-4.9,3.8-.9.9-2.1,1.5-3.1,2.3-1.2,1.2-2.8,2.3-4.3,3.2-.9.3-1.2,1.2-.9,2,.6.9,1.2.6,2.1,0,2.4-.9,4-2.6,6.1-3.8,1.5-1.2,3.1-2.6,4.6-3.8.6-.6,1.2-1.2,1.8-1.7s.6-.9.9-1.2h-.3ZM482.1,785s-.9,0-1.2.3c-1.5.6-3.1.9-4.6,1.5-1.8.3-3.7.6-5.5.9-1.5.3-2.1.6-1.8,1.7,0,.9.9,1.2,2.4,1.2h0c3.7-.9,7.6-1.5,11.6-2.3,1.2,0,2.1-1.2,2.1-1.7,0-.9-1.2-1.5-2.8-1.5h-.6.3ZM625,595.6v-.9c-.6-4.4-1.2-9-1.8-13.3,0-.9-.6-1.2-1.5-1.2s-1.5.6-1.5,1.5v2.9c0,.9.6,1.7,1.5,2,1.5.9,1.5,1.2,0,2.3-.9.9-1.2,4.6,0,5.5h.3c.9.3,1.8.6,2.8.9h.3v.3ZM253.3,667.6h0c.9,3.2,1.2,6.1,2.8,8.7.3.9.6,1.5.9,2.3s.6,1.7,1.2,2.6c.6.9,1.2.9,1.8.3.9-.6,1.2-1.5.6-2.9-.9-1.5-1.5-2.9-2.1-4.6-.9-2-1.5-4.1-2.4-6.4-.3-.9-.9-1.5-1.8-1.5s-.9,0-.9.9v.6h0ZM499.6,442.2s-.9.3-1.2.9,0,1.5.6,1.7c.9.6,2.1,1.2,3.1,1.7,1.2.6,1.8.3,2.4-.9s.9-.9,1.8-.6c.6,0,1.2.9.9,1.5,0,1.5.6,2.3,1.8,2.6.9.3,2.1.6,3.4.9.6,0,1.2,0,1.5-.6,0-.9,0-1.5-.6-1.7-1.5-.6-2.8-1.5-4.3-2-.6,0-1.2-.3-1.8-.9-2.1-1.7-4.6-2-7.6-2.3h0v-.3ZM521.6,419.6c0,1.5.9,1.5,1.5,1.5s1.5,0,2.1.3c2.8,1.2,5.8,2.3,8.6,3.8,2.4,1.5,4.9,2,8,1.2-.9-1.5-2.1-2-3.7-2.6-3.4-1.2-6.4-2.9-9.8-3.5-1.8-1.2-4.3-.6-6.7-1.2v.6h0ZM247.8,599.4c0-1.5,0-2.9-.3-4.4,0-.6-.3-1.2-1.2-1.5s-1.2.6-1.2,1.2c-.9,3.2-.9,6.7-.9,10.2s.6,1.2,1.5,1.5c1.2,0,1.5,0,1.8-1.5,0-1.7.3-3.5.6-5.5h-.3ZM609.7,538.8c-.9-2-1.8-3.8-2.8-5.5-.6-1.2-1.2-2.6-2.1-3.8v-.6c-.3-.6-.9-.9-1.8-.9s-.9.9-.9,1.5c0,.9,0,2,.6,2.9.9,1.7,1.8,3.5,2.8,5.5.9,2.3,1.8,2.6,4.6,1.5v-.6h-.3ZM625.6,623.2h0c0-1.2-.3-2-.6-3.2,0-.6-.6-1.2-1.5-1.2s-.9.9-.9,1.5v2.6c0,1.7,0,3.8-.6,5.5,0,.9-.3,1.7,0,2.6,0,1.2.6,1.7,1.8,1.7s1.2-.3,1.5-1.5c0-2.6.6-5.2.6-8.1h-.3ZM540.8,762.7s-.6-.3-.9-.3c-1.5,0-3.1.6-4.6.9,0,0-.6.6-.6.9,0,1.5-.9,1.7-2.1,2-1.8.3-3.7.6-5.2,2,0,.3-.6.9-.6,1.5s.6.6.9.9c1.2.3,2.4.6,3.7.9,0-1.5.6-2.3,1.8-2.9.6,0,.9-.9,1.5-1.2,1.2-1.2,2.4-2,4-2.6.9,0,1.5-.6,2.1-1.7h0v-.3ZM318.5,754.6c0-1.2-.9-2-1.8-2.6-1.5-.9-3.7-1.7-4.3-3.5,0,0,0-.3-.6-.6-.9-.6-1.5-1.2-2.4-1.7s-2.1-1.2-3.1-1.7c0,0-.9,0-1.2.3v1.2h0c2.8,2.6,5.5,4.6,8.3,7,.9.6,1.5,1.5,2.1,2.3,0,.6.6,1.2,1.5.9.9,0,.9-.9.9-1.5h.6ZM293.4,731.1s-.9,0-1.2.6,0,.9.3,1.2c0,.6.9.9,1.2,1.5,1.8,3.5,5.8,4.9,8.3,7.8,0,0,.6.3.9,0,0,0,.6-.6.6-.9,0-.9-.9-2-1.5-2.6-1.5-1.2-2.4-2.6-3.1-4.1-.9-1.7-2.4-2.6-4-3.5h-1.5ZM238,694.8c.9-1.5,1.2-2,.3-4.1-1.2-3.5-2.1-7-3.4-10.2-.6-1.5-.9-2.9-1.8-4.4-.6-1.2-1.5-1.5-2.8-.9,0,.6.6,1.2.9,1.7,0,.3-.6.9-.6,1.2.3.6.6,1.2.9,1.7,0,.9.6,1.5,1.5,1.7s1.2,1.2,1.2,2v1.2c.6.9,1.5,1.5,1.8,2,.3,1.5,1.5,2.6,1.2,4.4,0,1.2,0,2.3.6,3.2h.3c0,.3-.3,0-.3,0v.3ZM587.6,718.9s.9-.3,1.2-.9c1.5-1.2,3.1-2.6,4-4.1,1.2-1.5,1.8-3.5,2.8-4.9,0-.6,0-1.2-.6-1.5s-1.2,0-1.5.6c-2.1,2.9-4.3,5.5-6.4,8.4-.3.3-.6.9-.6,1.5s0,.9,1.2.9h0ZM280.3,752.8c0,1.5.6,2,1.8,2.9.6.6,1.5,1.2,1.8,2,1.2,1.7,3.1,2.9,4.9,4.4.6.6,1.5.3,1.8-.6s0-1.7-.6-2.3c-1.5-1.5-3.4-3.2-4.9-4.6-.6-.6-1.5-1.2-2.4-1.5-.6,0-1.5,0-2.1-.3h-.3,0ZM242.9,701.5c0,1.7-.6,2.3-1.8,2.6-.3,0-.6.6-.9.9.9,0,1.8,0,2.4.6.9,1.2,2.1,2.3,2.4,3.8.6,2.3,1.8,4.1,3.1,6.1,0,.6.6,1.2,1.8.9-.3-.6-.6-1.5-1.2-1.7-.9-.9-1.2-2-.6-2.9.3-.9,0-1.5,0-2.3-.9-1.5-1.5-3.2-2.4-4.6,0,0,0-.3-.3-.3-.6-.9-1.2-1.7-2.4-2.9h0ZM439.6,618.8c-.6-1.5-1.5-2.9-2.1-4.4h0c-1.5-1.7-2.1-3.2-2.4-5.2,0-.6,0-1.5-.6-1.5s-.9.6-1.5.9v.6c0,2,0,4.4,1.5,5.8,0,.3.9.6,1.5.9,1.8,0,2.1.6,2.1,2.6h-1.8c.9,1.7,1.2,1.7,3.7,0h0l-.3.3ZM369.9,716v-2.6c0-.3-.6-.6-.9-.9,0,0-.9.6-.9.9,0,1.2-.6,2.6,0,3.8v2c0,1.2.6,2.6,1.2,3.8.6.9.9,1.7.9,2.9s0,.6,0,.9c0,.9.6,1.5,1.2,1.5h.9c.6-.6,0-1.2,0-1.7,0-1.2-.9-2-1.2-3.2,0-.9,0-2-.9-2.6-.9-1.5-.9-2.6-.9-4.4h0l.6-.3ZM435.3,784.5h.9c1.8,0,2.1-.6,1.8-2.3,0-1.5-.9-2.6-1.2-4.1,0-.9-.9-1.2-1.5-1.2-.9,0-1.5.3-1.5,1.5s0,2-.6,3.2c-.6,2.6,0,2.9,2.4,2.9h-.3,0ZM425.8,781.6h0v1.5c0,.9.9,1.2,1.8,1.5.9,0,1.5,0,1.8-.9.6-1.5,1.2-3.2.9-4.9,0-1.5-.9-2-2.4-2.3-1.2,0-1.5,0-1.5,1.2s0,2.9-.6,4.1h0ZM419.1,334h0s0,.6-.6.6c-.6,1.5-.9,2.6-1.2,4.1-1.2,4.1-1.5,8.1,0,12.2v2.9c0,.3.6.6,1.2.6s.6-.6.6-1.2c0-1.5-.9-2.9-1.2-4.4-.6-3.8-.9-7.3,0-11,.6-1.5.9-2.6.9-4.1h0l.3.3ZM543,427.1c0,1.7,1.2,2.3,2.4,2.9,1.2.3,1.8.9,2.1,2s1.2,1.7,2.4,2c.6,0,1.2.6,1.5,1.2.6.6,1.2,1.2,2.1,1.2,0-.6.9-1.2,1.2-1.5h0c-3.4-3.2-7.3-5.5-11.9-7.5h0v-.3ZM280.6,716.9s-.6,0-.6.3v1.2c2.1,2.6,4.3,5.2,6.4,7.8.6.6,1.2,1.5,1.8,2,.6.3,1.2.6,1.8,0s0-1.2,0-1.5c-.9-.9-1.8-2-3.1-2.6-.6-.6-1.2-1.2-1.5-1.7-.6-1.2-1.2-2.3-1.8-3.2s-1.8-1.7-3.1-2h0v-.3ZM280.9,508.6c0-.3-.3-.9-.6-.9h-1.2c-1.2,1.2-2.8,2.3-3.4,4.1-.6,1.2-1.5,2-2.1,2.9s-.9,1.5-1.2,2.3v.9h1.2c.3,0,.6-.6.9-.9.6-.6.9-1.5,1.5-2,.3-.6.9-1.2.9-1.7,0-1.5.9-2,1.8-2.9.9-.6,1.2-1.5,1.8-2.3v.6h.3ZM387.6,293.4h-.6c-1.5.9-2.8,1.7-4.6,2.3-.9,0-.9.9-.9,1.7,0,1.5,2.1,2.9,3.4,2.6,0,0,.9,0,1.2-.6,1.2-1.7,1.8-3.8,1.8-5.8h0l-.3-.3ZM467.1,436.4v-2c0-.6,0-.9-.6-1.2-2.1-.6-4-1.5-6.1-1.2,0,0-1.2.3-1.2.6v1.5c0,.3.9.6,1.2.9,1.8.6,4,.9,6.1,1.5h.6ZM632.6,686.7c-.6.6-.9,1.2-1.2,1.7-.6,1.2-.9,2.3-1.5,3.2-1.8,1.7-2.1,4.4-3.1,6.4,0,.6-.6,1.2,0,2,1.2-.3,1.8-1.2,2.4-2.3.3-1.2.6-2.6.9-3.8,0-.6,0-.9.6-1.2,1.5-1.5,1.5-3.2,2.1-5.2v-.6c-.3,0-.3-.3-.3-.3ZM563.8,772.3c1.2,0,2.4,0,3.4-.6,2.4-1.2,4.9-2.9,7.3-4.4,0,0,.6-.9,0-1.2,0,0-.6-.6-.9-.6h-1.5c-1.5,0-1.8.3-1.8,1.7,0,1.5-.8,2.3-2.4,2.3h-.9c-1.2.6-2.8.6-3.4,2.6h.3ZM595,745.3h1.2c2.4-1.2,4-3.2,5.5-4.9.3-.3.3-1.2.3-1.7,0-.9-.6-1.2-1.2-.9-.6,0-1.2.3-1.5.9-1.5,1.7-2.8,3.8-4,5.8,0,.3-.3.9-.6,1.5v-.6h.3ZM268.9,741.8c.3.9.6,1.7,1.2,2.3.3.3,1.2,0,1.8.3,1.5,0,2.8,1.5,3.1,2.9.3,1.2.9,2.3,1.2,3.5,0,0,.6.3.9.6.6-1.2,1.2-2,.6-3.2-1.8-2.3-3.7-4.6-6.1-6.1-.9-.6-1.8-.6-3.1-.3h.3ZM409,792s.9-.3,1.2-.9c0-.6,0-1.5-.9-1.7-1.8-.6-3.4-.9-5.2-1.2-.9,0-1.5.9-1.8,1.7,0,.9.6,1.2,1.2,1.2,1.8.3,3.4.6,5.5.9h0ZM469.6,436.4c1.8,1.2,3.7,1.2,5.8,1.5.6,0,1.5,0,1.8-.6,0-.6,0-1.5-.9-2-1.5-1.2-3.1-1.2-4.6-1.2s-.9.3-1.2.9l-.9,1.7h0v-.3ZM448.5,434.1s0,.3.6.3h5.5s.9-.6.9-.9c0-1.2-.6-1.7-1.8-2.3-.6,0-1.5-.6-2.1-.9-.9-.3-1.2,0-1.8.9,0,.9-.9,1.7-1.2,2.6h0v.3ZM550.6,469.7s-.9.3-1.2.9c-.6.6,0,1.2.6,1.5,1.2,1.5,2.8,1.7,4.6,2.3.9.3,1.8-.6,1.5-1.5-.6-1.5-3.4-3.2-5.2-3.5h0l-.3.3ZM259.5,510.6c.9,1.5,2.1,2.3,3.4,2.9.6.3,1.2.3,2.1.3s1.5-.6,1.2-1.5c0-.3-.3-.9-.9-1.2-.9-.6-1.5-1.2-2.4-1.5-1.5-.6-1.8-.6-3.4.9h0ZM267.7,740.1c0-.9.9-2,0-2.9-1.5-1.7-3.1-3.5-4.6-5.2-.3-.3-.9-.9-1.5-.9s-.9.3-1.2.6c0,.3.3.9.6,1.2h.6c1.8.3,2.1.6,2.1,2.3s1.8,3.5,3.4,4.9h.6ZM363.1,776.9v-.3c-.9-.3-1.8-.9-2.8-1.2-1.8-.6-3.1-.3-4.6,1.5,1.5,1.2,3.4,1.7,5.2,2.3h.9c.6-.6,1.2-1.2,1.8-1.7v-.6h-.6ZM254.3,662c-.6-1.7-.9-3.2-1.5-4.6,0-.6-1.2-.9-2.1-.6s-.9.9-.6,1.5c.3,1.5.9,2.9,1.5,4.6,0,.6.9.9,1.5.6s.9-.9,1.2-1.5ZM483,436.4c-1.5,0-2.1.3-2.1,1.5s0,1.5,1.2,1.7c.6.3,1.5.6,2.1.9s1.2.3,1.8-.3c.6-1.2.6-2.3,0-2.6-.9-.6-2.1-.9-2.8-1.2h-.3ZM356.4,486.6l-.6.3c0,1.2.6,2.3.9,3.5.6,2.3,1.5,2.6,3.7,1.2.6-.6.9-.9,0-1.7s-1.8-1.7-2.8-2.6c0-.3-.9-.6-1.2-.9h0v.3ZM492.8,442.8c1.5,0,1.8-.3,2.1-1.5,0-.9,0-1.2-.9-1.5-.6,0-1.5-.6-2.4-.6-1.5-.3-1.8,0-2.1,1.2s0,1.2,1.2,1.7c.9,0,1.8.3,2.1.6h0ZM542.7,463.4c0,.6,0,.9-.6,1.5-.6,1.5,0,2.3,1.2,2.9,0,0,.6.3.9.6.6.3,1.2.6,1.8,0s.6-1.2,0-2c-.9-1.2-1.8-2.3-3.7-2.9h.3ZM284.5,504.8c.6-.3,1.2-.6,1.5-1.2.6-1.2,1.2-2.3,2.4-3.2.6-.3.6-.9,0-1.7-.3-.6-1.2-.6-1.8,0,0,0-.3.6-.6.6-.6.9-1.2,1.5-2.1,2.3,0,.3-.6.6-.9.9,0,.3-.3.9,0,1.5,0,.3.9.6,1.2.9h.3ZM579.4,727c0,.3,0,.9.6,1.2,0,0,.9,0,1.2-.3,1.2-1.5,2.4-2.9,3.4-4.4v-1.2h-1.5c-1.2.9-2.1,2-3.1,2.9,0,.6-.6,1.2-.9,1.7h.3ZM222.5,634.8v.9c0,1.2,0,2,.6,2.9.9,1.5.6,2-.6,2.9-1.2.9-.6.6-.6.9s.3.9.9.9c1.2,0,1.8,1.2,1.8,2.3s.3.6.6,1.2v-.9c-.6-3.2-.9-6.4-1.5-9.6,0-.6,0-1.2-1.2-1.2h0v-.3ZM319.7,471.8c.6-.3,1.2-.6,1.5-.9,1.2-.9,2.4-1.7,3.4-2.6v-1.2c0-.6-.9-.9-1.5-.3-1.5.9-3.1,2-4.6,3.2,0,0-.6.9,0,1.2,0,.6.9.9,1.2,1.2v-.6ZM520.7,566.6c1.2-2,0-2.6-1.5-2.9h-3.7s-.6.3-1.2.6c1.8,1.5,3.7,2.9,6.1,2.3h.3ZM295.2,492.4s-.6-.6-.9-.6c-.6,0-1.2,0-1.5.3-1.2.9-2.1,2-3.1,3.2-.6.6-.3,1.2,0,1.5.6.3,1.2.3,1.5,0,.9-1.2,1.8-2,2.8-3.2,0-.3,0-.9.6-1.2h.6,0ZM446.6,770.5c-.6,0-1.2-.6-2.1-.3-1.8,0-3.4,0-5.2.6h-.9s-.6.6-.9.9c0,0,.9.6,1.2.6,2.8.6,4.9-.9,7.3-1.5v-.6l.6.3h0ZM432.9,796.3c-2.1-.6-3.7-.3-5.5-.3s-.9.6-.6,1.2c.6,1.2,1.5,2.3,2.4,3.5.6-.9.9-1.5,1.5-2s1.2-1.2,2.1-2h0v-.3ZM391.3,354.9c-.6.9,0,1.7,0,2.3,0,0,.6.3.9.9.6,1.7,2.4,2.3,4,3.5h.9c-.6-1.7-4.3-5.8-6.1-6.7h.3ZM333.5,769.4v2.3c0,1.2.6,1.5,1.8,1.2,1.2-.3,2.4-.3,3.7,0h1.5c-.9-1.2-1.8-1.5-2.8-2s-1.8-.9-2.8-1.2c0,0-.9-.6-1.2-.9v.6h-.3ZM248.1,650.2c0,1.2.6,2.3.9,3.5,0,.6.6.9,1.2.9s.9-.6,1.2-1.2c0-1.5,0-2.9-1.5-3.8-.3,0-.9-.3-1.2-.3,0,0-.3.6-.6.9ZM252.1,719.2c.3,2.3,1.5,4.4,3.4,6.4.6-.3.9-.9,1.8-1.5-1.5-.3-2.1-1.2-2.1-2s-.3-1.5-.6-2c-.3-1.2-.9-1.2-2.4-.9h0ZM362.8,807.4v.6c.6.9,1.5,1.5,2.8,1.7,1.2,0,2.8.6,4,.9h2.1s.6-.6.9-.9c-3.4-.9-6.4-1.5-9.8-2.3h0ZM577.5,458.4c0,.3-.6.6-.6.9,0,.9,0,2,.6,2.6,0,.6,1.2.9,1.8,1.2,0,0,.9,0,1.2-.3v-1.2c-.6-1.2-1.2-2-2.1-2.9,0,0-.6,0-.9-.6h0v.3ZM388.2,680s.9-.3,1.2-.9,0-.9,0-1.5c-.6-.9-3.1-1.5-4-.9,0,0-.6.6-.6.9s0,.9.6.9c.9.3,2.1.6,3.4,1.2h-.6v.3ZM610.9,526.3v.6h1.5c1.2-.3,2.8-.9,4-1.5.3,0,.9-.9.9-1.2,0-.9-.9-.6-1.5-.6-1.8.6-3.7,1.5-5.2,2.6h.3ZM302.3,483.9c-1.8,1.5-3.4,2.6-4.9,4.1v1.2h1.2c2.1-.6,3.4-2.3,4-4.1v-1.2h-.3ZM602.6,715.1c-1.2,0-1.8.6-1.2,1.5.6,1.2,1.5,2,3.1,2s1.2-.3,1.2-1.2,0-1.5-1.2-1.7c-.6,0-1.5-.3-1.8-.6ZM525.6,427.7c-.9,0-1.2,0-2.1.3.6.3.9.6.9.6.6,0,1.2.6,1.8,0,.6-.3.6-1.5,0-2.3,0-.6-.9-1.2-1.2-2-.9,0-1.8.3-3.1.6.6.6,1.2.9,1.5,1.2.6.3.9.9,1.5,1.5h.6v.3ZM516.7,425.4v-2c.9.3,1.5.6,2.4.9v-.6c-.6-.9-3.4-1.5-4.3-.9-.9,1.2-2.1.6-3.1.3-.6,0-1.5-.3-2.1-.6h0c2.1,1.2,4.3,2,6.7,2.6h0l.3.3ZM618.8,509.2c.6,1.5,1.2,2.9,2.8,4.1.9-1.7.6-3.2-.6-4.4s-1.5-.6-2.4,0h.3v.3ZM424.6,800.7s-.6.3-.6.6v4.4c0,1.5.6.6.6.6,0,0,.9-.6.9-.9v-3.8c0-.3,0-.6-.6-1.2h-.3v.3ZM458.9,763.9c1.2,0,1.8-.6,1.8-1.7s-.6-1.5-1.2-1.5c-.9,0-2.4,1.2-2.4,2s.6,1.2,1.5,1.2h.3ZM315.7,473.2h-.6c-1.2.9-2.4,1.5-3.4,2.3,0,0-.6.9,0,1.2,0,0,.9.6.9.3,1.2-.6,2.1-1.2,3.1-2v-1.5h0v-.3ZM540.5,434.3c0-.9-.9-1.7-1.8-2-1.2,0-1.5.6-1.8,1.5v1.2c0,.3.9.6,1.5.3.6,0,1.5-.9,2.1-1.2h0v.3ZM523.4,560.8c-.9,0-1.5.3-1.5,1.5s.6,1.7,1.8,1.7,1.5-.6,1.8-1.5c0-1.2-.6-1.5-1.8-1.5h0l-.3-.3ZM369.6,702.4v-1.2c0-.6,0-1.2-1.2-1.2s-1.2.3-1.2,1.2v2.3c0,.6.9.9,1.5.6v-1.7h.9ZM383,682.4s1.2,0,1.2-.6,0-1.2-.6-1.7-1.2-.6-1.8-.9c0,.6-.6,1.2-.6,1.5,0,1.5,0,1.7,1.8,1.7ZM495.3,716.6v-.9c0-.6-.6-1.2-1.2-1.2s-.9.6-1.2.9v.9c0,1.2.6,1.7,1.5,1.7s1.2-.6,1.2-1.7h0l-.3.3ZM429.2,759.5v-1.2c0-.3-.9-.9-1.5-.9s-.9.6-.9,1.2v2s.6.6.9.6.9,0,1.2-.6v-1.2h.3ZM459.5,375.8h-.6c-.6,1.5-.6,3.2,0,4.9,0,0,.6.6.9.6l.6-.6v-4.1s0-.6-.6-.6h-.3v-.3ZM440.2,768.5h.9c.6,0,.9-.3,1.2-.9,0-.6,0-1.2-.9-1.2h-2.1s-.6.6-.6,1.2,0,.9.9,1.2h.9-.3v-.3ZM383.3,726.4c-1.2-.6-2.1-.6-3.1,0-.6.3-1.2.9-.9,1.7,0,.6.9.9,1.8.9,1.2-.3,1.8-.9,2.1-2.3h0v-.3ZM409,650.7c.6,0,1.5,0,2.1-.3,0,0,.9-.6.9-.9s-.6-.9-.9-.9h-2.1c-.6,0-1.2.3-.9,1.2,0,.9.6.9,1.2.9h-.3ZM448.2,399.2c-.9,1.7,0,3.5,2.1,3.5s.9-.3,1.2-.6c0-.3,0-.9-.6-1.2-.9-.6-1.5-1.2-2.8-1.7ZM616.7,716.9c-1.2,0-1.8.6-2.1,1.2-.3.9-.9,1.7-1.2,2.9,0,.6-.3,1.2.3,1.7.9-2,2.1-3.8,3.1-5.8h0ZM346.9,469.2c0-1.7-.6-2.9-1.5-4.1h-1.8v1.2c.6.9,1.5,2,3.1,2.6h0l.3.3ZM558.9,776.9s1.2,0,1.8-.6c.6-.3.9-1.5.6-2-.6-.6-1.2-.3-1.8,0s-1.2.9-1.5,1.5,0,1.2,1.2,1.2h-.3ZM423.7,646.1c-1.2-.6-2.1-.6-3.4,0,0,0-.6.6-.6.9,0,.9.9,1.7,2.1,1.2.9-.3,1.8-.9,1.8-2h0ZM376.9,678.6c0-.6,0-1.2-.9-1.5-.9,0-1.8.9-1.8,2s0,1.2,1.2,1.2,1.5-.9,1.8-2h-.3v.3ZM634.1,532.1h-.3v.6c.6,2,1.2,4.4,2.1,6.4,0,.3.6.6.9.6h.3c0-2.6-1.8-4.9-2.8-7.3h-.3v-.3ZM648.8,602.9c.9-1.5,1.5-2.3.9-3.5-.6-.9-1.5-1.5-2.8-.9.6,1.5,1.2,2.6,2.1,4.4h-.3ZM458.6,370.5c1.2-.3,1.2-1.2,1.5-1.7v-2.6c0-.3,0-.6-.6-.9,0,.3-.6.6-.6.9v4.4h-.3ZM433.8,375.2c1.2-1.5,0-2.9,0-4.4s0-1.5-.9-2c-.6,2-.6,4.6.6,6.4h.3ZM648.8,638c-.9,1.2-1.8,2-2.8,3.2.6.6,1.2,1.2,1.8,1.7.9-1.2,1.2-3.2.9-4.6h0v-.3ZM560.7,439.3c-1.2-2.6-2.4-2.9-5.2-1.7,1.5,1.5,3.4.9,5.2,1.7ZM446,767.6c.9,0,1.5,0,1.8-.9,0-1.2-.6-1.5-1.8-1.2-.9,0-1.8.9-1.5,1.5,0,.9,1.2.9,1.8.9h0l-.3-.3ZM501.4,417.5c-1.2-1.2-3.1-1.7-4.3-1.7s-1.8,0-2.8-.6c0,0-.6,0-.9-.3h0c.6.6,1.2,1.2,2.1,1.7,2.1-.9,4,.9,6.1.6h0l-.3.3ZM567.5,446.2h0c0-1.7-.9-2.6-2.1-3.5-.6-.3-1.5-.9-2.1,0,1.2,1.2,2.8,2,4,3.2h0l.3.3ZM465.9,263.2v-.6c-.6,0-1.5-.6-2.1-.9-1.2-.6-2.1-.9-3.4-1.5-.6,0-1.2-.3-1.8-.6h0c0,1.2.9,1.2,1.5,1.5,1.5.6,3.4,1.2,4.9,1.5h.9v.6ZM431,422.7c0,.9.6,1.7,1.2,1.5.9,0,1.2-.6,1.2-1.5s-.6-1.5-1.5-1.5-1.2.6-1.2,1.5h.3ZM461.6,653.9c0,.9.6,1.7,1.5,2h1.2c.6-.3.6-.9,0-1.5-.6-.9-1.8-.9-2.8-.6ZM242.6,700.3c0-.9-.3-1.5-1.2-1.7-.3,0-.9,0-1.2.6-.6.9-.6,1.5,0,2.3.9-.3,1.5-.9,2.4-1.2h0ZM372.3,685.5c1.5,0,2.1-.6,2.1-1.2,0-.9-.6-1.5-1.2-1.5s-2.1,1.2-1.8,1.7c0,.3.6.6.9.9h0ZM370.5,695.1s-.6-.6-.9-.9c-.6,0-1.5.9-1.5,1.7s0,1.2.9,1.2,1.5-1.2,1.5-2.3h0v.3ZM485.5,415.2c1.2.9,2.1,1.2,3.4.6,0-1.2-.9-1.5-1.8-1.7-.9,0-1.2.3-1.5,1.2h0ZM407.8,762.1s-.6.3-.9.9c0,.9.9,1.5,1.8,1.5s1.2-.3,1.2-1.2-.6-1.2-2.1-1.2h0ZM492.5,689.6c0-.3.6-.6.9-1.2,0-.9,0-1.5-1.2-1.5s-1.2,0-1.2.9.6,1.7,1.5,1.7h0ZM436.5,389.4c2.1,2.3,3.1,2.3,4.9,0h-4.9ZM493.1,723.3c0-1.2,0-1.7-1.2-1.7s-.9.6-1.2,1.2c0,.9.6,1.5,1.2,1.5.9,0,.9-.6.9-1.2h0l.3.3ZM373.2,730.5s-.6.6-.6.9c0,.6.6,1.5,1.2,1.7s1.2-.6,1.2-1.2-.6-1.5-1.8-1.5h0ZM296.8,767.1c0-2-1.2-2.6-3.1-2,.6,1.2,1.5,2,3.1,2ZM648.8,618c-.6,1.7-1.2,2.9-.6,4.4,1.8-.9,1.8-1.5.6-4.4ZM417.3,647.8c0-.6-.6-.9-1.2-.9-.9,0-1.5,0-1.5.9s.6,1.2,1.2,1.2,1.5-.6,1.8-1.2h-.3ZM496.2,700.3c0-.6-.9-1.2-1.2-1.7h-.6v1.7c0,.6.6.6.9.9,0-.3.6-.6.9-1.2h0v.3ZM647.9,625.5c-.6,1.2-.6,2.6-.3,3.8,0,0,.3,0,.6.3.9-2.9.9-3.2,0-4.1h-.3ZM406,368.5s-.6.6-.6,1.2,0,1.2,1.2,1.2.9-.3,1.2-.9c0-.6-.6-1.2-1.5-1.2h-.3v-.3ZM400.8,760.1v.6c.6.6,1.5.9,2.4.9s.6-.3.9-.6c0,0-.6-.9-.9-.9h-2.4ZM493.7,693.1s-.6.6-.6.9c0,.9.6,1.5,1.5,1.2,0,0,.9-.6.9-.9,0-.6-.9-1.5-1.8-1.5h0v.3ZM483.3,670.2c-.9-.6-1.2-.9-1.8-1.2-.6,0-.9.3-.9.9s.9,1.2,1.5.9c0,0,.6-.3,1.2-.9h0v.3ZM586.1,469.4c0,1.2,1.2,1.7,2.1,1.7,0,0,.6,0,.6-.3v-.6c-.9-.6-1.5-.9-2.8-.9ZM635,680.3c-.6.9-1.8,1.7-1.2,3.5,1.2-1.2,1.2-2.3,1.2-3.5ZM228,667.3c-.9,1.7-.9,2.3.9,3.2,0-1.2,0-2-.9-3.2ZM439.3,378.9c.9-1.5.6-2.6,0-3.8,0,1.2-.9,2.3,0,3.8ZM639.9,546.3c-.6-.6-.9-.9-1.2-1.2-.3.3-.9.6-.9.9s.6.9.9,1.2c0,0,.6-.3.9-.9h.3ZM363.4,811.7c.6.9,1.2.9,1.8.9,0,0,.6-.3.6-.6v-.6c-.6,0-1.5-.3-2.1.3h-.3ZM496.2,710.8v-.6h-1.2c-.6,0-.9.6-.6,1.2,0,0,.9.3,1.2,0,0,0,.6-.6.9-.9h-.3v.3ZM461,364.7c.9-1.7.9-2.3,0-3.2-.6.9,0,2,0,3.2ZM451.2,259.4c.9.6,2.1.9,3.4.3-1.5-1.5-2.1-1.5-3.4-.3ZM261.3,520.5c-.6-.6-.9-.9-1.5-.9s-.9.3-.9.9.6.9.9.9.6-.3,1.2-.6h.3v-.3ZM428.3,606.9c.9-.6.9-.9.6-1.5,0,0-.6-.3-1.2-.6v1.2c0,.3,0,.6.6.9h0ZM429.5,616.2c0-.3-.6-.9-.9-.9s-.6.3-.9.6c0,.3.6.9.9.9,0,0,.6-.3,1.2-.6h-.3ZM405.7,265.5c1.2.9,1.5.9,2.4,0-.9-.9-1.5-.6-2.4,0ZM583.1,465.7c-.9,1.2-.6,1.5.9,2,0-.9,0-1.7-.9-2ZM370.5,689c0,.6-.9.9-.9,1.2s.6.9.9.9c0,0,.9-.3.9-.6s0-.6-.6-1.2h0l-.3-.3ZM604.2,734c-.9.9-.9,1.5,0,2.3.6-.9.9-1.5,0-2.3ZM429.2,613.6c.9-.6.9-1.2,0-2-.6.6-.6,1.5,0,2ZM258.2,728.8c.9.9,1.2.9,1.5.6v-.6h-1.5ZM447.3,349.4h.6c0-.6.6-1.2-.6-1.7v1.7ZM456.4,368.2c0,.9,0,1.5.6,2,0-.9,0-1.5-.6-2ZM532,431.7v.6c.6,0,1.2.9,2.4,0-.9-.3-1.5-.6-2.1-.9h-.3v.3ZM398.6,277.1c-.9,0-1.5.6-1.2,1.5.9,0,1.2-.3,1.2-1.5ZM402.9,273.6l-.6-.3c-.6,0-.9.6-.9,1.7.6-.6.9-.9,1.2-1.2h0l.3-.3ZM473.3,661.8s.6.6.9.6h0c0-.3,0-.9-.6-.9l-.6.6h0l.3-.3ZM241.7,709c0-.3-.6-.9-.6-1.2-.6.9-.3,1.2.6,1.2ZM392.8,349.1c0,.9,0,1.2.9,1.5,0-.9,0-1.2-.9-1.5ZM220.9,636.2h-.3c0,.6,0,1.2.9,1.5,0-.9-.3-1.2-.3-1.7h0l-.3.3ZM445.7,380.1h-.6v1.7h0v-1.7h.6ZM431.7,706.1v1.2s.6,0,.6-.3v-.9h-.6ZM538.4,452s-.6,0-.9-.3v.3s0,.3.6.6l.6-.6h-.3ZM508.4,340.1s0-.6-.6-.6h0v.6l.6-.3h0v.3ZM436.2,369.7h0v-1.5h0v1.5ZM414.8,264.1v.9c0,.2,0,.3,0,.3l.6-.3-.6-.9h0ZM222.5,648.7h-.6v.9h.3v-.9h.3ZM322.5,789.7h0c0-.3-.9-.9-.9-.9h0s.6.3.9.6h0v.3ZM648.8,614.5v-.6h0v.6ZM280,706.7s0-.6-.3-.6h-.3v.6h.6,0ZM386.7,346.5h0ZM433.8,365.6h0q0-.2,0,0h0ZM220.9,634.5h0q0-.2,0,0h0ZM283.3,712.2h0Z"/>
  </g>
</svg>