<?xml version="1.0" encoding="UTF-8"?>
<svg id="Layer_1" xmlns="http://www.w3.org/2000/svg" xmlns:xlink="http://www.w3.org/1999/xlink" version="1.1" viewBox="0 0 500 500">
  <!-- Generator: Adobe Illustrator 29.3.1, SVG Export Plug-In . SVG Version: 2.1.0 Build 151)  -->
  <defs>
    <style>
      .st0 {
        fill: none;
      }

      .st1 {
        fill: #550047;
      }

      .st2 {
        clip-path: url(#clippath);
      }

      .st3 {
        fill: #021834;
      }
    </style>
    <clipPath id="clippath">
      <rect class="st0" x="5.8" y="173.3" width="145" height="200"/>
    </clipPath>
  </defs>
  <rect class="st3" x="627" y="-131.2" width="600" height="600"/>
  <g class="st2">
    <path d="M94.4,372.3c-.7,0-1.4,0-2.1,0-.6,0-1.3,0-1.9.2-.1,0-.3.1-.5,0-1.3,0-2.5.4-3.8.5-1.1,0-2.2.2-3.2.2-1.4,0-2.8,0-4.2,0-1.4,0-2.8,0-4.2,0-.5,0-1,0-1.5,0-1.1,0-2.2-.1-3.2-.2-1.7-.2-3.3-.4-5-.6-1.2-.1-2.3-.5-3.4-.4-.1,0-.3,0-.4,0-.7-.4-1.5-.4-2.3-.2-.9.2-1.7.1-2.5,0-.9-.2-1.8-.5-2.5-1.2-.3-.3-.6-.6-.7-1.1,0-.4-.3-.7-.8-.8-1.5-.5-2.9-1.1-4.3-1.7-1-.4-1.9-.6-3-.4-.5,0-1.1,0-1.6-.3-1-.6-1.9-1.2-2.9-1.9-1-.7-1.9-1.5-2.8-2.4-.8-.8-1.7-1.4-2.5-2.2-.4-.4-.8-.8-1.3-1.3-.5-.5-1.1-.9-1.6-1.4-.7-.6-1.3-1.2-2-1.9-.3-.2-.5-.5-.8-.7-.5-.4-1-.8-1.4-1.3-1.4-1.3-2.8-2.7-4.1-4,0,0,0,0-.1-.1-.6-.7-1.1-1.4-1.7-2.1-.2-.2-.3-.4-.5-.6-.7-.8-1.5-1.7-2.2-2.5-.5-.6-1-1.2-1.6-1.8,0,0-.2-.1-.3-.2-.3-.3-.7-.5-1-.9-.6-.7-1.1-1.4-1.8-2.1-.8-.8-1.3-1.8-1.9-2.8,0-.2-.1-.3-.3-.5-.4-.6-.6-1.2-.8-1.9,0-.3,0-.7,0-1,0-.3.2-.5.3-.8.2-.5,0-1-.2-1.5-.2-.5-.4-1-.6-1.5,0-.1,0-.2-.1-.3-.6-.9-.8-1.9-1.2-2.9,0-.2-.1-.4-.2-.5-.6-.9-.8-1.9-1.2-2.8-.2-.5-.4-1.1-.6-1.6,0-.1,0-.2-.1-.4-.1-.6-.3-1.3-.4-1.9-.3-1.9-.5-3.9-.8-5.8-.1-.8-.2-1.6-.3-2.3-.2-1.6-.4-3.1-.5-4.6-.1-1.8-.2-3.7-.2-5.5,0-1.6,0-3.3.1-4.9,0-.3,0-.7.1-1,0-.6.1-1.2.2-1.8,0-.5.2-1,.3-1.5.1-.8.2-1.7.4-2.5.3-1.4.5-2.7.9-4.1.3-1.1.6-2.3.8-3.4.1-.4.3-.8.4-1.2.2-.7.4-1.3.6-2,.4-1.1.8-2.2,1.3-3.3.2-.3.3-.7.4-1,.5-1.2,1.1-2.3,1.6-3.5.5-1.3,1.3-2.4,1.8-3.7.2-.5.6-1,.9-1.4.2-.4.5-.7.7-1.1.2-.4.2-.5-.2-.8-.2-.1-.4-.3-.6-.4-.4-.3-.5-.8-.3-1.2.3-.6.6-1.2,1-1.8.4-.6.7-.7,1.3-.3.3.2.5.3.7.5.4.2.6.2.8-.2.5-.7.9-1.4,1.4-2.2,0-.1.2-.3.3-.4.8-.9,1.5-1.8,2.3-2.7,1.2-1.3,2.4-2.6,3.6-3.8.4-.4.8-.7,1.2-1,.3-.3.7-.6.9-1,.3-.5.6-.9,1.1-1,.2,0,.4-.3.5-.5.5-.7,1.1-1.2,1.8-1.7,1.1-.8,2.2-1.5,3.1-2.4.1-.1.3-.2.5-.4.3-.2.6-.5.9-.7.2-.2.4-.4.6-.5.9-.3,1.4-1,2.1-1.5.4-.3.8-.5,1.3-.8.6-.3,1.2-.6,1.7-.9.8-.4,1.7-.9,2.5-1.3.7-.4,1.3-.7,2-1.1,1.2-.6,2.3-1.1,3.5-1.7.3-.2.7-.3,1-.4s.2,0,.4-.1c.9-.4,1.8-.8,2.7-1.2,1.1-.4,2.2-.8,3.3-1.2.5-.2,1.1-.3,1.6-.4.6,0,1.1-.3,1.7-.5.2,0,.4-.1.5-.1.8,0,1.6-.2,2.4-.4.5-.1.9-.3,1.4-.4.4,0,.7-.2,1.1-.2.9,0,1.8-.2,2.7-.2,1.3,0,2.6-.1,3.9-.2.5,0,.9,0,1.2-.4,0,0,.1-.1.2-.2.7-.4.8-1.1.9-1.8,0-.3-.1-.5-.4-.6-.4-.1-.8-.2-1.3-.2-.4,0-.8,0-1.2,0-.5,0-.8-.3-.8-.8,0-.4,0-.9,0-1.3,0-.8,0-.9-.8-1.1-.4-.1-.8-.3-1.1-.5-.6-.3-1.3-.6-1.9-1-.6-.4-1.2-.8-1.8-1.3-.3-.2-.6-.5-1-.7-.6-.3-1.1-.7-1.5-1.2-.3-.4-.6-.8-1-1.1-.7-.6-1.2-1.3-1.8-2-.6-.8-1.2-1.5-1.8-2.3-.3-.4-.6-.9-.9-1.4-.1-.2-.2-.3-.3-.5-.6-.7-.8-1.6-1.1-2.4-.4-1-.7-2-1-3.1-.2-.5-.3-1-.4-1.5-.2-.6-.3-1.2-.5-1.8,0-.2-.1-.4-.2-.5,0-1.1-.1-2.2.2-3.3.2-.7.3-1.5.4-2.3,0-1,.2-2,.4-3,.2-1.1.7-2,.9-3.1,0-.2.2-.5.3-.7.5-.9,1.1-1.7,1.5-2.6.6-1.1,1.4-1.9,1.9-3,.2-.4.6-.8.9-1.1.7-.6,1.4-1.1,2-1.8.3-.4.9-.6,1.3-1,.8-.8,1.9-1.3,2.8-1.9.4-.3.8-.7,1.3-1,1.1-.8,2.4-1.3,3.7-1.8.5-.2,1.1-.4,1.6-.6,1.1-.2,2.1-.4,3.2-.6.6,0,1.2-.1,1.8-.3.6-.1,1.2,0,1.8,0,.6,0,1.2.1,1.8.1s1.4.2,2.2.3c.3,0,.5.2.7.2,1.3,0,2.4.4,3.5.9.2,0,.4.1.6.2.2,0,.4,0,.5.2.5.2,1,.5,1.4.7,1.1.6,2.1,1.2,3.1,1.9.2,0,.3.2.5.3.6.2.9.6,1.1,1.3,0,.2.3.4.5.6.3.3.6.5,1,.7.9.6,1.6,1.3,2.1,2.2,0,.1.2.3.3.4,1,.8,1.4,1.9,2.1,2.9.5.7.9,1.5,1.2,2.3.3.8.6,1.6.9,2.4.3,1,.7,2.1.9,3.1.1.5.1,1,.2,1.5,0,.3,0,.6,0,.9.3,1.1.3,2.1.3,3.2,0,1,0,2-.1,3,0,.7-.3,1.4-.5,2.1,0,0,0,.2,0,.3,0,.8-.3,1.5-.6,2.3-.3.9-.8,1.7-1.1,2.6-.1.3-.2.7-.4,1-.2.4-.5.9-.8,1.3-.4.6-.8,1.1-1.2,1.6,0,0,0,0-.1.1-.5,1.1-1.4,1.8-2.2,2.6-.6.6-1.1,1.2-1.7,1.7-.7.6-1.5,1.1-2.2,1.6-.9.6-1.8,1.2-2.7,1.7-.8.5-1.7.8-2.6,1.3-.4.2-.7.3-1.1.4-.4.2-.5.6-.5,1,0,.3,0,.6,0,.9,0,.6-.3.8-.9.8-.4,0-.8,0-1.1,0-.3,0-.7.2-1,.5-.4.3-.7.5-.3,1.3.5,1.1.4,1.1,1.6,1.2.7,0,1.4.2,2.1.3.9.1,1.9.2,2.8.4.4,0,.8.2,1.2.3.3,0,.5,0,.8,0,.5,0,1,0,1.5.3,0,0,.2,0,.3,0,.9,0,1.7.5,2.6.7,1.3.3,2.5.8,3.7,1.2.6.2,1.3.3,1.9.5.2,0,.4,0,.6.1.5,0,1,0,1.4.3,0,0,0,0,.1,0,.9,0,1.7.3,2.6.4.2,0,.4,0,.7.1.2,0,.4.1.6.2.6.1,1.2.2,1.7.4,1.1.4,2.2.9,3.3,1.3.5.2.9.5,1.3.8,1.3.8,2.6,1.6,3.9,2.5.6.4,1.1.8,1.5,1.3.7.6,1.3,1.2,1.9,1.9.2.2.5.5.7.7.8.6,1.4,1.4,1.9,2.3.4.7.8,1.3,1.2,2,.3.4.7.7,1,1.1.6.6,1.1,1.3,1.8,1.8.3.2.6.6.8.8.5.5,1,1,1.5,1.4.7.7,1.5,1.3,2.2,2,.5.5.8,1.2,1.3,1.8.7.9,1.3,1.8,1.9,2.8.4.7,1,1.2,1.4,1.8.8,1.4,1.9,2.7,2.8,4,.2.3.4.7.6,1.1.3.6.5,1.3,1.1,1.8.2.2.3.6.4.8.3.6.5,1.2.8,1.8.3.7.7,1.5,1,2.2.4.9.9,1.8,1.3,2.8,0,0,.1.2.1.3.2,1.2.6,2.3,1,3.5.4,1.1.8,2.3,1.1,3.4.2.8.3,1.6.5,2.4.2.8.3,1.7.5,2.5.2,1.1.5,2.3.6,3.4,0,1.2.3,2.3.5,3.5,0,.8.1,1.5.2,2.3,0,1.6,0,3.2,0,4.8v1.7c0,.5,0,.9-.3,1.3-.1.2,0,.5,0,.8,0,.6,0,1.2,0,1.7s0,.1,0,.2c0,1.4-.3,2.7-.4,4.1,0,1-.3,2-.5,3,0,.5,0,1.1-.2,1.6-.1.6-.3,1.2-.5,1.9-.2.7-.4,1.3-.6,2-.4,2.1-1.1,4.2-2,6.2,0,0,0,.1,0,.2-.1,1.3-.8,2.4-1.3,3.5-.5,1.2-1.1,2.5-1.6,3.7-.6,1.5-1.5,3-2.4,4.4-.9,1.5-1.9,2.9-2.8,4.3-.5.8-1,1.6-1.6,2.4-.1.2-.2.3-.3.4-.3.4-.7.9-1,1.3-.4.5-.8,1.1-1.3,1.6-.5.6-.9,1.1-1.4,1.7-.6.7-1.2,1.3-1.8,1.9-.7.6-1.4,1.2-2,1.8-1.2,1-2.3,2.1-3.5,3.1-.4.4-.9.8-1.3,1.1-.9.7-1.9,1.4-2.8,2.1-1.4,1-2.8,2.1-4.3,2.9-.6.3-1.2.7-1.7,1.1-.9.7-1.8,1.2-2.8,1.6-.1,0-.2,0-.3.2-.8.7-1.8,1-2.8,1.4-.8.4-1.7.7-2.5,1.2-.9.5-1.9.9-2.9,1.2s-.7.3-1,.4c-1,.3-1.9.9-2.7,1.7-.8.8-1.9,1.1-3,1.1-.9,0-1.8,0-2.6,0ZM42.7,364.3c.2.2.3.4.5.6.2.2.4.2.7,0-.3-.5-.8-.4-1.2-.5-.5-.8-1.2-1.3-1.8-1.1.3.5.9.9,1.8,1.1ZM111.7,362.1c-.3,0-.6.2-1,.2-.6.1-1,.4-1.3.9-.3.4-.5.5-1,.5-.3,0-.6,0-.7.4s-.3.3-.6.3-.4,0-.6,0c-.3,0-.6,0-.8.3-.1.1-.3.2-.5.3-.8.1-1.1.7-1.6,1.2.4.3.7.2,1,0,.7-.3,1.4-.3,2-.8,0,0,.2,0,.2,0,.3-.2.7-.3,1-.6.3-.3.7-.4,1.1-.3s.5,0,.8-.3c.4-.4.8-.8,1.2-1.1.3-.3.7-.5.8-.9.2,0,.5.1.7.2.3,0,.5.1.7,0,0-.2,0-.6,0-.6.5-.2.7-.6,1.1-1,0,0,.2,0,.3,0,.3,0,.6-.2.9-.4s.3-.2.5-.3c.2-.1.4-.2.6-.4.4-.3.9-.6,1.3-.8.1,0,.2-.2.3-.3-.2-.1-.4-.2-.6-.1-.5.2-1,.4-1.4.7-.7.4-1.2,1.1-2,1.3-.1,0-.2.1-.3.2-.5.6-1.1,1.2-2,1.3,0,0-.2.1-.3.2ZM76.1,212.2c.5-.2.5-.2.4-.6-.3-1.3-.4-2.7-.3-4,0-.9.2-1.8.4-2.7.4-1.3.7-2.5,1.5-3.7.1-.2.1-.4.2-.6h-.1c-.1,0-.3,0-.4.1-.2.3-.4.5-.6.8-.4.7-.8,1.4-1.3,2.1-.3.5-.5,1-.6,1.6,0,.5,0,1-.2,1.5,0,.3,0,.6.2.9.3.3.3.8.4,1.2,0,.5,0,1.1.1,1.6,0,.6.2,1.2.3,1.8-.3,0-.6,0-.9,0-.5,0-.6-.1-.6-.6,0-.3,0-.6,0-.9,0-1.2-.1-2.4,0-3.7,0-.8.1-1.6.6-2.3.4-.5.4-1.1.7-1.7,0,0,0-.1,0-.4-.3.3-.4.6-.6.8-.2.3-.3.6-.4.9-.7,1.3-1,2.7-1,4.2,0,.3,0,.6.3.9.1.2.2.5.2.7,0,.5,0,1,.1,1.5.1.5.4.7.8.9.6.3.7.3,1-.4ZM114.6,243.3c0,.3.1.5.2.7.2.6,0,.8-.5.9-.2,0-.5.1-.7.2,0,.1,0,.2,0,.3.1,1.2-.1,1.6-1.2,2-.2,0-.4,0-.6,0-.4-.2-.7-.4-1.1-.5-.5-.2-.8-1-.6-1.5.2-.5.5-.7,1-.7,0,0,.2,0,.3,0,.3,0,.4-.2.4-.5,0-.2,0-.3-.1-.5,0-.3,0-.5.4-.5s.3,0,.5.1c.2,0,.4.2.6.2.1,0,.3,0,.4-.2.2-.5,0-1.2-.5-1.4-.7-.3-1.4-.7-2-1-1-.5-2-1.1-3-1.7-1-.5-2-1-3-1.4-.3-.2-.7-.3-1.1-.4-.4-.2-.9-.3-1.4-.4-.8-.3-1.7-.6-2.5-.9-.9-.3-1.9-.6-2.8-.9-.6-.2-1.2-.4-1.8-.5-.8-.2-1.6-.4-2.5-.6-.2,0-.3,0-.5,0-1-.2-2-.3-2.9-.5,0,0-.2,0-.2,0-.4,0-.8-.2-1.3-.2-.6,0-1.1,0-1.6-.3-.1,0-.2,0-.4,0-1,0-2-.1-3-.3-1.1-.2-2.4,0-3.5,0-.3,0-.5.1-.5.5,0,.5-.2.8-.6.9,0,0-.1.1-.3.3.4.3.9.4,1.1.8.1.4.3.8.3,1.2,0,.4-.3.8-.6,1.2.1,0,.3.1.4.1,1.1.1,2.2.3,3.3.3,1.3,0,2.7,0,4,.3.9.2,1.8,0,2.7.4.2,0,.5,0,.7,0,.2,0,.4,0,.6,0,1.5.4,3.1.9,4.6,1.3.4.1.7.3,1.1.3,1,.1,1.8.5,2.7.9.1,0,.3.1.4.2.6.2,1.3.4,1.9.7.6.2,1.2.5,1.8.8.5.2,1,.4,1.5.7,1.1.6,2.2,1.1,3.4,1.6.6.2,1.2.6,1.8.9.3.2.4.4.2.7-.2.3-.4.2-.7.1-.4-.1-.8-.3-1.1-.4,0,0,0,0-.1.1-.2.3-.4.5-.7.3s-.2-.4,0-.6c.1-.3,0-.5-.3-.6-.2,0-.5-.1-.7-.2-.3-.1-.5,0-.7.2-.1.3,0,.5.2.7.1,0,.3,0,.3.2,0,.1.2.3.2.5,0,.1-.3.2-.4.3-.1,0-.3,0-.5,0-1.5-.6-2.9-1.3-4.4-1.9-.4-.2-.8-.3-1.2-.4-.4-.1-.9-.2-1.4-.4-.6-.3-1.3-.6-2-.8-.7-.2-1.3-.4-2-.6-.7-.2-1.4-.4-2.1-.6s-1.4-.5-2.2-.6c-.4,0-.8-.2-1.2-.3-.4-.1-.8-.2-1.3-.3-.3,0-.7,0-1,0-1.2-.2-2.4-.7-3.7-.7-.3,0-.4-.1-.5-.4,0-.3-.2-.7-.3-1,0-.1-.2-.3-.3-.3-.4-.2-.9-.1-1.3,0-.1,0-.3.3-.3.5,0,.2.2.3.4.3,0,0,.1,0,.2,0,.1,0,.3.2.3.3,0,.1-.1.3-.2.4-.4.2-.8.2-1.1.1-.2,0-.4,0-.6,0-.9,0-1.7,0-2.6.1-.1,0-.3,0-.4,0-.1,0-.3-.1-.3-.2,0-.1,0-.3.1-.4.2-.1.5-.2.8-.3.5,0,1,0,1.5,0,.2,0,.4,0,.4-.3,0-.5-.3-1-.8-1s-.5,0-.7,0c-.2,0-.4,0-.5,0-1,0-2,.1-3,.2-.4,0-.5.2-.5.6,0,.4,0,.5.5.6.3,0,.5,0,.8,0,.1,0,.2.2.3.3,0,0-.1.2-.2.3-.5.1-1,.3-1.6.4-.6.1-1.3.3-1.9.4-.4,0-.8.1-1.2.2-.9,0-1.9.1-2.8.4-.7.2-1.5.4-2.3,0,0,0,0,0-.1,0-.3.3-.2.7-.1,1.1.2.6.4,1.1.5,1.7.1.5.3.9.4,1.4,0,.5.2.9.4,1.3.1.2.2.5.2.7,0,.7.4,1.3.6,2,0,.3.2.5.3.8l.8,3c0,.2.2.5.2.7.2,1,.4,1.9.8,2.9.2.6.3,1.3.4,2,.4,1.5.9,3.1,1.2,4.6.2,1,.4,2.1.6,3.1,0,.2,0,.4.1.5.4,1.4.9,2.9,1.3,4.3.1.4.2.7.3,1.1.3.9.7,1.8,1,2.7.3,1,.5,2,.8,3,.3,1.3.7,2.7,1,4,0,.3.2.6.3.9.2,1,.5,2.1.7,3.1.2.8.3,1.6.5,2.4.1.7.2,1.3.4,2,.3,1,.6,2,.7,3.1,0,.5.1.9.2,1.4.1.6.4.9,1,1,.2,0,.4,0,.6.1.6.2,1.1.5,1.7.8.3.2.6.2,1,0,.4-.2.8-.4,1.2-.7.7-.6,1.5-1.1,2.4-1.5.4-.2.7-.4,1-.6.4-.3.8-.7,1.3-1,.8-.5,1.5-1,2.3-1.5,0,0,.1,0,.2-.1l2.7-1.3c.1,0,.2,0,.3-.1.9-.4,1.8-.8,2.7-1.3.5-.3,1.1-.6,1.6-.9.1,0,.3-.1.4-.2,1.3-.7,2.5-1.3,3.8-2,.6-.3.7-.4.5-1.1-.2-.7-.1-1.4.4-1.9.5-.5.9-.9,1.4-1.4.8-.8,1.9-1.3,3.1-1.2.8,0,1.5-.2,2.2-.5.8-.3,1.6-.7,2.4-.9,1.4-.4,2.5-1.4,3.8-2,0,0,0,0,.1,0,.4-.3.8-.5,1.2-.8.5-.3,1-.6,1.5-.9.2-.1.4-.3.6-.4.6-.3,1.1-.1,1.4.5,0,.1.1.2.2.4.5-.2.9-.4,1.4-.6.9-.5,1.7-1.1,2.6-1.6,1.2-.7,2.3-1.3,3.5-2,.6-.3.7-.6.4-1.3,0-.2-.1-.4-.1-.6,0-.4.4-.6.8-.3.2.1.3.3.5.4.4.3.6.7.7,1.2,0,.3.1.5.2.8.2.6.5,1.1.8,1.7.2.6,0,1-.5,1.1-.6,0-1.1.4-1.6.7-2.3,1.3-4.5,2.7-6.8,4-.3.2-.4.3-.3.7,0,.2.2.5.3.7.2.4,0,.8-.2,1-.3.2-.7,0-1-.3,0,0,0,0-.1-.2-.4-.6-.7-1.2-1-1.8-.3-.6-.7-1.2-1-1.8-.3-.5-.6-.5-1-.2-.2.1-.3.3-.5.4-.7.2-1.1.7-1.7,1.2-.2.1-.3.3-.5.4-.7.4-1.2.9-1.7,1.4-.2.2-.5.4-.7.6-.2.1-.3.2-.5.4-.5.5-.9.9-1.4,1.4-1,1.1-2.1,2.3-3.1,3.4-1,1.1-2.4,1.5-3.8.9-.2-.1-.4-.2-.7-.3-.4-.2-.8-.2-1.2,0-.5.3-.9.6-1.4.9-.5.4-1,.8-1.6,1.1-1.2.8-2.4,1.5-3.6,2.2-.8.5-1.5,1.1-2.3,1.5-.8.5-1.7.9-2.4,1.5-.8.7-1.8,1.2-2.7,1.7-1.1.6-2.2,1.1-3.3,1.7s-1.5.8-2.2,1.2c-.2.1-.5.3-.3.6.2.5,0,1,0,1.5-.1.5.2.9.6,1.1.9.3,1.8.6,2.6.9.4.1.8.2,1.2.4,1.3.4,2.6.9,3.9,1.3.6.2,1.2.2,1.7.5.7.3,1.4.5,2.1.8.9.3,1.7.5,2.6.8.3.1.7.2,1,.3.7.2,1.3.4,2,.6.8.3,1.7.6,2.5.9,1,.3,1.9.6,2.9,1,.7.3,1.5.5,2.2.7.4.1.9.3,1.3.3.7,0,1.3.3,1.8.5,1.2.5,2.4.9,3.8.9.3,0,.5,0,.7,0,1.6.4,3,1.1,4.3,2,.5.4,1.1.7,1.7.9.7.2,1.4.4,2.1.7.3.1.7.3,1,.5.2.1.3.4.2.7,0,.3-.3.4-.6.4s-.4,0-.6,0c-.7-.2-1.4-.4-2.1-.6-.4-.1-.7-.3-1.1-.3-1.8-.2-3.7-.5-5.4-1.1-.7-.2-1.3-.5-1.7-1.1-.4-.6-1-.8-1.6-1-1.2-.3-2.5-.6-3.6-1.1-.3-.1-.6-.3-.9-.4-.8-.3-1.6-.4-2.4-.9-.1,0-.2,0-.3-.1-.9-.3-1.9-.6-2.8-.9-.7-.3-1.5-.6-2.2-.8-1-.4-2-.7-3.1-1-.5-.2-.9-.3-1.4-.5-.8-.3-1.7-.5-2.5-.8-1.2-.4-2.4-.9-3.6-1.3-1.2-.4-2.5-.9-3.7-1.3-.8-.2-1.5-.4-2.3-.6-.3,0-.5,0-.4.4,0,.2.1.5.2.7.1.2.3.3.5.5,1,.8,2.1,1.6,3.1,2.4,1.3,1,2.4,2.2,3.8,3.1.1,0,.2.2.3.3,1.2,1.1,2.4,2.1,3.6,3.2.5.4,1.1.8,1.6,1.4.2.3.5.5.8.8.7.6,1.4,1.2,2.1,1.9,1,.9,1.9,1.8,2.8,2.7,0,0,.2.1.3.2.5.4,1,.8,1.5,1.2.8.7,1.7,1.4,2.5,2.2,1.1,1,2.1,2,3.2,3,1.3,1.1,2.5,2.2,3.8,3.3.2.1.3.3.5.4.7.6,1.3,1.3,2,1.9,1.3,1.1,2.5,2.2,3.8,3.3.5.4,1,.9,1.5,1.3,1.2,1.2,2.3,2.4,3.6,3.5.4.3.5.9.3,1.4,0,.1-.1.2-.2.3-.1.3,0,.5.3.4.1,0,.3,0,.4-.1.4-.4.6-.9.9-1.3-.2,0-.2,0-.3-.1-.6-.2-.7-.4-.5-1,.1-.4.3-.7.5-1,.4-.6.9-1.2,1.3-1.8.4-.5.3-.6-.3-.9-.5-.2-.7-.7-.3-1.2,0-.1.2-.2.3-.3.3-.3.3-.7,0-.9-.2-.1-.4-.2-.6-.3-.3-.1-.7-.2-1-.4-.6-.3-1.1-.7-1.7-1.1-.9-.6-1.9-1.3-2.8-2-.2-.1-.4-.3-.6-.4-.3-.2-.6-.3-.8-.5-.6-.4-.9-.4-1.3.2-.2.3-.5.4-.8.3-.4-.2-.5-.7-.2-1,.4-.6.8-1.2,1.2-1.8.7-1.1,1.4-2.3,1.9-3.5.3-.7.7-1.5,1.1-2.2.2-.4.5-.5.8-.4.3.1.4.5.3.9,0,.2-.2.3-.2.5,0,.2,0,.4.1.5.5.3.9.7,1.5.9,1.5.7,2.9,1.6,4.2,2.5.7.5,1.3.9,2,1.4s.3.2.5.3c.4.1.7,0,.9-.3,0,0,0-.2.1-.3.2-.1.3-.3.5-.3.3,0,.4.2.4.5,0,.1,0,.3,0,.4-.2.5-.4,1-.6,1.4-.1.3-.3.5-.5.7-.7,1.3-1.4,2.6-2.3,3.8-.2.3-.4.6-.2,1.1.2-.2.3-.3.4-.5.2-.3.4-.6.5-.9.6-.9,1.1-1.8,1.7-2.7.1-.2.3-.4.7-.4,0,.3,0,.6,0,.9,0,.2.1.4.3.5.2.1.5,0,.7-.1,0-.1.2-.2.3-.4.4-1.2,1.2-2.2,1.7-3.3,0-.2.1-.4.2-.5,0,0,0-.2,0-.3-.3-.3-1-.3-1.2.2-.2.4-.3.7-.5,1.1-.3.6-.6,1.1-1.3,1.5-.3-.4-.2-.7,0-1,.3-.7.7-1.3,1-2,.3-.8.7-1.6,1-2.3.3-.9.6-1.8.9-2.6.4-1,.7-2,1.1-3,.3-.9.6-1.9.9-2.8,0-.2.2-.4.2-.7.3-1.2.6-2.5.9-3.7.4-1.6.8-3.1,1-4.8,0-.4,0-.7,0-1.1,0-.9.2-1.8.2-2.7,0-2.2,0-4.5-.2-6.7,0,0,0,0,0-.1,0-.7-.2-1.5-.3-2.2-.2-1.3-.4-2.5-.6-3.7-.1-.8-.2-1.7-.4-2.5-.2-1.1-.6-2.2-.9-3.3-.4-1.3-.8-2.7-1.2-4-.3-.8-.5-1.5-.8-2.3-.5-1.2-1-2.4-1.5-3.6-.3-.7-.5-1.4-1-2.1-.2-.3-.3-.6-.3-1,0-.5.2-.9.5-1.3.4-.5.4-1,0-1.5-.4-.7-.8-1.4-1.2-2-.3-.5-.7-1-1-1.5,0-.1-.2-.2-.3-.3-.7.8-.8,1.2-.2,1.8.8.9,1.1,2.1,1.8,3,.3.3.2.7,0,.8-.2,0-.5,0-.7-.4-.2-.4-.4-.7-.6-1.1-.3-.4-.6-.7-.9-1-.9-1.3-1.8-2.6-2.8-3.8-.7-.9-1.5-1.9-2.4-2.6s-.3-.3-.4-.4c-.8-1.1-1.6-2.1-2.6-3.1-1-1-1.9-2.1-3-3-1.6-1.3-3-2.9-4.9-4-.1,0-.3-.2-.4-.3-.2-.1-.4-.3-.6-.4-.2-.2-.5-.3-.6-.5-.2-.3,0-.7.4-.7.3,0,.5,0,.7,0,.2-.2.4-.4.6-.7-.2-.1-.4-.2-.6-.3-.2-.1-.5-.3-.7-.4,0,0-.1-.3,0-.4s.2-.2.4-.2c0,0,.2,0,.3,0,.6,0,.9.5,1.4.8.5.4,1.1.8,1.7,1,.6.2.9.5,1.2.9.5.7,1,1.4,1.9,1.6.2,0,.3.2.4.3.5.4.5.7,0,1.1-.3.3-.6.5-.9.8.1.1.2.3.3.3.3.3.6.5.9.7.1.1.3.2.4.3.5.2.7,0,.7-.5,0,0,0-.2,0-.3,0-.4.1-.6.4-.7.4,0,.7,0,.8.4.2.6.7,1.1,1.2,1.4.8.5,1.4,1.1,2,1.8,1,1.1,2,2.3,3,3.5.1.1.2.3.4.4,1,1.2,2.1,2.4,3,3.6.7,1,1.3,2,1.9,3.1,0,0,0,.2.1.3.2-.1.3-.1.4-.2.8-.7,1.8-1,2.7-1.4.1,0,.3,0,.4,0,.3,0,.5.1.6.4.1.3,0,.5-.3.6-.2.2-.5.3-.7.5-.7.4-1.4.7-2.1,1.1-.1,0-.3.2-.3.3,0,.4.1.9.5,1.3,0-.2.2-.3.2-.4.1-.5.4-.8.9-1,.5-.2.9-.5,1.4-.7.8-.4,2,0,2.3.9.2.4.2.9,0,1.3-.7,1-1.8,1.8-3.3,1.4-.1,0-.2,0-.5,0,0,.3.1.5.2.6.3.6.7,1.1.9,1.6.5,1.2,1.2,2.4,1.6,3.7.3,1,.7,1.9,1,2.8.3,1,.6,2,.9,3,.5,1.6.8,3.2,1.1,4.9.2.9.2,1.8.4,2.7.2.8.2,1.6.2,2.4,0,.6.1,1.1.2,1.7,0,.2,0,.3,0,.5-.2,1,0,2,0,3,0,.3.2.5.5.5.2,0,.3,0,.5,0,1.1,0,2.2,0,3.3.4.3,0,.5.2.5.5,0,.5-.3.7-.8.6-.6,0-1.2,0-1.7-.1-.5,0-1,0-1.5-.1-.2,0-.3-.2-.5-.3,0,0-.2-.1-.3-.2-.2.6-.2,1.2,0,1.6.1-.1.2-.3.3-.4.3-.3.7-.3,1.1,0,.3.2.3.4,0,.8-.1.2-.2.4-.3.6.5,0,.5,0,.6-.3.1-.5.4-.6.9-.6.5,0,1,0,1.5-.1.5,0,.7.1.5.6,0,.3-.1.6-.2,1,0,.2,0,.3,0,.5,0,.2-.1.4-.4.5s-.4,0-.6-.3c0-.1-.1-.3-.2-.4,0-.1-.1-.2-.3-.4-.1.2-.2.3-.3.5-.2.4-.6.6-1,.6-.4,0-.9,0-1.3-.3-.1,0-.3-.1-.5-.3,0,.7,0,1.3,0,1.8-.2,1.9-.5,3.8-.8,5.7,0,.6-.2,1.3-.4,1.9-.3,1.2-.6,2.4-1,3.5-.3,1.1-.6,2.1-1,3.2-.4,1.2-.9,2.3-1.3,3.5-.2.5-.4,1.1-.6,1.6-.5,1-1,2-1.5,3.1-.4,1-.9,2-1.4,2.9,0,0,0,.1,0,.2,0,0,0,0,.1,0,.8.2,1,.7.9,1.4,0,.2,0,.3.1.6.1-.2.2-.3.2-.3.3-.4.6-.5,1-.3.6.3.9,1.1.6,1.6-.4.7-1.1,1-1.8.6-.3-.2-.7-.4-1-.7-.2-.2-.4-.2-.6-.2-.2,0-.4,0-.6-.2-.4-.2-.5-.2-.7.3.1,0,.2,0,.3,0,.9.2,1.7.6,2.4,1.3.3.3.5.7.4,1.1-.2.8-.9,1.3-1.7,1.2-.2,0-.4,0-.7-.2-.7-.2-1.3-.6-1.6-1.3,0-.2-.2-.3-.3-.5-.4.2-.5.5-.6.7-.4.5-.7,1-1.1,1.5-1.1,1.2-1.9,2.5-3.1,3.5,0,0,0,0-.1.1-.7.8-1.4,1.6-2.2,2.3-.2.2-.4.4-.7.7-.6.6-1.2,1.2-1.8,1.8-.8.7-1.6,1.3-2.3,1.9-.1.1-.3.2-.4.3-.5.4-.9.9-1.4,1.3-1.1.8-2,1.8-3.2,2.5-.7.4-1.4.9-2.1,1.3-.3.2-.6.4-.9.6-.3.2-.4.4-.2.7.3.6.2,1.3.2,1.9,0,.2,0,.4,0,.6.9,0,1.1.1,1.3.9v.6c.8-.4,1.4-.6,1.9-1.1.8-.8,1.8-1.2,2.7-1.9.8-.6,1.6-1.1,2.3-1.8.2-.1.3-.3.5-.4.5-.4,1-.7,1.5-1.1.7-.6,1.5-1.2,2.2-1.8.6-.5,1.2-1,1.7-1.6.4-.5.9-.9,1.4-1.4.6-.5,1.2-1,1.7-1.5.2-.2.5-.5.7-.7.9-1.1,1.7-2.2,2.7-3.1,0,0,.2-.2.2-.3.2-.4.4-.7.7-1.1.3-.4.6-.8.8-1.2.5-1,1.2-1.7,1.8-2.6.2-.3.4-.7.7-.9.5-.5,1-1,1.2-1.7,0-.2.2-.4.3-.7.4-.7.8-1.3,1.1-2,.8-1.5,1.5-3,2.3-4.5.1-.2.3-.5.4-.7.4-1,.8-1.9,1.1-2.9.5-1.4,1.2-2.8,1.4-4.3,0,0,0-.2,0-.2.3-1.1.7-2.3.9-3.4.2-1,.4-2,.6-2.9.2-.9.3-1.7.5-2.6.1-.7.3-1.4.4-2.1,0-.4.2-.8.2-1.2,0-.8.2-1.6.2-2.4,0-1.1.2-2.2.2-3.4,0-.5,0-1,0-1.5,0-.7,0-1.4,0-2,0-.7-.2-1.5-.3-2.2-.1-1.3-.2-2.6-.3-3.9,0,0,0-.2,0-.3-.2-.8-.3-1.6-.3-2.4,0-.2,0-.4,0-.6-.2-.9-.4-1.8-.6-2.6-.2-.8-.3-1.7-.5-2.5-.3-1-.6-2-.9-3-.4-1.2-.7-2.3-1.1-3.5-.3-.8-.6-1.7-1-2.5-.4-1-.7-2-1.1-3-.2-.5-.4-.9-.7-1.3-.4-.8-.8-1.7-1.2-2.4-.5-.8-1-1.6-1.5-2.4-1.1-1.8-2.3-3.6-3.5-5.3-.7-1-1.5-2-2.3-3-.2-.3-.3-.6-.5-.8-1-1.1-2.1-2.2-3.1-3.3-1.2-1.2-2.4-2.4-3.6-3.6-.4-.4-.9-.8-1.3-1.1-.3-.3-.7-.5-1-.8-.7-.6-1.4-1.3-2.2-1.8-1.4-.9-2.7-1.9-4-2.9-.5-.4-.9-.6-1.5-.8ZM55.6,343.1c0,0,.1,0,.2,0,0-.2,0-.4-.2-.6-.2-.4-.4-.9-.5-1.3-.2-.7-.4-1.4-.6-2.2-.2-.7-.3-1.5-.5-2.2,0-.6-.1-1.2-.2-1.7-.1-.8-.3-1.7,0-2.5.2-1,.4-2,.4-3,0-.4.1-.9.3-1.3.5-1.3.9-2.7,1.6-3.9.6-1,1-2.1,1.5-3.1.6-1.1,1.3-2.1,2.3-3,.9-.9,1.8-1.7,2.8-2.6,1.1-1.1,2.5-1.8,3.8-2.5.9-.5,1.8-.8,2.7-1.1.8-.3,1.6-.5,2.5-.8,1.1-.3,2.2-.6,3.3-.6,1.6,0,3.2,0,4.8,0,.3,0,.5,0,.7.1,1.2.3,2.3.6,3.5.9.6.2,1.3.4,1.9.6.8.4,1.7.8,2.5,1.2,1.3.7,2.6,1.4,3.8,2.4,1,.8,2,1.7,2.9,2.7,1.1,1.2,2.1,2.5,2.8,4,.2.5.5.9.7,1.4.4,1,.8,2.1,1.1,3.1.2.8.4,1.6.6,2.4.3,1.4.7,2.9.6,4.4,0,.5,0,1,0,1.4-.1,1.2-.2,2.3-.4,3.5-.2,1.1-.5,2.1-.8,3.1-.2.8-.5,1.6-.8,2.4-.6,1.6-1.6,2.9-2.5,4.3-.2.3-.5.6-.8.9-.2.2-.4.3-.5.5-1,1.3-2.3,2.2-3.4,3.3-.1.1-.2.2-.4.3-1,.6-2,1.3-3.1,1.9-1.1.6-2.1,1.4-3.4,1.6,0,0-.2,0-.2,0-1,.4-2.1.5-3.2.4-.5,0-.7,0-.6.6.1.5.2.9.3,1.4s.2,1.2,1.1,1.2.3.2.3.4c0,.2-.1.4-.3.4-.3,0-.7,0-1,0-.3,0-.6,0-.8.1-.3.2-.6.2-.9.1-.6,0-1.3,0-1.9-.1-.4,0-.8,0-1.2,0-.6,0-1.2-.1-1.8-.1-.3,0-.6,0-.9,0-.2,0-.4-.1-.6-.3-.1-.1-.2-.4-.2-.5s.3-.2.5-.3c.1,0,.3,0,.4,0,.5,0,.6,0,.7-.5,0-.8.1-1.5.2-2.3,0,0,0,0,0-.1-.1,0-.2,0-.3,0-.5.1-.9.1-1.4-.1-.1,0-.2,0-.4,0-1.9-.2-3.6-1.2-5.3-1.9-.5-.5-1.1-1-1.9-1-.8-.5-1.6-1-2.3-1.6-1-.9-2-1.9-3-2.8-1-1.1-1.8-2.3-2.5-3.6-.2-.4-.3-.8-.4-1.2-.1-.4-.5-.8-.8-1.1-.3.7-.5,1.4-.8,2.1-.2.5-.3,1.1-.6,1.7-.3.9-.7,1.8-1,2.7,0,.2-.1.5-.2.7-.4.9-.6,1.8-.7,2.7,0,.4,0,.7.3.9.1.1.3.4.3.5,0,.2-.3.3-.5.4-.1,0-.3,0-.5,0,0,0-.2,0-.4.2.2.1.4.2.5.2.4.2.8.3,1.2.5,1,.4,1.9.8,2.9,1.2.8.4,1.7.7,2.5,1,.4.2.5.4.3.8-.2.4-.3.9-.2,1.4,0,.3,0,.5-.4.5-.4,0-.8,0-1-.4-.2-.3-.1-.6,0-.9.3-.6.2-.9-.4-1.1-.4-.2-.8-.4-1.3-.5-.5-.2-.7-.1-.8.4,0,.1,0,.3,0,.4.1,0,.3,0,.4.1.4.2.8.3,1.1.5.1,0,.2.3.2.5,0,0-.2.2-.4.2-.2,0-.4,0-.7-.1-.6-.2-1.1-.4-1.7-.6-.4-.1-.8-.2-1.2-.4-.8-.3-1.7-.7-2.5-1.1-.7-.3-1.4-.6-1.9-1.2-.1-.1-.3-.2-.5-.3,0,0,0,0-.1.1,0,.2.1.4.2.6.2.6,0,1.1-.5,1.4-.5.3-.8.2-.9-.4,0-.1,0-.3,0-.4,0-.1-.2-.3-.3-.3s-.3.1-.3.3c0,.2,0,.5,0,.7,0,.4,0,.7.3,1,.3.2.2.6,0,.8-.2.1-.5.3-.7.2-1.1,0-1.6-1-1.1-2,0-.1.1-.2.2-.3,0-.3.1-.6.1-.9,0-.1,0-.3-.1-.3-.3-.3-.6-.6-.9-.8-.1,0-.3-.1-.4-.2,0,0-.2,0-.3,0,0,0,0,.3,0,.3.1.1.3.3.4.4.5.4.5.9,0,1.2-.3.2-.7.4-1.1.6-.1,0-.3.1-.5.2.2.4.5.5.8.6.5.3,1,.6,1.5.9.2.1.4.3.6.4,1.2.6,2.5,1.2,3.7,1.7,1.6.7,3.3,1.4,4.9,2.1.6.3,1.1.6,1.7.7,1,.3,2,.5,3,.8.9.3,1.8.5,2.6.9.9.4,1.9.6,2.9.7.6,0,1.2.2,1.8.3.9.2,1.7.4,2.6.6,1.1.2,2.2.3,3.3.5.8.2,1.6.2,2.4.2s.8,0,1.2,0c.4,0,.7,0,1,.3.2.2.2.4,0,.5-.2,0-.3,0-.5,0-.4,0-.8,0-1.2,0-.6,0-1.1.1-1.6.7.3,0,.5,0,.7,0,.6,0,1.3,0,1.9.2.5.1,1.1.2,1.7,0,.1,0,.3,0,.4,0,.7.2,1.4,0,2.1,0,1.9-.1,3.8,0,5.7-.3,1.7-.3,3.4-.2,5-.8.2,0,.3,0,.5,0,.1,0,.3,0,.4,0,.6-.4,1.3-.3,2-.3.3,0,.6,0,.9-.2.4-.3.9-.5,1.5-.5,1,0,2-.2,2.9-.6,0,0,.2,0,.3,0,.3,0,.4.2.3.5,0,.1-.1.3-.2.5.7.3,1.1-.2,1.6-.5-.7,0-1-.4-1.2-1,0,0,0-.2-.1-.2-.1-.1-.3-.3-.5-.2-.7.2-1.5.3-2.1.7-.5.3-.9.4-1.4.4-.4,0-.8,0-1.1.2-.5.3-.9.5-1.5.4,0,0-.2,0-.3,0-.6.1-1.3.3-1.9.4-.3,0-.5.1-.8.3-.3.2-.6.3-1,.3-.4,0-.8,0-1.2.1-.4,0-.8.2-1.1.2-.6,0-1.1,0-1.7,0-.5,0-.9,0-1.3.2-.5.2-1.1.2-1.6,0-.6-.2-1.1-.3-1.7-.2-.8.1-1.5-.2-2.3-.1,0,0,0,0,0-.1,0,0,.2-.1.3-.1.2,0,.4,0,.4-.3s-.2-.4-.4-.4c-.5-.1-.6-.5-.7-.9,0-.2,0-.5-.3-.6,0,.1-.1.3-.2.4-.2.6-.6.8-1.1,1.1-.4.2-.6-.1-.9-.2-.7-.2-.9-.7-1-1.4,0-.5,0-.9,0-1.4,0-.6.3-1.1.8-1.4.2-.1.3-.2.5-.4-.8,0-1.6-.2-2.3-.3-.9,0-1.9-.1-2.8-.2-.7,0-1.5-.3-2.2-.3-.7,0-1.3-.2-1.9-.4-.3-.1-.4-.3-.2-.5.1-.2.3-.3.5-.4.3-.2.6-.3.7-.7-.4-.2-.7-.3-1-.4-.5-.2-.7,0-.8.4,0,.2,0,.3,0,.5.2.7,0,.9-.7.8-.1,0-.2,0-.4,0-.4,0-.9-.2-1.3-.3-.8-.2-1.5-.4-2.2-.8-.4-.3-.5-.7-.3-1.1.2-.2.3-.2.6,0,.2.2.4.4.7.5.4.2.9.3,1.3.4.2,0,.5,0,.7,0,.2,0,.3-.3.4-.4,0-.2-.1-.3-.3-.4-.2,0-.5-.2-.7-.3-.5-.2-1-.3-1.5-.5-.2,0-.4-.2-.4-.4,0-.3.3-.3.5-.3.1,0,.2,0,.4,0,.3,0,.7.2,1,.2.8.2,1.6.2,2.4.5,1.2.5,2.5.6,3.8.8,1.2.3,2.5.3,3.7.7,0,0,.2,0,.3,0,.6,0,1.1,0,1.7,0,.1,0,.3,0,.4.1.1,0,.2.3.2.4s-.2.3-.3.3c-.1,0-.2,0-.4,0-.5,0-1,0-1.5-.2-.5-.1-.8,0-1.1.5.4.3.8.5,1.4.5.5,0,1,0,1.4,0,.8,0,1.1.1,1.2-.8,0-.5.4-.6.9-.5.5,0,.7.4.8.8.1.4.3.6.6.7.1,0,.3.1.4.1,1.1,0,2.1,0,3.2-.2.4-.1.5-.4.3-.7-.1-.1-.3-.3-.5-.3-.4,0-.8,0-1.2,0-.3,0-.6,0-.8-.2s-.3-.3-.3-.4.2-.2.4-.3c0,0,.2,0,.3,0,1.3,0,2.6,0,3.9-.3.6-.1,1.2,0,1.7-.1,1.2-.2,2.3-.4,3.5-.6.5,0,1-.3,1.4-.3,1.4-.2,2.7-.6,4.1-1,1.1-.3,2.2-.7,3.3-1,.2,0,.5-.2.7-.3.6-.2,1.2-.5,1.9-.7.4-.2.9-.3,1.3-.5.8-.4,1.6-.6,2.4-1.1.6-.4,1.3-.5,1.9-.8,1.2-.6,2.6-1,3.6-1.9,0,0,.1,0,.2-.1.8-.6,1.7-1.2,2.5-1.8.7-.5,1.4-1.1,2.1-1.7,1.1-.9,2.3-1.8,3.4-2.8.8-.7,1.6-1.6,2.4-2.3.6-.5,1.2-1,1.7-1.5.7-.6,1-1.3,0-2-.1,0-.3-.2-.4-.2-.4-.3-.7-.6-1.1-.9-.7-.7-1.3-1.4-2.1-2.1-1.3-1.2-2.8-2.3-4.1-3.5-.7-.6-1.3-1.2-2-1.8-1.3-1.2-2.6-2.4-3.9-3.5-1.1-1-2.2-1.9-3.3-2.9-.8-.8-1.5-1.6-2.4-2.3-.8-.7-1.6-1.3-2.3-2.1-1-1.1-2.1-2-3.1-3-1.3-1.3-2.7-2.3-4-3.5-.3-.3-.6-.6-.9-.9-1.7-1.5-3.2-3.1-5-4.5-.8-.6-1.6-1.4-2.4-2.1-.9-.8-1.8-1.6-2.7-2.4-.7-.7-1-.7-1.9-.3-.1,0-.2.1-.3.2-.5.3-1.1.6-1.8.5-1.3,0-2.5-.4-3.4-1.4-.9-1-1.5-2-1.3-3.4,0-.1,0-.3,0-.4,0-.2-.2-.4-.3-.5-.5-.2-.9-.3-1.4-.4-.7-.2-1.4-.3-2.1-.5-.6-.2-1.2-.4-1.8-.6-.5-.2-1-.3-1.5-.5-1-.4-2-.7-3-.9-.3,0-.6-.2-.9-.3-.4-.1-.7-.3-1-.4-.6-.2-1.2-.3-1.8-.5-.6-.2-1.2-.4-1.8-.6-.7-.2-1.3-.4-2-.6-.7-.3-1.4-.5-2.1-.8-.9-.3-1.7-.6-2.6-.8-2.1-.6-4.1-1.4-6.2-2.1-1.6-.5-3.1-1.2-4.7-1.9-.8-.3-1.5-.6-2.3-.9-.8-.3-1.6-.6-2.5-.9-.4-.2-.9-.4-1.3-.5-.8-.3-1.5-.4-2.3-.7-.4-.1-.8-.3-1.2-.4-1.2-.3-2.3-.7-3.4-1.1-.8-.3-1.6-.6-2.5-.9-1.2-.4-2.4-.9-3.5-1.3-.7-.3-1,0-1.3.6-.1.3-.3.7-.4,1,0,.2-.1.4-.1.5,0,1-.2,2.1-.4,3.1-.4,2.1-.8,4.1-1.2,6.2,0,.2,0,.4,0,.6-.2,1.1-.2,2.2,0,3.3,0,.1,0,.3,0,.4-.1,1.1-.2,2.2-.2,3.4,0,1,.1,1.9.2,2.9,0,.8,0,1.7.4,2.5,0,0,0,.2,0,.3,0,.6.1,1.2.2,1.8,0,.5,0,1,.2,1.6.1.9.3,1.8.5,2.7,0,0,0,0,0,.1l.2.8c.3,1,.3,2.1.7,3.1.4.9.7,2,1,2.9.3.8.5,1.7.7,2.5.1.6.2,1.2.5,1.7.4.6,0,1.3-.6,1.5-.2,0-.4.2-.7.3.3.5.4,1.1.8,1.4.3.2.5.4.4.8s0,.3,0,.4c.1.4.3.8.4,1.2.2.6.5.6.9.1.2-.3.2-.4,0-.8-.3-.4-.5-.8-.7-1.2-.2-.5-.2-1,0-1.5.2.1.4.2.4.3.4.6.7,1.3,1,1.9.3.6.4,1.3.9,1.8.3.4.1.7-.4.8-.1,0-.2,0-.3,0-.4,0-.5.2-.5.6,0,.3,0,.6.2.8.7,1.1,1.5,2.1,2.3,3.2.1.2.3.3.5.4.3-.5.2-.9,0-1.3-.3-.7-.6-1.3-.9-2-.1-.2-.1-.5,0-.7.4-.6.4-.8,0-1.3-.5-.5-.8-1-.9-1.7,0-.3-.2-.7-.4-1-.3-.4-.5-.7-.4-1.2,0-.1,0-.3-.1-.4-.3-.6-.7-1.2-1-1.8-.2-.4-.4-.8-.5-1.1-.1-.4,0-.7.3-.8.3-.1.6,0,.7.4.1.3.2.7.3,1,.1.6.3.7.9.5,0,0,.2,0,.3-.2.7-.4,1.4-.9,2.1-1.3,1.1-.6,2.2-1.3,3.3-1.9.6-.3,1.3-.6,1.9-1,.6-.3.8-.7.6-1.3h0c0-.5.2-.9.4-1s.6,0,.8.3c.1.1.2.2.3.4.3.7.5,1.3.8,2,.5,1.3,1.1,2.5,1.9,3.6.3.4.6,1,.9,1.4.3.4.3.8,0,1.1-.2.2-.4.3-.6.4-.5.3-1,.6-1.5,1-.3.2-.7.5-1,.7-.2.2-.4.3-.7.5-.8.6-1.5,1.2-2.3,1.8-.2.2-.5.3-.7.5-.7.5-1.2,1.2-1.9,1.7-.3.2-.3.5,0,.8.1.1.3.2.4.3.6.5.7.9,0,1.4-.4.4-.4.4,0,.8.8.9,1.7,1.8,2.5,2.8l.3.3c1,1.1,1.9,2.2,2.9,3.2,1.5,1.6,3.3,3.1,5,4.4.2.1.3.3.5.5.5.5.9,1,1.4,1.5,0,.1.2.2.3.3.1.2.3.5,0,.7-.2.1-.4.2-.7.2-.2,0-.4,0-.6,0-.1,0-.3.1-.4.2,0,.1.2.3.3.4,1,.6,1.9,1.3,2.8,2.1,0,0,.2.1.3.1.3,0,.5.2.8.2.3,0,.6,0,.8,0,.9-.3,1-.3,1,.7h0c0,.5.1.7.5.9.5.3.9.6,1.4.8.5.3.9.5,1.4.8.3.2.7.3,1.1.4.3,0,.5,0,.5-.3,0-.4,0-.7-.4-1-.3-.2-.5-.3-.8-.5-.2-.1-.4-.1-.6.1,0,0-.1.2-.2.2-.1,0-.3,0-.4,0,0,0-.1-.2-.1-.4,0,0,0-.2.1-.3.2-.2.4-.4.2-.6-.1-.3-.4-.3-.7-.3-.2,0-.4-.1-.6-.3-.2-.1-.3-.3-.4-.5-.3-.4-.3-1,0-1.3.5-.6,1-1.1,1.5-1.6.1-.1.3-.2.5-.3.1.5.1.6,0,.9,0,0-.1.2-.2.2-.5.6-.5.9.3,1.4.1,0,.3.2.4.3.3.2.5.1.6-.2.2-.5.4-1.1.7-1.6.4-1.1.9-2.1,1.3-3.2.1-.3.2-.6.3-.9-.2,0-.2,0-.3,0-.4.3-.8.6-1.1,1-.2.4-.5.8-.8,1.2-.2.2-.3.5-.8.4,0-.2,0-.4,0-.5.3-.5.7-1,1.1-1.4.3-.3.6-.6.8-.9.2-.3.5-.7.7-1,.6-.8,1.1-1.5,1.7-2.3.1-.2.1-.4,0-.6-.6-.6-1.3-.5-1.7.2-.3.5-.6,1.1-1,1.6-.3.5-.7,1-1,1.5-.7,1.1-1.4,2.3-2.1,3.4-.2.3-.3.5-.4.7-.3.5-.6,1.1-.9,1.6-.4.6-.7.7-1.3.3-.2-.1-.5-.2-.7-.3-.7-.1-1.4-.3-1.7-1.1,0-.2-.2-.3-.3-.4-.3-.4-.2-.9,0-1.4,0-.1.3-.3.4-.3s.4.1.5.3c0,0,.1.3.2.4,0,.1.1.2.2.4.1,0,.2-.1.3-.2.5-.9,1-1.8,1.5-2.7.3-.5.5-1.1.9-1.5.2-.1.3-.3.5-.5.7-1,1.4-2.1,2-3.2.1-.2.2-.5,0-.6-.4-.3-.5-.7-.5-1.1s0-.9.1-1.3c.1-.5.7-.6,1.1-.3.5.4,1,.8,1.4,1.3.4.4.8.8,1.3,1.1.3.2.6.3.9.5.5.3,1,.6,1.2,1.2,0,0,.2,0,.3.1ZM68.6,265.5c0-.2,0-.4,0-.5-.3-1.1-.6-2.1-.8-3.2-.5-1.7-1.1-3.4-1.4-5.2,0-.1,0-.2,0-.3-.2-.6-.4-1.2-.6-1.8-.2-.8-.4-1.7-.6-2.5-.4-1.6-.8-3.2-1.2-4.8-.2-.6-.3-1.2-.5-1.9-.2-.6-.4-1.2-.5-1.8-.1-.5-.3-.7-.8-.6-.5,0-.9.2-1.4.4-1.2.5-2.4,1-3.6,1.5-.3.1-.6.2-.9.3-.7.3-1.3.6-2,.9-.2,0-.5.2-.7.2-.3,0-.5-.2-.4-.5,0-.2.1-.3.1-.5,0-.4-.3-.8-.6-.7-.9.3-1.8.8-2.6,1.5-.5.4-.4.7.2,1,.5.2.5.6.1.9-.2.1-.4.3-.7.3-.4,0-.8.3-1.1.5-.2.1-.4.2-.6.3-.1,0-.4-.1-.4-.2s0-.4.1-.5c.1-.1.4-.2.6-.2.4-.1.5-.3.4-.6,0-.3-.3-.4-.6-.3-.1,0-.2,0-.3,0-.2,0-.4,0-.5-.3,0-.2,0-.4.1-.6.2-.2.4-.3.7-.4.1,0,.2-.2.3-.3-.3-.1-.5-.2-.7-.3-.2-.1-.4-.3-.4-.6,0-.3.2-.5.5-.6s.2,0,.3,0c.4,0,.6-.2.6-.4,0-.4-.3-.3-.6-.3-.4,0-.8,0-1-.4s-.4-.9-.5-1.4c-.1-.8,0-1,.9-1.3,0,0,0,0,0,0,0,0,0-.1,0-.2-.1-.4,0-.7.4-.9.6-.3,1.2-.7,1.8-1,.7-.3,1.5-.6,2.2-.9,1.1-.4,2.2-.9,3.3-1.4.9-.3,1.9-.7,2.8-1,1-.3,2-.5,2.9-.9,1-.5,2.2-.5,3.2-.9.9-.3,1.8-.5,2.7-.7.2,0,.5,0,.7-.1.2,0,.4,0,.6-.1.5,0,1-.2,1.5-.3.7,0,1.3,0,1.9-.3s.4,0,.6,0c.5,0,1-.1,1.5-.2.4,0,.7-.1,1.1-.2,3.2,0,6.5,0,9.7,0,.4,0,.7,0,1.1.1.4,0,.9.1,1.3.2.3,0,.7,0,1,.2.3,0,.5.1.8.2.3,0,.6,0,.9.1.5,0,.9.2,1.4.3.8.2,1.6.4,2.4.5.2,0,.4.1.5-.1-.1,0-.2-.2-.3-.3-.7-.2-1.4-.7-2.2-.5,0,0-.2,0-.3,0-.7-.2-1.4-.2-2.1-.4-.4-.1-.7-.2-.7-.7-.8-.2-1.5-.3-2.2-.4-1-.1-2-.3-3-.3-.9,0-1.8,0-2.7,0-1.3,0-2.7,0-4,0-.3,0-.5,0-.7,0-.5.2-1.1.2-1.7.2-.7,0-1.5,0-2.2,0-.2,0-.4,0-.7.1-.4,0-.8.2-1.1.2-.5,0-1,0-1.4,0-.6.2-1.2.2-1.8.2-.5,0-1,0-1.5.3s-1.3.5-2,.5c-.4,0-.7.1-1.1.3-.6.2-1.3.5-1.9.7-1,.3-2.2.4-3.1,1,0,0-.2,0-.2,0-1.1.4-2.3.8-3.4,1.2-.8.3-1.5.6-2.3.9-1.2.5-2.3,1.1-3.5,1.6-1.2.5-2.2,1.3-3.5,1.7-.1,0-.2.1-.3.2-1,1-2.4,1.5-3.7,2.2-.6.4-1.2.6-1.7,1.1-.8.7-1.7,1.3-2.7,1.8-.6.3-1.1.7-1.6,1.3-.2.2-.4.4-.6.5-.3.2-.5.4-.7.6-.1.1-.3.2-.4.4-.2.2-.5.4-.7.6-.2.1-.3.3-.4.4-.5.4-.9.8-1.4,1.2-.7.7-1.3,1.4-2,2.1-1,1-2,2.1-3.1,3.1,0,0-.1.1-.2.2-.4.4-.7.9-1.1,1.3-.7.8-1.3,1.5-2,2.3-.2.2-.3.4-.5.6-.3.5-.6,1.1-1.1,1.4-.1,0-.2.2-.2.3-.3.4-.6.9-.9,1.3-.2.3-.5.7-.7,1-.3.5-.6,1-.9,1.4-.2.3-.4.6-.5,1,0,.2-.2.4-.3.6-.5.9-1.1,1.9-1.5,2.9-.6,1.6-1.3,3.1-2,4.6-.5,1.1-.9,2.2-1.5,3.1,0,.1-.1.3-.2.5-.2,1.3-.6,2.6-1,3.8-.3.8-.6,1.7-.8,2.5-.3,1.3-.6,2.7-.9,4-.4,1.7-.8,3.3-.8,5,0,.2,0,.4,0,.6-.1.9-.3,1.7-.4,2.6,0,1.1,0,2.2,0,3.3v4.1c.6,0,.7.1.8.7,0,0,0,.2,0,.3.1.9.3,1.8.4,2.8,0,.1,0,.2.1.3.1-.9.3-1.8,0-2.7,0-.2-.1-.5-.1-.7,0-1.7-.3-3.4,0-5.1,0,0,0,0,0-.1-.1-.6,0-1.2,0-1.7.3-1.8.5-3.7.7-5.5,0-.1,0-.2,0-.3.2-1,.5-1.9.6-2.9,0-.9.4-1.8.6-2.7.1-.7.3-1.4.5-2,.3-1.1.6-2.2,1-3.3.3-.9.6-1.8.9-2.7.1-.4.2-.8.4-1.3.4-1.1.9-2.1,1.3-3.2.5-1.1.9-2.1,1.4-3.1.6-1.3,1.4-2.6,2-3.9.1-.2.2-.5.4-.7.4-.6.8-1.2,1.2-1.8.8-1.3,1.7-2.6,2.6-3.8.7-1,1.6-1.9,2.4-2.8.5-.6.9-1.3,1.5-1.8,1.4-1.3,2.6-2.8,4-4.1,1-.9,2-1.8,3-2.7,1-.9,2-1.8,3.1-2.5.3-.2.5-.4.8-.6,1.5-1,2.9-2,4.4-2.9.7-.4,1.3-.8,2-1.2.5-.3,1-.5,1.5-.7.1,0,.2-.1.3-.1.1,0,.3,0,.4.2,0,0,0,.3-.1.4,0,0-.2.1-.3.1-.5,0-.8.3-1.2.6,0,0-.2.1-.3.2-.5.3-.9.6-1.4.9-.6.4-1.1.9-1.7,1.3-.5.4-1,.7-1.6,1-.7.5-1.5,1-2.2,1.5-1.6,1.1-3.1,2.1-4.4,3.5,0,0-.2.1-.3.2-.7.7-1.5,1.3-2.1,2-1.1,1.2-2.1,2.4-3,3.6-.9,1.1-2.1,2-2.9,3.3-.6.9-1.4,1.7-2.1,2.5,0,.1-.2.2-.3.4-.1.2-.3.5-.5.7-.3.3-.7,1.1-.8,1.4,0,0,0,0,0,0,0,0,.1,0,.2,0,.7-.2,1.2,0,1.8.4.5.3,1,.7,1.3,1.3.2.5.1,1-.3,1.3-.2.2-.3.3-.5.5-.4.5-.8.5-1.3,0-.2-.2-.4-.4-.7-.5-.6-.4-.9-.9-.9-1.6,0-.2,0-.5-.2-.6-.3.2-.5.5-.6.9,0,.2,0,.5.1.6.5.3.6.7.6,1.2s.2.4.4.3c.4-.3.8,0,1.1.1.6.3,1.1.7,1.1,1.5,0,.2,0,.5.1.7.3.7.1,1.3-.2,1.9-.3.6-.6,1.1-.8,1.7-.2.4,0,.6.4.8.3.1.4,0,.7-.4.5-.9,1-1.7,1.5-2.6.1-.3.2-.6.3-.9,0-.5,0-.6-.5-.8-.6-.2-.8-.6-.4-1.1.8-1.5,1.6-3,2.6-4.3,1.2-1.5,2.3-3,3.6-4.4.5-.6,1.1-1.2,1.6-1.8.5-.8,1.2-1.4,1.9-2,.7-.6,1.5-1.3,2.2-1.9.4-.4.8-.7,1.3-1.1.4-.3.8-.6,1.1-1,1-.8,2-1.7,3-2.5.7-.5,1.5-1,2.3-1.4.5-.3,1-.5,1.6-.7.2,0,.4,0,.7,0,0,0,.2.1.2.2,0,.1-.1.2-.2.3,0,0-.1,0-.2,0-.7.2-1.2.6-1.8,1,0,0,0,.2-.2.3.4.3.7.2,1.1,0,.3-.1.6-.3.9-.5.4-.1.8,0,.8.2,0,.4-.2.5-.4.7-.2.1-.4.2-.4.5.4,0,.7-.2,1-.4.9-.6,1.8-1.1,2.6-1.6.4-.3,1-.4,1.4-.7.8-.7,1.8-.8,2.7-1.1.4-.1.7,0,.8.3,0,.3-.1.5-.4.7-.7.5-.7.8-.2,1.5,0,.1.1.3.2.4.6.6.9,1.3,1.2,2,.1.3.2.7.4,1,.6,1.2,1.1,2.4,1.7,3.6.4.9.4.9,1.4.6,0,0,0,0,.1,0,.5-.1.8,0,.9.2,0,.3,0,.4-.5.7-1,.5-2.2.8-3.1,1.6-.1,0-.3.1-.4.2-.3.2-.6.4-.8.5-.7.4-1.3.8-2,1.2-.5.2-.7.1-1-.2-.3-.4-.3-.9,0-1.2.2-.2.2-.4.1-.7,0-.2-.1-.5-.1-.8,0-.3-.1-.6-.2-.9,0-.2-.1-.4-.2-.6,0-.7-.3-1.3-.8-1.8-.9-1-1.9-1.9-2.9-2.8-.3-.3-.7-.3-1.1-.1-.5.3-.6.2-.9-.2-.1-.2-.3-.5-.4-.7-.6,0-1,.4-1.4.7-.4.3-.8.6-1.3.7-.6.1-1.1.4-1.5.8-.7.8-1.6,1.5-2.4,2.2-.4.3-.8.3-1.1-.1,0,0,0-.1-.1-.2-.3-.2-.5-.2-.7,0-.2.2-.5.3-.5.6,0,.3.4.2.6.2,0,0,0,0,0,0,.3,0,.4.2.3.4-.1.3-.3.5-.5.7-.7.8-1.4,1.6-2.1,2.4-.6.8-1.2,1.6-2,2.2-.3.2-.6.4-.8.7-1,1.1-1.9,2.3-2.9,3.4-.3.4-.7.7-1,1.1-.1.2-.3.3-.4.5-.8,1.6-1.6,3.1-2.4,4.7-.3.7-.7,1.3-1,2-.6,1.4-1.2,2.7-1.9,4.1-.2.5-.5,1.1-.7,1.6-.2.5,0,.9.4,1.1.4.2.8.3,1.2.4.6.2,1.2.4,1.8.6.9.3,1.7.5,2.6.8.6.2,1.2.3,1.7.5.7.3,1.3.6,2,.9,1.1.4,2.3.8,3.5,1.2,1.4.4,2.7,1.1,4.2,1.4,1.5.4,2.9.9,4.3,1.4.4.1.7.3,1.1.4,1.1.4,2.2.8,3.3,1.2,1.2.4,2.4.8,3.6,1.2,1.5.5,3.1,1.1,4.6,1.6,1.2.4,2.5.8,3.7,1.2,1.3.4,2.6.9,3.9,1.4.4.2.9.3,1.3.4.6.2,1.1.4,1.7.6.5.2,1.1.3,1.6.5.6.2,1.2.6,1.9.6.1,0,.3,0,.4.1,1,.4,2,.8,2.9,1.1.2,0,.5,0,.7,0,.3,0,.4-.3.2-.5-.4-.4-.7-.8-1.2-1.1-.5-.3-.9-.7-1.4-1.1-.3-.3-.5-.5-.8-.8-1.1-.9-2.2-1.8-3.3-2.8-1.2-1.1-2.4-2.3-3.6-3.4,0,0-.2-.2-.3-.2-.3-.2-.6-.4-.8-.7-.8-.8-1.6-1.6-2.4-2.3-1.4-1.3-2.9-2.6-4.4-3.9-1-.9-1.9-1.8-2.8-2.7-.7-.7-1.5-1.2-2.5-1.5-.3,0-.6-.3-.9-.5-.5-.4-.9-.9-1.3-1.3-1-1-1.9-2-2.8-3-.9-.9-1.8-1.8-2.7-2.7-.3-.3-.6-.8-.7-1.2,0-.2,0-.3,0-.5.2,0,.4,0,.5.1.4.3.8.7,1.3,1.1,1.1.8,2.3,1.6,3.4,2.4.4.3.9.6,1.4.9.6.4,1.2.9,1.8,1.3,1,.6,1.6,1.4,1.8,2.4,0,.4.3.8.6,1.1.7.7,1.5,1.4,2.2,2,.3.3.7.7,1,1,1.4,1.2,2.8,2.5,4.1,3.7.8.8,1.7,1.5,2.5,2.2,1,.9,2.1,1.7,3.1,2.6,1,.9,2,1.9,3.1,2.6.8.5,1.4,1.3,2,1.9,1.1,1,2.3,1.9,3.2,3.1.2.3.4.5.5.8,0,.1.2.3.3.3s.3-.1.4-.3c.2-.2.3-.5.4-.8,0-.1.1-.3.1-.5,0-.4-.1-.9-.3-1.3-.1-.5-.3-.9-.5-1.4-.2-.5-.3-1-.5-1.5-.3-1.1-.6-2.2-1-3.3-.1-.5-.3-1-.4-1.5-.5-1.4-1-2.9-1.4-4.3-.4-1.3-.6-2.7-.9-4.1-.1-.7-.3-1.3-.4-2-.2-1.3-.4-2.5-.7-3.7-.2-.8-.4-1.6-.4-2.5s0-.4,0-.5c0-.4-.2-.7-.2-1.1-.1-.6-.3-1.2-.4-1.8,0-.1,0-.2-.2-.3,0,0-.2-.1-.3-.1s-.2.1-.2.2c0,.2,0,.4,0,.6,0,.3-.4.4-.5.2-.3-.3-.6-.6-.5-1,.1-.3,0-.6,0-.9-.3-.5,0-.8.6-.8.2,0,.4,0,.7,0ZM78.6,351.1c0,.6.3,1.1.6,1.6.2.4.5.6,1,.5.9-.2,1.9-.3,2.8-.6,1-.3,1.9-.7,2.9-1.2.4-.2.5-.4.3-.8-.1-.2-.3-.5-.4-.7,0-.2,0-.4.1-.5.1,0,.4,0,.5,0,.2.2.4.5.6.8.1.2.2.4.3.5.2.2.4.2.5,0,.1-.4.5-.6.8-.8.4-.3.7-.6,1-.8.3-.3.6-.6.9-.8.3-.2.5-.5.7-.8.3-.3.5-.6.8-.9.6-.6,1.1-1.2,1.5-1.9.1-.3.4-.6.6-.9.4-.5.7-1.1.9-1.8.3-1.1.6-2.1.9-3.2.4-1.2.4-2.4.6-3.6,0-.4,0-.5-.5-.6-.5,0-1,0-1.6,0-.2,0-.4,0-.6,0-.3,0-.5-.2-.5-.5,0-.3.1-.5.4-.6.3-.1.6-.2,1-.2.6,0,1.2,0,1.7,0,.6,0,.8-.1.8-.8,0-.6-.2-1.3-.2-1.9,0-1.2-.3-2.4-.8-3.5-.2-.5-.4-1-.6-1.5,0-.1-.2-.2-.3-.4,0,.3-.1.4-.2.5-.1.3-.2.6-.4.8-.5.3-1,.6-1.5.8-.5.2-1-.2-1-.8s.2-.5.5-.5.4,0,.6,0c.8,0,1.1-.3,1.1-1.1,0-.2,0-.4,0-.5.4-.4.2-.9,0-1.3-.3-.6-.8-1.1-1.1-1.7-.8-1.3-2-2.2-3.1-3.3-.2-.2-.4-.3-.6-.4-.5-.3-.9-.2-1.3.3-.2.3-.5.6-.7,1-.2.3-.5.7-.7,1-.1.2-.4.3-.6.2-.3,0-.3-.3-.3-.6,0-.2.1-.4.3-.6.3-.5.7-1,1.1-1.5.5-.8.4-1.3-.6-1.6-.3,0-.6-.2-.9-.3-.9-.4-1.8-.7-2.8-.9-.6-.1-1.2-.3-1.7-.7-.2-.1-.5-.2-.7-.2-.6,0-1.2,0-1.7,0-.3,0-.6,0-.9.2-.4.2-.7.1-.9-.1-.3-.4-.8-.4-1.2-.3s-.9.1-1.3.3c-1.1.3-2.3.2-3.3,1,0,0-.2,0-.3.1-.4.1-.9.3-1.3.4-.2,0-.4.2-.6.3-.3.3-.3.5-.1.8.2.4.5.7.6,1.1.1.2.2.5.2.8,0,.2,0,.5-.2.5-.2,0-.4,0-.6-.1-.2-.1-.3-.4-.4-.5-.4-.6-.7-1.3-1.2-1.8,0,0-.1-.2-.2-.3-.1-.4-.3-.7-.3-1.1,0-.1,0-.4.1-.4.1,0,.3,0,.5,0,.1,0,.2.1.3.2.2.2.4.2.7.2.5-.1.7-.4.6-.9,0-.4,0-.6.4-.8.7-.3,1.3-.8,2.1-.9,1-.2,1.9-.4,2.8-.6.2,0,.3,0,.5,0,.5,0,.7.1.8.6,0,.1.2.4.3.4.4,0,.8-.1,1.1-.2.3,0,.3-.3.4-.5,0-.4.3-.5.6-.3.1.1.2.3.3.4.2.6.2.6.7.6.3,0,.5,0,.7,0,.2,0,.2-.4.3-.6,0,0,0,0,0,0,.2,0,.3-.2.5-.2.2,0,.3.2.3.4,0,.1,0,.3,0,.4,0,.3.1.5.4.6.2,0,.4,0,.6.1.5,0,.7-.3.5-.8,0,0,0-.1,0-.3.5,0,.9,0,1.3.4,0,.2-.1.4-.2.6,0,.4,0,.5.3.7.7.3.8.2,1.3-.3,0,0,0,0,.1,0,0,0,.1,0,.1,0,0,.2,0,.4.1.7,0,.3.4.5.9.5s.4,0,.5-.5c0-.5.2-.5.7-.4.9.3,1.6,1,2.4,1.5.1,0,.2.3.4.4-.2,0-.3,0-.4.1-.1,0-.3.2-.3.2,0,.1,0,.3.2.4.3.3.6.3.9,0,.2-.2.4-.2.6-.1.6.2,1,.6,1.3,1,.2.2.3.5.4.8,0,.2-.2.4-.4.5-.2.3-.2.6.2.7.2,0,.5,0,.7,0,.6-.1,1,.1,1.3.6.1.2.2.4.3.6.1.3.3.6.5.7.1,0,.2.3.4.4-.3.2-.5,0-.6,0-.2-.1-.4-.2-.6,0-.2.2-.1.4,0,.6.3.4.6.5,1,.4.3,0,.6,0,.7.3.1.3.3.5,0,.8-.3.3-.3.6,0,.9.2.3.4.4.8.5.4,0,.8.2.8.8,0,.1,0,.2.2.3.4.5.5,1.1.6,1.6,0,.6.2,1.1.3,1.7.1.7.3,1.3.4,1.9,0,.6,0,.7-.7.7s-.2,0-.2,0c-.1,0-.3.2-.3.3,0,.1.1.3.2.4.1.1.3.1.5.2.4.1.5.3.5.7s0,.4,0,.6c0,.6,0,1.2,0,1.7s0,.2,0,.4c.4-.3.4-.6.4-1,0-.8,0-1.6.1-2.4,0-.9,0-1.9-.1-2.8-.3-1.5-.6-3-1-4.5-.4-1.4-1.2-2.6-1.8-3.9,0-.1-.2-.2-.3-.3-.2-.3-.4-.6-.6-.9-.6-.9-1.1-1.7-1.7-2.6,0-.1-.2-.2-.3-.3-.8-.8-1.5-1.7-2.6-2.2,0,0-.1-.1-.2-.1-1-.7-2-1.5-3-2.2-.2-.1-.4-.2-.6-.3-1-.4-1.9-.7-2.9-1.1-1.2-.5-2.4-.8-3.7-1-.2,0-.4,0-.6-.1-1.9-.3-3.8-.4-5.7,0-.3,0-.5.1-.8,0-.9-.1-1.8.3-2.6.5-.9.2-1.7.6-2.5.9-1.2.5-2.3,1.3-3.5,1.9-.7.4-1.4,1-2.1,1.5-.3.2-.5.6-.8.9-.2.3-.4.6-.7.8-.6.4-1,1-1.4,1.6-.4.6-.8,1.2-1.2,1.8-.3.4-.6.8-.8,1.2-.2.4-.4.8-.6,1.1-.3.5-.5,1.1-.8,1.6-.1.3-.2.7-.3,1-.3.8-.5,1.5-.7,2.3,0,.3-.2.7.2.9,0,0,.1-.1.2-.2.1-.5.3-.9.4-1.4.2-1.3.8-2.4,1.2-3.5.1-.4.5-.8.6-1.2.2-.7.8-1.2,1.2-1.8,0,.3,0,.4,0,.5,0,.2,0,.4,0,.6,0,.1.1.3.2.3s.3,0,.3-.1c.2-.3.4-.6.5-.9.1-.3,0-.5-.3-.7-.1,0-.3-.1-.4-.2.2-.9.6-1.2,1.2-1.2,0,.2,0,.3,0,.5,0,.1.2.3.3.3.4,0,.6-.3.8-.6.2-.3,0-.4-.2-.6-.4-.3-.4-.5-.2-.9,0-.2.2-.3.3-.5.2-.1.4-.3.6-.3.3,0,.2.4.2.6,0,.2,0,.4.2.5s.4,0,.6-.2.2-.2.2-.3c.1-.5.4-.7.9-.8.3,0,.5-.3.6-.5,0-.3,0-.4-.3-.6-.4-.3-.4-.6,0-.9.2-.1.4-.2.7-.3,0,.3,0,.5,0,.6,0,.2.1.4.3.5.4.5.5.6,0,1.1,0,.1-.2.2-.3.3-1.7,1.3-3.1,2.9-4.5,4.5,0,0,0,.2-.2.4.3,0,.6,0,.8-.1.8-.3,1.4,0,2,.4.1.1.2.2.4.3.9.5.6,1.7-.3,1.9-.1,0-.2,0-.3.1q-.8.3-.5,1.2c.1.4,0,.8-.4,1-.3.1-.6,0-.7-.3,0-.1,0-.3,0-.4,0-.5-.2-.5-.6-.4-.3,0-.6,0-.9,0-.2-.1-.5-.3-.7-.3-.1,0-.4,0-.4,0s-.1.3-.1.4c0,.3.3.5.6.7.7.3,1.5.5,2.2.9,0,0,0,0,.1,0,1,.1,2,.8,3.1.8.2,0,.4.2.6.2.3.1.7.3,1,.4.6.2,1.3.2,1.9.5,1,.5,2.1.6,3.1,1,.7.3,1.4.4,2,.7.8.4,1.6.4,2.5,0,1.1-.4,2.2-.1,2.6,1,.3.8.8,1.1,1.6,1.2.6.1,1.2.3,1.7.5.4.1.7.3,1.1.4.4.1.7.2,1.1.4.7.3,1.4.5,2.2.6,1,0,1.5.7,1.4,1.7,0,.6-.6.9-1.2.8-.6-.1-1.2-.4-1.7-.8-.3-.2-.7-.4-1.1-.5-1.4-.4-2.8-.9-4.2-1.5-.3-.1-.7-.1-1,0-.2.1-.5.3-.7.5-.7.5-1.3.5-2,0-.5-.3-.8-.8-.9-1.4-.1-.8-.6-1.1-1.3-1.3-.8-.2-1.6-.5-2.4-.8-.3-.1-.6-.2-.9-.3-.9-.3-1.8-.6-2.7-.9-.7-.3-1.4-.5-2-.8-.8-.3-1.5-.5-2.3-.8-.3,0-.5-.2-.7-.3-.9-.3-1.8-.6-2.6-.9-.5-.2-.9-.2-1.3-.1-.2,0-.4.2-.5.4-.1.2-.2.4-.2.7-.1.9-.2,1.7-.3,2.6,0,0,0,0,0,.1,0,.4.1.6.6.6.5,0,1,0,1.5-.2.4,0,.8-.1,1.2,0,.6.2.6.5.2,1,0,0-.1.2-.2.3-.2.4-.6.4-1,.3-.5,0-1.1-.1-1.6-.1-.7,0-.9.4-.7,1.1.3,1.2.5,2.4.8,3.6.1.5.3,1,.4,1.5.1.4.3.4.7.2.2-.1.4-.3.6-.5.7-.6,1.4-.7,2.2-.4.4.1.6.4.7.8,0,.4-.1.6-.4.8-.1,0-.2.1-.3.2-.2.2-.2.4,0,.7.2.2.4.2.6,0,.2-.1.3-.3.5-.3.2,0,.4,0,.6,0,.1.1.2.4.1.6,0,.2-.2.4-.3.5s-.3.2-.6.3c0,.3.2.5.2.7s.2.4,0,.6c-.2.2-.5.3-.8.2-.3,0-.7-.2-1-.2-.4,0-.8-.1-.9-.5-.1-.4.1-.7.4-.9.2-.2.2-.4.2-.7,0-.2-.3-.3-.5-.3-.3,0-.7,0-1,0q0,.3.3.6c.4.4.3.9-.2,1.2-.1,0-.3,0-.4.1-.5.1-.5.3-.3.7.3.5.6,1.1.9,1.6,0,.1.3.3.4.3s.3-.2.4-.4c0-.2,0-.4-.3-.5,0,0-.2,0-.3,0-.3-.1-.4-.3-.3-.6s.3-.4.5-.3c.2,0,.4.2.6.3.4.4.8.8,1.2,1.2,1,1,2.1,2,3.1,2.9.5.5.7.5,1.2,0,.4-.4.6-.8.9-1.2.1-.1.2-.3.3-.5.3-.3.6-.2.7.2,0,.2,0,.5-.1.7-.3.5-.6,1-.9,1.5-.4.7-.4.7.3,1,.5.3,1,.5,1.5.7.2,0,.5,0,.7.2.9.4,1.7.7,2.7.7.1,0,.2,0,.3,0,.5.2,1,.4,1.4.6.3,0,.6.1.8.2.1,0,.3-.1.3-.2,0-.1,0-.3-.2-.3-.1-.1-.3-.1-.4-.3-.7-.8-.4-2.5.5-2.9.4-.2.9-.1,1,.3.2.4.4.8.4,1.3,0,.7,0,1.3-.2,2-.2.4,0,.7.4.7s.6-.3.6-.6,0-.5,0-.7c-.4-.7-.2-1.5-.2-2.2,0-.4.3-.7.6-.9.3-.2.6-.2.9,0,.3.2.4.5.4.9s-.3.6-.7.7c0,0-.2,0-.4.1ZM72,215.6c0-.4,0-.6,0-.8,0-.6,0-.7-.6-.9-.3-.1-.6-.3-.7-.6-.2-.5-.5-1-.5-1.6,0-.1,0-.3-.1-.4,0-.4-.2-.8-.2-1.2,0-.6,0-1.2,0-1.8.1-.9.2-1.9.4-2.8.4-1.6,1.4-2.9,2.4-4.2.4-.6,1-1,1.6-1.4.6-.4,1.3-.7,2-1,1-.4,1.9-1,3-1,0,0,.1,0,.2,0,1.4,0,2.7-.1,4,.4,1.4.5,2.5,1.4,3.7,2.1s.2.2.3.3c.8.9,1.6,1.8,2.3,2.9.7,1,1.1,2.1,1.2,3.3.2,2.1,0,4.2-1.2,6-.3.4-.6.9-1.1,1.1-.3,0-.4.3-.4.7,0,.3,0,.6,0,.9,0,.3.1.4.4.4.3,0,.5-.2.7-.3.4-.2.7-.3,1.1-.5.2-.1.4-.2.6-.4.3-.3.5-.6.9-.8s.3-.3.5-.5c.2-.2.3-.4.5-.5,1.2-.9,1.8-2.3,2.7-3.4,0,0,0-.1,0-.2.5-1.1,1.1-2.2,1.6-3.3.5-1.2.9-2.5,1-3.8.1-1.6,0-3.2.2-4.7,0,0,0,0,0-.1-.1-1,0-2-.4-3-.2-.5-.3-1.1-.5-1.5-.5-1-1.1-2-1.6-3-.2-.3-.4-.7-.6-1-.4-.9-.9-1.7-1.6-2.3-.3-.2-.5-.5-.7-.8-.4-.5-.8-1-1.4-1.3-.5-.2-.9-.5-1.3-1-.2-.2-.5-.4-.8-.5-.1,0-.3,0-.4-.2-1.1-.8-2.5-.9-3.7-1.4-.7-.2-1.4-.3-2.1-.5-1.4-.3-2.8-.3-4.2,0-.7.1-1.4.3-2.2.3-.1,0-.3,0-.4,0-.6.2-1.2.4-1.8.6-1.1.4-2.1.9-3.2,1.4-.3.1-.6.4-.9.6-1.6,1.2-3.1,2.4-4.2,4.1-.1.2-.3.3-.4.5-.6.7-1.1,1.4-1.3,2.2,0,.1,0,.2-.1.3-.4.9-.7,1.7-1.1,2.6-.6,1.5-1,2.9-1,4.5,0,.2,0,.3,0,.5,0,.5,0,1,0,1.6,0,.3.1.6.1.9,0,1.4.5,2.7.9,4,.3,1,.8,1.9,1.1,2.8.3.8.7,1.5,1.2,2.1.8,1,1.6,1.9,2.4,2.8.2.2.4.4.6.6.6.5,1.2,1,1.8,1.5.3.3.7.5,1.2.9ZM19.1,267.3c-.4,0-.6.2-.7.4-.3.6-.7,1.1-1,1.7-.6,1.3-1.2,2.7-1.8,4-.4.8-.7,1.7-1.1,2.5-.1.3-.2.5-.3.8-.4,1.4-.8,2.8-1.2,4.2-.4,1.4-.9,2.8-1.2,4.2-.2.8-.3,1.5-.5,2.3-.2.9-.4,1.8-.5,2.7-.2,1.2-.3,2.5-.5,3.7,0,0,0,0,0,.1-.2.7-.2,1.5-.2,2.2,0,.3,0,.7,0,1,0,.6-.2,1.3-.3,1.9-.2,2.6.3,5.1.4,7.7.3,1,.3,2,.4,2.9.1,1.1.4,2.1.6,3.2.2.9.3,1.8.4,2.6,0,.1,0,.2,0,.4.3,1.3.7,2.6,1,3.9.2,1,.5,2,.9,2.9.4.9.7,1.8,1,2.6.2.5.4,1,.5,1.5.4,1.2,1.1,2.3,1.3,3.5,0,.2.2.4.4.6.2.3.4.6.5,1,.1.3.3.5.4.8.2.5.5.9.7,1.4.3.6.3,1.3.9,1.8,0,0,0,.1,0,.2.2.3.3.6.5.8.5.6.9,1.1,1.1,1.8,0,.3.3.6.5.8,1.1.9,1.8,2.1,2.6,3.1,1,1.2,1.9,2.4,2.9,3.6,1,1.1,1.9,2.3,3.1,3.4.8.7,1.6,1.5,2.4,2.3.2.2.4.3.6.5.9.7,1.9,1.5,2.9,2.2,1.2.9,2.4,1.7,3.5,2.7.2.2.5.3.8.5.2.1.4.1.6,0,.2-.3.5-.3.9-.2.2,0,.4,0,.6,0,0-.1,0-.2,0-.2l-.2-.4c-.5-.8-.3-1.5.5-1.9.3-.1.5-.2.8-.3s.6,0,.9,0c0,0,.2,0,.2-.2s0-.2,0-.3c-.2,0-.4-.1-.6-.2-.7,0-1.4-.1-2-.5-.4-.3-.9-.6-1.3-.9-1.9-1.3-3.7-2.7-5.2-4.5-.9-1-1.9-1.9-2.8-2.9-.5-.5-1-.9-1.4-1.5-.3-.5-.8-.9-1.2-1.4-.1-.1-.3-.3-.4-.4-.6-.8-1.3-1.6-1.9-2.4-.3-.4-.6-.9-1-1.4-.4-.5-.8-1.1-1.2-1.6-1.1-1.7-2-3.5-2.7-5.4-.2-.4-.4-.7-.6-1-.2-.4-.5-.7-.6-1.1-.2-.4-.4-.9-.6-1.3-.5-1.2-1.1-2.4-1.6-3.7-.3-.8-.5-1.5-.8-2.3-.4-1.4-.9-2.8-1.2-4.2-.4-1.3-.7-2.5-1-3.8-.2-.8-.4-1.5-.5-2.3-.2-1.1-.2-2.1-.3-3.2-.2-1.4-.3-2.7-.3-4.1,0-1.8,0-3.7,0-5.5,0-1.5-.1-3,.3-4.5.2-.9.3-1.9.3-2.8,0-1.8.7-3.5,1-5.3.4-2,1.1-3.9,1.8-5.8.1-.4.3-.8.4-1.2.4-1.1.8-2.1,1.2-3.2.5-1.2,1.1-2.4,1.7-3.6.4-.7.3-1-.5-1.1-.4,0-.9-.2-1-.6-.1-.5-.4-.7-.9-.9-.8-.4-1.2-.9-.6-2,0-.1.1-.3.2-.5ZM72.9,176.6c-.3.3-.5.6-.8.7-.3.2-.7.3-1.1.4-.2.1-.5.3-.7.4-.6.4-1.3.9-1.9,1.3,0,0-.2,0-.3,0-.3,0-.5.2-.8.5-.3.4-.6.7-1,.9-.6.2-1,.7-1.4,1.2-.3.4-.7.7-1.1,1-.1,0-.3.2-.4.3-.2.3-.4.7-.7,1-.9,1-1.4,2.2-2,3.3-.2.3-.3.7-.6,1-.5.7-.7,1.3-.7,2.2,0,.3,0,.6,0,.9-.2.6-.5,1.3-.7,1.9-.1.4-.2.7-.2,1.1,0,.8-.2,1.7-.2,2.5,0,.5-.1,1-.2,1.5,0,1,0,2.1,0,3.1,0,.4,0,.9.2,1.3.2,1.1.6,2.1.6,3.2s0,.4.2.6c.5.5.7,1.2,1,1.9.2.4.1.5-.3.8,0,0-.1.1-.2.2.1,0,.2,0,.3,0,.8,0,.8,0,1,.7,0,.2.1.4.2.6.4.5.7,1,1.1,1.5.2.3.5.6,1,.5,0-.5.2-1,.2-1.5,0-.6-.2-1-.4-1.5s-.2-.3-.3-.2c-.5,0-.7-.3-.9-.6-.4-.6-.7-1.3-.8-2.1,0-.1,0-.3,0-.4-.6-1-.9-2.1-1.1-3.2-.1-.7-.4-1.4-.5-2.1-.1-1.2-.1-2.5-.2-3.7,0-.2,0-.4,0-.6.3-1.8.6-3.6,1.1-5.4.3-1,.7-1.9,1.4-2.6.1-.2.3-.4.3-.6.1-.9.3-1.1,1.2-1.3.5-.1.6-.2.4-.7-.1-.4-.1-.7.1-1.1.4-.4.7-.8,1.2-1.2.4-.4.9-.6,1.1-1.2,0,0,.1-.2.2-.2,1.1-.9,2.1-1.9,3.3-2.5.9-.5,1.8-1.1,2.7-1.6.3-.1.5-.3.8-.4.6-.2,1.3-.2,1.9-.4.8-.2,1.6-.4,2.4-.3,0,0,0,0,.1,0,.5,0,1.1-.2,1.6-.3.7,0,1.4,0,2,0,.4,0,.6.2.8.6.3.5.8.6,1.2.2.3-.3.7-.3,1.1-.2.5.2.9.4,1.4.3.3,0,.5.1.6.4.1.3.3.4.6.4.3,0,.6,0,.9.2.2.1.4.2.6.3,1.2.5,2.4,1,3.1,2.2,0,.2.3.3.4.4.3.2.7.4.9.6.8.8,1.8,1.4,2.3,2.5,0,0,.1.1.2.2.6.8,1.3,1.5,1.8,2.4.4.6.7,1.3,1,1.9.4.9.9,1.9.8,3,0,.1,0,.3,0,.4.2,1,.4,1.9.7,2.9.3,1.1.3,2.3.3,3.5,0,.8-.3,1.6-.3,2.3,0,1.2-.3,2.4-.8,3.5-.1.3-.3.6-.4.8-.4,1-.7,2-1.2,3-.6,1.2-1.5,2.1-2.4,3-.9.9-1.8,1.9-2.8,2.7-.6.5-1.2.8-1.8,1.3-.3.2-.4.4-.5.7,0,.2,0,.4-.1.7,0,.3,0,.6.2.9,0,0,.1,0,.2,0,0-.2,0-.3.1-.5.2,0,.3,0,.5,0,.5,0,1-.2,1.2-.7s.3-.4.7-.5c.2,0,.4-.2.4-.4,0-.6.4-.9.8-1.2.2-.1.4-.2.5-.4.4-.8,1.3-1.2,1.9-1.9.2-.3.5-.5.6-.8.4-.7.7-1.4,1.3-1.9.1,0,.2-.3.2-.4.2-.4.4-.9.5-1.3.3-.6.6-1.3.8-1.9.3-.9.6-1.9.8-2.9s.4-1.4.5-2.2c.1-.9.1-1.9.3-2.9.1-.9,0-1.7-.2-2.6-.1-.6-.3-1.2-.3-1.8,0-.5,0-1,0-1.4.2-.5.2-1,0-1.5,0-.3-.2-.6-.2-1,0-.3-.1-.4-.3-.6s-.4-.4-.5-.6c-.3-.6-.5-1.3-1-1.8-.2-.2-.4-.5-.5-.8-.2-.4-.3-.8-.5-1.2-.5-.9-1.2-1.7-2.1-2.2-.4-.2-.6-.6-.5-1.1,0-.2,0-.5,0-.8s-.2-.4-.4-.4c-.2,0-.4,0-.4.3,0,.1-.1.2-.1.3-.3,0-.5-.1-.5-.4,0-.5-.4-.8-.8-1s-.3-.1-.4-.2c-.2-.3-.5-.5-.9-.6-.2,0-.3-.1-.4-.3-.4-.4-.7-.7-1.1-1.1-.2-.2-.4-.3-.6-.2-.3.2-.7.1-1,0-.4-.2-.8-.4-1.2-.6-.7-.3-1.3-.5-2-.7,0,0,0,0-.1,0-.6,0-1.2-.2-1.8-.3-.9-.1-1.9-.2-2.8-.1-.5,0-.9.1-1.4,0-.6-.2-1.2-.1-1.8,0-.4,0-.8.1-1.2.2-.2,0-.3,0-.5,0-1,.3-1.9.7-2.8.4ZM108.7,361c-.2-.3-.4-.3-.7-.3-.6.2-1,0-1.3-.5-.2-.2-.3-.5-.3-.8,0-.3,0-.7,0-1,0-.3-.2-.5-.5-.3-.1,0-.2.2-.3.3-.4.4-.8.7-1.4.8-.7.2-1.5.4-2.2.8-.8.4-1.6.7-2.4,1-1.1.4-2.3.6-3.3,1.2,0,0-.2,0-.3,0-.7.1-1.3.3-2,.4-.6.1-1.2.3-1.7.5-1.2.5-2.4.7-3.6.9-1.8.3-3.6.5-5.3.8-.2,0-.4,0-.5.1-.9.2-1.9.3-2.8-.1-.2,0-.3-.2-.5,0,.1.1.2.3.3.4.2.3.3.6.2.9,0,.3-.2.5-.4.5-.3,0-.5,0-.7-.3-.1-.2-.3-.3-.4-.5,0,0-.3,0-.3,0,0,0-.2.3-.1.4,0,.2.2.4.3.6.3.4.5.8.3,1.3,0,.1,0,.2.1.5.2-.3.3-.6.5-.7.1-.1.4-.2.5-.2.2,0,.4.2.4.4.1.4,0,.7-.3,1,0,0-.2.2-.3.4.3,0,.5.1.8.1.8,0,1.7,0,2.5-.1,1.4-.2,2.7-.4,4.1-.5.1,0,.3,0,.4,0,.5,0,1.1-.1,1.6-.2,1.1-.2,2.2-.5,3.3-.7.9-.2,1.7-.3,2.6-.5.2,0,.3,0,.5-.1.6-.2,1.1-.4,1.6-.6.6-.2,1.2-.3,1.8-.4.6,0,.8,0,1,.6.2.6,1,.9,1.6.6.4-.2.8-.3,1.3-.3.3,0,.6-.1.8-.4.3-.3.1-.8-.3-.9-.1,0-.3,0-.4,0-.4.2-.9.2-1.2.6-.1.1-.3.1-.5.2-.2,0-.4,0-.6,0-.2,0-.5-.1-.5-.4,0-.3.1-.4.4-.5.3-.1.6-.2.9-.3,1-.3,2.1-.7,3.1-1,.3,0,.5-.3.8-.4.9-.2,1.7-.9,2.5-1.2.3-.1.6-.3.9-.4,0-.3-.2-.6-.2-.9,0-.3.4-.5.6-.8ZM78,232.4c-.2,0-.3-.1-.4-.1-.8,0-1.5,0-2.3,0-.1,0-.3,0-.4,0-.5.3-1,.3-1.5.3-.5,0-.9,0-1.3.1-.5.2-1,.2-1.6.2-.5,0-1,0-1.4,0-.3,0-.6.1-.9.2-.5.2-1,.4-1.5.5-.7.2-1.5.3-2.2.5-.5,0-1,.1-1.4.3-.7.3-1.6.3-2.3.6-.5.2-1.1.3-1.6.5-.5.2-1,.4-1.6.5-1,.2-1.9.7-2.8,1-.8.3-1.6.5-2.4.8-.3,0-.5.2-.8.3-.8.3-1.5.7-2.2,1-.4.2-.5.2-.4.6,0,.4,0,.7-.2.9,0,.1-.2.2-.3.3-.2.3-.1.6.2.7.1,0,.3,0,.4.2.9.4,1.3,1.5.8,2.4,0,.1-.1.3-.2.5.4.1.6-.1.8-.3.7-.6,1.5-1,2.4-1.4,1.6-.6,3.1-1.3,4.7-1.9,1.3-.5,2.6-.9,3.9-1.4.7-.2,1.4-.4,2.1-.6.3-.1.7-.3,1-.3.8-.2,1.6-.3,2.4-.4.8-.2,1.6-.4,2.3-.6,1-.2,1.9-.3,2.9-.4,1.4-.2,2.8-.4,4.1-.3,0,0,0,0,.1-.1-.2-.2-.4-.4-.6-.7-.6-.9-.4-2.3.4-3,.3-.3.8-.6,1.2-.8.2,0,.3-.2.5-.3ZM72.1,370.8c-.3-.4-.6-.6-1-.6-.6,0-1.1-.2-1.7-.3-.3,0-.5,0-.8,0-.5,0-1,0-1.4-.3-.4-.2-.8-.3-1.2-.4-.7-.1-1.3,0-2-.2-.8-.1-1.6-.1-2.2-.8-.1-.1-.3-.2-.5-.2-1,0-1.9-.4-2.8-.6-.9-.2-1.7-.6-2.6-.7-.2,0-.4-.1-.5-.2-1-.5-2.1-.8-3.2-.7-.4,0-.8-.1-1-.5-.2-.3-.4-.5-.7-.6-1.3-.6-2.6-1.3-3.8-1.9-.3-.1-.6-.3-.8-.3-.6,0-1-.4-1.3-.8-.4-.5-.9-.8-1.4-1-.3-.1-.6-.3-.9-.5-.2-.1-.3-.3-.5-.4-.8-.2-1.3-.7-1.9-1.1-.9-.7-1.8-1.5-2.9-2,0,0-.2-.2-.3-.3-.5-.5-1.1-.9-1.7-1.4,0,.2,0,.3,0,.3.2.6.5,1,1.1,1.3.4.2.7.3.9.7,0,.1.2.2.3.3.5.3.9.6,1.1,1.1.1.2.3.4.5.4.5,0,.9.3,1.3.6.2.2.4.4.6.5.5.2,1,.5,1.4.9.1.1.3.2.5.3.7.3,1.3.6,1.9,1,1.1.7,2.2,1.5,3.5,1.9,0,0,.2,0,.3.1.6.5,1.4.8,2.1,1.2.2.1.4.2.7.3.9.3,1.8.6,2.5,1.2.1.1.4.1.6.2.4,0,.8,0,1.1.2.9.4,1.8.8,2.8,1.2.3.1.6.2.9,0,.2,0,.4-.1.6,0,.6.2,1.2.4,1.8.6.3.1.7.2,1,.3.7.1,1.4.4,1.8,1,.3.4.4.4.9.2.4-.3.9-.3,1.4-.3,1,0,1.9.1,2.9.2.3,0,.5,0,.7.2.4.1,1.3.1,2,0ZM92.5,349.4c-.2.3-.3.6-.5.9-.3.4-.7.4-.9,0,0,0,0-.2-.1-.3-.2-.3-.3-.4-.7-.2-.6.2-.8.7-.4,1.2.2.3.3.6,0,.9-.1.2-.3.3-.5.3-.1,0-.3-.2-.4-.3,0-.1-.1-.3-.2-.4-.2-.2-.5-.2-.7,0-.2.2-.2.4,0,.7,0,0,.2.1.2.2.3.3.3.5,0,.8-.3.2-.5.3-.8.4-.7.3-1.5.4-2,1-.3.3-.7,0-.7-.4,0-.1,0-.3,0-.4-.1-.2-.3-.3-.4-.4-.1,0-.3.1-.4.3-.1.2,0,.3.1.5,0,0,.2.1.2.2.3.3.2.5-.2.6-.2,0-.3,0-.5.2,0,0-.1.2-.1.4s.2.2.3.1c.5-.1,1-.2,1.5-.4.3,0,.5-.3.8-.4,1.1-.3,2-.9,2.8-1.6.9-.7,1.9-1.2,2.7-2,.6-.7,1.2-1.2,1.8-1.9.4-.5.8-1,1.2-1.5.8-.8,1.4-1.8,2-2.8.2-.3.3-.6.3-.9,0-.3.1-.6.4-.8.2-.2.4-.4.5-.7.5-1.4.9-2.8,1.3-4.2,0-.1,0-.3,0-.5-.5.2-.6.5-.6.8,0,.7-.2,1.3-.5,1.9-.1.3-.2.6-.3.9-.2.4-.4.7-.6,1-.1.2-.4.3-.6.1-.1,0-.3-.3-.3-.4,0-.2.1-.3.3-.4.3-.2.5-.4.4-.8,0-.1-.2-.3-.3-.3s-.3,0-.4.2c-.2.4-.4.9-.6,1.3-.3.6-.4,1.3.1,1.9.1.1.1.4,0,.6-.1.3-.4.2-.6.2-.6,0-.9,0-1.2.6-.2.3-.5.6-.8.9,0,.1-.2.2-.3.3-.2.3,0,.5.2.7.2.1.4,0,.6-.3,0,0,0-.2,0-.2.2-.6.4-.7,1.1-.4,0,.4-.2.7-.5,1-.2.2-.4.4-.5.7-.2.3-.3.6-.4.8-.2.3-.5.3-.7,0,0,0,0-.2,0-.2-.2-.3-.4-.5-.7-.4-.2,0-.4.1-.4.4s.1.4.2.4c.3.2.5.3.9.4ZM61.8,348.5c.2-.1.3-.2.4-.3.2-.2.3-.5.2-.8,0-.2-.4-.4-.6-.4-.3,0-.3.2-.3.4,0,.1,0,.2,0,.3-.1.3-.3.4-.6.3-.2,0-.3-.2-.5-.3-.4-.4-.7-.9-1-1.3-1-1.6-2-3.2-2.4-5,0-.4-.3-.8-.4-1.2-.2-.8-.3-1.5-.5-2.3,0-.3-.1-.7-.1-1,0-.4-.1-.9-.1-1.4s.1-.6.6-.5c.5.1.6,0,.9-.4-.2-.4-.5-.5-1-.5-.3,0-.5-.1-.5-.5,0-.5,0-1,0-1.6,0-.4,0-.8-.2-1.2-.3.3-.4.6-.3.9,0,1.2,0,2.4.1,3.7,0,1.1,0,2.2.3,3.3.3,1,.5,2.1.8,3.1.3.7.5,1.4.9,2.1.5.9,1,1.7,1.6,2.5.1.2.2.3.4.4.6.4.9,1,1.3,1.6.2.3.4.5.7.7.3.3.6.5.9.8.3.3.6.7,1,.9.6.4,1.2.8,1.8,1.2.8.6,1.7,1.1,2.6,1.6.7.4,1.5.7,2.3,1,0,0,.2,0,.4,0-.3-.4-.5-.5-1-.6-.3,0-.5-.1-.8-.2-.9-.6-1.9-1.1-2.7-1.9-.4-.3-.4-.4-.2-.9.1-.3.2-.6,0-.8-.3-.2-.5-.5-.9-.3-.5.2-.7,0-.6-.5,0,0,0-.1,0-.2,0-.4,0-.6-.4-.8-.3-.2-.5,0-.7.1,0,0-.1.1-.2.2-.1.1-.3.1-.4,0-.1,0-.2-.2-.4-.5ZM77,216.7s0,0,.1,0c0,0,0-.2,0-.3,0-.6,0-.7-.7-.8-.2,0-.3,0-.5-.2-.5-.2-1-.5-1.5-.7,0,0-.1,0-.2,0-.4,0-.5.1-.4.5,0,.2.1.3,0,.5,0,.6.2,1.2-.1,1.7,0,.1,0,.3,0,.4.2.6.1,1.1.1,1.7,0,.3,0,.7,0,1,0,.3,0,.6-.1.8-.2.3-.2.5,0,.8.1.3.1.7,0,1,0,.2,0,.4-.1.6,0,.5,0,.7.6.6.3,0,.5,0,.8,0,.5.2.8,0,.8-.5,0-.7,0-1.4.1-2.1,0-.3,0-.6,0-.8.3-1,.2-2,.1-3,0-.5,0-.9,0-1.4s0-.5.4-.6c.1.2.3.4.4.7ZM27.2,330.2c0,0,0,.1,0,.2.1,0,.3.1.4,0,.4-.1.9-.3,1.3-.5.8-.3,1.5-.6,2.3-.9.2,0,.3-.1.5-.1s.3,0,.3.1c0,0,0,.3,0,.3-.1.1-.3.2-.4.3-.5.3-1.1.5-1.6.8-.5.2-.9.6-1.4.7,0,0-.2.1-.2.2-.2.5,0,.9.6.9s.5,0,.8-.2c1.2-.7,2.2-1.8,3.3-2.6.3-.2.3-.4.1-.7-.2-.4-.2-.5.2-.7.6-.3,1.2-.5,1.8-.8.6-.3,1.1-.6,1.6-.9.2-.1.4-.3.4-.5,0-.5-.5-.8-1-.7-.1,0-.3,0-.4.2-.8.4-1.7.9-2.5,1.4-.6.4-1.2.8-1.8,1.1-.4.2-.8.4-1.1.6-.7.6-1.3,1-2.2,1.3-.3,0-.6.3-.9.4ZM50.3,250.2c0,.1,0,.4.1.7.1.6.3,1.3.4,1.9.1.6.4,1.1.9,1.5.2.1.4.3.5.5.8,1,1.6,1.9,2.3,2.9.2.3.5.5.8.7,0,0,.3,0,.4,0,0,0,.1-.3,0-.4-.1-.3-.2-.7-.4-1-.9-1.6-1.8-3.2-2.7-4.8-.5-.8-.9-1.6-1.4-2.4-.2-.4-.4-.5-.8-.4-.3.1-.5.4-.5.9ZM79.2,212.3c.2,0,.4,0,.6,0,.7,0,1.4,0,2,.3.1,0,.3,0,.4,0,.3-.3.4-1.1,0-1.5-.3.4,0,1-.5,1.3-.4-.2-.6-.6-.6-1,0-.5,0-1,.1-1.5.3-1.5.2-3,.2-4.5,0-.5-.1-.9-.2-1.4,0-.1-.1-.2-.2-.4,0,.2,0,.3,0,.4,0,.7,0,1.4-.1,2.1,0,.8-.2,1.6-.3,2.4,0,.5,0,1.1,0,1.6,0,.2-.1.4-.2.4-.2.1-.4-.1-.5-.3,0-.3-.2-.6-.2-.9,0-1.2,0-2.4.1-3.5,0-.7.2-1.4.2-2.1,0-.6,0-1.3,0-1.9s0-.2-.1-.3c0,0-.1,0-.1,0,0,.2,0,.4,0,.6,0,.9,0,1.9-.4,2.8-.2.5-.3,1.2-.2,1.7.1.8.2,1.6.2,2.5,0,.5.1,1.1.2,1.6,0,.6.2,1.2-.4,1.7ZM122.8,247c0-.1,0-.1,0-.1,0,0,0-.1.1-.2.3-.4.2-.7-.3-.9-.2,0-.4,0-.5,0-.3,0-.5,0-.6-.3-.2-.4-.6-.6-.9-.9-.6-.4-1.3-.8-1.9-1.3-.5-.4-.8-.9-1.2-1.3s-.5-.5-.8-.6c-.4-.1-.7-.3-1-.5-.3-.2-.6-.4-.9-.2-.4.2-.7.2-1,0,0,0-.2,0-.3,0,0,0,0,.2,0,.3.1.1.2.2.4.3.2.1.5.2.7.3,1.1.9,2.4,1.4,3.6,2.3,1.2.9,2.5,1.6,3.6,2.5.4.3.8.7,1.2,1q.8.7,1.8.2c0-.4-.4-.7-.8-.8-.3-.1-.7,0-1,0ZM16.8,309.9c-.2.9,0,1.7.3,2.4,0,.2.2.3.4.3.3,0,.4-.2.4-.5s0-.6,0-.8c-.2-.6-.2-1.2-.2-1.8,0-.5-.1-1.1-.2-1.6,0-.4-.2-.7-.2-1.1,0-1.7,0-3.3,0-5s0-.3,0-.5c0-.1-.1-.3-.2-.3-.4-.2-.9,0-1,.5,0,.3,0,.6,0,.9s0,.6,0,.9c0,.2,0,.5,0,.7,0,.2.3.3.5.4-.5.4-.5.4-.5,1,0,.1,0,.3,0,.4.3.6.3,1.2.3,1.8,0,.4,0,.8,0,1.2,0,.4,0,.9.4,1.2ZM17.8,286.1c0,.5.1.7.4.8.3,0,.5,0,.6-.5.1-.3.2-.6.3-.9.1-.5.3-1,.4-1.5.3-.8.4-1.6,0-2.4-.2-.4-.1-.6.3-.7.4-.1.6-.4.8-.8.1-.3.2-.6.4-.9.4-.9.8-1.9,1.2-2.9,0,0,0,0,0-.1,0-.2,0-.4-.2-.5-.4-.3-.8-.2-.9.3-.3.8-.5,1.6-.9,2.4-.5.9-.8,2-1.1,3-.5,1.4-1,2.7-1.1,4.2,0,.2,0,.4-.1.5ZM74.4,355.4c0-.1,0-.2,0-.2.3-.9.1-1.1-.8-1,0,0-.1,0-.2,0,0,.3,0,.5,0,.8-.6.1-.7,0-.8-.6,0-.6-.5-1-1.1-.9-.3,0-.4.3-.2.5.1.1.3.2.4.3,0,0,.1.2.1.3,0,0-.1.1-.2.2-.2,0-.4,0-.7.1.1.2.1.3.2.3.4.1.8.3,1.2.4.7.1,1.3.2,2,.4.1,0,.3.1.4.2.2.2.5.3.7.2.4-.1.9,0,1.3.1.2,0,.4,0,.6,0,.3,0,.5,0,.8-.1.1,0,.3,0,.4-.1,0,0,0,0,0-.1,0,0,0-.1,0-.2-.3-.6-.3-.6.2-1,.1-.1.4-.2.3-.5-.3-.2-.7,0-1,0-.3,0-.4.2-.5.5,0,.3,0,.5,0,.8,0,.3-.2.5-.5.5s-.5-.2-.5-.5c0-.2,0-.4,0-.7,0-.5,0-.6-.6-.6-.3,0-.5.2-.6.5-.2.5-.5.6-1.2.4ZM35.3,323.4c-.2,0-.4,0-.5.1-.4.2-.8.4-1.2.6-.7.4-1.5.8-2.2,1.3-.5.3-1,.6-1.5.9-.6.3-1.1.9-1.8,1-.1,0-.2.1-.3.2-.3.5-.9.7-1.4.8-.1,0-.3.2-.4.3.1.1.2.3.3.4s.3,0,.5,0,.3-.1.5-.1c.5,0,.8-.3,1.2-.6.5-.4,1.1-.8,1.7-1.2,1.1-.7,2.4-1.1,3.5-1.9.5-.4,1.1-.7,1.6-1,.2-.1.3-.3.2-.5,0-.1-.3-.2-.4-.3ZM46.3,352.2c.1-.2.2-.3.3-.4.3-.5.6-1,.9-1.5.9-1.3,1.7-2.6,2.5-4,.3-.6.8-1.2,1.1-1.8.4-.6.7-1.3,1.1-1.9.1-.2.1-.5-.1-.6-.2-.1-.4,0-.5.3-.2.4-.5.7-.7,1.1-.8,1.2-1.6,2.3-2.2,3.6-.3.7-.8,1.3-1.3,1.9-.3.4-.5.9-.8,1.3s-.3.5-.5.7c-.4.5-.2.9.2,1.4ZM79.3,201c0,0-.1,0-.2,0-.3.4-.6.8-.8,1.3-.4.9-.8,1.9-1,2.8-.2,1-.4,2,0,3.1.1.2.2.5.2.8,0,.9,0,1.7,0,2.6,0,.2,0,.5.4.6,0-.2,0-.4,0-.5,0-.9,0-1.7,0-2.6-.2-2.2.4-4.3.9-6.4.1-.5.2-1,.4-1.5ZM59,241.9c-.5.2-1.1.3-1.7.6-.2,0-.4.2-.6.3-.3.1-.5.2-.8.3-.6.2-1.2.4-1.7.7-.3.1-.4.5-.3.8.1.3.4.3.7.3,0,0,.2,0,.2,0,.8-.3,1.5-.5,2.3-.8.5-.2,1.1-.4,1.6-.6.2,0,.5-.2.7-.3.3-.1.4-.5.3-.9,0-.3-.4-.3-.7-.3ZM26.1,326.4c.2.3.4.3.6.2.7-.3,1.4-.5,2.1-.9.5-.2.9-.6,1.4-.9.7-.4,1.4-.7,2.1-1.1.3-.2.7-.3,1-.4.5-.3.9-.5,1.4-.8.1,0,.2-.3.1-.4,0-.1-.3-.2-.4-.2-.2,0-.5,0-.7.1-.9.5-1.8,1-2.7,1.5-.9.5-1.7,1.1-2.5,1.6-.7.4-1.3,1-2.2,1.2,0,0,0,0,0,.1ZM130.4,273.3c0,0,0-.1,0-.2-.1,0-.2-.2-.4-.2-.2,0-.3,0-.5.1-.9.4-1.7.9-2.6,1.4-1.7,1-3.4,2-5.2,3.1-.1,0-.3.1-.4.2,0,.1-.1.3-.2.4.1,0,.3.1.4,0,.4-.2.8-.4,1.2-.6.3-.1.5-.3.8-.5.7-.5,1.6-.7,2.2-1.4,0,0,.2,0,.3-.1,1.5-.5,2.7-1.5,4.1-2.2.1,0,.2-.1.3-.2ZM119.6,326.1c-.1.3,0,.4.2.5.7.4,1.4.8,2,1.4,0,0,0,0,.1,0,.6.4,1.2.7,1.8,1.1,1.4.9,2.8,1.6,4.1,2.6,0,0,.2.1.3.1.2,0,.3,0,.5,0,0-.1,0-.3-.1-.4,0-.1-.2-.2-.3-.3-1.6-1-3.2-2.1-4.7-3.1-.9-.6-1.9-1.2-2.9-1.8-.2-.2-.5-.3-.8-.2ZM140.3,310.2s0,0,0,0c0-.2,0-.4,0-.6,0-.1,0-.3-.2-.3-.4-.3-1,0-1,.5,0,1-.3,1.9-.5,2.9,0,.4-.1.8-.1,1.2,0,.2.1.4.3.6.4.4.7.3.8-.3,0-.4.2-.7.2-1.1.2-1,.4-2,.6-3ZM98.8,360.2c.3,0,2-.5,2.2-.6.2-.2.3-.4.1-.7-.2-.4-.6-.5-1-.3-.5.2-.9.5-1.4.7-.7.3-1.5.4-2.3.7-.2,0-.4.1-.6.2-.2.1-.3.4-.3.6,0,.2.3.4.5.4.8,0,1.6-.1,2.2-.7.1,0,.3-.1.5-.2ZM118.4,327.8c.1.1.2.2.3.3,1.6,1,3.2,2.1,4.9,3.1,1.1.7,2.3,1.4,3.5,2.1.2,0,.4.2.5,0,0-.1,0-.3-.1-.5,0,0-.2-.1-.3-.2-.9-.5-1.8-1-2.6-1.5-.8-.5-1.6-1-2.4-1.5-.4-.3-.9-.5-1.3-.8-.5-.3-1-.7-1.5-.9-.3-.2-.6-.3-.9,0ZM77.4,223.2c-.3-.2-.3-.5-.2-.8.3-1.3.1-2.7.2-4,0-.2,0-.4-.3-.5-.3.3-.3.6-.3.9,0,1.3-.1,2.6-.1,3.9,0,.5,0,1,.1,1.4,0,.5.4.6.9.5.3,0,.3,0,.4-.6,0-.6,0-1.3.7-1.6.3-.2.3-.4,0-.6s-.3-.3-.5-.4c-.3.3-.2.7-.3,1s0,.7-.4.8ZM129.4,330.1c0,0-.2-.2-.4-.3-.3-.2-.6-.3-.8-.4-.6-.5-1.2-.9-1.8-1.2,0,0-.2-.1-.3-.2-1.5-1-3.1-2-4.6-3-.3-.2-.6-.3-.8-.4,0,0-.2,0-.3,0,0,0,0,.2,0,.3.1.1.3.3.4.4.9.6,1.9,1.2,2.8,1.8.7.4,1.2,1.1,2.1,1.2,0,0,.1,0,.2.1.9.6,1.8,1.3,2.7,1.9.1,0,.2.2.4.2.2,0,.4,0,.4-.4ZM64.2,241.5c.5,0,1-.2,1.5-.3.3,0,.4-.3.3-.7,0-.3-.2-.4-.5-.4-.3,0-.6,0-.9.1-.8.2-1.7.4-2.5.6-.4.1-.9.3-1.3.4-.3.1-.4.4-.3.7.1.3.3.5.7.5.5,0,1,0,1.4-.4.4-.4.9-.7,1.6-.5ZM130.4,347.5c-.6,0-.6.1-1,.6-.6.6-1.1,1.3-1.7,1.9-.7.6-1.3,1.2-1.7,2,0,.2-.3.3-.4.4-.2,0-.4.1-.5.2-.5.2-.7.8-.5,1.2.4-.1.8-.3,1.1-.4.2,0,.4-.3.5-.4.2-.3.4-.6.6-.9.1-.2.3-.3.4-.4.4-.2.6-.5.7-.9,0-.3.2-.4.5-.5.2,0,.3-.2.4-.3.3-.4.6-.8,1-1.1.3-.3.5-.6.5-1.1ZM102.5,358.8c0,0,.2,0,.3,0,.8-.3,1.6-.6,2.4-1,.5-.2.9-.6,1.4-.9.2-.2.3-.4.2-.7-.1-.3-.4-.3-.6-.3-.2,0-.3.1-.5.2-.2.1-.4.3-.6.4-.6.3-1.3.5-1.9.8s-.6.3-.9.5c-.3.1-.3.4-.2.7,0,.2.3.4.6.4ZM129.3,265c0-.2,0-.3-.2-.4-.5-.6-.8-1.2-1.3-1.8-.3-.5-.7-.9-1.2-1.3-.1-.1-.3-.2-.5-.3-.3-.1-.6,0-.8.3-.2.3,0,.4.2.6.5.6,1,1.2,1.5,1.8.3.4.6.8,1,1.2.2.3.4.4.8.2.1,0,.3-.1.5-.2ZM108.8,357c-.6.2-1.1.3-1.6.5,0,0-.1.2-.3.3.2,0,.3,0,.4,0,.2,0,.3-.2.5-.2.4,0,.8,0,.8.3,0,.3-.1.5-.6.6,0,0-.2,0-.2,0,0,0-.2.1-.2.2,0,.3,0,.6.3.7s.4,0,.6-.2,0,0,0,0c.4-.3.7-.3.9.2.2.6.2,1.1.3,1.7,0,.2,0,.4,0,.7.4-.3.8-.5,1.1-.7.3-.3.8,0,1.1-.5q-.4-.2-1,0c-.4.1-.6,0-.8-.4,0-.3,0-.6-.1-.9,0-.7,0-1.4-.8-1.7-.1,0-.2-.2-.3-.3,0-.1-.2-.3-.2-.4ZM18.4,288.9s0,0,0,0v-.6c0-.2,0-.4-.3-.4-.2,0-.4,0-.5.3-.1.3-.3.7-.3,1-.2,1.3-.4,2.7-.6,4,0,0,0,0,0,.1,0,.2,0,.3.3.4.5,0,.8-.3.8-.7,0-.5,0-.9.2-1.4.2-.9.4-1.7.6-2.6ZM134.5,325.8c0,.4.2.8.5.9.4.1.4-.2.5-.4.5-1.3,1.1-2.6,1.6-3.8,0,0,0-.2,0-.3,0-.2,0-.4-.3-.5-.4-.2-.7,0-.9.5-.3.9-.7,1.7-1,2.6-.1.4-.3.8-.4,1.1ZM76.3,228.8c.2,0,.3,0,.5,0,.3,0,.7,0,1,0h1.5c.2,0,.5,0,.5-.3,0-.2,0-.4-.2-.6-.2-.3-.4-.5-.7-.8-.1-.1-.3-.2-.5-.3-.3,0-.5-.2-.8-.3s-.5-.1-.8-.1c-.2,0-.4.1-.4.4s0,.6,0,.9c0,.3-.1.5-.3.9ZM70.7,239c-.3,0-.6,0-1,0-.9.2-1.7.4-2.6.7-.3,0-.4.3-.2.6.1.2.3.3.6.3.4,0,.8,0,1.2,0,.9-.1,1.7-.3,2.6-.4.2,0,.4-.1.6-.2.3-.1.3-.4.3-.6,0-.3-.3-.3-.5-.3h-.8ZM138.1,282.2c-.1-.4-.3-.7-.4-1-.2-.6-.4-1.1-.6-1.7-.2-.5-.3-1-.4-1.4s-.3-.6-.5-.9c-.2-.3-.7-.3-.8.1,0,.2,0,.5,0,.8.3.9.6,1.8,1,2.8.1.3.2.6.3.9.3.6.5.7,1.3.4ZM139.6,288.2c0-.4-.2-.9-.3-1.3-.2-.8-.4-1.5-.6-2.3,0-.2-.1-.5-.3-.7-.1-.3-.4-.2-.7-.2-.3,0-.3.3-.3.5,0,.4,0,.8.2,1.1.3,1,.6,1.9.7,3,0,.4.2.5.6.5.4,0,.5-.2.6-.6ZM84.5,363.5h0c.3,0,.6,0,.9,0,.7,0,1.4-.2,2.1-.3.3,0,.5-.1.8-.2.3,0,.4-.3.4-.6,0-.3-.3-.4-.5-.4-.3,0-.7,0-1,0-.8,0-1.5.2-2.3.3-.4,0-.7.1-1.1.3-.3,0-.3.3-.3.6,0,.3.2.3.4.3.2,0,.4,0,.6,0ZM119,347.1c0,.1.1.2.2.3.4.6.5.6,1,0,.5-.5,1-1.1,1.6-1.6.4-.3.7-.7,1.1-1,.2-.2.3-.4.4-.6.1-.3,0-.5-.3-.6-.2-.1-.4,0-.5.1-.4.4-.9.8-1.3,1.3-.6.6-1.1,1.3-1.9,1.8-.1,0-.2.2-.3.3ZM140.7,296.4c-.7,0-.8.1-.8.7s0,1.2.1,1.9c0,.2,0,.4,0,.6,0,.5,0,1,0,1.5,0,.2,0,.3.1.5.2.3.5.3.7,0,.1-.3.3-.7.3-1,0-1.1,0-2.1,0-3.2,0-.3-.2-.6-.3-1ZM122,256.6c-.4,0-.6.2-.6.6,0,.4.2.6.5.8.4.3.7.6,1.1.9.5.5.9.9,1.4,1.4.3.3.5.4.8,0,.3-.3.3-.4,0-.8-.3-.4-.6-.7-1-1-.5-.5-.9-.9-1.4-1.4-.1-.1-.3-.3-.4-.4-.1-.1-.2-.1-.3-.2ZM139,316.2c0,0,0-.3-.2-.4-.2,0-.5-.1-.6,0-.2.1-.3.4-.4.6-.3,1.1-.6,2.2-.9,3.2,0,.1,0,.3,0,.4,0,.3.3.5.6.6.3,0,.4-.1.5-.3.4-1.3.7-2.6,1.1-3.9,0,0,0,0,0-.2ZM118.5,348.7c-.1-.1-.2-.3-.3-.4s-.3,0-.4.1c-.5.4-1,.9-1.6,1.3-.3.3-.7.5-1,.8-.4.4-.9.8-1.4,1.1-.3.1-.4.4-.3.7.2.3.4.2.7,0,.8-.3,1.3-.9,2-1.3.5-.4,1-.9,1.5-1.3.2-.2.4-.4.6-.6.1-.1.2-.3.3-.4ZM93.9,360.7c0,0-.3,0-.4.1-.5.2-1,.3-1.5.5-.6.1-1.2.2-1.8.3-.5.1-.7.2-.6.6,0,.3.3.4.8.4,0,0,0,0,.1,0,1.2-.3,2.5-.5,3.8-.8.4,0,.7-.4.7-.6,0-.3-.4-.5-.9-.5ZM140.6,295.4c0-.1,0-.2,0-.3-.2-1.5-.4-3.1-.6-4.6,0-.3-.2-.4-.5-.4-.3,0-.5.2-.5.5,0,.3,0,.7,0,1,0,.3.2.6.5.7.5.3.5.4,0,.8-.3.3-.4,1.6,0,1.9,0,0,0,0,.1,0,.3.1.6.2.9.3ZM19.1,320.2h0c.3,1.1.4,2.1.9,3,.1.3.2.5.3.8.1.3.2.6.4.9.2.3.4.3.6.1.3-.2.4-.5.2-1-.3-.5-.5-1-.7-1.6-.3-.7-.5-1.4-.8-2.2-.1-.3-.3-.5-.6-.5-.2,0-.3,0-.3.3ZM99.6,242.5c0,0-.3.1-.4.3-.1.2,0,.5.2.6.3.2.7.4,1,.6.4.2.6.1.8-.3.1-.2.3-.3.6-.2.2,0,.4.3.3.5-.1.5.2.8.6.9.3.1.7.2,1.1.3.2,0,.4,0,.5-.2,0-.3,0-.5-.2-.6-.5-.2-.9-.5-1.4-.7-.2,0-.4-.1-.6-.3-.7-.6-1.5-.7-2.5-.8ZM106.8,234.7c0,.5.3.5.5.5.2,0,.5,0,.7.1.9.4,1.9.8,2.8,1.3.8.5,1.6.7,2.6.4-.3-.5-.7-.7-1.2-.9-1.1-.4-2.1-1-3.2-1.2-.6-.4-1.4-.2-2.2-.4ZM17.3,296.7c0-.5,0-1-.1-1.5,0-.2-.1-.4-.4-.5s-.4.2-.4.4c-.3,1.1-.3,2.3-.3,3.5,0,.3.2.4.5.5.4,0,.5,0,.6-.5,0-.6.1-1.2.2-1.9ZM135.6,275.8c-.3-.7-.6-1.3-.9-1.9-.2-.4-.4-.9-.7-1.3,0,0,0-.2,0-.2-.1-.2-.3-.3-.6-.3-.3,0-.3.3-.3.5,0,.3,0,.7.2,1,.3.6.6,1.2.9,1.9.3.8.6.9,1.5.5ZM140.8,304.9s0,0,0,0c0-.4-.1-.7-.2-1.1,0-.2-.2-.4-.5-.4-.3,0-.3.3-.3.5,0,.3,0,.6,0,.9,0,.6,0,1.3-.2,1.9,0,.3-.1.6,0,.9,0,.4.2.6.6.6s.4-.1.5-.5c0-.9.2-1.8.2-2.8ZM113.1,353c-.1,0-.2-.1-.3-.1-.5,0-1,.2-1.5.3-.1,0-.2.2-.2.3,0,.5-.3.6-.7.7-.6.1-1.2.2-1.7.7-.1.1-.2.3-.2.5,0,.1.2.2.3.3.4.1.8.2,1.2.3,0-.5.2-.8.6-1,.2,0,.3-.3.5-.4.4-.4.8-.7,1.3-.9.3,0,.5-.2.7-.6ZM40.4,350.2c0-.4-.3-.7-.6-.9-.5-.3-1.2-.6-1.4-1.2,0,0-.1-.1-.2-.2-.3-.2-.5-.4-.8-.6-.3-.2-.7-.4-1-.6-.1,0-.3,0-.4.1,0,.1,0,.3.1.4,0,0,0,0,.1.1.9.8,1.8,1.5,2.7,2.3.3.2.5.5.7.8.1.2.2.4.5.3.3,0,.3-.3.3-.5ZM32.2,342.1c0,0-.3,0-.4.2s0,.3.1.4c.1.2.3.3.4.5.6,1.2,1.9,1.7,2.7,2.7,0,0,.2.1.3,0,0,0,.2-.2.2-.3-.1-.3-.3-.7-.5-.9-.5-.4-.8-.9-1-1.4-.3-.6-.8-.9-1.3-1.2,0,0-.3,0-.4,0ZM14.1,329.6c.3-.5.4-.7.1-1.4-.4-1.2-.7-2.4-1.1-3.5-.2-.5-.3-1-.6-1.5-.2-.4-.5-.5-.9-.3,0,.2.2.4.3.6,0,.1-.2.3-.2.4.1.2.2.4.3.6,0,.3.2.5.5.6.3.1.4.4.4.7,0,.1,0,.3,0,.4.2.3.5.5.6.7.1.5.5.9.4,1.5,0,.4,0,.8.2,1.1,0,0,0,0,.1.1ZM128.4,337.9c0,0,.3-.1.4-.3.5-.4,1-.9,1.3-1.4.4-.5.6-1.2.9-1.7,0-.2,0-.4-.2-.5-.2-.1-.4,0-.5.2-.7,1-1.4,1.9-2.1,2.9-.1.1-.2.3-.2.5,0,.2,0,.3.4.3ZM27.9,349.6c0,.5.2.7.6,1,.2.2.5.4.6.7.4.6,1,1,1.6,1.5.2.2.5.1.6-.2.1-.3,0-.6-.2-.8-.5-.5-1.1-1.1-1.6-1.6-.2-.2-.5-.4-.8-.5-.2,0-.5,0-.7-.1ZM15.7,331.9c0,.6-.2.8-.6.9-.1,0-.2.2-.3.3.3,0,.6,0,.8.2.3.4.7.8.8,1.3.2.8.6,1.4,1,2.1,0,.2.2.4.6.3-.1-.2-.2-.5-.4-.6-.3-.3-.4-.7-.2-1,.1-.3,0-.5,0-.8-.3-.5-.5-1.1-.8-1.6,0,0,0-.1-.1-.1-.2-.3-.4-.6-.8-1ZM80,303.4c-.2-.5-.5-1-.7-1.5,0,0,0,0-.1-.1-.5-.5-.7-1-.8-1.7,0-.2,0-.5-.2-.5-.1,0-.3.2-.5.3,0,0,0,.1-.1.2-.1.7,0,1.5.5,2,.1.1.3.2.5.3.6,0,.7.2.7.9h-.6c.3.6.4.6,1.2,0ZM57.2,336.9c0-.3,0-.6,0-.9,0-.1-.2-.2-.3-.3-.1,0-.3.2-.3.3,0,.4-.2.9,0,1.3,0,.2,0,.5.1.7.1.4.2.9.4,1.3.2.3.3.6.3,1s0,.2,0,.3c0,.3.2.5.4.5.1,0,.3,0,.3,0,.2-.2,0-.4,0-.6-.1-.4-.3-.7-.4-1.1,0-.3-.1-.7-.3-.9-.3-.5-.3-.9-.3-1.5ZM78.6,360.5c.1,0,.2,0,.3,0,.6,0,.7-.2.6-.8-.1-.5-.3-.9-.4-1.4,0-.3-.3-.4-.5-.4-.3,0-.5.1-.5.5,0,.4,0,.7-.2,1.1-.2.9,0,1,.8,1ZM75.5,359.5h0c0,.2,0,.3,0,.5,0,.3.3.4.6.5.3,0,.5,0,.6-.3.2-.5.4-1.1.3-1.7,0-.5-.3-.7-.8-.8-.4,0-.5,0-.5.4,0,.5-.1,1-.2,1.4ZM73.3,205.2s0,0-.1,0c0,0-.1.2-.2.2-.2.5-.3.9-.4,1.4-.4,1.4-.5,2.8,0,4.2,0,.2,0,.4,0,.6,0,.1,0,.3,0,.4,0,.1.2.2.4.2.2,0,.2-.2.2-.4-.1-.5-.3-1-.4-1.5-.2-1.3-.3-2.5.1-3.8.2-.5.3-.9.3-1.4ZM113.8,237.3c0,.6.4.8.8,1,.4.1.6.3.7.7s.4.6.8.7c.2,0,.4.2.5.4.2.2.4.4.7.4.1-.2.3-.4.4-.5,0,0,0,0,0-.1-1.1-1-2.4-1.8-3.9-2.5ZM28,337.2c0,0-.2,0-.2.1,0,.1,0,.3,0,.4.7.9,1.4,1.8,2.1,2.7.2.2.4.5.6.7.2.1.4.2.6,0,.2-.2,0-.4,0-.5-.3-.3-.6-.7-1-.9-.2-.2-.4-.4-.5-.6-.2-.4-.4-.8-.6-1.1s-.6-.6-1-.7ZM28.1,265.4c0-.1-.1-.3-.2-.3-.1,0-.3,0-.4,0-.4.4-.9.8-1.1,1.4-.2.4-.5.7-.7,1-.2.3-.3.5-.4.8,0,0,0,.3,0,.3.1,0,.3,0,.4,0,.1,0,.2-.2.3-.3.2-.2.3-.5.5-.7.1-.2.3-.4.3-.6,0-.5.3-.7.6-1,.3-.2.4-.5.6-.8ZM63,191.2c-.1,0-.2,0-.2,0-.5.3-.9.6-1.5.8-.3,0-.3.3-.3.6,0,.5.7,1,1.1.9.1,0,.3,0,.4-.2.4-.6.6-1.3.6-2ZM89,240.5c0-.3.1-.5.1-.7s0-.3-.2-.4c-.7-.2-1.3-.5-2-.4-.1,0-.4.1-.4.2,0,.2,0,.4,0,.5,0,.1.3.2.4.3.6.2,1.3.3,2,.5ZM143.1,326.8c-.2.2-.3.4-.4.6-.2.4-.3.8-.5,1.1-.6.6-.7,1.5-1,2.2,0,.2-.2.4,0,.7.4-.1.6-.4.8-.8.1-.4.2-.9.3-1.3,0-.2,0-.3.2-.4.5-.5.5-1.1.7-1.8,0,0,0,0-.1-.2ZM120.6,356.3c.4,0,.8,0,1.1-.2.8-.4,1.6-1,2.4-1.5.1,0,.2-.3.1-.4,0,0-.2-.2-.3-.2-.2,0-.3,0-.5,0-.5,0-.6.1-.6.6,0,.8,0,.8-.8.8-.1,0-.2,0-.3,0-.4.2-.9.2-1.1.9ZM130.8,347c.2,0,.3,0,.4,0,.8-.4,1.3-1.1,1.8-1.7.1-.1.1-.4.1-.6,0-.3-.2-.4-.4-.3-.2,0-.4.1-.5.3-.5.6-.9,1.3-1.3,2,0,.1-.1.3-.2.5ZM24.2,345.8c.1.3.2.6.4.8.1.1.4,0,.6.1.5,0,.9.5,1,1,.1.4.3.8.4,1.2,0,0,.2.1.3.2.2-.4.4-.7.2-1.1-.6-.8-1.2-1.6-2-2.1-.3-.2-.6-.2-1-.1h0ZM70,363.1c0,0,.3-.1.4-.3.1-.2,0-.5-.3-.6-.6-.2-1.1-.3-1.7-.4-.3,0-.5.3-.6.6,0,.3.2.4.4.4.6.1,1.1.2,1.8.3ZM89.8,240.5c.6.4,1.2.4,1.9.5.2,0,.5,0,.6-.2,0-.2,0-.5-.3-.7-.5-.4-1-.4-1.5-.4-.1,0-.3.1-.4.3-.1.2-.2.4-.3.6ZM82.9,239.7c0,0,.1.1.2.1.6,0,1.2,0,1.8,0,0,0,.3-.2.3-.3,0-.4-.2-.6-.6-.8-.2,0-.5-.2-.7-.3-.3-.1-.4,0-.6.3-.1.3-.3.6-.4.9ZM116.3,252c0,0-.3.1-.4.3-.2.2,0,.4.2.5.4.5.9.6,1.5.8.3.1.6-.2.5-.5-.2-.5-1.1-1.1-1.7-1.2ZM21.1,266.1c.3.5.7.8,1.1,1,.2.1.4.1.7.1s.5-.2.4-.5c0-.1-.1-.3-.3-.4-.3-.2-.5-.4-.8-.5-.5-.2-.6-.2-1.1.3ZM23.8,345.2c0-.3.3-.7,0-1-.5-.6-1-1.2-1.5-1.8-.1-.1-.3-.3-.5-.3-.1,0-.3.1-.4.2,0,.1.1.3.2.4,0,0,.2,0,.2,0,.6.1.7.2.7.8,0,.8.6,1.2,1.1,1.7ZM55,357.9c0,0,0-.1-.1-.1-.3-.1-.6-.3-.9-.4-.6-.2-1-.1-1.5.5.5.4,1.1.6,1.7.8,0,0,.2,0,.3,0,.2-.2.4-.4.6-.6ZM19.4,318.3c-.2-.6-.3-1.1-.5-1.6,0-.2-.4-.3-.7-.2-.3.1-.3.3-.2.5.1.5.3,1,.5,1.6,0,.2.3.3.5.2.2-.1.3-.3.4-.5ZM94.2,240.5c-.5,0-.7.1-.7.5s.1.5.4.6c.2.1.5.2.7.3s.4.1.6-.1c.2-.4.2-.8,0-.9-.3-.2-.7-.3-.9-.4ZM52.8,257.8c0,0-.1,0-.2.1,0,.4.2.8.3,1.2.2.8.5.9,1.2.4.2-.2.3-.3,0-.6-.3-.3-.6-.6-.9-.9-.1-.1-.3-.2-.4-.3ZM97.4,242.7c.5,0,.6-.1.7-.5,0-.3,0-.4-.3-.5-.2,0-.5-.2-.8-.2-.5-.1-.6,0-.7.4-.1.4,0,.4.4.6.3,0,.6.1.7.2ZM113.7,249.8c0,.2-.1.3-.2.5q-.3.7.4,1c0,0,.2.1.3.2.2.1.4.2.6,0s.2-.4,0-.7c-.3-.4-.6-.8-1.2-1ZM29.3,264.1c.2-.1.4-.2.5-.4.2-.4.4-.8.8-1.1.2-.1.2-.3,0-.6-.1-.2-.4-.2-.6,0,0,0-.1.2-.2.2-.2.3-.4.5-.7.8,0,.1-.2.2-.3.3,0,.1-.1.3,0,.5,0,.1.3.2.4.3ZM125.7,340.7c0,.1.1.3.2.4.1,0,.3,0,.4-.1.4-.5.8-1,1.1-1.5,0-.1,0-.3,0-.4-.2,0-.4,0-.5,0-.4.3-.7.7-1,1-.1.2-.2.4-.3.6ZM9,308.9c0,0,0,.2,0,.3,0,.4,0,.7.2,1,.3.5.2.7-.2,1s-.2.2-.2.3c0,.1.1.3.3.3.4,0,.6.4.6.8,0,.1.1.2.2.4,0-.1,0-.2,0-.3-.2-1.1-.3-2.2-.5-3.3,0-.2,0-.4-.4-.4ZM40.8,252.7c.2-.1.4-.2.5-.3.4-.3.8-.6,1.1-.9,0,0,.1-.3,0-.4,0-.2-.3-.3-.5-.1-.5.3-1,.7-1.5,1.1,0,0-.2.3-.1.4,0,.2.3.3.4.4ZM106.5,285.4c.4-.7,0-.9-.5-1-.4,0-.8,0-1.2,0-.1,0-.2.1-.4.2.6.5,1.2,1,2,.8ZM32.8,259.8c-.1,0-.2-.2-.3-.2-.2,0-.4,0-.5.1-.4.3-.7.7-1,1.1-.2.2-.1.4,0,.5.2.1.4.1.5,0,.3-.4.6-.7.9-1.1,0-.1.1-.3.2-.4ZM82.3,355.7c-.2,0-.4-.2-.7-.1-.6,0-1.1,0-1.7.2-.1,0-.2,0-.3,0-.1,0-.2.2-.3.3.1,0,.3.2.4.2.9.2,1.6-.3,2.4-.5,0,0,0,0,.1-.2ZM77.8,364.6c-.7-.2-1.2-.1-1.8-.1-.2,0-.3.2-.2.4.2.4.5.8.8,1.2.2-.3.3-.5.5-.7.2-.2.4-.4.7-.7ZM64.2,212.4c-.2.3-.1.6.1.8,0,0,.2.1.3.3.2.6.8.8,1.3,1.2,0,0,.2,0,.3,0-.2-.6-1.4-2-2-2.3ZM45.3,355.3c0,.1-.1.2-.1.2,0,.2,0,.4,0,.6,0,.6,0,.6.6.4.4-.1.8-.1,1.2,0,.1,0,.2,0,.5,0-.3-.4-.6-.5-.9-.7s-.6-.3-.9-.4c-.1,0-.3-.2-.4-.3ZM17.4,314.2c0,.4.2.8.3,1.2,0,.2.2.3.4.3s.3-.2.4-.4c0-.5,0-1-.5-1.3-.1,0-.3-.1-.4-.1,0,0-.1.2-.2.3ZM18.7,338c.1.8.5,1.5,1.1,2.2.2-.1.3-.3.6-.5-.5-.1-.7-.4-.7-.7,0-.2-.1-.5-.2-.7-.1-.4-.3-.4-.8-.3ZM54.9,368.4v.2c.2.3.5.5.9.6.4,0,.9.2,1.3.3.2,0,.5,0,.7,0,0,0,.2-.2.3-.3-1.1-.3-2.1-.5-3.2-.8ZM125.1,248.1c0,.1-.2.2-.2.3,0,.3,0,.7.2.9,0,.2.4.3.6.4.1,0,.3,0,.4-.1,0,0,0-.3,0-.4-.2-.4-.4-.7-.7-1,0,0-.2,0-.3-.2ZM63.2,324.5c.1,0,.3-.1.4-.3s0-.3,0-.5c-.2-.3-1-.5-1.3-.3-.1,0-.2.2-.2.3,0,.1.1.3.2.3.3.1.7.2,1.1.4ZM136,271.5c0,0,0,.1,0,.2.2,0,.3,0,.5,0,.4-.1.9-.3,1.3-.5.1,0,.3-.3.3-.4,0-.3-.3-.2-.5-.2-.6.2-1.2.5-1.7.9ZM35.1,256.9c-.6.5-1.1.9-1.6,1.4,0,0,0,.3,0,.4.1,0,.3,0,.4,0,.7-.2,1.1-.8,1.3-1.4,0,0,0-.2,0-.4ZM133.3,336.6c-.4,0-.6.2-.4.5.2.4.5.7,1,.7.3,0,.4-.1.4-.4s0-.5-.4-.6c-.2,0-.5-.1-.6-.2ZM108.1,237.5c-.3,0-.4,0-.7.1.2.1.3.2.3.2.2,0,.4.2.6,0,.2-.1.2-.5,0-.8-.1-.2-.3-.4-.4-.7-.3,0-.6.1-1,.2.2.2.4.3.5.4.2.1.3.3.5.5ZM105.2,236.7c0-.3,0-.5.1-.7.3.1.5.2.8.3,0-.1,0-.2,0-.2-.2-.3-1.1-.5-1.4-.3-.3.4-.7.2-1,.1-.2,0-.5-.1-.7-.2h0c.7.4,1.4.7,2.2.9ZM138.6,265.6c.2.5.4,1,.9,1.4.3-.6.2-1.1-.2-1.5-.2-.2-.5-.2-.8,0ZM75.1,366.1c0,0-.2.1-.2.2,0,.5,0,1,0,1.5s.2.2.2.2c.1,0,.3-.2.3-.3,0-.4,0-.9,0-1.3,0-.1-.1-.2-.2-.4ZM86.3,353.4c.4,0,.6-.2.6-.6s-.2-.5-.4-.5c-.3,0-.8.4-.8.7,0,.2.2.4.5.4ZM39.5,253.2c0,0-.1,0-.2,0-.4.3-.8.5-1.1.8,0,0-.2.3-.1.4,0,0,.3.2.3.1.4-.2.7-.4,1-.7,0,0,0-.3,0-.5ZM113,239.8c-.1-.3-.3-.6-.6-.7-.4,0-.5.2-.6.5,0,.1,0,.3,0,.4.1.1.3.2.5.1.2,0,.5-.3.7-.4ZM107.4,283.4c-.3,0-.5.1-.5.5,0,.3.2.6.6.6.3,0,.5-.2.6-.5,0-.4-.2-.5-.6-.5ZM57.1,332.2c0-.1,0-.3,0-.4,0-.2-.1-.4-.4-.4-.3,0-.4.1-.4.4,0,.3,0,.6.1.8,0,.2.3.3.5.2,0,0,.1-.3.1-.4,0,0,0-.1,0-.2ZM61.5,325.3c0,0,.4,0,.4-.2s0-.4-.2-.6-.4-.2-.6-.3c0,.2-.2.4-.2.5-.1.5,0,.6.6.6ZM98.2,337.1c0,0,0-.2,0-.3,0-.2-.2-.4-.4-.4-.1,0-.3.2-.4.3,0,0,0,.2,0,.3,0,.4.2.6.5.6.3,0,.4-.2.4-.6ZM76.6,351.9c0-.2,0-.3,0-.4-.1-.1-.3-.3-.5-.3-.2,0-.3.2-.3.4,0,.2,0,.4.1.7,0,0,.2.2.3.2s.3,0,.4-.2c0-.1,0-.3.1-.4ZM86.5,219.6c0,0-.1,0-.2,0-.2.5-.2,1.1,0,1.7,0,0,.2.2.3.2,0,0,.2-.2.2-.2,0-.5,0-.9,0-1.4,0,0-.1-.2-.2-.2ZM80.2,355c.1,0,.2,0,.3,0,.2,0,.3-.1.4-.3,0-.2,0-.4-.3-.4-.2,0-.5,0-.7,0-.1,0-.2.2-.2.4,0,.1.1.3.3.4,0,0,.2,0,.3,0ZM61.6,340.5c-.4-.2-.7-.2-1,0-.2.1-.4.3-.3.6.1.2.3.3.6.3.4-.1.6-.3.7-.8ZM70,314.4c.2,0,.5,0,.7-.1.1,0,.3-.2.3-.3s-.2-.3-.3-.3c-.2,0-.5,0-.7,0-.2,0-.4.1-.3.4,0,.3.2.3.4.3ZM82.8,227.7c-.3.6,0,1.2.7,1.2.1,0,.3-.1.4-.2,0-.1-.1-.3-.2-.4-.3-.2-.5-.4-.9-.6ZM137.9,337.2c-.4,0-.6.2-.7.4-.1.3-.3.6-.4,1,0,.2-.1.4.1.6.3-.7.7-1.3,1-2ZM49.7,251.8c.1-.6-.2-1-.5-1.4,0,0-.4,0-.6,0,0,.2,0,.3,0,.4.2.3.5.7,1,.9ZM119,357.9c.1,0,.4,0,.6-.2.2-.1.3-.5.2-.7-.2-.2-.4-.1-.6,0-.2.1-.4.3-.5.5-.1.2,0,.4.4.4ZM74.8,312.8c-.4-.2-.7-.2-1.1,0,0,0-.2.2-.2.3,0,.3.3.6.7.4.3-.1.6-.3.6-.7ZM59.5,324c0-.2,0-.4-.3-.5-.3,0-.6.3-.6.7,0,.2,0,.4.4.4.3,0,.5-.3.6-.7ZM143.6,273.5h-.1c0,.1,0,.1,0,.2.2.7.4,1.5.7,2.2,0,.1.2.2.3.2,0,0,0,0,.1,0,0-.9-.6-1.7-.9-2.5ZM148.4,297.9c.3-.5.5-.8.3-1.2-.2-.3-.5-.5-.9-.3.2.5.4.9.7,1.5ZM86.2,217.8c.4-.1.4-.4.5-.6,0-.3,0-.6,0-.9,0-.1-.1-.2-.2-.3,0,.1-.2.2-.2.3,0,.5,0,1,0,1.5ZM78.1,219.4c.4-.5,0-1,.1-1.5,0-.2,0-.5-.3-.7-.2.7-.2,1.6.2,2.2ZM148.4,310c-.3.4-.6.7-.9,1.1.2.2.4.4.6.6.3-.4.4-1.1.3-1.6ZM119.6,241.5c-.4-.9-.8-1-1.7-.6.5.5,1.1.3,1.7.6ZM82.1,354.7c.3,0,.5,0,.6-.3,0-.4-.2-.5-.6-.4-.3,0-.6.3-.5.5,0,.3.4.3.6.3ZM100.2,234c-.4-.4-1-.6-1.4-.6-.3,0-.6,0-.9-.2,0,0-.2,0-.3-.1,0,0,0,0,0,0,.2.2.4.4.7.6.7-.3,1.3.3,2,.2ZM121.8,243.9h.1c0-.6-.3-.9-.7-1.2-.2-.1-.5-.3-.7,0,.4.4.9.7,1.3,1.1ZM88.6,180.8c0,0,0-.1,0-.2-.2,0-.5-.2-.7-.3-.4-.2-.7-.3-1.1-.5-.2,0-.4-.1-.6-.2,0,0,0,.1,0,.1,0,.3.3.3.5.4.5.2,1.1.4,1.6.5,0,0,.2,0,.3,0ZM77.2,235.8c0,.3.2.6.4.5.3,0,.4-.2.4-.5s-.2-.5-.5-.5c-.2,0-.4.2-.4.5ZM87.2,315.5c0,.3.2.6.5.7.1,0,.3,0,.4,0,.2-.1.2-.3,0-.5-.2-.3-.6-.3-.9-.2ZM15.6,331.5c0-.3-.1-.5-.4-.6-.1,0-.3,0-.4.2-.2.3-.2.5,0,.8.3-.1.5-.3.8-.4ZM58,326.4c.5,0,.7-.2.7-.4,0-.3-.2-.5-.4-.5-.2,0-.7.4-.6.6,0,.1.2.2.3.3ZM57.4,329.7c0,0-.2-.2-.3-.3-.2,0-.5.3-.5.6,0,.3.1.4.3.4.2,0,.5-.4.5-.8ZM95,233.2c.4.3.7.4,1.1.2,0-.4-.3-.5-.6-.6-.3,0-.4.1-.5.4ZM69.6,352.8c0,0-.2.1-.3.3,0,.3.3.5.6.5.3,0,.4-.1.4-.4,0-.3-.2-.4-.7-.4ZM97.3,327.8c0-.1.2-.2.3-.4,0-.3-.1-.5-.4-.5-.2,0-.4,0-.4.3,0,.3.2.6.5.6ZM79,224.3c.7.8,1,.8,1.6,0-.3,0-.5,0-.8,0-.2,0-.5,0-.8,0ZM97.5,339.4c0-.4-.1-.6-.4-.6-.2,0-.3.2-.4.4,0,.3.2.5.4.5.3,0,.3-.2.3-.4ZM58.3,341.9c0,0-.2.2-.2.3,0,.2.2.5.4.6s.4-.2.4-.4-.2-.5-.6-.5ZM33.3,354.5c-.1-.7-.4-.9-1-.7.2.4.5.7,1,.7ZM148.4,303.1c-.2.6-.4,1-.2,1.5.6-.3.6-.5.2-1.5ZM72.7,313.4c0-.2-.2-.3-.4-.3-.3,0-.5,0-.5.3,0,.2.2.4.4.4.2,0,.5-.2.6-.4ZM98.5,331.5c-.1-.2-.3-.4-.4-.6,0,0-.2,0-.2,0,0,.2-.1.4-.1.6,0,.1.2.2.3.3,0-.1.2-.2.3-.4ZM148.1,305.7c-.2.4-.2.9-.1,1.3,0,0,.1,0,.2.1.3-1,.3-1.1,0-1.4ZM69,217.1c0,0-.2.2-.2.4,0,.2.1.4.4.4s.3-.1.4-.3c0-.2-.2-.4-.5-.4ZM67.3,352.1c0,0,0,.1,0,.2.2.2.5.3.8.3.1,0,.2-.1.3-.2,0,0-.2-.3-.3-.3-.3,0-.6,0-.8,0ZM97.7,329c0,0-.2.2-.2.3,0,.3.2.5.5.4.1,0,.3-.2.3-.3,0-.2-.3-.5-.6-.5ZM94.3,321.1c-.3-.2-.4-.3-.6-.4-.2,0-.3.1-.3.3,0,.2.3.4.5.3.1,0,.2-.1.4-.3ZM127.9,251.9c.1.4.4.6.7.6,0,0,.2,0,.2-.1,0,0,0-.2,0-.2-.3-.2-.5-.3-.9-.3ZM143.9,324.6c-.2.3-.6.6-.4,1.2.4-.4.4-.8.4-1.2ZM10.8,320.1c-.3.6-.3.8.3,1.1,0-.4,0-.7-.3-1.1ZM79.9,220.7c.3-.5.2-.9,0-1.3,0,.4-.3.8,0,1.3ZM145.5,278.4c-.2-.2-.3-.3-.4-.4-.1.1-.3.2-.3.3,0,.1.2.3.3.4,0,0,.2-.1.3-.3ZM55.1,369.9c.2.3.4.3.6.3,0,0,.2-.1.2-.2s0-.2-.1-.2c-.2,0-.5-.1-.7.1ZM98.5,335.1c0,0,0-.1,0-.2-.1,0-.3,0-.4,0-.2,0-.3.2-.2.4,0,0,.3.1.4,0,.1,0,.2-.2.3-.3ZM87,215.8c.3-.6.3-.8,0-1.1-.2.3-.1.7,0,1.1ZM83.8,179.5c.3.2.7.3,1.1.1-.5-.5-.7-.5-1.1-.1ZM21.7,269.5c-.2-.2-.3-.3-.5-.3s-.3.1-.3.3c0,.2.2.3.3.3.1,0,.2-.1.4-.2ZM76.3,299.3c.3-.2.3-.3.2-.5,0,0-.2-.1-.4-.2,0,.1-.1.3,0,.4s.1.2.2.3ZM76.7,302.5c-.1-.1-.2-.3-.3-.3-.1,0-.2.1-.3.2,0,.1.2.3.3.3,0,0,.2-.1.4-.2ZM68.9,181.6c.4.3.5.3.8,0-.3-.3-.5-.2-.8,0ZM126.9,250.6c-.3.4-.2.5.3.7,0-.3,0-.6-.3-.7ZM57.4,327.6c-.1.2-.3.3-.3.4,0,.1.2.3.3.3,0,0,.3-.1.3-.2s-.1-.2-.2-.4ZM133.8,343.1c-.3.3-.3.5,0,.8.2-.3.3-.5,0-.8ZM76.6,301.6q.4-.3.1-.7c-.2.2-.2.5-.1.7ZM20.7,341.3c.3.3.4.3.5.2,0,0,0-.1,0-.2-.2,0-.3,0-.5,0,0,0,0,0,0,0ZM82.5,210.5c0,0,.1,0,.2,0,.1-.2.2-.4-.2-.6,0,.3,0,.4,0,.6ZM85.5,217q-.1.4.2.7c0-.3-.1-.5-.2-.7ZM110.2,238.9c0,0,0,.1,0,.2.2,0,.4.3.8,0-.3-.1-.5-.2-.7-.3ZM66.6,185.6c-.3,0-.5.2-.4.5.3,0,.4-.1.4-.5ZM68,184.4c0,0-.1,0-.2-.1-.2,0-.3.2-.3.6.2-.2.3-.3.4-.4ZM91,318.2c.1,0,.2.2.3.2,0,0,.1-.1.1-.1,0,0-.1-.2-.2-.2,0,0-.1,0-.2.2ZM15.3,334.5c0-.1-.2-.3-.2-.4-.2.3-.1.4.2.4ZM64.7,210.4c-.1.3,0,.4.3.5,0-.3,0-.4-.3-.5ZM8.5,309.4c0,0-.1,0-.1,0,0,.2,0,.4.3.5,0-.3-.1-.4-.1-.6ZM82,221.1h-.2c0,.2,0,.4.1.6,0,0,0,0,.1,0,0-.2,0-.4,0-.6ZM77.4,333.5c0,.1-.1.2-.1.2s0,.2.1.2c0,0,.2,0,.2-.1,0,0,0-.2-.1-.3ZM112.3,245.9c-.1,0-.2,0-.3-.1,0,0-.1,0-.1.1,0,0,.1.1.2.2,0,0,.1,0,.2-.2ZM102.5,207.3c0,0-.1-.2-.2-.2,0,0-.1,0-.1,0,0,0,0,.1,0,.2,0,0,.1,0,.2-.1ZM78.9,217.5s0,0,.1,0c0-.2,0-.3,0-.5,0,0,0,0-.1,0,0,.2,0,.3,0,.5ZM71.9,181.1c0,.1,0,.2,0,.3s0,.1.1.1c0,0,.1,0,.2-.1l-.2-.3ZM9,313.7c0,0-.1,0-.2,0,0,.1,0,.2,0,.3h.1c0-.1,0-.2,0-.3ZM41.7,362.3s0,0,0-.1l-.3-.2s0,0,0,0c0,0,.2.1.3.2ZM148.4,301.9c0,0,0-.1,0-.2,0,0,0,0,0,0,0,0,0,0,0,.1,0,0,0,0,0,0ZM27.8,333.7c0,0,0-.2-.1-.2s0,0-.1,0c0,0,0,.1,0,.2,0,0,0,0,.2,0ZM62.7,209.5s0,0,0,0c0,0,0,0,0,0,0,0,0,0,0,0,0,0,0,0,0,0ZM78.1,216.1s0,0,0,0,0,0,0-.1c0,0,0,0,0,.1,0,0,0,0,0,0ZM8.5,308.8s0,0,0-.1c0,0,0,0,0,0,0,0,0,0,0,.1,0,0,0,0,0,0ZM28.9,335.6s0,0,0,0c0,0,0,0,0,0,0,0,0,0,0,0,0,0,0,0,0,0Z"/>
  </g>
  <path class="st1" d="M152.5,261.3h.9c.2.5.5.8.9.9.4,0,.9,0,1.5,0l22.5-2.5c.6,0,1.1-.2,1.5-.3.4-.2.6-.5.6-1.1h.9c0,0,.9,8.2.9,8.2h-.9c-.2-.5-.4-.9-.7-1.1-.3-.1-.9-.2-1.7,0l-7.9.9,2.9,26.6c0,.6.2,1,.5,1.2s.7.3,1.3.3v.9c.1,0-9.4,1-9.4,1v-.9c.4-.1.7-.4.9-.6.1-.3.2-.7.1-1.2l-2.9-26.6-8,.9c-.7,0-1.2.2-1.5.4-.3.2-.5.6-.6,1.4h-.9c0,0-.9-8.2-.9-8.2Z"/>
  <path class="st1" d="M198.3,263.7v.9c-.9,0-1.3.7-1.2,1.8l2,24c0,1.1.6,1.6,1.5,1.5v.9c0,0-8.6.7-8.6.7v-.9c.8,0,1.3-.7,1.2-1.8l-2-23.9c-.1-1.1-.6-1.7-1.6-1.6v-.9c0,0,8.6-.7,8.6-.7Z"/>
  <path class="st1" d="M217.7,262.3v.9c-.5.2-.8.5-.8.9,0,.4.1.8.3,1.3.2.5.4,1,.7,1.4l6.9,14.3h.1s5.3-14.4,5.3-14.4c.4-1,.7-1.7.8-2.2.1-.5.2-.9.2-1.2,0-.4-.4-.7-1-.8v-.9c0,0,10.1-.6,10.1-.6v.9c-.8,0-1.2.6-1.2,1.8l1.3,24c0,1.1.6,1.7,1.4,1.6v.9s-7.8.4-7.8.4v-.9c.8,0,1.3-.7,1.2-1.8l-1.1-20.8h-.1c-.4,1.1-.7,2.3-1.2,3.5-.4,1.2-.8,2.5-1.3,3.7-.4,1.2-.9,2.5-1.3,3.7-.5,1.2-.9,2.3-1.2,3.2-.2.5-.5,1.2-.8,2.2s-.7,1.9-1.1,3c-.4,1-.8,2-1.1,2.9-.3.9-.5,1.5-.6,1.9h-.9c-.2-.3-.5-.9-.8-1.7-.4-.8-.8-1.6-1.2-2.5-.4-.9-.9-1.9-1.4-3-.5-1-1-2.1-1.5-3.1-1.2-2.5-2.3-4.8-3.1-6.7-.8-1.9-1.6-3.8-2.3-5.7h-.1s1.1,20.5,1.1,20.5c0,.5.2.9.4,1.2.2.3.5.5.9.4v.9s-7,.4-7,.4v-.9c.2,0,.5-.1.7-.4.2-.3.3-.7.2-1.3l-1.3-24c0-1.1-.5-1.7-1.4-1.6v-.9c0,0,10.2-.6,10.2-.6Z"/>
  <path class="st1" d="M271,266.8h-.9c0-.6-.3-1.1-.6-1.3-.3-.2-.7-.4-1.2-.3l-12.4.3v7.2c.1,0,7.6-.2,7.6-.2.5,0,.9-.1,1.2-.3.3-.2.4-.6.5-1.2h.9s.1,7.6.1,7.6h-.9c-.1-.6-.3-1-.6-1.2-.3-.2-.7-.2-1.2-.2l-7.5.2.2,8.1,12.5-.3c.4,0,.7-.1,1-.3.3-.2.5-.7.6-1.4h.9s.2,7.5.2,7.5h-.9c-.1-.5-.4-.8-.7-1-.3-.1-.7-.2-1.2-.2l-19.3.4v-.9c.8,0,1.2-.6,1.1-1.8l-.5-24c0-1.1-.4-1.7-1.2-1.6v-.9s19.4-.4,19.4-.4c.5,0,.9,0,1.2-.2.3-.2.5-.5.6-1h.9s.1,7.6.1,7.6Z"/>
  <path class="st1" d="M311.4,270.1c3.9.1,5.8-1.4,5.9-4.5,0-1.5-.4-2.7-1.3-3.5-.9-.8-2.4-1.3-4.4-1.3l-7.7-.2-.3,9.3,7.7.2ZM312.7,255.2c1.7,0,3.2.3,4.7.8,1.4.5,2.6,1.1,3.6,2,1,.8,1.8,1.9,2.3,3.1.5,1.2.8,2.6.7,4.2,0,2.5-.8,4.7-2,6.4-1.3,1.7-3.2,2.8-5.8,3.4l4.7,9.7c.3.8.6,1.4.9,2,.3.6.4.9.6,1.2.3.6.6,1.1.8,1.3.3.2.6.4,1,.5v.9s-9.9-.3-9.9-.3v-.9c.4,0,.7-.1.9-.2.3,0,.4-.3.4-.6,0-.2,0-.5-.2-.7-.1-.3-.2-.6-.4-1-.3-.6-2.1-4.3-5.4-11.2l-6.1-.2-.3,11.9c0,.6,0,1,.3,1.2.2.2.6.4,1.2.5v.9s-9.7-.3-9.7-.3v-.9c.6,0,1-.2,1.2-.4.2-.2.3-.7.3-1.2l.8-29.7c0-.6,0-1-.3-1.2-.2-.3-.6-.4-1.2-.5v-.9s16.8.5,16.8.5Z"/>
  <path class="st1" d="M355.1,269.4h-.9c0-.7-.2-1.2-.5-1.5-.3-.3-.6-.4-1.1-.4l-12.4-.7-.4,7.2,7.5.4c.5,0,.9,0,1.2-.2.3-.2.5-.6.6-1.2h.9c0,0-.5,7.7-.5,7.7h-.9c0-.7-.2-1.1-.5-1.3-.3-.2-.6-.3-1.1-.3l-7.5-.4-.5,8.1,12.5.7c.4,0,.7,0,1.1-.2.3-.2.6-.6.7-1.3h.9c0,0-.5,7.6-.5,7.6h-.9c-.1-.6-.3-1-.6-1.1-.3-.2-.7-.2-1.2-.3l-19.3-1.2v-.9c.9,0,1.3-.5,1.4-1.7l1.5-24c0-1.1-.3-1.7-1.1-1.7v-.9c0,0,19.4,1.2,19.4,1.2.5,0,.9,0,1.2-.1.3-.1.5-.5.7-.9h.9c0,0-.5,7.7-.5,7.7Z"/>
  <path class="st1" d="M382.4,271.2h-.9c-.2-.9-.7-1.4-1.7-1.4l-11.2-1-.6,7.2,6.8.6c.5,0,.9,0,1.2-.2.3-.2.5-.5.6-.9h.9c0,0-.6,7.1-.6,7.1h-.9c-.1-.6-.3-1-.6-1.1-.3-.1-.7-.2-1.2-.3l-6.6-.6-.9,10.1c-.1,1.2.2,1.8,1,1.8v.9c0,0-7.9-.7-7.9-.7v-.9c.3,0,.5-.1.7-.4.2-.3.3-.7.4-1.3l2.1-24c0-.5,0-.9-.2-1.2-.2-.3-.4-.5-.6-.5v-.9c0,0,18.1,1.6,18.1,1.6.5,0,.9,0,1.2-.1.3-.1.6-.4.7-.9h.9c0,0-.6,7.1-.6,7.1Z"/>
  <path class="st1" d="M399,267.1v.9c-1,0-1.6.4-1.7,1.6l-2.6,23.9c-.1,1.1.3,1.7,1.2,1.8v.9c-.1,0-8.7-.9-8.7-.9v-.9c1,0,1.6-.4,1.7-1.6l2.6-23.8c.1-1.1-.3-1.8-1.2-1.9v-.9c.1,0,8.7.9,8.7.9Z"/>
  <path class="st1" d="M417.3,269.4v.9c-.4,0-.7.1-.9.2-.2.1-.3.3-.3.6,0,.3,0,.7.4,1.4.3.6.6,1.3.8,1.9l7.3,16.1h.1s2.3-17.2,2.3-17.2c.2-1.1-.2-1.8-1.1-1.9v-.9c.1,0,7.9,1,7.9,1v.9c-1-.1-1.5.4-1.7,1.5l-3.2,23.9c-.1,1.1.2,1.7,1.1,1.8v.9c-.1,0-8.4-1.1-8.4-1.1v-.9c.3,0,.5-.1.7-.2.1-.1.2-.3.2-.4,0-.2,0-.4,0-.6,0-.3-.3-.7-.6-1.2l-8.7-18.4h-.1s-2.4,17.6-2.4,17.6c-.2,1.2.2,1.8,1.2,2v.9c-.1,0-8.2-1.1-8.2-1.1v-.9c1.1.1,1.7-.4,1.8-1.5l3.2-23.8c.2-1.1-.3-1.8-1.2-1.9v-.9c.1,0,9.8,1.3,9.8,1.3Z"/>
  <path class="st1" d="M462.5,282.8h-.9c0-.8-.1-1.3-.4-1.6-.2-.3-.6-.5-1.1-.6l-12.2-2-1.2,7.1,7.4,1.2c.5,0,.9,0,1.2,0,.3-.1.5-.5.8-1.1h.9c0,.1-1.3,7.6-1.3,7.6h-.9c0-.8-.1-1.2-.4-1.4-.3-.2-.6-.4-1.1-.4l-7.4-1.2-1.3,8,12.3,2.1c.4,0,.7,0,1.1-.2.4-.2.6-.6.8-1.2h.9c0,.1-1.2,7.6-1.2,7.6h-.9c0-.7-.2-1.1-.5-1.3-.3-.2-.7-.3-1.1-.4l-19.1-3.2v-.9c.9.1,1.4-.3,1.6-1.5l4-23.7c.2-1.1-.1-1.7-.9-1.9l.2-.9,19.1,3.2c.5,0,.9,0,1.2,0,.3-.1.6-.4.8-.9h.9c0,.1-1.3,7.6-1.3,7.6Z"/>
  <path class="st1" d="M478.4,304.5c2.9.6,5.2.3,6.9-1,1.7-1.3,2.9-3.6,3.6-7.1.7-3.5.5-6.2-.6-8-1.1-1.8-3.1-3-6-3.5l-5.2-1-3.9,19.6,5.2,1ZM483.9,280.4c4.2.8,7.2,2.7,9.1,5.5,1.9,2.8,2.3,6.7,1.4,11.5-.9,4.8-2.8,8.2-5.6,10.1-2.8,1.9-6.4,2.5-10.7,1.6l-12.6-2.5.2-.9c.8.2,1.3-.3,1.5-1.5l4.7-23.6c.2-1.1,0-1.7-.9-1.9l.2-.9,12.8,2.6Z"/>
</svg>