<svg xmlns="http://www.w3.org/2000/svg" xmlns:xlink="http://www.w3.org/1999/xlink" width="1200" zoomAndPan="magnify" viewBox="0 0 900 449.999984" height="600" preserveAspectRatio="xMidYMid meet" version="1.0"><defs><g/><clipPath id="85351070da"><path d="M 67.929688 151 L 243 151 L 243 324 L 67.929688 324 Z M 67.929688 151 " clip-rule="nonzero"/></clipPath><clipPath id="467d53ca40"><path d="M 198 195 L 310.664062 195 L 310.664062 328.511719 L 198 328.511719 Z M 198 195 " clip-rule="nonzero"/></clipPath><clipPath id="8e16596ccf"><path d="M 153 121.628906 L 265 121.628906 L 265 223 L 153 223 Z M 153 121.628906 " clip-rule="nonzero"/></clipPath><clipPath id="e6754321ac"><path d="M 109.160156 152.558594 L 269.667969 152.558594 L 269.667969 313.066406 L 109.160156 313.066406 Z M 109.160156 152.558594 " clip-rule="nonzero"/></clipPath><clipPath id="04a698cc74"><path d="M 189.414062 152.558594 C 145.09375 152.558594 109.160156 188.488281 109.160156 232.8125 C 109.160156 277.136719 145.09375 313.066406 189.414062 313.066406 C 233.738281 313.066406 269.667969 277.136719 269.667969 232.8125 C 269.667969 188.488281 233.738281 152.558594 189.414062 152.558594 Z M 189.414062 152.558594 " clip-rule="nonzero"/></clipPath><clipPath id="8cb6cc2839"><path d="M 109.058594 152.558594 L 269.78125 152.558594 L 269.78125 313.28125 L 109.058594 313.28125 Z M 109.058594 152.558594 " clip-rule="nonzero"/></clipPath></defs><g clip-path="url(#85351070da)"><path fill="#38b6ff" d="M 155.226562 291.78125 C 125.394531 291.78125 101.207031 267.597656 101.207031 237.765625 C 101.207031 207.933594 125.394531 183.742188 155.226562 183.742188 C 185.058594 183.742188 209.246094 207.933594 209.246094 237.765625 C 209.246094 267.597656 185.058594 291.78125 155.226562 291.78125 Z M 241.796875 249.152344 C 242.28125 245.421875 242.535156 241.621094 242.535156 237.765625 C 242.535156 233.902344 242.28125 230.105469 241.796875 226.378906 L 227.769531 221.761719 C 226.722656 217.007812 225.226562 212.421875 223.316406 208.058594 L 231.957031 196.074219 C 228.296875 189.351562 223.78125 183.164062 218.550781 177.660156 L 204.484375 182.179688 C 200.894531 178.992188 196.996094 176.15625 192.832031 173.703125 L 192.789062 158.925781 C 186.015625 155.699219 178.757812 153.3125 171.15625 151.90625 L 162.433594 163.835938 C 160.058594 163.609375 157.65625 163.484375 155.226562 163.484375 C 152.796875 163.484375 150.390625 163.609375 148.019531 163.835938 L 139.296875 151.90625 C 131.695312 153.3125 124.4375 155.699219 117.664062 158.925781 L 117.617188 173.703125 C 113.457031 176.15625 109.558594 178.992188 105.96875 182.179688 L 91.898438 177.660156 C 86.671875 183.164062 82.15625 189.351562 78.496094 196.074219 L 87.132812 208.058594 C 85.226562 212.421875 83.726562 217.007812 82.683594 221.761719 L 68.65625 226.378906 C 68.167969 230.105469 67.914062 233.902344 67.914062 237.765625 C 67.914062 241.621094 68.167969 245.421875 68.65625 249.152344 L 82.683594 253.769531 C 83.726562 258.523438 85.226562 263.105469 87.132812 267.472656 L 78.496094 279.457031 C 82.15625 286.179688 86.671875 292.367188 91.898438 297.871094 L 105.96875 293.351562 C 109.558594 296.539062 113.457031 299.375 117.617188 301.824219 L 117.664062 316.597656 C 124.4375 319.832031 131.695312 322.21875 139.296875 323.621094 L 148.019531 311.691406 C 150.390625 311.921875 152.796875 312.042969 155.226562 312.042969 C 157.65625 312.042969 160.058594 311.921875 162.433594 311.691406 L 171.15625 323.621094 C 178.757812 322.21875 186.015625 319.832031 192.789062 316.597656 L 192.835938 301.824219 C 196.996094 299.375 200.894531 296.539062 204.484375 293.351562 L 218.550781 297.871094 C 223.78125 292.367188 228.296875 286.179688 231.957031 279.457031 L 223.316406 267.472656 C 225.226562 263.105469 226.722656 258.523438 227.769531 253.769531 L 241.796875 249.152344 " fill-opacity="1" fill-rule="nonzero"/></g><g clip-path="url(#467d53ca40)"><path fill="#38b6ff" d="M 310.191406 270.074219 C 310.570312 267.160156 310.769531 264.191406 310.769531 261.179688 C 310.769531 258.160156 310.570312 255.191406 310.191406 252.28125 L 299.230469 248.671875 C 298.414062 244.957031 297.242188 241.375 295.753906 237.964844 L 302.503906 228.601562 C 299.644531 223.347656 296.113281 218.515625 292.03125 214.214844 L 281.039062 217.746094 C 278.234375 215.257812 275.1875 213.039062 271.9375 211.125 L 271.898438 199.578125 C 268.128906 197.777344 264.160156 196.320312 260.042969 195.230469 L 259.804688 195.316406 C 259.453125 196.542969 259.058594 197.757812 258.621094 198.960938 L 264.746094 207.457031 L 262.90625 210.839844 C 260.878906 214.554688 258.492188 218.070312 255.785156 221.328125 C 273.960938 226.199219 287.347656 242.78125 287.347656 262.496094 C 287.347656 286.03125 268.269531 305.113281 244.734375 305.113281 C 237.515625 305.113281 230.722656 303.316406 224.761719 300.152344 C 224.179688 300.800781 223.59375 301.449219 222.988281 302.078125 L 220.34375 304.871094 L 205.847656 300.214844 C 203.636719 302.011719 201.328125 303.691406 198.941406 305.234375 L 198.9375 306.253906 L 204.0625 304.609375 C 206.867188 307.097656 209.914062 309.3125 213.164062 311.226562 L 213.199219 322.773438 C 218.496094 325.300781 224.164062 327.164062 230.101562 328.257812 L 236.921875 318.941406 C 238.769531 319.117188 240.652344 319.210938 242.546875 319.210938 C 244.449219 319.210938 246.328125 319.117188 248.179688 318.941406 L 254.996094 328.257812 C 260.9375 327.164062 266.605469 325.300781 271.898438 322.773438 L 271.9375 311.226562 C 275.1875 309.3125 278.234375 307.097656 281.039062 304.609375 L 292.03125 308.140625 C 296.113281 303.835938 299.644531 299.003906 302.503906 293.75 L 295.753906 284.390625 C 297.242188 280.976562 298.414062 277.398438 299.230469 273.683594 L 310.191406 270.074219 " fill-opacity="1" fill-rule="nonzero"/></g><g clip-path="url(#8e16596ccf)"><path fill="#38b6ff" d="M 264.183594 187.429688 C 264.515625 184.910156 264.683594 182.339844 264.683594 179.730469 C 264.683594 177.125 264.515625 174.554688 264.183594 172.035156 L 254.703125 168.914062 C 253.996094 165.699219 252.984375 162.601562 251.695312 159.652344 L 257.53125 151.550781 C 255.0625 147.003906 252.003906 142.824219 248.472656 139.105469 L 238.964844 142.15625 C 236.535156 140.007812 233.902344 138.085938 231.09375 136.429688 L 231.058594 126.445312 C 226.480469 124.257812 221.574219 122.644531 216.433594 121.703125 L 210.535156 129.765625 C 208.933594 129.609375 207.3125 129.527344 205.667969 129.527344 C 204.023438 129.527344 202.402344 129.609375 200.796875 129.765625 L 194.902344 121.703125 C 189.761719 122.644531 184.859375 124.257812 180.28125 126.445312 L 180.246094 136.429688 C 177.4375 138.085938 174.800781 140.007812 172.371094 142.15625 L 162.867188 139.105469 C 159.332031 142.824219 156.277344 147.003906 153.804688 151.550781 L 158.039062 157.425781 C 158.523438 157.441406 159.011719 157.460938 159.5 157.484375 L 168.488281 145.195312 L 172.265625 145.890625 C 177.648438 146.882812 182.929688 148.351562 188.046875 150.273438 C 193.359375 146.847656 199.683594 144.851562 206.480469 144.851562 C 225.304688 144.851562 240.570312 160.117188 240.570312 178.945312 C 240.570312 184.070312 239.425781 188.921875 237.40625 193.285156 L 239.167969 196.523438 L 230.269531 208.878906 C 231.292969 211.535156 232.171875 214.257812 232.90625 217.011719 L 246.984375 222.136719 C 250.515625 218.417969 255.0625 212.453125 257.53125 207.914062 L 251.695312 199.8125 C 252.984375 196.863281 253.996094 193.765625 254.703125 190.550781 L 264.183594 187.429688 " fill-opacity="1" fill-rule="nonzero"/></g><g clip-path="url(#e6754321ac)"><g clip-path="url(#04a698cc74)"><path fill="#ffffff" d="M 109.160156 152.558594 L 269.667969 152.558594 L 269.667969 313.066406 L 109.160156 313.066406 Z M 109.160156 152.558594 " fill-opacity="1" fill-rule="nonzero"/></g></g><g clip-path="url(#8cb6cc2839)"><path fill="#38b6ff" d="M 189.363281 306.769531 C 148.609375 306.769531 115.457031 273.613281 115.457031 232.863281 C 115.457031 192.109375 148.609375 158.957031 189.363281 158.957031 C 230.113281 158.957031 263.265625 192.109375 263.265625 232.863281 C 263.265625 273.613281 230.113281 306.769531 189.363281 306.769531 Z M 263.355469 201.605469 C 259.308594 192.039062 253.519531 183.453125 246.144531 176.078125 C 238.773438 168.703125 230.183594 162.914062 220.621094 158.871094 C 210.71875 154.679688 200.203125 152.558594 189.363281 152.558594 C 178.523438 152.558594 168.003906 154.679688 158.105469 158.871094 C 148.539062 162.914062 139.953125 168.703125 132.578125 176.078125 C 125.203125 183.453125 119.414062 192.039062 115.371094 201.605469 C 111.183594 211.503906 109.058594 222.023438 109.058594 232.863281 C 109.058594 243.703125 111.183594 254.21875 115.371094 264.121094 C 119.414062 273.683594 125.203125 282.273438 132.578125 289.644531 C 139.953125 297.019531 148.539062 302.808594 158.105469 306.855469 C 168.003906 311.042969 178.523438 313.164062 189.363281 313.164062 C 200.203125 313.164062 210.71875 311.042969 220.621094 306.855469 C 230.183594 302.808594 238.773438 297.019531 246.144531 289.644531 C 253.519531 282.273438 259.308594 273.683594 263.355469 264.121094 C 267.542969 254.21875 269.667969 243.703125 269.667969 232.863281 C 269.667969 222.023438 267.542969 211.503906 263.355469 201.605469 " fill-opacity="1" fill-rule="nonzero"/></g><path fill="#38b6ff" d="M 227.851562 259.972656 L 192.5625 231.335938 L 192.5625 193.359375 C 192.5625 191.59375 191.128906 190.160156 189.363281 190.160156 C 187.597656 190.160156 186.164062 191.59375 186.164062 193.359375 L 186.164062 232.863281 C 186.164062 233.828125 186.597656 234.738281 187.347656 235.347656 L 223.820312 264.941406 C 224.414062 265.421875 225.125 265.65625 225.832031 265.65625 C 226.765625 265.65625 227.6875 265.25 228.320312 264.472656 C 229.433594 263.101562 229.222656 261.085938 227.851562 259.972656 " fill-opacity="1" fill-rule="nonzero"/><g fill="#38b6ff" fill-opacity="1"><g transform="translate(322.269972, 245.866614)"><g><path d="M 37.421875 -54.078125 C 38.492188 -54.078125 39.273438 -53.8125 39.765625 -53.28125 C 40.304688 -52.738281 40.578125 -51.90625 40.578125 -50.78125 C 40.578125 -49.507812 40.332031 -48.503906 39.84375 -47.765625 C 39.351562 -46.984375 38.644531 -46.59375 37.71875 -46.59375 L 30.671875 -46.59375 C 29.054688 -46.59375 28.128906 -46.175781 27.890625 -45.34375 C 27.691406 -44.46875 27.59375 -43.613281 27.59375 -42.78125 L 27.59375 37.34375 C 27.539062 38.46875 27.171875 39.328125 26.484375 39.921875 C 25.804688 40.453125 24.90625 40.742188 23.78125 40.796875 L 23.5625 40.796875 C 22.675781 40.796875 21.960938 40.625 21.421875 40.28125 C 20.785156 39.894531 20.367188 39.332031 20.171875 38.59375 C 20.128906 38.445312 20.109375 38.300781 20.109375 38.15625 L 20.109375 -42.78125 C 20.109375 -44.78125 19.644531 -45.929688 18.71875 -46.234375 C 17.738281 -46.523438 16.90625 -46.671875 16.21875 -46.671875 L 9.765625 -46.671875 C 8.640625 -46.816406 7.757812 -47.234375 7.125 -47.921875 C 6.582031 -48.554688 6.3125 -49.382812 6.3125 -50.40625 L 6.3125 -50.78125 C 6.363281 -51.90625 6.679688 -52.738281 7.265625 -53.28125 C 7.804688 -53.863281 8.515625 -54.15625 9.390625 -54.15625 C 12.960938 -54.101562 16.019531 -54.078125 18.5625 -54.078125 Z M 10.5625 -42.5625 L 12.46875 -42.5625 C 13.300781 -42.5625 14.015625 -42.390625 14.609375 -42.046875 C 15.140625 -41.703125 15.53125 -41.3125 15.78125 -40.875 C 16.019531 -40.382812 16.164062 -39.894531 16.21875 -39.40625 C 16.269531 -38.96875 16.296875 -38.597656 16.296875 -38.296875 C 16.296875 -28.472656 16.269531 -13.703125 16.21875 6.015625 C 16.269531 6.066406 16.269531 6.140625 16.21875 6.234375 L 16.21875 6.390625 L 16.0625 6.53125 C 16.0625 6.625 16.039062 6.671875 16 6.671875 C 15.894531 6.722656 15.820312 6.773438 15.78125 6.828125 L 15.625 6.828125 C 15.582031 6.828125 15.535156 6.847656 15.484375 6.890625 L 15.40625 6.828125 L 15.265625 6.828125 C 15.160156 6.828125 15.085938 6.800781 15.046875 6.75 L 14.890625 6.609375 C 14.847656 6.554688 14.828125 6.503906 14.828125 6.453125 C 14.773438 6.410156 14.75 6.363281 14.75 6.3125 L 14.75 -38.296875 C 14.75 -38.597656 14.722656 -38.921875 14.671875 -39.265625 C 14.628906 -39.554688 14.554688 -39.847656 14.453125 -40.140625 C 14.304688 -40.378906 14.113281 -40.597656 13.875 -40.796875 C 13.625 -40.941406 13.207031 -41.015625 12.625 -41.015625 L 10.5 -41.015625 C 10.394531 -41.015625 10.316406 -41.039062 10.265625 -41.09375 C 10.222656 -41.09375 10.175781 -41.117188 10.125 -41.171875 C 10.070312 -41.171875 10.023438 -41.191406 9.984375 -41.234375 L 9.828125 -41.390625 C 9.785156 -41.484375 9.765625 -41.554688 9.765625 -41.609375 L 9.765625 -41.96875 C 9.765625 -42.019531 9.785156 -42.070312 9.828125 -42.125 C 9.878906 -42.21875 9.90625 -42.289062 9.90625 -42.34375 C 9.957031 -42.382812 10.003906 -42.40625 10.046875 -42.40625 C 10.148438 -42.457031 10.222656 -42.507812 10.265625 -42.5625 Z M 32.28125 -14.75 C 32.332031 -14.75 32.382812 -14.722656 32.4375 -14.671875 L 32.578125 -14.53125 C 32.628906 -14.476562 32.65625 -14.425781 32.65625 -14.375 C 32.707031 -14.332031 32.734375 -14.285156 32.734375 -14.234375 L 32.734375 34.703125 C 32.734375 34.753906 32.707031 34.828125 32.65625 34.921875 C 32.65625 34.972656 32.628906 35.023438 32.578125 35.078125 L 32.4375 35.21875 C 32.382812 35.269531 32.332031 35.296875 32.28125 35.296875 C 32.238281 35.347656 32.164062 35.375 32.0625 35.375 L 31.921875 35.375 C 31.867188 35.375 31.796875 35.347656 31.703125 35.296875 C 31.648438 35.296875 31.597656 35.269531 31.546875 35.21875 C 31.503906 35.21875 31.457031 35.195312 31.40625 35.15625 C 31.351562 35.101562 31.328125 35.023438 31.328125 34.921875 C 31.285156 34.878906 31.265625 34.832031 31.265625 34.78125 L 31.1875 34.703125 L 31.1875 -14.09375 C 31.1875 -14.1875 31.210938 -14.257812 31.265625 -14.3125 C 31.265625 -14.351562 31.285156 -14.398438 31.328125 -14.453125 L 31.625 -14.75 C 31.675781 -14.75 31.722656 -14.773438 31.765625 -14.828125 L 32.0625 -14.828125 C 32.164062 -14.828125 32.238281 -14.800781 32.28125 -14.75 Z M 32.28125 -14.75 "/></g></g></g><g fill="#38b6ff" fill-opacity="1"><g transform="translate(369.08312, 245.866614)"><g><path d="M 14.890625 -50.265625 L 14.890625 -4.03125 C 14.796875 -2.175781 13.742188 -1.25 11.734375 -1.25 L 11.078125 -1.25 C 8.628906 -1.445312 7.40625 -2.28125 7.40625 -3.75 C 7.40625 -13.96875 7.429688 -29.273438 7.484375 -49.671875 C 7.484375 -52.023438 8.734375 -53.226562 11.234375 -53.28125 L 11.296875 -53.28125 C 13.691406 -53.28125 14.890625 -52.273438 14.890625 -50.265625 Z M 3.015625 -63.625 C 3.054688 -63.625 3.101562 -63.597656 3.15625 -63.546875 L 3.296875 -63.40625 C 3.347656 -63.351562 3.375 -63.300781 3.375 -63.25 C 3.425781 -63.207031 3.453125 -63.160156 3.453125 -63.109375 L 3.453125 -8.359375 C 3.453125 -8.316406 3.425781 -8.269531 3.375 -8.21875 C 3.375 -8.164062 3.347656 -8.117188 3.296875 -8.078125 L 3.15625 -7.921875 L 3.015625 -7.78125 L 2.859375 -7.78125 C 2.804688 -7.78125 2.757812 -7.753906 2.71875 -7.703125 L 2.640625 -7.78125 L 2.421875 -7.78125 C 2.367188 -7.78125 2.320312 -7.804688 2.28125 -7.859375 L 2.125 -8 C 2.070312 -8.050781 2.046875 -8.097656 2.046875 -8.140625 C 2.003906 -8.191406 1.984375 -8.265625 1.984375 -8.359375 C 1.929688 -8.359375 1.90625 -8.382812 1.90625 -8.4375 L 1.90625 -62.953125 C 1.90625 -63.003906 1.929688 -63.054688 1.984375 -63.109375 C 1.984375 -63.203125 2.003906 -63.273438 2.046875 -63.328125 C 2.046875 -63.378906 2.070312 -63.425781 2.125 -63.46875 C 2.175781 -63.519531 2.226562 -63.546875 2.28125 -63.546875 L 2.34375 -63.625 C 2.394531 -63.625 2.445312 -63.644531 2.5 -63.6875 L 2.78125 -63.6875 C 2.832031 -63.6875 2.910156 -63.664062 3.015625 -63.625 Z M 3.015625 -63.625 "/></g></g></g><g fill="#38b6ff" fill-opacity="1"><g transform="translate(391.682571, 245.866614)"><g><path d="M 11.234375 -54.078125 L 15.484375 -54.078125 C 15.828125 -54.078125 16.144531 -54.03125 16.4375 -53.9375 C 16.726562 -53.832031 17.019531 -53.707031 17.3125 -53.5625 C 17.5625 -53.414062 17.785156 -53.222656 17.984375 -52.984375 L 18.640625 -52.3125 C 18.734375 -52.164062 18.804688 -52.019531 18.859375 -51.875 L 19 -51.4375 C 21.25 -43.707031 24.648438 -32.140625 29.203125 -16.734375 C 29.984375 -15.160156 30.960938 -14.570312 32.140625 -14.96875 C 33.316406 -15.363281 34.050781 -15.953125 34.34375 -16.734375 C 36.59375 -24.460938 39.992188 -36.078125 44.546875 -51.578125 C 44.691406 -51.828125 44.835938 -52.097656 44.984375 -52.390625 C 45.128906 -52.640625 45.320312 -52.882812 45.5625 -53.125 C 45.8125 -53.320312 46.054688 -53.492188 46.296875 -53.640625 C 46.597656 -53.734375 46.894531 -53.851562 47.1875 -54 C 47.332031 -54.050781 47.476562 -54.078125 47.625 -54.078125 L 48.140625 -54.078125 C 48.867188 -54.078125 49.941406 -54.050781 51.359375 -54 C 51.703125 -54.050781 52.019531 -54.078125 52.3125 -54.078125 C 52.613281 -54.078125 52.910156 -54.03125 53.203125 -53.9375 C 53.492188 -53.832031 53.785156 -53.6875 54.078125 -53.5 C 54.328125 -53.351562 54.570312 -53.15625 54.8125 -52.90625 C 55.007812 -52.664062 55.179688 -52.421875 55.328125 -52.171875 C 55.421875 -51.878906 55.539062 -51.585938 55.6875 -51.296875 C 55.738281 -51.148438 55.765625 -51.003906 55.765625 -50.859375 L 55.765625 -2.78125 C 55.710938 -1.8125 55.222656 -1.082031 54.296875 -0.59375 C 53.617188 -0.25 52.863281 -0.078125 52.03125 -0.078125 C 51.6875 -0.078125 51.367188 -0.0976562 51.078125 -0.140625 C 50.097656 -0.285156 49.382812 -0.582031 48.9375 -1.03125 C 48.5 -1.519531 48.28125 -2.007812 48.28125 -2.5 L 48.28125 -26.5625 C 48.332031 -27.300781 47.941406 -27.910156 47.109375 -28.390625 C 46.222656 -28.929688 45.585938 -28.492188 45.203125 -27.078125 C 43.585938 -21.648438 41.191406 -13.503906 38.015625 -2.640625 L 37.578125 -1.765625 C 37.421875 -1.515625 37.222656 -1.269531 36.984375 -1.03125 C 36.785156 -0.832031 36.539062 -0.660156 36.25 -0.515625 C 35.957031 -0.410156 35.664062 -0.285156 35.375 -0.140625 C 35.226562 -0.0976562 35.078125 -0.078125 34.921875 -0.078125 L 28.90625 -0.078125 C 28.5625 -0.078125 28.242188 -0.125 27.953125 -0.21875 C 27.660156 -0.3125 27.394531 -0.4375 27.15625 -0.59375 C 26.851562 -0.738281 26.609375 -0.929688 26.421875 -1.171875 L 25.828125 -1.90625 C 25.734375 -2.050781 25.660156 -2.195312 25.609375 -2.34375 L 25.46875 -2.78125 C 23.851562 -8.257812 21.429688 -16.503906 18.203125 -27.515625 C 17.660156 -28.691406 16.972656 -29.082031 16.140625 -28.6875 C 15.359375 -28.300781 14.96875 -27.71875 14.96875 -26.9375 L 14.96875 -2.78125 C 14.96875 -2.144531 14.675781 -1.609375 14.09375 -1.171875 C 13.5 -0.734375 12.664062 -0.441406 11.59375 -0.296875 C 10.269531 -0.0976562 9.242188 -0.242188 8.515625 -0.734375 C 7.828125 -1.222656 7.484375 -1.8125 7.484375 -2.5 C 7.484375 -13.3125 7.507812 -29.550781 7.5625 -51.21875 C 7.65625 -51.507812 7.773438 -51.800781 7.921875 -52.09375 C 8.066406 -52.394531 8.238281 -52.664062 8.4375 -52.90625 C 8.632812 -53.101562 8.878906 -53.273438 9.171875 -53.421875 C 9.421875 -53.617188 9.691406 -53.789062 9.984375 -53.9375 C 10.128906 -53.976562 10.347656 -54.023438 10.640625 -54.078125 C 10.734375 -54.078125 10.816406 -54.078125 10.890625 -54.078125 C 10.960938 -54.078125 10.976562 -54.078125 10.9375 -54.078125 L 10.859375 -54.078125 C 10.804688 -54.078125 10.789062 -54.078125 10.8125 -54.078125 C 10.84375 -54.078125 10.882812 -54.078125 10.9375 -54.078125 Z M 48.65625 -59.734375 L 53.125 -59.734375 C 53.863281 -59.734375 54.695312 -59.632812 55.625 -59.4375 C 56.550781 -59.195312 57.476562 -58.78125 58.40625 -58.1875 C 59.289062 -57.601562 60.050781 -56.796875 60.6875 -55.765625 C 61.320312 -54.742188 61.664062 -53.519531 61.71875 -52.09375 L 61.71875 9.609375 C 61.664062 9.660156 61.613281 9.734375 61.5625 9.828125 C 61.507812 9.878906 61.460938 9.90625 61.421875 9.90625 L 61.265625 10.046875 L 61.125 10.046875 C 61.070312 10.097656 61.023438 10.125 60.984375 10.125 L 60.90625 10.125 C 60.851562 10.070312 60.804688 10.046875 60.765625 10.046875 C 60.660156 10.046875 60.582031 10.023438 60.53125 9.984375 L 60.390625 9.828125 C 60.335938 9.785156 60.3125 9.738281 60.3125 9.6875 C 60.269531 9.632812 60.25 9.585938 60.25 9.546875 L 60.25 9.390625 C 60.195312 9.390625 60.171875 9.363281 60.171875 9.3125 L 60.171875 -51.875 C 60.117188 -53.144531 59.847656 -54.175781 59.359375 -54.96875 C 58.867188 -55.75 58.257812 -56.382812 57.53125 -56.875 C 56.789062 -57.363281 56.007812 -57.703125 55.1875 -57.890625 C 54.351562 -58.085938 53.617188 -58.1875 52.984375 -58.1875 L 48.65625 -58.1875 C 46.0625 -58.1875 44.222656 -57.675781 43.140625 -56.65625 C 42.015625 -55.625 41.285156 -54.664062 40.953125 -53.78125 C 39.628906 -49.476562 37.617188 -43.023438 34.921875 -34.421875 L 34.921875 -34.1875 C 34.921875 -34.144531 34.898438 -34.070312 34.859375 -33.96875 C 34.859375 -33.925781 34.832031 -33.878906 34.78125 -33.828125 L 34.640625 -33.6875 C 34.585938 -33.632812 34.535156 -33.609375 34.484375 -33.609375 C 34.441406 -33.554688 34.367188 -33.53125 34.265625 -33.53125 L 33.90625 -33.53125 L 33.75 -33.6875 C 33.707031 -33.6875 33.660156 -33.707031 33.609375 -33.75 L 33.46875 -33.90625 C 33.46875 -34 33.441406 -34.070312 33.390625 -34.125 L 33.390625 -34.484375 C 33.390625 -34.535156 33.414062 -34.5625 33.46875 -34.5625 L 33.46875 -34.640625 C 34.832031 -38.992188 36.835938 -45.5 39.484375 -54.15625 L 39.484375 -54.296875 C 39.921875 -55.421875 40.820312 -56.597656 42.1875 -57.828125 C 43.613281 -59.097656 45.769531 -59.734375 48.65625 -59.734375 Z M 48.65625 -59.734375 "/></g></g></g><g fill="#38b6ff" fill-opacity="1"><g transform="translate(455.078432, 245.866614)"><g><path d="M 11.296875 -54.296875 C 14.867188 -54.253906 22.015625 -54.234375 32.734375 -54.234375 C 33.554688 -54.179688 34.191406 -53.8125 34.640625 -53.125 C 35.023438 -52.4375 35.195312 -51.484375 35.15625 -50.265625 C 35.050781 -49.085938 34.804688 -48.207031 34.421875 -47.625 C 34.023438 -47.039062 33.554688 -46.75 33.015625 -46.75 L 18.859375 -46.75 C 16.898438 -46.75 15.773438 -46.28125 15.484375 -45.34375 C 15.191406 -44.414062 15.046875 -43.5625 15.046875 -42.78125 L 15.046875 -35.21875 C 15.046875 -33.164062 15.507812 -31.992188 16.4375 -31.703125 C 17.320312 -31.453125 18.03125 -31.328125 18.5625 -31.328125 L 28.546875 -31.328125 C 29.328125 -31.328125 29.914062 -30.863281 30.3125 -29.9375 C 30.695312 -29.007812 30.84375 -28.03125 30.75 -27 C 30.695312 -26.164062 30.5 -25.429688 30.15625 -24.796875 C 29.769531 -24.117188 29.234375 -23.800781 28.546875 -23.84375 L 18.484375 -23.84375 C 16.722656 -23.84375 15.722656 -23.378906 15.484375 -22.453125 C 15.191406 -21.578125 15.046875 -20.695312 15.046875 -19.8125 L 15.046875 -11.453125 C 15.046875 -9.492188 15.484375 -8.367188 16.359375 -8.078125 C 17.242188 -7.828125 17.976562 -7.703125 18.5625 -7.703125 L 32.953125 -7.703125 C 34.609375 -7.503906 35.4375 -6.351562 35.4375 -4.25 L 35.4375 -3.8125 C 35.289062 -1.414062 34.554688 -0.21875 33.234375 -0.21875 C 28.492188 -0.21875 21.398438 -0.242188 11.953125 -0.296875 C 11.660156 -0.242188 11.367188 -0.21875 11.078125 -0.21875 C 10.734375 -0.269531 10.414062 -0.34375 10.125 -0.4375 C 9.832031 -0.539062 9.5625 -0.664062 9.3125 -0.8125 C 9.019531 -1 8.773438 -1.191406 8.578125 -1.390625 C 8.390625 -1.640625 8.222656 -1.910156 8.078125 -2.203125 C 7.929688 -2.492188 7.804688 -2.765625 7.703125 -3.015625 C 7.648438 -3.160156 7.601562 -3.328125 7.5625 -3.515625 L 7.5625 -3.96875 C 7.601562 -14.476562 7.625 -30.273438 7.625 -51.359375 C 7.726562 -51.660156 7.851562 -51.957031 8 -52.25 C 8.144531 -52.539062 8.316406 -52.785156 8.515625 -52.984375 C 8.710938 -53.222656 8.957031 -53.414062 9.25 -53.5625 C 9.488281 -53.757812 9.753906 -53.929688 10.046875 -54.078125 C 10.191406 -54.128906 10.414062 -54.179688 10.71875 -54.234375 C 10.957031 -54.273438 11.050781 -54.296875 11 -54.296875 L 10.9375 -54.296875 C 10.882812 -54.253906 10.90625 -54.234375 11 -54.234375 C 11.15625 -54.273438 11.253906 -54.296875 11.296875 -54.296875 Z M 25.96875 -59.515625 L 26.34375 -59.515625 L 26.484375 -59.359375 L 26.640625 -59.21875 L 26.78125 -59.078125 L 26.78125 -58.78125 C 26.832031 -58.78125 26.832031 -58.753906 26.78125 -58.703125 L 26.78125 -58.484375 C 26.726562 -58.429688 26.703125 -58.382812 26.703125 -58.34375 L 26.5625 -58.1875 C 26.507812 -58.132812 26.460938 -58.109375 26.421875 -58.109375 C 26.367188 -58.066406 26.296875 -58.046875 26.203125 -58.046875 C 26.203125 -57.992188 26.175781 -57.96875 26.125 -57.96875 L 9.546875 -57.96875 C 8.953125 -57.96875 8.335938 -57.867188 7.703125 -57.671875 C 7.015625 -57.429688 6.40625 -57.015625 5.875 -56.421875 C 5.28125 -55.890625 4.789062 -55.132812 4.40625 -54.15625 C 4.007812 -53.175781 3.8125 -51.925781 3.8125 -50.40625 L 3.8125 -10.5 C 3.8125 -10.394531 3.789062 -10.316406 3.75 -10.265625 C 3.75 -10.222656 3.722656 -10.175781 3.671875 -10.125 L 3.515625 -9.984375 C 3.472656 -9.929688 3.425781 -9.90625 3.375 -9.90625 C 3.320312 -9.851562 3.25 -9.828125 3.15625 -9.828125 L 2.78125 -9.828125 L 2.640625 -9.984375 C 2.585938 -9.984375 2.539062 -10.003906 2.5 -10.046875 C 2.445312 -10.097656 2.421875 -10.148438 2.421875 -10.203125 C 2.367188 -10.296875 2.34375 -10.367188 2.34375 -10.421875 C 2.300781 -10.421875 2.28125 -10.445312 2.28125 -10.5 L 2.28125 -50.40625 C 2.28125 -52.070312 2.523438 -53.492188 3.015625 -54.671875 C 3.453125 -55.835938 4.035156 -56.789062 4.765625 -57.53125 C 5.453125 -58.257812 6.238281 -58.773438 7.125 -59.078125 C 7.945312 -59.367188 8.753906 -59.515625 9.546875 -59.515625 Z M 25.96875 -59.515625 "/></g></g></g><g fill="#38b6ff" fill-opacity="1"><g transform="translate(500.350708, 245.866614)"><g/></g></g><g fill="#38b6ff" fill-opacity="1"><g transform="translate(541.220494, 245.866614)"><g><path d="M 11.375 -54.15625 L 26.78125 -54.15625 C 27.125 -54.101562 27.320312 -54.078125 27.375 -54.078125 C 27.46875 -54.078125 27.585938 -54.050781 27.734375 -54 C 31.503906 -53.175781 34.316406 -51.539062 36.171875 -49.09375 C 38.035156 -46.695312 39.015625 -44.445312 39.109375 -42.34375 C 39.210938 -42.050781 39.285156 -41.851562 39.328125 -41.75 L 39.328125 -41.453125 C 39.378906 -39.648438 39.40625 -36.9375 39.40625 -33.3125 C 39.40625 -33.019531 39.378906 -32.828125 39.328125 -32.734375 L 39.328125 -32.4375 C 39.234375 -30.863281 38.914062 -29.367188 38.375 -27.953125 C 37.789062 -26.535156 36.984375 -25.21875 35.953125 -24 L 35.078125 -23.109375 C 34.734375 -22.816406 34.390625 -22.550781 34.046875 -22.3125 C 33.410156 -21.769531 32.921875 -21.15625 32.578125 -20.46875 C 32.285156 -19.789062 32.3125 -19.109375 32.65625 -18.421875 C 33.4375 -16.703125 34.34375 -14.769531 35.375 -12.625 C 36.394531 -10.519531 36.957031 -9.34375 37.0625 -9.09375 L 57.75 36.46875 C 57.988281 36.90625 58.109375 37.347656 58.109375 37.796875 C 58.109375 38.085938 58.035156 38.40625 57.890625 38.75 C 57.648438 39.53125 57.066406 40.1875 56.140625 40.71875 C 55.359375 41.164062 54.597656 41.390625 53.859375 41.390625 L 53.640625 41.390625 C 52.859375 41.390625 52.171875 41.164062 51.578125 40.71875 C 51.484375 40.625 51.390625 40.503906 51.296875 40.359375 C 51.242188 40.210938 51.171875 40.066406 51.078125 39.921875 C 46.472656 29.742188 39.523438 14.457031 30.234375 -5.9375 L 30.234375 -6.015625 C 29.160156 -8.316406 27.519531 -11.816406 25.3125 -16.515625 C 24.4375 -18.421875 23.628906 -19.445312 22.890625 -19.59375 C 22.203125 -19.738281 21.566406 -19.8125 20.984375 -19.8125 L 17.90625 -19.8125 C 16.488281 -19.8125 15.65625 -19.445312 15.40625 -18.71875 C 15.207031 -17.925781 15.109375 -17.09375 15.109375 -16.21875 C 15.109375 -13.53125 15.085938 -9.492188 15.046875 -4.109375 C 15.085938 -3.222656 14.816406 -2.460938 14.234375 -1.828125 C 13.648438 -1.191406 12.769531 -0.875 11.59375 -0.875 C 10.320312 -0.875 9.34375 -1.144531 8.65625 -1.6875 C 7.96875 -2.269531 7.625 -2.976562 7.625 -3.8125 C 7.625 -14.332031 7.648438 -30.132812 7.703125 -51.21875 L 8 -52.09375 C 8.144531 -52.394531 8.316406 -52.664062 8.515625 -52.90625 C 8.710938 -53.101562 8.957031 -53.300781 9.25 -53.5 C 9.488281 -53.644531 9.753906 -53.789062 10.046875 -53.9375 C 10.191406 -53.976562 10.414062 -54.023438 10.71875 -54.078125 C 10.957031 -54.128906 11.050781 -54.15625 11 -54.15625 L 10.9375 -54.15625 C 10.882812 -54.15625 10.878906 -54.15625 10.921875 -54.15625 C 10.972656 -54.15625 11.023438 -54.15625 11.078125 -54.15625 Z M 18.71875 -27.375 L 26.9375 -27.375 C 27.613281 -27.375 28.222656 -27.492188 28.765625 -27.734375 C 29.304688 -28.023438 29.796875 -28.414062 30.234375 -28.90625 C 30.722656 -29.445312 31.113281 -30.0625 31.40625 -30.75 C 31.695312 -31.476562 31.84375 -32.140625 31.84375 -32.734375 L 31.84375 -41.09375 C 31.75 -42.164062 31.382812 -43.21875 30.75 -44.25 C 30.113281 -45.269531 28.644531 -46.078125 26.34375 -46.671875 L 18.5625 -46.671875 C 16.75 -46.671875 15.722656 -46.226562 15.484375 -45.34375 C 15.234375 -44.46875 15.109375 -43.6875 15.109375 -43 L 15.109375 -31.109375 C 15.109375 -29.109375 15.550781 -27.984375 16.4375 -27.734375 C 17.363281 -27.492188 18.125 -27.375 18.71875 -27.375 Z M 45.28125 -42.640625 C 45.320312 -42.640625 45.367188 -42.613281 45.421875 -42.5625 L 45.5625 -42.40625 C 45.613281 -42.363281 45.640625 -42.316406 45.640625 -42.265625 C 45.691406 -42.210938 45.71875 -42.140625 45.71875 -42.046875 L 45.71875 -30.671875 C 45.613281 -29.347656 45.296875 -28.003906 44.765625 -26.640625 C 44.273438 -25.316406 43.6875 -24.09375 43 -22.96875 C 42.65625 -22.425781 42.3125 -21.910156 41.96875 -21.421875 C 41.625 -20.929688 41.285156 -20.492188 40.953125 -20.109375 C 40.703125 -19.859375 40.476562 -19.660156 40.28125 -19.515625 C 40.082031 -19.367188 39.863281 -19.222656 39.625 -19.078125 C 44.070312 -9.390625 50.722656 5.140625 59.578125 24.515625 C 59.628906 24.554688 59.65625 24.601562 59.65625 24.65625 C 59.707031 24.707031 59.734375 24.78125 59.734375 24.875 L 59.734375 25.015625 C 59.679688 25.117188 59.65625 25.195312 59.65625 25.25 L 59.515625 25.390625 L 59.359375 25.53125 C 59.316406 25.53125 59.269531 25.554688 59.21875 25.609375 C 59.164062 25.609375 59.117188 25.632812 59.078125 25.6875 L 58.84375 25.6875 C 58.800781 25.632812 58.726562 25.609375 58.625 25.609375 C 58.582031 25.609375 58.535156 25.582031 58.484375 25.53125 L 58.265625 25.3125 L 58.265625 25.25 C 53.765625 15.414062 47.015625 0.6875 38.015625 -18.9375 C 38.015625 -18.976562 37.988281 -19.023438 37.9375 -19.078125 L 37.9375 -19.453125 C 37.9375 -19.546875 37.960938 -19.617188 38.015625 -19.671875 L 38.15625 -19.8125 C 38.15625 -19.863281 38.179688 -19.910156 38.234375 -19.953125 L 38.375 -19.953125 L 38.453125 -20.03125 C 38.546875 -20.03125 38.71875 -20.15625 38.96875 -20.40625 C 39.207031 -20.59375 39.472656 -20.835938 39.765625 -21.140625 C 40.066406 -21.472656 40.382812 -21.863281 40.71875 -22.3125 C 41.019531 -22.75 41.335938 -23.238281 41.671875 -23.78125 C 42.265625 -24.800781 42.804688 -25.925781 43.296875 -27.15625 C 43.785156 -28.375 44.078125 -29.570312 44.171875 -30.75 L 44.171875 -41.90625 C 44.171875 -42 44.195312 -42.070312 44.25 -42.125 C 44.25 -42.164062 44.273438 -42.210938 44.328125 -42.265625 C 44.328125 -42.359375 44.347656 -42.40625 44.390625 -42.40625 L 44.546875 -42.5625 L 44.609375 -42.640625 L 44.765625 -42.640625 C 44.859375 -42.679688 44.929688 -42.703125 44.984375 -42.703125 L 45.0625 -42.703125 C 45.101562 -42.703125 45.175781 -42.679688 45.28125 -42.640625 Z M 2.421875 -75.5 C 2.515625 -75.5 2.585938 -75.476562 2.640625 -75.4375 L 2.78125 -75.28125 C 2.832031 -75.238281 2.859375 -75.191406 2.859375 -75.140625 C 2.910156 -75.085938 2.9375 -75.039062 2.9375 -75 L 2.9375 -10.859375 C 2.9375 -10.765625 2.910156 -10.691406 2.859375 -10.640625 C 2.859375 -10.585938 2.832031 -10.539062 2.78125 -10.5 L 2.640625 -10.34375 C 2.585938 -10.289062 2.539062 -10.265625 2.5 -10.265625 C 2.445312 -10.222656 2.394531 -10.203125 2.34375 -10.203125 L 2.125 -10.203125 C 2.070312 -10.203125 2 -10.222656 1.90625 -10.265625 C 1.851562 -10.265625 1.804688 -10.289062 1.765625 -10.34375 C 1.710938 -10.34375 1.660156 -10.367188 1.609375 -10.421875 C 1.566406 -10.472656 1.546875 -10.546875 1.546875 -10.640625 C 1.492188 -10.691406 1.46875 -10.738281 1.46875 -10.78125 L 1.390625 -10.859375 L 1.390625 -74.84375 C 1.441406 -74.894531 1.46875 -74.96875 1.46875 -75.0625 C 1.46875 -75.113281 1.492188 -75.164062 1.546875 -75.21875 L 1.6875 -75.359375 C 1.738281 -75.410156 1.785156 -75.4375 1.828125 -75.4375 C 1.828125 -75.476562 1.851562 -75.5 1.90625 -75.5 L 1.984375 -75.5 C 2.078125 -75.550781 2.148438 -75.578125 2.203125 -75.578125 L 2.28125 -75.578125 C 2.320312 -75.578125 2.367188 -75.550781 2.421875 -75.5 Z M 2.421875 -75.5 "/></g></g></g><g fill="#38b6ff" fill-opacity="1"><g transform="translate(587.813517, 245.866614)"><g><path d="M 11.296875 -54.296875 C 14.867188 -54.253906 22.015625 -54.234375 32.734375 -54.234375 C 33.554688 -54.179688 34.191406 -53.8125 34.640625 -53.125 C 35.023438 -52.4375 35.195312 -51.484375 35.15625 -50.265625 C 35.050781 -49.085938 34.804688 -48.207031 34.421875 -47.625 C 34.023438 -47.039062 33.554688 -46.75 33.015625 -46.75 L 18.859375 -46.75 C 16.898438 -46.75 15.773438 -46.28125 15.484375 -45.34375 C 15.191406 -44.414062 15.046875 -43.5625 15.046875 -42.78125 L 15.046875 -35.21875 C 15.046875 -33.164062 15.507812 -31.992188 16.4375 -31.703125 C 17.320312 -31.453125 18.03125 -31.328125 18.5625 -31.328125 L 28.546875 -31.328125 C 29.328125 -31.328125 29.914062 -30.863281 30.3125 -29.9375 C 30.695312 -29.007812 30.84375 -28.03125 30.75 -27 C 30.695312 -26.164062 30.5 -25.429688 30.15625 -24.796875 C 29.769531 -24.117188 29.234375 -23.800781 28.546875 -23.84375 L 18.484375 -23.84375 C 16.722656 -23.84375 15.722656 -23.378906 15.484375 -22.453125 C 15.191406 -21.578125 15.046875 -20.695312 15.046875 -19.8125 L 15.046875 -11.453125 C 15.046875 -9.492188 15.484375 -8.367188 16.359375 -8.078125 C 17.242188 -7.828125 17.976562 -7.703125 18.5625 -7.703125 L 32.953125 -7.703125 C 34.609375 -7.503906 35.4375 -6.351562 35.4375 -4.25 L 35.4375 -3.8125 C 35.289062 -1.414062 34.554688 -0.21875 33.234375 -0.21875 C 28.492188 -0.21875 21.398438 -0.242188 11.953125 -0.296875 C 11.660156 -0.242188 11.367188 -0.21875 11.078125 -0.21875 C 10.734375 -0.269531 10.414062 -0.34375 10.125 -0.4375 C 9.832031 -0.539062 9.5625 -0.664062 9.3125 -0.8125 C 9.019531 -1 8.773438 -1.191406 8.578125 -1.390625 C 8.390625 -1.640625 8.222656 -1.910156 8.078125 -2.203125 C 7.929688 -2.492188 7.804688 -2.765625 7.703125 -3.015625 C 7.648438 -3.160156 7.601562 -3.328125 7.5625 -3.515625 L 7.5625 -3.96875 C 7.601562 -14.476562 7.625 -30.273438 7.625 -51.359375 C 7.726562 -51.660156 7.851562 -51.957031 8 -52.25 C 8.144531 -52.539062 8.316406 -52.785156 8.515625 -52.984375 C 8.710938 -53.222656 8.957031 -53.414062 9.25 -53.5625 C 9.488281 -53.757812 9.753906 -53.929688 10.046875 -54.078125 C 10.191406 -54.128906 10.414062 -54.179688 10.71875 -54.234375 C 10.957031 -54.273438 11.050781 -54.296875 11 -54.296875 L 10.9375 -54.296875 C 10.882812 -54.253906 10.90625 -54.234375 11 -54.234375 C 11.15625 -54.273438 11.253906 -54.296875 11.296875 -54.296875 Z M 25.96875 -59.515625 L 26.34375 -59.515625 L 26.484375 -59.359375 L 26.640625 -59.21875 L 26.78125 -59.078125 L 26.78125 -58.78125 C 26.832031 -58.78125 26.832031 -58.753906 26.78125 -58.703125 L 26.78125 -58.484375 C 26.726562 -58.429688 26.703125 -58.382812 26.703125 -58.34375 L 26.5625 -58.1875 C 26.507812 -58.132812 26.460938 -58.109375 26.421875 -58.109375 C 26.367188 -58.066406 26.296875 -58.046875 26.203125 -58.046875 C 26.203125 -57.992188 26.175781 -57.96875 26.125 -57.96875 L 9.546875 -57.96875 C 8.953125 -57.96875 8.335938 -57.867188 7.703125 -57.671875 C 7.015625 -57.429688 6.40625 -57.015625 5.875 -56.421875 C 5.28125 -55.890625 4.789062 -55.132812 4.40625 -54.15625 C 4.007812 -53.175781 3.8125 -51.925781 3.8125 -50.40625 L 3.8125 -10.5 C 3.8125 -10.394531 3.789062 -10.316406 3.75 -10.265625 C 3.75 -10.222656 3.722656 -10.175781 3.671875 -10.125 L 3.515625 -9.984375 C 3.472656 -9.929688 3.425781 -9.90625 3.375 -9.90625 C 3.320312 -9.851562 3.25 -9.828125 3.15625 -9.828125 L 2.78125 -9.828125 L 2.640625 -9.984375 C 2.585938 -9.984375 2.539062 -10.003906 2.5 -10.046875 C 2.445312 -10.097656 2.421875 -10.148438 2.421875 -10.203125 C 2.367188 -10.296875 2.34375 -10.367188 2.34375 -10.421875 C 2.300781 -10.421875 2.28125 -10.445312 2.28125 -10.5 L 2.28125 -50.40625 C 2.28125 -52.070312 2.523438 -53.492188 3.015625 -54.671875 C 3.453125 -55.835938 4.035156 -56.789062 4.765625 -57.53125 C 5.453125 -58.257812 6.238281 -58.773438 7.125 -59.078125 C 7.945312 -59.367188 8.753906 -59.515625 9.546875 -59.515625 Z M 25.96875 -59.515625 "/></g></g></g><g fill="#38b6ff" fill-opacity="1"><g transform="translate(633.085793, 245.866614)"><g><path d="M 11.296875 -54.15625 L 32.796875 -54.15625 C 33.773438 -54.007812 34.535156 -53.617188 35.078125 -52.984375 C 35.515625 -52.390625 35.734375 -51.601562 35.734375 -50.625 L 35.734375 -50.265625 C 35.679688 -49.085938 35.410156 -48.207031 34.921875 -47.625 C 34.429688 -46.988281 33.820312 -46.671875 33.09375 -46.671875 L 18.78125 -46.671875 C 16.820312 -46.671875 15.722656 -46.226562 15.484375 -45.34375 C 15.191406 -44.46875 15.046875 -43.734375 15.046875 -43.140625 L 15.046875 -35.078125 C 15.046875 -33.023438 15.507812 -31.875 16.4375 -31.625 C 17.363281 -31.382812 18.144531 -31.265625 18.78125 -31.265625 L 28.546875 -31.265625 C 30.054688 -31.265625 30.960938 -30.382812 31.265625 -28.625 C 31.554688 -26.851562 31.257812 -25.484375 30.375 -24.515625 C 30.132812 -24.265625 29.867188 -24.066406 29.578125 -23.921875 C 29.273438 -23.773438 28.929688 -23.703125 28.546875 -23.703125 L 19.296875 -23.703125 C 17.097656 -23.703125 15.828125 -23.1875 15.484375 -22.15625 C 15.191406 -21.132812 15.046875 -20.207031 15.046875 -19.375 L 15.046875 -4.1875 C 15.046875 -3.894531 15.019531 -3.578125 14.96875 -3.234375 C 14.96875 -2.929688 14.894531 -2.632812 14.75 -2.34375 C 14.65625 -2.050781 14.507812 -1.785156 14.3125 -1.546875 C 14.113281 -1.296875 13.894531 -1.070312 13.65625 -0.875 C 13.40625 -0.6875 13.132812 -0.515625 12.84375 -0.359375 C 12.550781 -0.265625 12.253906 -0.191406 11.953125 -0.140625 C 11.710938 -0.0976562 11.492188 -0.078125 11.296875 -0.078125 L 11 -0.078125 C 10.664062 -0.117188 10.347656 -0.191406 10.046875 -0.296875 C 9.753906 -0.390625 9.488281 -0.535156 9.25 -0.734375 C 9 -0.878906 8.753906 -1.078125 8.515625 -1.328125 C 8.316406 -1.566406 8.144531 -1.804688 8 -2.046875 L 7.703125 -2.9375 C 7.609375 -3.082031 7.5625 -3.226562 7.5625 -3.375 L 7.5625 -3.890625 C 7.601562 -14.410156 7.625 -30.210938 7.625 -51.296875 C 7.726562 -51.585938 7.851562 -51.878906 8 -52.171875 C 8.144531 -52.421875 8.316406 -52.664062 8.515625 -52.90625 C 8.710938 -53.15625 8.957031 -53.351562 9.25 -53.5 C 9.488281 -53.6875 9.753906 -53.832031 10.046875 -53.9375 C 10.191406 -54.03125 10.414062 -54.101562 10.71875 -54.15625 C 10.8125 -54.15625 10.894531 -54.15625 10.96875 -54.15625 C 11.039062 -54.15625 11.050781 -54.15625 11 -54.15625 L 10.9375 -54.15625 C 10.882812 -54.15625 10.867188 -54.15625 10.890625 -54.15625 C 10.921875 -54.15625 10.957031 -54.15625 11 -54.15625 Z M 26.125 -59.359375 L 26.265625 -59.359375 C 26.316406 -59.316406 26.390625 -59.296875 26.484375 -59.296875 C 26.535156 -59.242188 26.585938 -59.21875 26.640625 -59.21875 L 26.78125 -59.078125 C 26.832031 -59.023438 26.859375 -58.945312 26.859375 -58.84375 C 26.910156 -58.800781 26.9375 -58.753906 26.9375 -58.703125 L 26.9375 -58.484375 C 26.9375 -58.429688 26.910156 -58.382812 26.859375 -58.34375 C 26.859375 -58.289062 26.832031 -58.210938 26.78125 -58.109375 C 26.78125 -58.066406 26.753906 -58.019531 26.703125 -57.96875 C 26.660156 -57.96875 26.585938 -57.941406 26.484375 -57.890625 C 26.441406 -57.847656 26.394531 -57.828125 26.34375 -57.828125 L 9.609375 -57.828125 C 9.023438 -57.828125 8.414062 -57.703125 7.78125 -57.453125 C 7.144531 -57.210938 6.53125 -56.820312 5.9375 -56.28125 C 5.40625 -55.695312 4.941406 -54.914062 4.546875 -53.9375 C 4.160156 -53.007812 3.96875 -51.757812 3.96875 -50.1875 L 3.96875 -10.265625 C 3.914062 -10.222656 3.890625 -10.175781 3.890625 -10.125 C 3.835938 -10.03125 3.8125 -9.957031 3.8125 -9.90625 L 3.671875 -9.765625 C 3.617188 -9.765625 3.546875 -9.738281 3.453125 -9.6875 C 3.398438 -9.6875 3.347656 -9.660156 3.296875 -9.609375 L 3.078125 -9.609375 C 3.035156 -9.609375 2.988281 -9.632812 2.9375 -9.6875 C 2.882812 -9.6875 2.8125 -9.710938 2.71875 -9.765625 L 2.5625 -9.90625 C 2.5625 -9.957031 2.539062 -10.003906 2.5 -10.046875 C 2.445312 -10.097656 2.421875 -10.148438 2.421875 -10.203125 L 2.421875 -50.1875 C 2.421875 -51.90625 2.640625 -53.347656 3.078125 -54.515625 C 3.566406 -55.640625 4.179688 -56.570312 4.921875 -57.3125 C 5.648438 -58.039062 6.429688 -58.550781 7.265625 -58.84375 C 8.097656 -59.1875 8.878906 -59.359375 9.609375 -59.359375 Z M 26.125 -59.359375 "/></g></g></g><g fill="#38b6ff" fill-opacity="1"><g transform="translate(676.890572, 245.866614)"><g><path d="M 14.890625 -50.265625 L 14.890625 -4.03125 C 14.796875 -2.175781 13.742188 -1.25 11.734375 -1.25 L 11.078125 -1.25 C 8.628906 -1.445312 7.40625 -2.28125 7.40625 -3.75 C 7.40625 -13.96875 7.429688 -29.273438 7.484375 -49.671875 C 7.484375 -52.023438 8.734375 -53.226562 11.234375 -53.28125 L 11.296875 -53.28125 C 13.691406 -53.28125 14.890625 -52.273438 14.890625 -50.265625 Z M 3.015625 -63.625 C 3.054688 -63.625 3.101562 -63.597656 3.15625 -63.546875 L 3.296875 -63.40625 C 3.347656 -63.351562 3.375 -63.300781 3.375 -63.25 C 3.425781 -63.207031 3.453125 -63.160156 3.453125 -63.109375 L 3.453125 -8.359375 C 3.453125 -8.316406 3.425781 -8.269531 3.375 -8.21875 C 3.375 -8.164062 3.347656 -8.117188 3.296875 -8.078125 L 3.15625 -7.921875 L 3.015625 -7.78125 L 2.859375 -7.78125 C 2.804688 -7.78125 2.757812 -7.753906 2.71875 -7.703125 L 2.640625 -7.78125 L 2.421875 -7.78125 C 2.367188 -7.78125 2.320312 -7.804688 2.28125 -7.859375 L 2.125 -8 C 2.070312 -8.050781 2.046875 -8.097656 2.046875 -8.140625 C 2.003906 -8.191406 1.984375 -8.265625 1.984375 -8.359375 C 1.929688 -8.359375 1.90625 -8.382812 1.90625 -8.4375 L 1.90625 -62.953125 C 1.90625 -63.003906 1.929688 -63.054688 1.984375 -63.109375 C 1.984375 -63.203125 2.003906 -63.273438 2.046875 -63.328125 C 2.046875 -63.378906 2.070312 -63.425781 2.125 -63.46875 C 2.175781 -63.519531 2.226562 -63.546875 2.28125 -63.546875 L 2.34375 -63.625 C 2.394531 -63.625 2.445312 -63.644531 2.5 -63.6875 L 2.78125 -63.6875 C 2.832031 -63.6875 2.910156 -63.664062 3.015625 -63.625 Z M 3.015625 -63.625 "/></g></g></g><g fill="#38b6ff" fill-opacity="1"><g transform="translate(699.490023, 245.866614)"><g><path d="M 42.484375 -51.359375 C 42.429688 -43.628906 42.332031 -28.050781 42.1875 -4.625 C 42.238281 -4.332031 42.265625 -4.015625 42.265625 -3.671875 C 42.210938 -3.378906 42.140625 -3.082031 42.046875 -2.78125 C 41.953125 -2.488281 41.828125 -2.195312 41.671875 -1.90625 L 41.09375 -1.171875 C 40.84375 -0.972656 40.570312 -0.800781 40.28125 -0.65625 C 39.988281 -0.5625 39.722656 -0.441406 39.484375 -0.296875 C 39.335938 -0.242188 39.164062 -0.21875 38.96875 -0.21875 L 33.609375 -0.21875 C 33.265625 -0.21875 32.945312 -0.242188 32.65625 -0.296875 C 32.363281 -0.335938 32.066406 -0.4375 31.765625 -0.59375 C 31.472656 -0.738281 31.234375 -0.90625 31.046875 -1.09375 C 30.796875 -1.289062 30.570312 -1.515625 30.375 -1.765625 C 30.226562 -1.859375 30.128906 -1.976562 30.078125 -2.125 L 29.9375 -2.5625 C 27.34375 -9.164062 23.476562 -19.023438 18.34375 -32.140625 C 17.851562 -33.265625 17.117188 -33.628906 16.140625 -33.234375 C 15.210938 -32.898438 14.820312 -32.191406 14.96875 -31.109375 L 14.96875 -2.78125 C 14.820312 -2.050781 14.429688 -1.441406 13.796875 -0.953125 C 13.160156 -0.460938 12.28125 -0.242188 11.15625 -0.296875 C 9.976562 -0.296875 9.070312 -0.515625 8.4375 -0.953125 C 7.800781 -1.390625 7.484375 -1.878906 7.484375 -2.421875 C 7.484375 -12.984375 7.507812 -28.785156 7.5625 -49.828125 C 7.507812 -50.117188 7.484375 -50.4375 7.484375 -50.78125 C 7.484375 -51.070312 7.53125 -51.363281 7.625 -51.65625 C 7.726562 -51.945312 7.878906 -52.242188 8.078125 -52.546875 C 8.222656 -52.785156 8.414062 -53.03125 8.65625 -53.28125 C 8.90625 -53.46875 9.175781 -53.632812 9.46875 -53.78125 C 9.707031 -53.882812 9.972656 -54.007812 10.265625 -54.15625 C 10.421875 -54.207031 10.570312 -54.234375 10.71875 -54.234375 L 14.96875 -54.234375 C 15.257812 -54.234375 15.578125 -54.207031 15.921875 -54.15625 C 16.210938 -54.101562 16.503906 -54.003906 16.796875 -53.859375 C 17.046875 -53.765625 17.289062 -53.59375 17.53125 -53.34375 C 17.78125 -53.144531 18.003906 -52.925781 18.203125 -52.6875 C 18.296875 -52.59375 18.390625 -52.46875 18.484375 -52.3125 L 18.640625 -51.875 C 21.429688 -44.738281 25.640625 -34.023438 31.265625 -19.734375 C 31.847656 -18.515625 32.601562 -18.125 33.53125 -18.5625 C 34.414062 -19 34.859375 -19.757812 34.859375 -20.84375 L 35.078125 -50.78125 C 34.785156 -52.882812 35.957031 -53.984375 38.59375 -54.078125 C 41.1875 -54.179688 42.484375 -53.273438 42.484375 -51.359375 Z M 10.71875 -59.578125 L 14.96875 -59.578125 C 17.90625 -59.578125 20.054688 -58.96875 21.421875 -57.75 C 22.796875 -56.476562 23.703125 -55.304688 24.140625 -54.234375 C 25.609375 -50.316406 27.832031 -44.492188 30.8125 -36.765625 L 30.8125 -36.171875 C 30.769531 -36.128906 30.75 -36.082031 30.75 -36.03125 L 30.453125 -35.734375 L 30.234375 -35.734375 C 30.179688 -35.679688 30.128906 -35.65625 30.078125 -35.65625 C 29.984375 -35.65625 29.910156 -35.679688 29.859375 -35.734375 C 29.816406 -35.734375 29.769531 -35.757812 29.71875 -35.8125 C 29.664062 -35.8125 29.617188 -35.832031 29.578125 -35.875 L 29.421875 -36.03125 C 29.421875 -36.082031 29.398438 -36.109375 29.359375 -36.109375 L 29.359375 -36.25 L 22.75 -53.640625 C 22.351562 -54.566406 21.617188 -55.519531 20.546875 -56.5 C 19.472656 -57.53125 17.613281 -58.046875 14.96875 -58.046875 L 10.71875 -58.046875 C 10.082031 -58.085938 9.347656 -57.988281 8.515625 -57.75 C 7.679688 -57.550781 6.894531 -57.207031 6.15625 -56.71875 C 5.425781 -56.226562 4.816406 -55.59375 4.328125 -54.8125 C 3.785156 -54.03125 3.492188 -53.003906 3.453125 -51.734375 L 3.453125 9.546875 C 3.398438 9.640625 3.375 9.710938 3.375 9.765625 C 3.320312 9.804688 3.296875 9.851562 3.296875 9.90625 L 3.15625 10.046875 C 3.101562 10.097656 3.054688 10.125 3.015625 10.125 C 2.910156 10.175781 2.832031 10.203125 2.78125 10.203125 L 2.421875 10.203125 C 2.367188 10.148438 2.320312 10.125 2.28125 10.125 C 2.175781 10.070312 2.125 10.023438 2.125 9.984375 L 1.984375 9.828125 C 1.984375 9.785156 1.957031 9.710938 1.90625 9.609375 L 1.90625 -51.8125 C 1.957031 -53.269531 2.328125 -54.539062 3.015625 -55.625 C 3.648438 -56.644531 4.40625 -57.453125 5.28125 -58.046875 C 6.207031 -58.628906 7.140625 -59.046875 8.078125 -59.296875 C 8.953125 -59.484375 9.757812 -59.578125 10.5 -59.578125 Z M 10.71875 -59.578125 "/></g></g></g><g fill="#38b6ff" fill-opacity="1"><g transform="translate(749.238164, 245.866614)"><g><path d="M 11.296875 -54.296875 C 14.867188 -54.253906 22.015625 -54.234375 32.734375 -54.234375 C 33.554688 -54.179688 34.191406 -53.8125 34.640625 -53.125 C 35.023438 -52.4375 35.195312 -51.484375 35.15625 -50.265625 C 35.050781 -49.085938 34.804688 -48.207031 34.421875 -47.625 C 34.023438 -47.039062 33.554688 -46.75 33.015625 -46.75 L 18.859375 -46.75 C 16.898438 -46.75 15.773438 -46.28125 15.484375 -45.34375 C 15.191406 -44.414062 15.046875 -43.5625 15.046875 -42.78125 L 15.046875 -35.21875 C 15.046875 -33.164062 15.507812 -31.992188 16.4375 -31.703125 C 17.320312 -31.453125 18.03125 -31.328125 18.5625 -31.328125 L 28.546875 -31.328125 C 29.328125 -31.328125 29.914062 -30.863281 30.3125 -29.9375 C 30.695312 -29.007812 30.84375 -28.03125 30.75 -27 C 30.695312 -26.164062 30.5 -25.429688 30.15625 -24.796875 C 29.769531 -24.117188 29.234375 -23.800781 28.546875 -23.84375 L 18.484375 -23.84375 C 16.722656 -23.84375 15.722656 -23.378906 15.484375 -22.453125 C 15.191406 -21.578125 15.046875 -20.695312 15.046875 -19.8125 L 15.046875 -11.453125 C 15.046875 -9.492188 15.484375 -8.367188 16.359375 -8.078125 C 17.242188 -7.828125 17.976562 -7.703125 18.5625 -7.703125 L 32.953125 -7.703125 C 34.609375 -7.503906 35.4375 -6.351562 35.4375 -4.25 L 35.4375 -3.8125 C 35.289062 -1.414062 34.554688 -0.21875 33.234375 -0.21875 C 28.492188 -0.21875 21.398438 -0.242188 11.953125 -0.296875 C 11.660156 -0.242188 11.367188 -0.21875 11.078125 -0.21875 C 10.734375 -0.269531 10.414062 -0.34375 10.125 -0.4375 C 9.832031 -0.539062 9.5625 -0.664062 9.3125 -0.8125 C 9.019531 -1 8.773438 -1.191406 8.578125 -1.390625 C 8.390625 -1.640625 8.222656 -1.910156 8.078125 -2.203125 C 7.929688 -2.492188 7.804688 -2.765625 7.703125 -3.015625 C 7.648438 -3.160156 7.601562 -3.328125 7.5625 -3.515625 L 7.5625 -3.96875 C 7.601562 -14.476562 7.625 -30.273438 7.625 -51.359375 C 7.726562 -51.660156 7.851562 -51.957031 8 -52.25 C 8.144531 -52.539062 8.316406 -52.785156 8.515625 -52.984375 C 8.710938 -53.222656 8.957031 -53.414062 9.25 -53.5625 C 9.488281 -53.757812 9.753906 -53.929688 10.046875 -54.078125 C 10.191406 -54.128906 10.414062 -54.179688 10.71875 -54.234375 C 10.957031 -54.273438 11.050781 -54.296875 11 -54.296875 L 10.9375 -54.296875 C 10.882812 -54.253906 10.90625 -54.234375 11 -54.234375 C 11.15625 -54.273438 11.253906 -54.296875 11.296875 -54.296875 Z M 25.96875 -59.515625 L 26.34375 -59.515625 L 26.484375 -59.359375 L 26.640625 -59.21875 L 26.78125 -59.078125 L 26.78125 -58.78125 C 26.832031 -58.78125 26.832031 -58.753906 26.78125 -58.703125 L 26.78125 -58.484375 C 26.726562 -58.429688 26.703125 -58.382812 26.703125 -58.34375 L 26.5625 -58.1875 C 26.507812 -58.132812 26.460938 -58.109375 26.421875 -58.109375 C 26.367188 -58.066406 26.296875 -58.046875 26.203125 -58.046875 C 26.203125 -57.992188 26.175781 -57.96875 26.125 -57.96875 L 9.546875 -57.96875 C 8.953125 -57.96875 8.335938 -57.867188 7.703125 -57.671875 C 7.015625 -57.429688 6.40625 -57.015625 5.875 -56.421875 C 5.28125 -55.890625 4.789062 -55.132812 4.40625 -54.15625 C 4.007812 -53.175781 3.8125 -51.925781 3.8125 -50.40625 L 3.8125 -10.5 C 3.8125 -10.394531 3.789062 -10.316406 3.75 -10.265625 C 3.75 -10.222656 3.722656 -10.175781 3.671875 -10.125 L 3.515625 -9.984375 C 3.472656 -9.929688 3.425781 -9.90625 3.375 -9.90625 C 3.320312 -9.851562 3.25 -9.828125 3.15625 -9.828125 L 2.78125 -9.828125 L 2.640625 -9.984375 C 2.585938 -9.984375 2.539062 -10.003906 2.5 -10.046875 C 2.445312 -10.097656 2.421875 -10.148438 2.421875 -10.203125 C 2.367188 -10.296875 2.34375 -10.367188 2.34375 -10.421875 C 2.300781 -10.421875 2.28125 -10.445312 2.28125 -10.5 L 2.28125 -50.40625 C 2.28125 -52.070312 2.523438 -53.492188 3.015625 -54.671875 C 3.453125 -55.835938 4.035156 -56.789062 4.765625 -57.53125 C 5.453125 -58.257812 6.238281 -58.773438 7.125 -59.078125 C 7.945312 -59.367188 8.753906 -59.515625 9.546875 -59.515625 Z M 25.96875 -59.515625 "/></g></g></g><g fill="#38b6ff" fill-opacity="1"><g transform="translate(794.51044, 245.866614)"><g><path d="M 11.296875 -54.15625 L 28.84375 -54.15625 C 29.132812 -54.15625 29.328125 -54.128906 29.421875 -54.078125 L 29.796875 -54.078125 C 31.359375 -53.691406 32.773438 -53.101562 34.046875 -52.3125 C 35.367188 -51.53125 36.445312 -50.578125 37.28125 -49.453125 C 38.113281 -48.378906 38.75 -47.234375 39.1875 -46.015625 C 39.625 -44.785156 39.941406 -43.632812 40.140625 -42.5625 C 40.191406 -42.269531 40.21875 -42.070312 40.21875 -41.96875 L 40.21875 -41.609375 C 40.21875 -35.046875 40.191406 -25.1875 40.140625 -12.03125 C 40.191406 -11.738281 40.21875 -11.546875 40.21875 -11.453125 L 40.21875 -11.078125 C 39.96875 -9.078125 39.40625 -7.316406 38.53125 -5.796875 C 37.644531 -4.234375 36.539062 -3.007812 35.21875 -2.125 C 33.894531 -1.289062 32.523438 -0.753906 31.109375 -0.515625 C 29.742188 -0.222656 28.445312 -0.078125 27.21875 -0.078125 C 23.84375 -0.117188 18.753906 -0.140625 11.953125 -0.140625 C 11.660156 -0.0976562 11.367188 -0.0976562 11.078125 -0.140625 C 10.734375 -0.140625 10.414062 -0.191406 10.125 -0.296875 C 9.832031 -0.390625 9.5625 -0.535156 9.3125 -0.734375 C 9.019531 -0.878906 8.773438 -1.078125 8.578125 -1.328125 C 8.390625 -1.515625 8.222656 -1.753906 8.078125 -2.046875 C 7.929688 -2.347656 7.804688 -2.644531 7.703125 -2.9375 L 7.5625 -3.375 L 7.5625 -3.8125 C 7.601562 -14.382812 7.625 -30.1875 7.625 -51.21875 C 7.726562 -51.507812 7.851562 -51.800781 8 -52.09375 C 8.144531 -52.394531 8.316406 -52.664062 8.515625 -52.90625 C 8.710938 -53.15625 8.957031 -53.351562 9.25 -53.5 C 9.488281 -53.644531 9.753906 -53.789062 10.046875 -53.9375 C 10.191406 -53.976562 10.414062 -54.023438 10.71875 -54.078125 C 10.957031 -54.128906 11.050781 -54.15625 11 -54.15625 L 10.9375 -54.15625 C 10.882812 -54.15625 10.867188 -54.15625 10.890625 -54.15625 C 10.921875 -54.15625 10.957031 -54.15625 11 -54.15625 Z M 19.078125 -7.625 L 27.21875 -7.625 C 28.050781 -7.625 28.8125 -7.703125 29.5 -7.859375 C 30.1875 -8.003906 30.722656 -8.195312 31.109375 -8.4375 C 31.453125 -8.6875 31.769531 -9.03125 32.0625 -9.46875 C 32.351562 -9.90625 32.578125 -10.6875 32.734375 -11.8125 L 32.734375 -41.09375 C 32.578125 -41.925781 32.378906 -42.660156 32.140625 -43.296875 C 31.890625 -43.929688 31.617188 -44.46875 31.328125 -44.90625 C 31.035156 -45.25 30.671875 -45.566406 30.234375 -45.859375 C 29.796875 -46.203125 29.179688 -46.472656 28.390625 -46.671875 L 18.859375 -46.671875 C 16.847656 -46.671875 15.722656 -46.207031 15.484375 -45.28125 C 15.191406 -44.394531 15.046875 -43.660156 15.046875 -43.078125 L 15.046875 -11.890625 C 15.046875 -9.585938 15.554688 -8.316406 16.578125 -8.078125 C 17.609375 -7.773438 18.441406 -7.625 19.078125 -7.625 Z M 3.296875 -44.6875 C 3.347656 -44.6875 3.398438 -44.660156 3.453125 -44.609375 L 3.59375 -44.46875 C 3.644531 -44.414062 3.671875 -44.367188 3.671875 -44.328125 C 3.722656 -44.273438 3.75 -44.222656 3.75 -44.171875 C 3.789062 -44.117188 3.8125 -44.070312 3.8125 -44.03125 L 3.8125 -4.1875 C 3.8125 -2.664062 4.007812 -1.414062 4.40625 -0.4375 C 4.789062 0.539062 5.253906 1.320312 5.796875 1.90625 C 6.378906 2.488281 6.988281 2.878906 7.625 3.078125 C 8.257812 3.328125 8.875 3.453125 9.46875 3.453125 L 26.125 3.453125 C 26.175781 3.453125 26.25 3.472656 26.34375 3.515625 C 26.394531 3.515625 26.441406 3.539062 26.484375 3.59375 L 26.640625 3.75 C 26.640625 3.789062 26.660156 3.835938 26.703125 3.890625 C 26.703125 3.941406 26.726562 4.015625 26.78125 4.109375 L 26.78125 4.25 C 26.78125 4.351562 26.753906 4.425781 26.703125 4.46875 C 26.703125 4.519531 26.679688 4.570312 26.640625 4.625 L 26.484375 4.765625 L 26.34375 4.921875 C 26.289062 4.921875 26.242188 4.941406 26.203125 4.984375 L 9.46875 4.984375 C 8.6875 4.984375 7.878906 4.835938 7.046875 4.546875 C 6.210938 4.203125 5.429688 3.664062 4.703125 2.9375 C 3.960938 2.25 3.375 1.296875 2.9375 0.078125 C 2.5 -1.097656 2.28125 -2.519531 2.28125 -4.1875 L 2.28125 -44.171875 C 2.28125 -44.222656 2.300781 -44.296875 2.34375 -44.390625 C 2.394531 -44.441406 2.421875 -44.492188 2.421875 -44.546875 C 2.472656 -44.585938 2.519531 -44.609375 2.5625 -44.609375 C 2.613281 -44.660156 2.664062 -44.6875 2.71875 -44.6875 L 2.78125 -44.6875 C 2.882812 -44.738281 2.960938 -44.765625 3.015625 -44.765625 L 3.078125 -44.765625 C 3.128906 -44.765625 3.203125 -44.738281 3.296875 -44.6875 Z M 3.296875 -44.6875 "/></g></g></g></svg>